# Blender 4.2.1 LTS
# www.blender.org
mtllib boss.mtl
o Cube
v -2.747823 20.287048 9.574919
v -2.747823 20.287048 -6.680199
v -2.747823 0.932501 9.574919
v -2.747823 0.932501 -6.680199
v -15.356769 20.287048 9.574919
v -15.356769 20.287048 -6.680199
v -15.356769 0.932501 9.574919
v -15.356769 0.932501 -6.680199
vn -0.0000 -0.0000 1.0000
vn -0.0000 -1.0000 -0.0000
vn -1.0000 -0.0000 -0.0000
vn -0.0000 -0.0000 -1.0000
vn 1.0000 -0.0000 -0.0000
vn -0.0000 1.0000 -0.0000
vt 0.875000 0.500000
vt 0.625000 0.750000
vt 0.625000 0.500000
vt 0.375000 1.000000
vt 0.375000 0.750000
vt 0.625000 0.000000
vt 0.375000 0.250000
vt 0.375000 0.000000
vt 0.375000 0.500000
vt 0.125000 0.750000
vt 0.125000 0.500000
vt 0.625000 0.250000
vt 0.875000 0.750000
vt 0.625000 1.000000
s 0
usemtl Material
f 5/1/1 3/2/1 1/3/1
f 3/2/2 8/4/2 4/5/2
f 7/6/3 6/7/3 8/8/3
f 2/9/4 8/10/4 6/11/4
f 1/3/5 4/5/5 2/9/5
f 5/12/6 2/9/6 6/7/6
f 5/1/1 7/13/1 3/2/1
f 3/2/2 7/14/2 8/4/2
f 7/6/3 5/12/3 6/7/3
f 2/9/4 4/5/4 8/10/4
f 1/3/5 3/2/5 4/5/5
f 5/12/6 1/3/6 2/9/6
o Cube.002
v 15.264657 20.075214 42.305607
v 15.264657 20.075214 9.522816
v 15.264657 1.144334 42.305607
v 15.264657 1.144334 9.522816
v -14.944858 20.075214 42.305607
v -14.944858 20.075214 9.522816
v -14.944858 1.144334 42.305607
v -14.944858 1.144334 9.522816
vn -0.0000 -0.0000 1.0000
vn -0.0000 -1.0000 -0.0000
vn -1.0000 -0.0000 -0.0000
vn -0.0000 -0.0000 -1.0000
vn 1.0000 -0.0000 -0.0000
vn -0.0000 1.0000 -0.0000
vt 0.875000 0.500000
vt 0.625000 0.750000
vt 0.625000 0.500000
vt 0.375000 1.000000
vt 0.375000 0.750000
vt 0.625000 0.000000
vt 0.375000 0.250000
vt 0.375000 0.000000
vt 0.375000 0.500000
vt 0.125000 0.750000
vt 0.125000 0.500000
vt 0.625000 0.250000
vt 0.875000 0.750000
vt 0.625000 1.000000
s 0
usemtl Material.002
f 13/15/7 11/16/7 9/17/7
f 11/16/8 16/18/8 12/19/8
f 15/20/9 14/21/9 16/22/9
f 10/23/10 16/24/10 14/25/10
f 9/17/11 12/19/11 10/23/11
f 13/26/12 10/23/12 14/21/12
f 13/15/7 15/27/7 11/16/7
f 11/16/8 15/28/8 16/18/8
f 15/20/9 13/26/9 14/21/9
f 10/23/10 12/19/10 16/24/10
f 9/17/11 11/16/11 12/19/11
f 13/26/12 9/17/12 10/23/12
o Cube.001
v 15.521499 20.287048 9.574919
v 15.521499 20.287048 -6.680199
v 15.521499 0.932501 9.574919
v 15.521499 0.932501 -6.680199
v 2.912553 20.287048 9.574919
v 2.912553 20.287048 -6.680199
v 2.912553 0.932501 9.574919
v 2.912553 0.932501 -6.680199
vn -0.0000 -0.0000 1.0000
vn -0.0000 -1.0000 -0.0000
vn -1.0000 -0.0000 -0.0000
vn -0.0000 -0.0000 -1.0000
vn 1.0000 -0.0000 -0.0000
vn -0.0000 1.0000 -0.0000
vt 0.875000 0.500000
vt 0.625000 0.750000
vt 0.625000 0.500000
vt 0.375000 1.000000
vt 0.375000 0.750000
vt 0.625000 0.000000
vt 0.375000 0.250000
vt 0.375000 0.000000
vt 0.375000 0.500000
vt 0.125000 0.750000
vt 0.125000 0.500000
vt 0.625000 0.250000
vt 0.875000 0.750000
vt 0.625000 1.000000
s 0
usemtl Material.003
f 21/29/13 19/30/13 17/31/13
f 19/30/14 24/32/14 20/33/14
f 23/34/15 22/35/15 24/36/15
f 18/37/16 24/38/16 22/39/16
f 17/31/17 20/33/17 18/37/17
f 21/40/18 18/37/18 22/35/18
f 21/29/13 23/41/13 19/30/13
f 19/30/14 23/42/14 24/32/14
f 23/34/15 21/40/15 22/35/15
f 18/37/16 20/33/16 24/38/16
f 17/31/17 19/30/17 20/33/17
f 21/40/18 17/31/18 18/37/18
o Cube.004
v -15.253411 12.748964 35.566952
v -15.253411 1.544168 23.790646
v -15.253411 3.614187 44.258411
v -15.253411 -7.590609 32.482105
v -27.862358 12.748964 35.566952
v -27.862358 1.544168 23.790646
v -27.862358 3.614187 44.258411
v -27.862358 -7.590609 32.482105
vn -0.0000 0.6893 0.7245
vn -0.0000 -0.7245 0.6893
vn -1.0000 -0.0000 -0.0000
vn -0.0000 -0.6893 -0.7245
vn 1.0000 -0.0000 -0.0000
vn -0.0000 0.7245 -0.6893
vt 0.875000 0.500000
vt 0.625000 0.750000
vt 0.625000 0.500000
vt 0.375000 1.000000
vt 0.375000 0.750000
vt 0.625000 0.000000
vt 0.375000 0.250000
vt 0.375000 0.000000
vt 0.375000 0.500000
vt 0.125000 0.750000
vt 0.125000 0.500000
vt 0.625000 0.250000
vt 0.875000 0.750000
vt 0.625000 1.000000
s 0
usemtl Material.005
f 29/43/19 27/44/19 25/45/19
f 27/44/20 32/46/20 28/47/20
f 31/48/21 30/49/21 32/50/21
f 26/51/22 32/52/22 30/53/22
f 25/45/23 28/47/23 26/51/23
f 29/54/24 26/51/24 30/49/24
f 29/43/19 31/55/19 27/44/19
f 27/44/20 31/56/20 32/46/20
f 31/48/21 29/54/21 30/49/21
f 26/51/22 28/47/22 32/52/22
f 25/45/23 27/44/23 28/47/23
f 29/54/24 25/45/24 26/51/24
o Cube.005
v 10.716616 20.075214 62.441063
v 10.716616 20.075214 42.306557
v 10.716616 1.144334 62.441063
v 10.716616 1.144334 42.306557
v -10.396816 20.075214 62.441063
v -10.396816 20.075214 42.306557
v -10.396816 1.144334 62.441063
v -10.396816 1.144334 42.306557
vn -0.0000 -0.0000 1.0000
vn -0.0000 -1.0000 -0.0000
vn -1.0000 -0.0000 -0.0000
vn -0.0000 -0.0000 -1.0000
vn 1.0000 -0.0000 -0.0000
vn -0.0000 1.0000 -0.0000
vt 0.875000 0.500000
vt 0.625000 0.750000
vt 0.625000 0.500000
vt 0.375000 1.000000
vt 0.375000 0.750000
vt 0.625000 0.000000
vt 0.375000 0.250000
vt 0.375000 0.000000
vt 0.375000 0.500000
vt 0.125000 0.750000
vt 0.125000 0.500000
vt 0.625000 0.250000
vt 0.875000 0.750000
vt 0.625000 1.000000
s 0
usemtl Material.006
f 37/57/25 35/58/25 33/59/25
f 35/58/26 40/60/26 36/61/26
f 39/62/27 38/63/27 40/64/27
f 34/65/28 40/66/28 38/67/28
f 33/59/29 36/61/29 34/65/29
f 37/68/30 34/65/30 38/63/30
f 37/57/25 39/69/25 35/58/25
f 35/58/26 39/70/26 40/60/26
f 39/62/27 37/68/27 38/63/27
f 34/65/28 36/61/28 40/66/28
f 33/59/29 35/58/29 36/61/29
f 37/68/30 33/59/30 34/65/30
o Cone
v -24.711884 -5.398664 30.282347
v -24.747343 -5.049880 29.931080
v -24.852364 -4.716982 29.590828
v -25.022907 -4.412764 29.274666
v -25.252420 -4.148917 28.994747
v -25.532082 -3.935581 28.761826
v -25.851145 -3.780953 28.584854
v -26.197350 -3.690976 28.470634
v -26.557392 -3.669108 28.423553
v -26.917433 -3.716189 28.445421
v -27.263638 -3.830410 28.535397
v -27.582701 -4.007382 28.690025
v -27.862362 -4.240303 28.903362
v -28.091875 -4.520222 29.167210
v -28.262419 -4.836382 29.471426
v -28.367439 -5.176634 29.804325
v -28.402901 -5.527902 30.153109
v -28.367439 -5.876687 30.504375
v -28.262419 -6.209584 30.844627
v -28.091875 -6.513802 31.160789
v -27.862362 -6.777649 31.440708
v -27.582701 -6.990985 31.673630
v -27.263638 -7.145613 31.850601
v -26.917433 -7.235590 31.964821
v -26.557390 -7.257458 32.011902
v -26.197350 -7.210377 31.990034
v -25.851145 -7.096156 31.900059
v -25.532082 -6.919184 31.745430
v -25.252420 -6.686264 31.532093
v -25.022907 -6.406344 31.268246
v -24.852364 -6.090184 30.964029
v -24.747343 -5.749932 30.631130
v -25.933788 -14.368244 21.312767
vn 0.9929 -0.0176 -0.1177
vn 0.9719 0.0807 -0.2210
vn 0.9274 0.1781 -0.3289
vn 0.8542 0.2748 -0.4414
vn 0.7446 0.3686 -0.5564
vn 0.5902 0.4539 -0.6675
vn 0.3865 0.5201 -0.7616
vn 0.1410 0.5537 -0.8207
vn -0.1216 0.5445 -0.8299
vn -0.3677 0.4937 -0.7881
vn -0.5724 0.4132 -0.7082
vn -0.7279 0.3171 -0.6080
vn -0.8384 0.2156 -0.5006
vn -0.9124 0.1137 -0.3933
vn -0.9574 0.0131 -0.2886
vn -0.9786 -0.0866 -0.1867
vn -0.9786 -0.1867 -0.0866
vn -0.9574 -0.2886 0.0131
vn -0.9124 -0.3933 0.1137
vn -0.8384 -0.5006 0.2156
vn -0.7279 -0.6080 0.3171
vn -0.5724 -0.7082 0.4132
vn -0.3677 -0.7881 0.4937
vn -0.1216 -0.8299 0.5445
vn 0.1410 -0.8207 0.5537
vn 0.3865 -0.7616 0.5201
vn 0.5902 -0.6675 0.4539
vn 0.7446 -0.5564 0.3686
vn 0.8542 -0.4414 0.2748
vn 0.9274 -0.3289 0.1781
vn -0.0495 0.7062 0.7062
vn 0.9719 -0.2210 0.0807
vn 0.9929 -0.1177 -0.0176
vt 0.250000 0.490000
vt 0.250000 0.250000
vt 0.296822 0.485388
vt 0.341844 0.471731
vt 0.383337 0.449553
vt 0.419706 0.419706
vt 0.449553 0.383337
vt 0.471731 0.341844
vt 0.485388 0.296822
vt 0.490000 0.250000
vt 0.485388 0.203178
vt 0.471731 0.158156
vt 0.449553 0.116663
vt 0.419706 0.080294
vt 0.383337 0.050447
vt 0.341844 0.028269
vt 0.296822 0.014612
vt 0.250000 0.010000
vt 0.203178 0.014612
vt 0.158156 0.028269
vt 0.116663 0.050447
vt 0.080294 0.080294
vt 0.050447 0.116663
vt 0.028269 0.158156
vt 0.014612 0.203178
vt 0.010000 0.250000
vt 0.014612 0.296822
vt 0.028269 0.341844
vt 0.050447 0.383337
vt 0.080294 0.419706
vt 0.116663 0.449553
vt 0.158156 0.471731
vt 0.796822 0.014612
vt 0.514612 0.203178
vt 0.703178 0.485388
vt 0.203178 0.485388
vt 0.750000 0.490000
vt 0.796822 0.485388
vt 0.841844 0.471731
vt 0.883337 0.449553
vt 0.919706 0.419706
vt 0.949553 0.383337
vt 0.971731 0.341844
vt 0.985388 0.296822
vt 0.990000 0.250000
vt 0.985388 0.203178
vt 0.971731 0.158156
vt 0.949553 0.116663
vt 0.919706 0.080294
vt 0.883337 0.050447
vt 0.841844 0.028269
vt 0.750000 0.010000
vt 0.703178 0.014612
vt 0.658156 0.028269
vt 0.616663 0.050447
vt 0.580294 0.080294
vt 0.550447 0.116663
vt 0.528269 0.158156
vt 0.510000 0.250000
vt 0.514612 0.296822
vt 0.528269 0.341844
vt 0.550447 0.383337
vt 0.580294 0.419706
vt 0.616663 0.449553
vt 0.658156 0.471731
s 0
f 41/71/31 73/72/31 42/73/31
f 42/73/32 73/72/32 43/74/32
f 43/74/33 73/72/33 44/75/33
f 44/75/34 73/72/34 45/76/34
f 45/76/35 73/72/35 46/77/35
f 46/77/36 73/72/36 47/78/36
f 47/78/37 73/72/37 48/79/37
f 48/79/38 73/72/38 49/80/38
f 49/80/39 73/72/39 50/81/39
f 50/81/40 73/72/40 51/82/40
f 51/82/41 73/72/41 52/83/41
f 52/83/42 73/72/42 53/84/42
f 53/84/43 73/72/43 54/85/43
f 54/85/44 73/72/44 55/86/44
f 55/86/45 73/72/45 56/87/45
f 56/87/46 73/72/46 57/88/46
f 57/88/47 73/72/47 58/89/47
f 58/89/48 73/72/48 59/90/48
f 59/90/49 73/72/49 60/91/49
f 60/91/50 73/72/50 61/92/50
f 61/92/51 73/72/51 62/93/51
f 62/93/52 73/72/52 63/94/52
f 63/94/53 73/72/53 64/95/53
f 64/95/54 73/72/54 65/96/54
f 65/96/55 73/72/55 66/97/55
f 66/97/56 73/72/56 67/98/56
f 67/98/57 73/72/57 68/99/57
f 68/99/58 73/72/58 69/100/58
f 69/100/59 73/72/59 70/101/59
f 70/101/60 73/72/60 71/102/60
f 56/103/61 64/104/61 72/105/61
f 71/102/62 73/72/62 72/106/62
f 72/106/63 73/72/63 41/71/63
f 72/105/61 41/107/61 42/108/61
f 42/108/61 43/109/61 44/110/61
f 44/110/61 45/111/61 46/112/61
f 46/112/61 47/113/61 48/114/61
f 48/114/61 49/115/61 50/116/61
f 50/116/61 51/117/61 52/118/61
f 52/118/61 53/119/61 54/120/61
f 54/120/61 55/121/61 56/103/61
f 56/103/61 57/122/61 58/123/61
f 58/123/61 59/124/61 60/125/61
f 60/125/61 61/126/61 62/127/61
f 62/127/61 63/128/61 64/104/61
f 64/104/61 65/129/61 66/130/61
f 66/130/61 67/131/61 68/132/61
f 68/132/61 69/133/61 70/134/61
f 70/134/61 71/135/61 72/105/61
f 72/105/61 42/108/61 44/110/61
f 44/110/61 46/112/61 48/114/61
f 48/114/61 50/116/61 52/118/61
f 52/118/61 54/120/61 56/103/61
f 56/103/61 58/123/61 60/125/61
f 60/125/61 62/127/61 64/104/61
f 64/104/61 66/130/61 68/132/61
f 68/132/61 70/134/61 72/105/61
f 72/105/61 44/110/61 48/114/61
f 48/114/61 52/118/61 56/103/61
f 56/103/61 60/125/61 64/104/61
f 64/104/61 68/132/61 72/105/61
f 72/105/61 48/114/61 56/103/61
o Cone.001
v -19.763889 -5.398664 30.282347
v -19.799349 -5.049880 29.931080
v -19.904369 -4.716982 29.590828
v -20.074913 -4.412764 29.274666
v -20.304426 -4.148917 28.994747
v -20.584087 -3.935581 28.761826
v -20.903151 -3.780953 28.584854
v -21.249355 -3.690976 28.470634
v -21.609398 -3.669108 28.423553
v -21.969439 -3.716189 28.445421
v -22.315643 -3.830410 28.535397
v -22.634706 -4.007382 28.690025
v -22.914368 -4.240303 28.903362
v -23.143881 -4.520222 29.167210
v -23.314425 -4.836382 29.471426
v -23.419445 -5.176634 29.804325
v -23.454906 -5.527902 30.153109
v -23.419445 -5.876687 30.504375
v -23.314425 -6.209584 30.844627
v -23.143881 -6.513802 31.160789
v -22.914368 -6.777649 31.440708
v -22.634706 -6.990985 31.673630
v -22.315643 -7.145613 31.850601
v -21.969439 -7.235590 31.964821
v -21.609396 -7.257458 32.011902
v -21.249355 -7.210377 31.990034
v -20.903151 -7.096156 31.900059
v -20.584087 -6.919184 31.745430
v -20.304426 -6.686264 31.532093
v -20.074913 -6.406344 31.268246
v -19.904369 -6.090184 30.964029
v -19.799349 -5.749932 30.631130
v -20.985794 -14.368244 21.312767
vn 0.9929 -0.0176 -0.1177
vn 0.9719 0.0807 -0.2210
vn 0.9274 0.1781 -0.3289
vn 0.8542 0.2748 -0.4414
vn 0.7446 0.3686 -0.5564
vn 0.5902 0.4539 -0.6675
vn 0.3865 0.5201 -0.7616
vn 0.1410 0.5537 -0.8207
vn -0.1216 0.5445 -0.8299
vn -0.3677 0.4937 -0.7881
vn -0.5724 0.4132 -0.7082
vn -0.7279 0.3171 -0.6080
vn -0.8384 0.2156 -0.5006
vn -0.9124 0.1137 -0.3933
vn -0.9574 0.0131 -0.2886
vn -0.9786 -0.0866 -0.1867
vn -0.9786 -0.1867 -0.0866
vn -0.9574 -0.2886 0.0131
vn -0.9124 -0.3933 0.1137
vn -0.8384 -0.5006 0.2156
vn -0.7279 -0.6080 0.3171
vn -0.5724 -0.7082 0.4132
vn -0.3677 -0.7881 0.4937
vn -0.1216 -0.8299 0.5445
vn 0.1410 -0.8207 0.5537
vn 0.3865 -0.7616 0.5201
vn 0.5902 -0.6675 0.4539
vn 0.7446 -0.5564 0.3686
vn 0.8542 -0.4414 0.2748
vn 0.9274 -0.3289 0.1781
vn -0.0495 0.7062 0.7062
vn 0.9719 -0.2210 0.0807
vn 0.9929 -0.1177 -0.0176
vt 0.250000 0.490000
vt 0.250000 0.250000
vt 0.296822 0.485388
vt 0.341844 0.471731
vt 0.383337 0.449553
vt 0.419706 0.419706
vt 0.449553 0.383337
vt 0.471731 0.341844
vt 0.485388 0.296822
vt 0.490000 0.250000
vt 0.485388 0.203178
vt 0.471731 0.158156
vt 0.449553 0.116663
vt 0.419706 0.080294
vt 0.383337 0.050447
vt 0.341844 0.028269
vt 0.296822 0.014612
vt 0.250000 0.010000
vt 0.203178 0.014612
vt 0.158156 0.028269
vt 0.116663 0.050447
vt 0.080294 0.080294
vt 0.050447 0.116663
vt 0.028269 0.158156
vt 0.014612 0.203178
vt 0.010000 0.250000
vt 0.014612 0.296822
vt 0.028269 0.341844
vt 0.050447 0.383337
vt 0.080294 0.419706
vt 0.116663 0.449553
vt 0.158156 0.471731
vt 0.796822 0.014612
vt 0.514612 0.203178
vt 0.703178 0.485388
vt 0.203178 0.485388
vt 0.750000 0.490000
vt 0.796822 0.485388
vt 0.841844 0.471731
vt 0.883337 0.449553
vt 0.919706 0.419706
vt 0.949553 0.383337
vt 0.971731 0.341844
vt 0.985388 0.296822
vt 0.990000 0.250000
vt 0.985388 0.203178
vt 0.971731 0.158156
vt 0.949553 0.116663
vt 0.919706 0.080294
vt 0.883337 0.050447
vt 0.841844 0.028269
vt 0.750000 0.010000
vt 0.703178 0.014612
vt 0.658156 0.028269
vt 0.616663 0.050447
vt 0.580294 0.080294
vt 0.550447 0.116663
vt 0.528269 0.158156
vt 0.510000 0.250000
vt 0.514612 0.296822
vt 0.528269 0.341844
vt 0.550447 0.383337
vt 0.580294 0.419706
vt 0.616663 0.449553
vt 0.658156 0.471731
s 0
f 74/136/64 106/137/64 75/138/64
f 75/138/65 106/137/65 76/139/65
f 76/139/66 106/137/66 77/140/66
f 77/140/67 106/137/67 78/141/67
f 78/141/68 106/137/68 79/142/68
f 79/142/69 106/137/69 80/143/69
f 80/143/70 106/137/70 81/144/70
f 81/144/71 106/137/71 82/145/71
f 82/145/72 106/137/72 83/146/72
f 83/146/73 106/137/73 84/147/73
f 84/147/74 106/137/74 85/148/74
f 85/148/75 106/137/75 86/149/75
f 86/149/76 106/137/76 87/150/76
f 87/150/77 106/137/77 88/151/77
f 88/151/78 106/137/78 89/152/78
f 89/152/79 106/137/79 90/153/79
f 90/153/80 106/137/80 91/154/80
f 91/154/81 106/137/81 92/155/81
f 92/155/82 106/137/82 93/156/82
f 93/156/83 106/137/83 94/157/83
f 94/157/84 106/137/84 95/158/84
f 95/158/85 106/137/85 96/159/85
f 96/159/86 106/137/86 97/160/86
f 97/160/87 106/137/87 98/161/87
f 98/161/88 106/137/88 99/162/88
f 99/162/89 106/137/89 100/163/89
f 100/163/90 106/137/90 101/164/90
f 101/164/91 106/137/91 102/165/91
f 102/165/92 106/137/92 103/166/92
f 103/166/93 106/137/93 104/167/93
f 89/168/94 97/169/94 105/170/94
f 104/167/95 106/137/95 105/171/95
f 105/171/96 106/137/96 74/136/96
f 105/170/94 74/172/94 75/173/94
f 75/173/94 76/174/94 77/175/94
f 77/175/94 78/176/94 79/177/94
f 79/177/94 80/178/94 81/179/94
f 81/179/94 82/180/94 83/181/94
f 83/181/94 84/182/94 85/183/94
f 85/183/94 86/184/94 87/185/94
f 87/185/94 88/186/94 89/168/94
f 89/168/94 90/187/94 91/188/94
f 91/188/94 92/189/94 93/190/94
f 93/190/94 94/191/94 95/192/94
f 95/192/94 96/193/94 97/169/94
f 97/169/94 98/194/94 99/195/94
f 99/195/94 100/196/94 101/197/94
f 101/197/94 102/198/94 103/199/94
f 103/199/94 104/200/94 105/170/94
f 105/170/94 75/173/94 77/175/94
f 77/175/94 79/177/94 81/179/94
f 81/179/94 83/181/94 85/183/94
f 85/183/94 87/185/94 89/168/94
f 89/168/94 91/188/94 93/190/94
f 93/190/94 95/192/94 97/169/94
f 97/169/94 99/195/94 101/197/94
f 101/197/94 103/199/94 105/170/94
f 105/170/94 77/175/94 81/179/94
f 81/179/94 85/183/94 89/168/94
f 89/168/94 93/190/94 97/169/94
f 97/169/94 101/197/94 105/170/94
f 105/170/94 81/179/94 89/168/94
o Cone.002
v -15.122108 -5.398664 30.282347
v -15.157569 -5.049880 29.931080
v -15.262589 -4.716982 29.590828
v -15.433132 -4.412764 29.274666
v -15.662644 -4.148917 28.994747
v -15.942307 -3.935581 28.761826
v -16.261370 -3.780953 28.584854
v -16.607574 -3.690976 28.470634
v -16.967617 -3.669108 28.423553
v -17.327658 -3.716189 28.445421
v -17.673862 -3.830410 28.535397
v -17.992926 -4.007382 28.690025
v -18.272587 -4.240303 28.903362
v -18.502100 -4.520222 29.167210
v -18.672644 -4.836382 29.471426
v -18.777664 -5.176634 29.804325
v -18.813126 -5.527902 30.153109
v -18.777664 -5.876687 30.504375
v -18.672644 -6.209584 30.844627
v -18.502100 -6.513802 31.160789
v -18.272587 -6.777649 31.440708
v -17.992926 -6.990985 31.673630
v -17.673862 -7.145613 31.850601
v -17.327658 -7.235590 31.964821
v -16.967615 -7.257458 32.011902
v -16.607574 -7.210377 31.990034
v -16.261370 -7.096156 31.900059
v -15.942307 -6.919184 31.745430
v -15.662644 -6.686264 31.532093
v -15.433132 -6.406344 31.268246
v -15.262589 -6.090184 30.964029
v -15.157569 -5.749932 30.631130
v -16.344013 -14.368244 21.312767
vn 0.9929 -0.0176 -0.1177
vn 0.9719 0.0807 -0.2210
vn 0.9274 0.1781 -0.3289
vn 0.8542 0.2748 -0.4414
vn 0.7446 0.3686 -0.5564
vn 0.5902 0.4539 -0.6675
vn 0.3865 0.5201 -0.7616
vn 0.1410 0.5537 -0.8207
vn -0.1216 0.5445 -0.8299
vn -0.3677 0.4937 -0.7881
vn -0.5724 0.4132 -0.7082
vn -0.7279 0.3171 -0.6080
vn -0.8384 0.2156 -0.5006
vn -0.9124 0.1137 -0.3933
vn -0.9574 0.0131 -0.2886
vn -0.9786 -0.0866 -0.1867
vn -0.9786 -0.1867 -0.0866
vn -0.9574 -0.2886 0.0131
vn -0.9124 -0.3933 0.1137
vn -0.8384 -0.5006 0.2156
vn -0.7279 -0.6080 0.3171
vn -0.5724 -0.7082 0.4132
vn -0.3677 -0.7881 0.4937
vn -0.1216 -0.8299 0.5445
vn 0.1410 -0.8207 0.5537
vn 0.3865 -0.7616 0.5201
vn 0.5902 -0.6675 0.4539
vn 0.7446 -0.5564 0.3686
vn 0.8542 -0.4414 0.2748
vn 0.9274 -0.3289 0.1781
vn -0.0495 0.7062 0.7062
vn 0.9719 -0.2210 0.0807
vn 0.9929 -0.1177 -0.0176
vt 0.250000 0.490000
vt 0.250000 0.250000
vt 0.296822 0.485388
vt 0.341844 0.471731
vt 0.383337 0.449553
vt 0.419706 0.419706
vt 0.449553 0.383337
vt 0.471731 0.341844
vt 0.485388 0.296822
vt 0.490000 0.250000
vt 0.485388 0.203178
vt 0.471731 0.158156
vt 0.449553 0.116663
vt 0.419706 0.080294
vt 0.383337 0.050447
vt 0.341844 0.028269
vt 0.296822 0.014612
vt 0.250000 0.010000
vt 0.203178 0.014612
vt 0.158156 0.028269
vt 0.116663 0.050447
vt 0.080294 0.080294
vt 0.050447 0.116663
vt 0.028269 0.158156
vt 0.014612 0.203178
vt 0.010000 0.250000
vt 0.014612 0.296822
vt 0.028269 0.341844
vt 0.050447 0.383337
vt 0.080294 0.419706
vt 0.116663 0.449553
vt 0.158156 0.471731
vt 0.796822 0.014612
vt 0.514612 0.203178
vt 0.703178 0.485388
vt 0.203178 0.485388
vt 0.750000 0.490000
vt 0.796822 0.485388
vt 0.841844 0.471731
vt 0.883337 0.449553
vt 0.919706 0.419706
vt 0.949553 0.383337
vt 0.971731 0.341844
vt 0.985388 0.296822
vt 0.990000 0.250000
vt 0.985388 0.203178
vt 0.971731 0.158156
vt 0.949553 0.116663
vt 0.919706 0.080294
vt 0.883337 0.050447
vt 0.841844 0.028269
vt 0.750000 0.010000
vt 0.703178 0.014612
vt 0.658156 0.028269
vt 0.616663 0.050447
vt 0.580294 0.080294
vt 0.550447 0.116663
vt 0.528269 0.158156
vt 0.510000 0.250000
vt 0.514612 0.296822
vt 0.528269 0.341844
vt 0.550447 0.383337
vt 0.580294 0.419706
vt 0.616663 0.449553
vt 0.658156 0.471731
s 0
f 107/201/97 139/202/97 108/203/97
f 108/203/98 139/202/98 109/204/98
f 109/204/99 139/202/99 110/205/99
f 110/205/100 139/202/100 111/206/100
f 111/206/101 139/202/101 112/207/101
f 112/207/102 139/202/102 113/208/102
f 113/208/103 139/202/103 114/209/103
f 114/209/104 139/202/104 115/210/104
f 115/210/105 139/202/105 116/211/105
f 116/211/106 139/202/106 117/212/106
f 117/212/107 139/202/107 118/213/107
f 118/213/108 139/202/108 119/214/108
f 119/214/109 139/202/109 120/215/109
f 120/215/110 139/202/110 121/216/110
f 121/216/111 139/202/111 122/217/111
f 122/217/112 139/202/112 123/218/112
f 123/218/113 139/202/113 124/219/113
f 124/219/114 139/202/114 125/220/114
f 125/220/115 139/202/115 126/221/115
f 126/221/116 139/202/116 127/222/116
f 127/222/117 139/202/117 128/223/117
f 128/223/118 139/202/118 129/224/118
f 129/224/119 139/202/119 130/225/119
f 130/225/120 139/202/120 131/226/120
f 131/226/121 139/202/121 132/227/121
f 132/227/122 139/202/122 133/228/122
f 133/228/123 139/202/123 134/229/123
f 134/229/124 139/202/124 135/230/124
f 135/230/125 139/202/125 136/231/125
f 136/231/126 139/202/126 137/232/126
f 122/233/127 130/234/127 138/235/127
f 137/232/128 139/202/128 138/236/128
f 138/236/129 139/202/129 107/201/129
f 138/235/127 107/237/127 108/238/127
f 108/238/127 109/239/127 110/240/127
f 110/240/127 111/241/127 112/242/127
f 112/242/127 113/243/127 114/244/127
f 114/244/127 115/245/127 116/246/127
f 116/246/127 117/247/127 118/248/127
f 118/248/127 119/249/127 120/250/127
f 120/250/127 121/251/127 122/233/127
f 122/233/127 123/252/127 124/253/127
f 124/253/127 125/254/127 126/255/127
f 126/255/127 127/256/127 128/257/127
f 128/257/127 129/258/127 130/234/127
f 130/234/127 131/259/127 132/260/127
f 132/260/127 133/261/127 134/262/127
f 134/262/127 135/263/127 136/264/127
f 136/264/127 137/265/127 138/235/127
f 138/235/127 108/238/127 110/240/127
f 110/240/127 112/242/127 114/244/127
f 114/244/127 116/246/127 118/248/127
f 118/248/127 120/250/127 122/233/127
f 122/233/127 124/253/127 126/255/127
f 126/255/127 128/257/127 130/234/127
f 130/234/127 132/260/127 134/262/127
f 134/262/127 136/264/127 138/235/127
f 138/235/127 110/240/127 114/244/127
f 114/244/127 118/248/127 122/233/127
f 122/233/127 126/255/127 130/234/127
f 130/234/127 134/262/127 138/235/127
f 138/235/127 114/244/127 122/233/127
o Cube.003
v 28.262424 12.748964 35.566952
v 28.262424 1.544168 23.790646
v 28.262424 3.614187 44.258411
v 28.262424 -7.590609 32.482105
v 15.653478 12.748964 35.566952
v 15.653478 1.544168 23.790646
v 15.653478 3.614187 44.258411
v 15.653478 -7.590609 32.482105
vn -0.0000 0.6893 0.7245
vn -0.0000 -0.7245 0.6893
vn -1.0000 -0.0000 -0.0000
vn -0.0000 -0.6893 -0.7245
vn 1.0000 -0.0000 -0.0000
vn -0.0000 0.7245 -0.6893
vt 0.875000 0.500000
vt 0.625000 0.750000
vt 0.625000 0.500000
vt 0.375000 1.000000
vt 0.375000 0.750000
vt 0.625000 0.000000
vt 0.375000 0.250000
vt 0.375000 0.000000
vt 0.375000 0.500000
vt 0.125000 0.750000
vt 0.125000 0.500000
vt 0.625000 0.250000
vt 0.875000 0.750000
vt 0.625000 1.000000
s 0
usemtl Material.008
f 144/266/130 142/267/130 140/268/130
f 142/267/131 147/269/131 143/270/131
f 146/271/132 145/272/132 147/273/132
f 141/274/133 147/275/133 145/276/133
f 140/268/134 143/270/134 141/274/134
f 144/277/135 141/274/135 145/272/135
f 144/266/130 146/278/130 142/267/130
f 142/267/131 146/279/131 147/269/131
f 146/271/132 144/277/132 145/272/132
f 141/274/133 143/270/133 147/275/133
f 140/268/134 142/267/134 143/270/134
f 144/277/135 140/268/135 141/274/135
o Cone.003
v 28.393719 -5.398664 30.282347
v 28.358259 -5.049880 29.931080
v 28.253239 -4.716982 29.590828
v 28.082695 -4.412764 29.274666
v 27.853182 -4.148917 28.994747
v 27.573521 -3.935581 28.761826
v 27.254457 -3.780953 28.584854
v 26.908253 -3.690976 28.470634
v 26.548210 -3.669108 28.423553
v 26.188169 -3.716189 28.445421
v 25.841965 -3.830410 28.535397
v 25.522902 -4.007382 28.690025
v 25.243240 -4.240303 28.903362
v 25.013727 -4.520222 29.167210
v 24.843184 -4.836382 29.471426
v 24.738163 -5.176634 29.804325
v 24.702702 -5.527902 30.153109
v 24.738163 -5.876687 30.504375
v 24.843184 -6.209584 30.844627
v 25.013727 -6.513802 31.160789
v 25.243240 -6.777649 31.440708
v 25.522902 -6.990985 31.673630
v 25.841965 -7.145613 31.850601
v 26.188169 -7.235590 31.964821
v 26.548212 -7.257458 32.011902
v 26.908253 -7.210377 31.990034
v 27.254457 -7.096156 31.900059
v 27.573521 -6.919184 31.745430
v 27.853182 -6.686264 31.532093
v 28.082695 -6.406344 31.268246
v 28.253239 -6.090184 30.964029
v 28.358259 -5.749932 30.631130
v 27.171814 -14.368244 21.312767
vn 0.9929 -0.0176 -0.1177
vn 0.9719 0.0807 -0.2210
vn 0.9274 0.1781 -0.3289
vn 0.8542 0.2748 -0.4414
vn 0.7446 0.3686 -0.5564
vn 0.5902 0.4539 -0.6675
vn 0.3865 0.5201 -0.7616
vn 0.1410 0.5537 -0.8207
vn -0.1216 0.5445 -0.8299
vn -0.3677 0.4937 -0.7881
vn -0.5724 0.4132 -0.7082
vn -0.7279 0.3171 -0.6080
vn -0.8384 0.2156 -0.5006
vn -0.9124 0.1137 -0.3933
vn -0.9574 0.0131 -0.2886
vn -0.9786 -0.0866 -0.1867
vn -0.9786 -0.1867 -0.0866
vn -0.9574 -0.2886 0.0131
vn -0.9124 -0.3933 0.1137
vn -0.8384 -0.5006 0.2156
vn -0.7279 -0.6080 0.3171
vn -0.5724 -0.7082 0.4132
vn -0.3677 -0.7881 0.4937
vn -0.1216 -0.8299 0.5445
vn 0.1410 -0.8207 0.5537
vn 0.3865 -0.7616 0.5201
vn 0.5902 -0.6675 0.4539
vn 0.7446 -0.5564 0.3686
vn 0.8542 -0.4414 0.2748
vn 0.9274 -0.3289 0.1781
vn -0.0495 0.7062 0.7062
vn 0.9719 -0.2210 0.0807
vn 0.9929 -0.1177 -0.0176
vt 0.250000 0.490000
vt 0.250000 0.250000
vt 0.296822 0.485388
vt 0.341844 0.471731
vt 0.383337 0.449553
vt 0.419706 0.419706
vt 0.449553 0.383337
vt 0.471731 0.341844
vt 0.485388 0.296822
vt 0.490000 0.250000
vt 0.485388 0.203178
vt 0.471731 0.158156
vt 0.449553 0.116663
vt 0.419706 0.080294
vt 0.383337 0.050447
vt 0.341844 0.028269
vt 0.296822 0.014612
vt 0.250000 0.010000
vt 0.203178 0.014612
vt 0.158156 0.028269
vt 0.116663 0.050447
vt 0.080294 0.080294
vt 0.050447 0.116663
vt 0.028269 0.158156
vt 0.014612 0.203178
vt 0.010000 0.250000
vt 0.014612 0.296822
vt 0.028269 0.341844
vt 0.050447 0.383337
vt 0.080294 0.419706
vt 0.116663 0.449553
vt 0.158156 0.471731
vt 0.796822 0.014612
vt 0.514612 0.203178
vt 0.703178 0.485388
vt 0.203178 0.485388
vt 0.750000 0.490000
vt 0.796822 0.485388
vt 0.841844 0.471731
vt 0.883337 0.449553
vt 0.919706 0.419706
vt 0.949553 0.383337
vt 0.971731 0.341844
vt 0.985388 0.296822
vt 0.990000 0.250000
vt 0.985388 0.203178
vt 0.971731 0.158156
vt 0.949553 0.116663
vt 0.919706 0.080294
vt 0.883337 0.050447
vt 0.841844 0.028269
vt 0.750000 0.010000
vt 0.703178 0.014612
vt 0.658156 0.028269
vt 0.616663 0.050447
vt 0.580294 0.080294
vt 0.550447 0.116663
vt 0.528269 0.158156
vt 0.510000 0.250000
vt 0.514612 0.296822
vt 0.528269 0.341844
vt 0.550447 0.383337
vt 0.580294 0.419706
vt 0.616663 0.449553
vt 0.658156 0.471731
s 0
f 148/280/136 180/281/136 149/282/136
f 149/282/137 180/281/137 150/283/137
f 150/283/138 180/281/138 151/284/138
f 151/284/139 180/281/139 152/285/139
f 152/285/140 180/281/140 153/286/140
f 153/286/141 180/281/141 154/287/141
f 154/287/142 180/281/142 155/288/142
f 155/288/143 180/281/143 156/289/143
f 156/289/144 180/281/144 157/290/144
f 157/290/145 180/281/145 158/291/145
f 158/291/146 180/281/146 159/292/146
f 159/292/147 180/281/147 160/293/147
f 160/293/148 180/281/148 161/294/148
f 161/294/149 180/281/149 162/295/149
f 162/295/150 180/281/150 163/296/150
f 163/296/151 180/281/151 164/297/151
f 164/297/152 180/281/152 165/298/152
f 165/298/153 180/281/153 166/299/153
f 166/299/154 180/281/154 167/300/154
f 167/300/155 180/281/155 168/301/155
f 168/301/156 180/281/156 169/302/156
f 169/302/157 180/281/157 170/303/157
f 170/303/158 180/281/158 171/304/158
f 171/304/159 180/281/159 172/305/159
f 172/305/160 180/281/160 173/306/160
f 173/306/161 180/281/161 174/307/161
f 174/307/162 180/281/162 175/308/162
f 175/308/163 180/281/163 176/309/163
f 176/309/164 180/281/164 177/310/164
f 177/310/165 180/281/165 178/311/165
f 163/312/166 171/313/166 179/314/166
f 178/311/167 180/281/167 179/315/167
f 179/315/168 180/281/168 148/280/168
f 179/314/166 148/316/166 149/317/166
f 149/317/166 150/318/166 151/319/166
f 151/319/166 152/320/166 153/321/166
f 153/321/166 154/322/166 155/323/166
f 155/323/166 156/324/166 157/325/166
f 157/325/166 158/326/166 159/327/166
f 159/327/166 160/328/166 161/329/166
f 161/329/166 162/330/166 163/312/166
f 163/312/166 164/331/166 165/332/166
f 165/332/166 166/333/166 167/334/166
f 167/334/166 168/335/166 169/336/166
f 169/336/166 170/337/166 171/313/166
f 171/313/166 172/338/166 173/339/166
f 173/339/166 174/340/166 175/341/166
f 175/341/166 176/342/166 177/343/166
f 177/343/166 178/344/166 179/314/166
f 179/314/166 149/317/166 151/319/166
f 151/319/166 153/321/166 155/323/166
f 155/323/166 157/325/166 159/327/166
f 159/327/166 161/329/166 163/312/166
f 163/312/166 165/332/166 167/334/166
f 167/334/166 169/336/166 171/313/166
f 171/313/166 173/339/166 175/341/166
f 175/341/166 177/343/166 179/314/166
f 179/314/166 151/319/166 155/323/166
f 155/323/166 159/327/166 163/312/166
f 163/312/166 167/334/166 171/313/166
f 171/313/166 175/341/166 179/314/166
f 179/314/166 155/323/166 163/312/166
o Cone.004
v 23.751942 -5.398664 30.282347
v 23.716482 -5.049880 29.931080
v 23.611462 -4.716982 29.590828
v 23.440918 -4.412764 29.274666
v 23.211405 -4.148917 28.994747
v 22.931744 -3.935581 28.761826
v 22.612680 -3.780953 28.584854
v 22.266476 -3.690976 28.470634
v 21.906433 -3.669108 28.423553
v 21.546392 -3.716189 28.445421
v 21.200188 -3.830410 28.535397
v 20.881124 -4.007382 28.690025
v 20.601463 -4.240303 28.903362
v 20.371950 -4.520222 29.167210
v 20.201406 -4.836382 29.471426
v 20.096386 -5.176634 29.804325
v 20.060925 -5.527902 30.153109
v 20.096386 -5.876687 30.504375
v 20.201406 -6.209584 30.844627
v 20.371950 -6.513802 31.160789
v 20.601463 -6.777649 31.440708
v 20.881124 -6.990985 31.673630
v 21.200188 -7.145613 31.850601
v 21.546392 -7.235590 31.964821
v 21.906435 -7.257458 32.011902
v 22.266476 -7.210377 31.990034
v 22.612680 -7.096156 31.900059
v 22.931744 -6.919184 31.745430
v 23.211405 -6.686264 31.532093
v 23.440918 -6.406344 31.268246
v 23.611462 -6.090184 30.964029
v 23.716482 -5.749932 30.631130
v 22.530037 -14.368244 21.312767
vn 0.9929 -0.0176 -0.1177
vn 0.9719 0.0807 -0.2210
vn 0.9274 0.1781 -0.3289
vn 0.8542 0.2748 -0.4414
vn 0.7446 0.3686 -0.5564
vn 0.5902 0.4539 -0.6675
vn 0.3865 0.5201 -0.7616
vn 0.1410 0.5537 -0.8207
vn -0.1216 0.5445 -0.8299
vn -0.3677 0.4937 -0.7881
vn -0.5724 0.4132 -0.7082
vn -0.7279 0.3171 -0.6080
vn -0.8384 0.2156 -0.5006
vn -0.9124 0.1137 -0.3933
vn -0.9574 0.0131 -0.2886
vn -0.9786 -0.0866 -0.1867
vn -0.9786 -0.1867 -0.0866
vn -0.9574 -0.2886 0.0131
vn -0.9124 -0.3933 0.1137
vn -0.8384 -0.5006 0.2156
vn -0.7279 -0.6080 0.3171
vn -0.5724 -0.7082 0.4132
vn -0.3677 -0.7881 0.4937
vn -0.1216 -0.8299 0.5445
vn 0.1410 -0.8207 0.5537
vn 0.3865 -0.7616 0.5201
vn 0.5902 -0.6675 0.4539
vn 0.7446 -0.5564 0.3686
vn 0.8542 -0.4414 0.2748
vn 0.9274 -0.3289 0.1781
vn -0.0495 0.7062 0.7062
vn 0.9719 -0.2210 0.0807
vn 0.9929 -0.1177 -0.0176
vt 0.250000 0.490000
vt 0.250000 0.250000
vt 0.296822 0.485388
vt 0.341844 0.471731
vt 0.383337 0.449553
vt 0.419706 0.419706
vt 0.449553 0.383337
vt 0.471731 0.341844
vt 0.485388 0.296822
vt 0.490000 0.250000
vt 0.485388 0.203178
vt 0.471731 0.158156
vt 0.449553 0.116663
vt 0.419706 0.080294
vt 0.383337 0.050447
vt 0.341844 0.028269
vt 0.296822 0.014612
vt 0.250000 0.010000
vt 0.203178 0.014612
vt 0.158156 0.028269
vt 0.116663 0.050447
vt 0.080294 0.080294
vt 0.050447 0.116663
vt 0.028269 0.158156
vt 0.014612 0.203178
vt 0.010000 0.250000
vt 0.014612 0.296822
vt 0.028269 0.341844
vt 0.050447 0.383337
vt 0.080294 0.419706
vt 0.116663 0.449553
vt 0.158156 0.471731
vt 0.796822 0.014612
vt 0.514612 0.203178
vt 0.703178 0.485388
vt 0.203178 0.485388
vt 0.750000 0.490000
vt 0.796822 0.485388
vt 0.841844 0.471731
vt 0.883337 0.449553
vt 0.919706 0.419706
vt 0.949553 0.383337
vt 0.971731 0.341844
vt 0.985388 0.296822
vt 0.990000 0.250000
vt 0.985388 0.203178
vt 0.971731 0.158156
vt 0.949553 0.116663
vt 0.919706 0.080294
vt 0.883337 0.050447
vt 0.841844 0.028269
vt 0.750000 0.010000
vt 0.703178 0.014612
vt 0.658156 0.028269
vt 0.616663 0.050447
vt 0.580294 0.080294
vt 0.550447 0.116663
vt 0.528269 0.158156
vt 0.510000 0.250000
vt 0.514612 0.296822
vt 0.528269 0.341844
vt 0.550447 0.383337
vt 0.580294 0.419706
vt 0.616663 0.449553
vt 0.658156 0.471731
s 0
f 181/345/169 213/346/169 182/347/169
f 182/347/170 213/346/170 183/348/170
f 183/348/171 213/346/171 184/349/171
f 184/349/172 213/346/172 185/350/172
f 185/350/173 213/346/173 186/351/173
f 186/351/174 213/346/174 187/352/174
f 187/352/175 213/346/175 188/353/175
f 188/353/176 213/346/176 189/354/176
f 189/354/177 213/346/177 190/355/177
f 190/355/178 213/346/178 191/356/178
f 191/356/179 213/346/179 192/357/179
f 192/357/180 213/346/180 193/358/180
f 193/358/181 213/346/181 194/359/181
f 194/359/182 213/346/182 195/360/182
f 195/360/183 213/346/183 196/361/183
f 196/361/184 213/346/184 197/362/184
f 197/362/185 213/346/185 198/363/185
f 198/363/186 213/346/186 199/364/186
f 199/364/187 213/346/187 200/365/187
f 200/365/188 213/346/188 201/366/188
f 201/366/189 213/346/189 202/367/189
f 202/367/190 213/346/190 203/368/190
f 203/368/191 213/346/191 204/369/191
f 204/369/192 213/346/192 205/370/192
f 205/370/193 213/346/193 206/371/193
f 206/371/194 213/346/194 207/372/194
f 207/372/195 213/346/195 208/373/195
f 208/373/196 213/346/196 209/374/196
f 209/374/197 213/346/197 210/375/197
f 210/375/198 213/346/198 211/376/198
f 196/377/199 204/378/199 212/379/199
f 211/376/200 213/346/200 212/380/200
f 212/380/201 213/346/201 181/345/201
f 212/379/199 181/381/199 182/382/199
f 182/382/199 183/383/199 184/384/199
f 184/384/199 185/385/199 186/386/199
f 186/386/199 187/387/199 188/388/199
f 188/388/199 189/389/199 190/390/199
f 190/390/199 191/391/199 192/392/199
f 192/392/199 193/393/199 194/394/199
f 194/394/199 195/395/199 196/377/199
f 196/377/199 197/396/199 198/397/199
f 198/397/199 199/398/199 200/399/199
f 200/399/199 201/400/199 202/401/199
f 202/401/199 203/402/199 204/378/199
f 204/378/199 205/403/199 206/404/199
f 206/404/199 207/405/199 208/406/199
f 208/406/199 209/407/199 210/408/199
f 210/408/199 211/409/199 212/379/199
f 212/379/199 182/382/199 184/384/199
f 184/384/199 186/386/199 188/388/199
f 188/388/199 190/390/199 192/392/199
f 192/392/199 194/394/199 196/377/199
f 196/377/199 198/397/199 200/399/199
f 200/399/199 202/401/199 204/378/199
f 204/378/199 206/404/199 208/406/199
f 208/406/199 210/408/199 212/379/199
f 212/379/199 184/384/199 188/388/199
f 188/388/199 192/392/199 196/377/199
f 196/377/199 200/399/199 204/378/199
f 204/378/199 208/406/199 212/379/199
f 212/379/199 188/388/199 196/377/199
o Cone.005
v 18.803944 -5.398664 30.282347
v 18.768484 -5.049880 29.931080
v 18.663464 -4.716982 29.590828
v 18.492920 -4.412764 29.274666
v 18.263407 -4.148917 28.994747
v 17.983746 -3.935581 28.761826
v 17.664682 -3.780953 28.584854
v 17.318478 -3.690976 28.470634
v 16.958435 -3.669108 28.423553
v 16.598394 -3.716189 28.445421
v 16.252190 -3.830410 28.535397
v 15.933126 -4.007382 28.690025
v 15.653464 -4.240303 28.903362
v 15.423952 -4.520222 29.167210
v 15.253408 -4.836382 29.471426
v 15.148388 -5.176634 29.804325
v 15.112927 -5.527902 30.153109
v 15.148388 -5.876687 30.504375
v 15.253408 -6.209584 30.844627
v 15.423952 -6.513802 31.160789
v 15.653464 -6.777649 31.440708
v 15.933126 -6.990985 31.673630
v 16.252190 -7.145613 31.850601
v 16.598394 -7.235590 31.964821
v 16.958437 -7.257458 32.011902
v 17.318478 -7.210377 31.990034
v 17.664682 -7.096156 31.900059
v 17.983746 -6.919184 31.745430
v 18.263407 -6.686264 31.532093
v 18.492920 -6.406344 31.268246
v 18.663464 -6.090184 30.964029
v 18.768484 -5.749932 30.631130
v 17.582039 -14.368244 21.312767
vn 0.9929 -0.0176 -0.1177
vn 0.9719 0.0807 -0.2210
vn 0.9274 0.1781 -0.3289
vn 0.8542 0.2748 -0.4414
vn 0.7446 0.3686 -0.5564
vn 0.5902 0.4539 -0.6675
vn 0.3865 0.5201 -0.7616
vn 0.1410 0.5537 -0.8207
vn -0.1216 0.5445 -0.8299
vn -0.3677 0.4937 -0.7881
vn -0.5724 0.4132 -0.7082
vn -0.7279 0.3171 -0.6080
vn -0.8384 0.2156 -0.5006
vn -0.9124 0.1137 -0.3933
vn -0.9574 0.0131 -0.2886
vn -0.9786 -0.0866 -0.1867
vn -0.9786 -0.1867 -0.0866
vn -0.9574 -0.2886 0.0131
vn -0.9124 -0.3933 0.1137
vn -0.8384 -0.5006 0.2156
vn -0.7279 -0.6080 0.3171
vn -0.5724 -0.7082 0.4132
vn -0.3677 -0.7881 0.4937
vn -0.1216 -0.8299 0.5445
vn 0.1410 -0.8207 0.5537
vn 0.3865 -0.7616 0.5201
vn 0.5902 -0.6675 0.4539
vn 0.7446 -0.5564 0.3686
vn 0.8542 -0.4414 0.2748
vn 0.9274 -0.3289 0.1781
vn -0.0495 0.7062 0.7062
vn 0.9719 -0.2210 0.0807
vn 0.9929 -0.1177 -0.0176
vt 0.250000 0.490000
vt 0.250000 0.250000
vt 0.296822 0.485388
vt 0.341844 0.471731
vt 0.383337 0.449553
vt 0.419706 0.419706
vt 0.449553 0.383337
vt 0.471731 0.341844
vt 0.485388 0.296822
vt 0.490000 0.250000
vt 0.485388 0.203178
vt 0.471731 0.158156
vt 0.449553 0.116663
vt 0.419706 0.080294
vt 0.383337 0.050447
vt 0.341844 0.028269
vt 0.296822 0.014612
vt 0.250000 0.010000
vt 0.203178 0.014612
vt 0.158156 0.028269
vt 0.116663 0.050447
vt 0.080294 0.080294
vt 0.050447 0.116663
vt 0.028269 0.158156
vt 0.014612 0.203178
vt 0.010000 0.250000
vt 0.014612 0.296822
vt 0.028269 0.341844
vt 0.050447 0.383337
vt 0.080294 0.419706
vt 0.116663 0.449553
vt 0.158156 0.471731
vt 0.796822 0.014612
vt 0.514612 0.203178
vt 0.703178 0.485388
vt 0.203178 0.485388
vt 0.750000 0.490000
vt 0.796822 0.485388
vt 0.841844 0.471731
vt 0.883337 0.449553
vt 0.919706 0.419706
vt 0.949553 0.383337
vt 0.971731 0.341844
vt 0.985388 0.296822
vt 0.990000 0.250000
vt 0.985388 0.203178
vt 0.971731 0.158156
vt 0.949553 0.116663
vt 0.919706 0.080294
vt 0.883337 0.050447
vt 0.841844 0.028269
vt 0.750000 0.010000
vt 0.703178 0.014612
vt 0.658156 0.028269
vt 0.616663 0.050447
vt 0.580294 0.080294
vt 0.550447 0.116663
vt 0.528269 0.158156
vt 0.510000 0.250000
vt 0.514612 0.296822
vt 0.528269 0.341844
vt 0.550447 0.383337
vt 0.580294 0.419706
vt 0.616663 0.449553
vt 0.658156 0.471731
s 0
f 214/410/202 246/411/202 215/412/202
f 215/412/203 246/411/203 216/413/203
f 216/413/204 246/411/204 217/414/204
f 217/414/205 246/411/205 218/415/205
f 218/415/206 246/411/206 219/416/206
f 219/416/207 246/411/207 220/417/207
f 220/417/208 246/411/208 221/418/208
f 221/418/209 246/411/209 222/419/209
f 222/419/210 246/411/210 223/420/210
f 223/420/211 246/411/211 224/421/211
f 224/421/212 246/411/212 225/422/212
f 225/422/213 246/411/213 226/423/213
f 226/423/214 246/411/214 227/424/214
f 227/424/215 246/411/215 228/425/215
f 228/425/216 246/411/216 229/426/216
f 229/426/217 246/411/217 230/427/217
f 230/427/218 246/411/218 231/428/218
f 231/428/219 246/411/219 232/429/219
f 232/429/220 246/411/220 233/430/220
f 233/430/221 246/411/221 234/431/221
f 234/431/222 246/411/222 235/432/222
f 235/432/223 246/411/223 236/433/223
f 236/433/224 246/411/224 237/434/224
f 237/434/225 246/411/225 238/435/225
f 238/435/226 246/411/226 239/436/226
f 239/436/227 246/411/227 240/437/227
f 240/437/228 246/411/228 241/438/228
f 241/438/229 246/411/229 242/439/229
f 242/439/230 246/411/230 243/440/230
f 243/440/231 246/411/231 244/441/231
f 229/442/232 237/443/232 245/444/232
f 244/441/233 246/411/233 245/445/233
f 245/445/234 246/411/234 214/410/234
f 245/444/232 214/446/232 215/447/232
f 215/447/232 216/448/232 217/449/232
f 217/449/232 218/450/232 219/451/232
f 219/451/232 220/452/232 221/453/232
f 221/453/232 222/454/232 223/455/232
f 223/455/232 224/456/232 225/457/232
f 225/457/232 226/458/232 227/459/232
f 227/459/232 228/460/232 229/442/232
f 229/442/232 230/461/232 231/462/232
f 231/462/232 232/463/232 233/464/232
f 233/464/232 234/465/232 235/466/232
f 235/466/232 236/467/232 237/443/232
f 237/443/232 238/468/232 239/469/232
f 239/469/232 240/470/232 241/471/232
f 241/471/232 242/472/232 243/473/232
f 243/473/232 244/474/232 245/444/232
f 245/444/232 215/447/232 217/449/232
f 217/449/232 219/451/232 221/453/232
f 221/453/232 223/455/232 225/457/232
f 225/457/232 227/459/232 229/442/232
f 229/442/232 231/462/232 233/464/232
f 233/464/232 235/466/232 237/443/232
f 237/443/232 239/469/232 241/471/232
f 241/471/232 243/473/232 245/444/232
f 245/444/232 217/449/232 221/453/232
f 221/453/232 225/457/232 229/442/232
f 229/442/232 233/464/232 237/443/232
f 237/443/232 241/471/232 245/444/232
f 245/444/232 221/453/232 229/442/232
