# Blender 4.2.1 LTS
# www.blender.org
mtllib enemytest.mtl
o Cube
v 2.875000 2.875000 2.875000
v 2.875000 2.875000 -2.875000
v 2.875000 -2.875000 2.875000
v 2.875000 -2.875000 -2.875000
v -2.875000 2.875000 2.875000
v -2.875000 2.875000 -2.875000
v -2.875000 -2.875000 2.875000
v -2.875000 -2.875000 -2.875000
v -2.906250 0.000000 -2.906250
v 0.000000 2.906250 -2.906250
v 2.906250 2.906250 0.000000
v -2.906250 -2.906250 0.000000
v 2.906250 -2.906250 0.000000
v -2.906250 2.906250 0.000000
v 0.000000 -2.906250 2.906250
v 2.906250 0.000000 2.906250
v 0.000000 -2.906250 -2.906250
v -2.906250 0.000000 2.906250
v 0.000000 2.906250 2.906250
v 2.906250 0.000000 -2.906250
v 0.000000 3.000000 0.000000
v 3.000000 0.000000 0.000000
v 0.000000 0.000000 -3.000000
v -3.000000 0.000000 0.000000
v 0.000000 -3.000000 0.000000
v 0.000000 0.000000 3.000000
v -2.906250 -1.500000 -2.906250
v -1.500000 2.906250 -2.906250
v 2.906250 2.906250 -1.500000
v -2.906250 -2.906250 1.500000
v 2.906250 -2.906250 -1.500000
v -2.906250 2.906250 -1.500000
v -1.500000 -2.906250 2.906250
v 2.906250 -1.500000 2.906250
v 1.500000 -2.906250 -2.906250
v -2.906250 1.500000 2.906250
v 1.500000 2.906250 2.906250
v 2.906250 1.500000 -2.906250
v -2.906250 1.500000 -2.906250
v 1.500000 2.906250 -2.906250
v 2.906250 2.906250 1.500000
v -2.906250 -2.906250 -1.500000
v 2.906250 -2.906250 1.500000
v -2.906250 2.906250 1.500000
v 1.500000 -2.906250 2.906250
v 2.906250 1.500000 2.906250
v -1.500000 -2.906250 -2.906250
v -2.906250 -1.500000 2.906250
v -1.500000 2.906250 2.906250
v 2.906250 -1.500000 -2.906250
v 1.500000 3.000000 0.000000
v -1.500000 3.000000 0.000000
v 0.000000 3.000000 -1.500000
v 0.000000 3.000000 1.500000
v 3.000000 -1.500000 0.000000
v 3.000000 1.500000 0.000000
v 3.000000 0.000000 -1.500000
v 3.000000 0.000000 1.500000
v 0.000000 -1.500000 -3.000000
v 0.000000 1.500000 -3.000000
v -1.500000 0.000000 -3.000000
v 1.500000 0.000000 -3.000000
v -3.000000 1.500000 0.000000
v -3.000000 -1.500000 0.000000
v -3.000000 0.000000 -1.500000
v -3.000000 0.000000 1.500000
v -1.500000 -3.000000 0.000000
v 1.500000 -3.000000 0.000000
v 0.000000 -3.000000 -1.500000
v 0.000000 -3.000000 1.500000
v 0.000000 -1.500000 3.000000
v 0.000000 1.500000 3.000000
v 1.500000 0.000000 3.000000
v -1.500000 0.000000 3.000000
v -1.500000 1.500000 3.000000
v 1.500000 1.500000 3.000000
v 1.500000 -1.500000 3.000000
v 1.500000 -3.000000 1.500000
v 1.500000 -3.000000 -1.500000
v -1.500000 -3.000000 -1.500000
v -3.000000 -1.500000 1.500000
v -3.000000 -1.500000 -1.500000
v -3.000000 1.500000 -1.500000
v 1.500000 1.500000 -3.000000
v -1.500000 1.500000 -3.000000
v -1.500000 -1.500000 -3.000000
v 3.000000 1.500000 1.500000
v 3.000000 1.500000 -1.500000
v 3.000000 -1.500000 -1.500000
v -1.500000 3.000000 1.500000
v -1.500000 3.000000 -1.500000
v 1.500000 3.000000 -1.500000
v 1.500000 3.000000 1.500000
v 3.000000 -1.500000 1.500000
v 1.500000 -1.500000 -3.000000
v -3.000000 1.500000 1.500000
v -1.500000 -3.000000 1.500000
v -1.500000 -1.500000 3.000000
v -2.906250 -2.250000 -2.906250
v -2.250000 2.906250 -2.906250
v 2.906250 2.906250 -2.250000
v -2.906250 -2.906250 2.250000
v 2.906250 -2.906250 -2.250000
v -2.906250 2.906250 -2.250000
v -2.250000 -2.906250 2.906250
v 2.906250 -2.250000 2.906250
v 2.250000 -2.906250 -2.906250
v -2.906250 2.250000 2.906250
v 2.250000 2.906250 2.906250
v 2.906250 2.250000 -2.906250
v -2.906250 0.750000 -2.906250
v 0.750000 2.906250 -2.906250
v 2.906250 2.906250 0.750000
v -2.906250 -2.906250 -0.750000
v 2.906250 -2.906250 0.750000
v -2.906250 2.906250 0.750000
v 0.750000 -2.906250 2.906250
v 2.906250 0.750000 2.906250
v -0.750000 -2.906250 -2.906250
v -2.906250 -0.750000 2.906250
v -0.750000 2.906250 2.906250
v 2.906250 -0.750000 -2.906250
v 2.250000 3.000000 0.000000
v -0.750000 3.000000 0.000000
v 0.000000 3.000000 -2.250000
v 0.000000 3.000000 0.750000
v 3.000000 -2.250000 0.000000
v 3.000000 0.750000 0.000000
v 3.000000 0.000000 -2.250000
v 3.000000 0.000000 0.750000
v 0.000000 -2.250000 -3.000000
v 0.000000 0.750000 -3.000000
v -2.250000 0.000000 -3.000000
v 0.750000 0.000000 -3.000000
v -3.000000 2.250000 0.000000
v -3.000000 -0.750000 0.000000
v -3.000000 0.000000 -2.250000
v -3.000000 0.000000 0.750000
v -2.250000 -3.000000 0.000000
v 0.750000 -3.000000 0.000000
v 0.000000 -3.000000 -2.250000
v 0.000000 -3.000000 0.750000
v 0.000000 -2.250000 3.000000
v 0.000000 0.750000 3.000000
v 2.250000 0.000000 3.000000
v -0.750000 0.000000 3.000000
v -2.906250 -0.750000 -2.906250
v -0.750000 2.906250 -2.906250
v 2.906250 2.906250 -0.750000
v -2.906250 -2.906250 0.750000
v 2.906250 -2.906250 -0.750000
v -2.906250 2.906250 -0.750000
v -0.750000 -2.906250 2.906250
v 2.906250 -0.750000 2.906250
v 0.750000 -2.906250 -2.906250
v -2.906250 0.750000 2.906250
v 0.750000 2.906250 2.906250
v 2.906250 0.750000 -2.906250
v -2.906250 2.250000 -2.906250
v 2.250000 2.906250 -2.906250
v 2.906250 2.906250 2.250000
v -2.906250 -2.906250 -2.250000
v 2.906250 -2.906250 2.250000
v -2.906250 2.906250 2.250000
v 2.250000 -2.906250 2.906250
v 2.906250 2.250000 2.906250
v -2.250000 -2.906250 -2.906250
v -2.906250 -2.250000 2.906250
v -2.250000 2.906250 2.906250
v 2.906250 -2.250000 -2.906250
v 0.750000 3.000000 0.000000
v -2.250000 3.000000 0.000000
v 0.000000 3.000000 -0.750000
v 0.000000 3.000000 2.250000
v 3.000000 -0.750000 0.000000
v 3.000000 2.250000 0.000000
v 3.000000 0.000000 -0.750000
v 3.000000 0.000000 2.250000
v 0.000000 -0.750000 -3.000000
v 0.000000 2.250000 -3.000000
v -0.750000 0.000000 -3.000000
v 2.250000 0.000000 -3.000000
v -3.000000 0.750000 0.000000
v -3.000000 -2.250000 0.000000
v -3.000000 0.000000 -0.750000
v -3.000000 0.000000 2.250000
v -0.750000 -3.000000 0.000000
v 2.250000 -3.000000 0.000000
v 0.000000 -3.000000 -0.750000
v 0.000000 -3.000000 2.250000
v 0.000000 -0.750000 3.000000
v 0.000000 2.250000 3.000000
v 0.750000 0.000000 3.000000
v -2.250000 0.000000 3.000000
v -1.500000 0.750000 3.000000
v -1.500000 2.250000 3.000000
v -0.750000 1.500000 3.000000
v -2.250000 1.500000 3.000000
v 1.500000 0.750000 3.000000
v 1.500000 2.250000 3.000000
v 2.250000 1.500000 3.000000
v 0.750000 1.500000 3.000000
v 1.500000 -2.250000 3.000000
v 1.500000 -0.750000 3.000000
v 2.250000 -1.500000 3.000000
v 0.750000 -1.500000 3.000000
v 0.750000 -3.000000 1.500000
v 2.250000 -3.000000 1.500000
v 1.500000 -3.000000 0.750000
v 1.500000 -3.000000 2.250000
v 0.750000 -3.000000 -1.500000
v 2.250000 -3.000000 -1.500000
v 1.500000 -3.000000 -2.250000
v 1.500000 -3.000000 -0.750000
v -2.250000 -3.000000 -1.500000
v -0.750000 -3.000000 -1.500000
v -1.500000 -3.000000 -2.250000
v -1.500000 -3.000000 -0.750000
v -3.000000 -0.750000 1.500000
v -3.000000 -2.250000 1.500000
v -3.000000 -1.500000 0.750000
v -3.000000 -1.500000 2.250000
v -3.000000 -0.750000 -1.500000
v -3.000000 -2.250000 -1.500000
v -3.000000 -1.500000 -2.250000
v -3.000000 -1.500000 -0.750000
v -3.000000 2.250000 -1.500000
v -3.000000 0.750000 -1.500000
v -3.000000 1.500000 -2.250000
v -3.000000 1.500000 -0.750000
v 1.500000 0.750000 -3.000000
v 1.500000 2.250000 -3.000000
v 0.750000 1.500000 -3.000000
v 2.250000 1.500000 -3.000000
v -1.500000 0.750000 -3.000000
v -1.500000 2.250000 -3.000000
v -2.250000 1.500000 -3.000000
v -0.750000 1.500000 -3.000000
v -1.500000 -2.250000 -3.000000
v -1.500000 -0.750000 -3.000000
v -2.250000 -1.500000 -3.000000
v -0.750000 -1.500000 -3.000000
v 3.000000 0.750000 1.500000
v 3.000000 2.250000 1.500000
v 3.000000 1.500000 0.750000
v 3.000000 1.500000 2.250000
v 3.000000 0.750000 -1.500000
v 3.000000 2.250000 -1.500000
v 3.000000 1.500000 -2.250000
v 3.000000 1.500000 -0.750000
v 3.000000 -2.250000 -1.500000
v 3.000000 -0.750000 -1.500000
v 3.000000 -1.500000 -2.250000
v 3.000000 -1.500000 -0.750000
v -0.750000 3.000000 1.500000
v -2.250000 3.000000 1.500000
v -1.500000 3.000000 0.750000
v -1.500000 3.000000 2.250000
v -0.750000 3.000000 -1.500000
v -2.250000 3.000000 -1.500000
v -1.500000 3.000000 -2.250000
v -1.500000 3.000000 -0.750000
v 2.250000 3.000000 -1.500000
v 0.750000 3.000000 -1.500000
v 1.500000 3.000000 -2.250000
v 1.500000 3.000000 -0.750000
v 2.250000 3.000000 1.500000
v 0.750000 3.000000 1.500000
v 1.500000 3.000000 0.750000
v 1.500000 3.000000 2.250000
v 3.000000 -2.250000 1.500000
v 3.000000 -0.750000 1.500000
v 3.000000 -1.500000 0.750000
v 3.000000 -1.500000 2.250000
v 1.500000 -2.250000 -3.000000
v 1.500000 -0.750000 -3.000000
v 0.750000 -1.500000 -3.000000
v 2.250000 -1.500000 -3.000000
v -3.000000 2.250000 1.500000
v -3.000000 0.750000 1.500000
v -3.000000 1.500000 0.750000
v -3.000000 1.500000 2.250000
v -2.250000 -3.000000 1.500000
v -0.750000 -3.000000 1.500000
v -1.500000 -3.000000 0.750000
v -1.500000 -3.000000 2.250000
v -1.500000 -2.250000 3.000000
v -1.500000 -0.750000 3.000000
v -0.750000 -1.500000 3.000000
v -2.250000 -1.500000 3.000000
v -2.250000 -0.750000 3.000000
v -0.750000 -0.750000 3.000000
v -0.750000 -2.250000 3.000000
v -0.750000 -3.000000 2.250000
v -0.750000 -3.000000 0.750000
v -2.250000 -3.000000 0.750000
v -3.000000 0.750000 2.250000
v -3.000000 0.750000 0.750000
v -3.000000 2.250000 0.750000
v 2.250000 -0.750000 -3.000000
v 0.750000 -0.750000 -3.000000
v 0.750000 -2.250000 -3.000000
v 3.000000 -0.750000 2.250000
v 3.000000 -0.750000 0.750000
v 3.000000 -2.250000 0.750000
v 0.750000 3.000000 2.250000
v 0.750000 3.000000 0.750000
v 2.250000 3.000000 0.750000
v 0.750000 3.000000 -0.750000
v 0.750000 3.000000 -2.250000
v 2.250000 3.000000 -2.250000
v -2.250000 3.000000 -0.750000
v -2.250000 3.000000 -2.250000
v -0.750000 3.000000 -2.250000
v -2.250000 3.000000 2.250000
v -2.250000 3.000000 0.750000
v -0.750000 3.000000 0.750000
v 3.000000 -0.750000 -0.750000
v 3.000000 -0.750000 -2.250000
v 3.000000 -2.250000 -2.250000
v 3.000000 2.250000 -0.750000
v 3.000000 2.250000 -2.250000
v 3.000000 0.750000 -2.250000
v 3.000000 2.250000 2.250000
v 3.000000 2.250000 0.750000
v 3.000000 0.750000 0.750000
v -0.750000 -0.750000 -3.000000
v -2.250000 -0.750000 -3.000000
v -2.250000 -2.250000 -3.000000
v -0.750000 2.250000 -3.000000
v -2.250000 2.250000 -3.000000
v -2.250000 0.750000 -3.000000
v 2.250000 2.250000 -3.000000
v 0.750000 2.250000 -3.000000
v 0.750000 0.750000 -3.000000
v -3.000000 0.750000 -0.750000
v -3.000000 0.750000 -2.250000
v -3.000000 2.250000 -2.250000
v -3.000000 -2.250000 -0.750000
v -3.000000 -2.250000 -2.250000
v -3.000000 -0.750000 -2.250000
v -3.000000 -2.250000 2.250000
v -3.000000 -2.250000 0.750000
v -3.000000 -0.750000 0.750000
v -0.750000 -3.000000 -0.750000
v -0.750000 -3.000000 -2.250000
v -2.250000 -3.000000 -2.250000
v 2.250000 -3.000000 -0.750000
v 2.250000 -3.000000 -2.250000
v 0.750000 -3.000000 -2.250000
v 2.250000 -3.000000 2.250000
v 2.250000 -3.000000 0.750000
v 0.750000 -3.000000 0.750000
v 0.750000 -0.750000 3.000000
v 2.250000 -0.750000 3.000000
v 2.250000 -2.250000 3.000000
v 0.750000 2.250000 3.000000
v 2.250000 2.250000 3.000000
v 2.250000 0.750000 3.000000
v -2.250000 2.250000 3.000000
v -0.750000 2.250000 3.000000
v -0.750000 0.750000 3.000000
v -2.250000 0.750000 3.000000
v 0.750000 0.750000 3.000000
v 0.750000 -2.250000 3.000000
v 0.750000 -3.000000 2.250000
v 0.750000 -3.000000 -0.750000
v -2.250000 -3.000000 -0.750000
v -3.000000 -0.750000 2.250000
v -3.000000 -0.750000 -0.750000
v -3.000000 2.250000 -0.750000
v 2.250000 0.750000 -3.000000
v -0.750000 0.750000 -3.000000
v -0.750000 -2.250000 -3.000000
v 3.000000 0.750000 2.250000
v 3.000000 0.750000 -0.750000
v 3.000000 -2.250000 -0.750000
v -0.750000 3.000000 2.250000
v -0.750000 3.000000 -0.750000
v 2.250000 3.000000 -0.750000
v 2.250000 3.000000 2.250000
v 3.000000 -2.250000 2.250000
v 2.250000 -2.250000 -3.000000
v -3.000000 2.250000 2.250000
v -2.250000 -3.000000 2.250000
v -2.250000 -2.250000 3.000000
vn -0.0565 -0.1412 0.9884
vn -0.1412 -0.9884 0.0565
vn -0.9884 0.1412 0.0565
vn 0.0565 -0.1412 -0.9884
vn 0.9884 -0.1412 0.0565
vn 0.1412 0.9884 0.0565
vn 0.1414 0.9899 -0.0000
vn -0.0000 1.0000 -0.0000
vn -0.0000 0.9899 0.1414
vn 0.9899 -0.1414 -0.0000
vn 1.0000 -0.0000 -0.0000
vn 0.9899 -0.0000 0.1414
vn -0.0000 -0.1414 -0.9899
vn -0.0000 -0.0000 -1.0000
vn 0.1414 -0.0000 -0.9899
vn -0.9899 0.1414 -0.0000
vn -1.0000 -0.0000 -0.0000
vn -0.9899 -0.0000 0.1414
vn -0.1414 -0.9899 -0.0000
vn -0.0000 -1.0000 -0.0000
vn -0.0000 -0.9899 0.1414
vn -0.0000 -0.1414 0.9899
vn -0.0000 -0.0000 1.0000
vn -0.1414 -0.0000 0.9899
vn -0.0000 0.9899 -0.1414
vn 0.0565 0.9884 -0.1412
vn -0.1414 0.9899 -0.0000
vn -0.0565 0.9884 -0.1412
vn -0.1412 0.9884 0.0565
vn 0.9899 -0.0000 -0.1414
vn 0.9884 -0.0565 -0.1412
vn 0.9899 0.1414 -0.0000
vn 0.9884 0.0565 -0.1412
vn 0.9884 0.1412 0.0565
vn -0.1414 -0.0000 -0.9899
vn -0.1412 -0.0565 -0.9884
vn -0.0000 0.1414 -0.9899
vn -0.1412 0.0565 -0.9884
vn 0.0565 0.1412 -0.9884
vn -0.9899 -0.0000 -0.1414
vn -0.9884 0.0565 -0.1412
vn -0.9899 -0.1414 -0.0000
vn -0.9884 -0.0565 -0.1412
vn -0.9884 -0.1412 0.0565
vn -0.0000 -0.9899 -0.1414
vn -0.0565 -0.9884 -0.1412
vn 0.1414 -0.9899 -0.0000
vn 0.0565 -0.9884 -0.1412
vn 0.1412 -0.9884 0.0565
vn 0.1414 -0.0000 0.9899
vn 0.1412 -0.0565 0.9884
vn -0.0000 0.1414 0.9899
vn 0.1412 0.0565 0.9884
vn -0.0565 0.1412 0.9884
vn -0.1412 -0.0565 0.9884
vn -0.0565 -0.9884 0.1412
vn -0.9884 0.0565 0.1412
vn 0.1412 -0.0565 -0.9884
vn 0.9884 -0.0565 0.1412
vn 0.0565 0.9884 0.1412
vn 0.1412 0.9884 -0.0565
vn -0.1412 0.9884 -0.0565
vn -0.0565 0.9884 0.1412
vn 0.9884 -0.1412 -0.0565
vn 0.9884 0.1412 -0.0565
vn 0.9884 0.0565 0.1412
vn -0.0565 -0.1412 -0.9884
vn -0.0565 0.1412 -0.9884
vn 0.1412 0.0565 -0.9884
vn -0.9884 0.1412 -0.0565
vn -0.9884 -0.1412 -0.0565
vn -0.9884 -0.0565 0.1412
vn -0.1412 -0.9884 -0.0565
vn 0.1412 -0.9884 -0.0565
vn 0.0565 -0.9884 0.1412
vn 0.0565 -0.1412 0.9884
vn 0.0565 0.1412 0.9884
vn -0.1412 0.0565 0.9884
vt 0.843750 0.718750
vt 0.875000 0.750000
vt 0.843750 0.750000
vt 0.593750 0.968750
vt 0.625000 1.000000
vt 0.593750 1.000000
vt 0.593750 0.218750
vt 0.625000 0.250000
vt 0.593750 0.250000
vt 0.343750 0.718750
vt 0.375000 0.750000
vt 0.343750 0.750000
vt 0.593750 0.718750
vt 0.625000 0.750000
vt 0.593750 0.750000
vt 0.593750 0.468750
vt 0.625000 0.500000
vt 0.593750 0.500000
vt 0.500000 0.468750
vt 0.468750 0.500000
vt 0.468750 0.468750
vt 0.500000 0.343750
vt 0.468750 0.375000
vt 0.468750 0.343750
vt 0.625000 0.343750
vt 0.593750 0.375000
vt 0.593750 0.343750
vt 0.500000 0.718750
vt 0.468750 0.750000
vt 0.468750 0.718750
vt 0.500000 0.593750
vt 0.468750 0.625000
vt 0.468750 0.593750
vt 0.625000 0.593750
vt 0.593750 0.625000
vt 0.593750 0.593750
vt 0.250000 0.718750
vt 0.218750 0.750000
vt 0.218750 0.718750
vt 0.250000 0.593750
vt 0.218750 0.625000
vt 0.218750 0.593750
vt 0.375000 0.593750
vt 0.343750 0.625000
vt 0.343750 0.593750
vt 0.500000 0.218750
vt 0.468750 0.250000
vt 0.468750 0.218750
vt 0.500000 0.093750
vt 0.468750 0.125000
vt 0.468750 0.093750
vt 0.625000 0.093750
vt 0.593750 0.125000
vt 0.593750 0.093750
vt 0.500000 0.968750
vt 0.468750 1.000000
vt 0.468750 0.968750
vt 0.500000 0.843750
vt 0.468750 0.875000
vt 0.468750 0.843750
vt 0.625000 0.843750
vt 0.593750 0.875000
vt 0.593750 0.843750
vt 0.750000 0.718750
vt 0.718750 0.750000
vt 0.718750 0.718750
vt 0.750000 0.593750
vt 0.718750 0.625000
vt 0.718750 0.593750
vt 0.875000 0.593750
vt 0.843750 0.625000
vt 0.843750 0.593750
vt 0.812500 0.593750
vt 0.781250 0.625000
vt 0.781250 0.593750
vt 0.812500 0.531250
vt 0.781250 0.562500
vt 0.781250 0.531250
vt 0.875000 0.531250
vt 0.843750 0.562500
vt 0.843750 0.531250
vt 0.687500 0.593750
vt 0.656250 0.625000
vt 0.656250 0.593750
vt 0.687500 0.531250
vt 0.656250 0.562500
vt 0.656250 0.531250
vt 0.750000 0.531250
vt 0.718750 0.562500
vt 0.718750 0.531250
vt 0.687500 0.718750
vt 0.656250 0.750000
vt 0.656250 0.718750
vt 0.687500 0.656250
vt 0.656250 0.687500
vt 0.656250 0.656250
vt 0.750000 0.656250
vt 0.718750 0.687500
vt 0.718750 0.656250
vt 0.562500 0.843750
vt 0.531250 0.875000
vt 0.531250 0.843750
vt 0.562500 0.781250
vt 0.531250 0.812500
vt 0.531250 0.781250
vt 0.625000 0.781250
vt 0.593750 0.812500
vt 0.593750 0.781250
vt 0.437500 0.843750
vt 0.406250 0.875000
vt 0.406250 0.843750
vt 0.437500 0.781250
vt 0.406250 0.812500
vt 0.406250 0.781250
vt 0.500000 0.781250
vt 0.468750 0.812500
vt 0.468750 0.781250
vt 0.437500 0.968750
vt 0.406250 1.000000
vt 0.406250 0.968750
vt 0.437500 0.906250
vt 0.406250 0.937500
vt 0.406250 0.906250
vt 0.500000 0.906250
vt 0.468750 0.937500
vt 0.468750 0.906250
vt 0.562500 0.093750
vt 0.531250 0.125000
vt 0.531250 0.093750
vt 0.562500 0.031250
vt 0.531250 0.062500
vt 0.531250 0.031250
vt 0.625000 0.031250
vt 0.593750 0.062500
vt 0.593750 0.031250
vt 0.437500 0.093750
vt 0.406250 0.125000
vt 0.406250 0.093750
vt 0.437500 0.031250
vt 0.406250 0.062500
vt 0.406250 0.031250
vt 0.500000 0.031250
vt 0.468750 0.062500
vt 0.468750 0.031250
vt 0.437500 0.218750
vt 0.406250 0.250000
vt 0.406250 0.218750
vt 0.437500 0.156250
vt 0.406250 0.187500
vt 0.406250 0.156250
vt 0.500000 0.156250
vt 0.468750 0.187500
vt 0.468750 0.156250
vt 0.312500 0.593750
vt 0.281250 0.625000
vt 0.281250 0.593750
vt 0.312500 0.531250
vt 0.281250 0.562500
vt 0.281250 0.531250
vt 0.375000 0.531250
vt 0.343750 0.562500
vt 0.343750 0.531250
vt 0.187500 0.593750
vt 0.156250 0.625000
vt 0.156250 0.593750
vt 0.187500 0.531250
vt 0.156250 0.562500
vt 0.156250 0.531250
vt 0.250000 0.531250
vt 0.218750 0.562500
vt 0.218750 0.531250
vt 0.187500 0.718750
vt 0.156250 0.750000
vt 0.156250 0.718750
vt 0.187500 0.656250
vt 0.156250 0.687500
vt 0.156250 0.656250
vt 0.250000 0.656250
vt 0.218750 0.687500
vt 0.218750 0.656250
vt 0.562500 0.593750
vt 0.531250 0.625000
vt 0.531250 0.593750
vt 0.562500 0.531250
vt 0.531250 0.562500
vt 0.531250 0.531250
vt 0.625000 0.531250
vt 0.593750 0.562500
vt 0.593750 0.531250
vt 0.437500 0.593750
vt 0.406250 0.625000
vt 0.406250 0.593750
vt 0.437500 0.531250
vt 0.406250 0.562500
vt 0.406250 0.531250
vt 0.500000 0.531250
vt 0.468750 0.562500
vt 0.468750 0.531250
vt 0.437500 0.718750
vt 0.406250 0.750000
vt 0.406250 0.718750
vt 0.437500 0.656250
vt 0.406250 0.687500
vt 0.406250 0.656250
vt 0.500000 0.656250
vt 0.468750 0.687500
vt 0.468750 0.656250
vt 0.562500 0.343750
vt 0.531250 0.375000
vt 0.531250 0.343750
vt 0.562500 0.281250
vt 0.531250 0.312500
vt 0.531250 0.281250
vt 0.625000 0.281250
vt 0.593750 0.312500
vt 0.593750 0.281250
vt 0.437500 0.343750
vt 0.406250 0.375000
vt 0.406250 0.343750
vt 0.437500 0.281250
vt 0.406250 0.312500
vt 0.406250 0.281250
vt 0.500000 0.281250
vt 0.468750 0.312500
vt 0.468750 0.281250
vt 0.437500 0.468750
vt 0.406250 0.500000
vt 0.406250 0.468750
vt 0.437500 0.406250
vt 0.406250 0.437500
vt 0.406250 0.406250
vt 0.500000 0.406250
vt 0.468750 0.437500
vt 0.468750 0.406250
vt 0.562500 0.468750
vt 0.531250 0.500000
vt 0.531250 0.468750
vt 0.562500 0.406250
vt 0.531250 0.437500
vt 0.531250 0.406250
vt 0.625000 0.406250
vt 0.593750 0.437500
vt 0.593750 0.406250
vt 0.562500 0.718750
vt 0.531250 0.750000
vt 0.531250 0.718750
vt 0.562500 0.656250
vt 0.531250 0.687500
vt 0.531250 0.656250
vt 0.625000 0.656250
vt 0.593750 0.687500
vt 0.593750 0.656250
vt 0.312500 0.718750
vt 0.281250 0.750000
vt 0.281250 0.718750
vt 0.312500 0.656250
vt 0.281250 0.687500
vt 0.281250 0.656250
vt 0.375000 0.656250
vt 0.343750 0.687500
vt 0.343750 0.656250
vt 0.562500 0.218750
vt 0.531250 0.250000
vt 0.531250 0.218750
vt 0.562500 0.156250
vt 0.531250 0.187500
vt 0.531250 0.156250
vt 0.625000 0.156250
vt 0.593750 0.187500
vt 0.593750 0.156250
vt 0.562500 0.968750
vt 0.531250 1.000000
vt 0.531250 0.968750
vt 0.562500 0.906250
vt 0.531250 0.937500
vt 0.531250 0.906250
vt 0.625000 0.906250
vt 0.593750 0.937500
vt 0.593750 0.906250
vt 0.812500 0.718750
vt 0.781250 0.750000
vt 0.781250 0.718750
vt 0.812500 0.656250
vt 0.781250 0.687500
vt 0.781250 0.656250
vt 0.875000 0.656250
vt 0.843750 0.687500
vt 0.843750 0.656250
vt 0.812500 0.687500
vt 0.812500 0.625000
vt 0.875000 0.625000
vt 0.750000 0.687500
vt 0.750000 0.625000
vt 0.750000 0.750000
vt 0.562500 0.937500
vt 0.562500 0.875000
vt 0.625000 0.875000
vt 0.500000 0.937500
vt 0.500000 0.875000
vt 0.500000 1.000000
vt 0.562500 0.187500
vt 0.562500 0.125000
vt 0.625000 0.125000
vt 0.500000 0.187500
vt 0.500000 0.125000
vt 0.500000 0.250000
vt 0.312500 0.687500
vt 0.312500 0.625000
vt 0.375000 0.625000
vt 0.250000 0.687500
vt 0.250000 0.625000
vt 0.250000 0.750000
vt 0.562500 0.687500
vt 0.562500 0.625000
vt 0.625000 0.625000
vt 0.500000 0.687500
vt 0.500000 0.625000
vt 0.500000 0.750000
vt 0.562500 0.437500
vt 0.562500 0.375000
vt 0.625000 0.375000
vt 0.500000 0.437500
vt 0.500000 0.375000
vt 0.500000 0.500000
vt 0.437500 0.437500
vt 0.437500 0.375000
vt 0.375000 0.437500
vt 0.375000 0.406250
vt 0.375000 0.375000
vt 0.375000 0.500000
vt 0.375000 0.468750
vt 0.437500 0.312500
vt 0.437500 0.250000
vt 0.375000 0.312500
vt 0.375000 0.281250
vt 0.375000 0.250000
vt 0.375000 0.343750
vt 0.562500 0.312500
vt 0.562500 0.250000
vt 0.500000 0.312500
vt 0.437500 0.687500
vt 0.437500 0.625000
vt 0.375000 0.687500
vt 0.375000 0.718750
vt 0.437500 0.562500
vt 0.437500 0.500000
vt 0.375000 0.562500
vt 0.562500 0.562500
vt 0.562500 0.500000
vt 0.500000 0.562500
vt 0.187500 0.687500
vt 0.187500 0.625000
vt 0.125000 0.687500
vt 0.125000 0.656250
vt 0.125000 0.625000
vt 0.125000 0.750000
vt 0.125000 0.718750
vt 0.187500 0.562500
vt 0.218750 0.500000
vt 0.187500 0.500000
vt 0.250000 0.500000
vt 0.125000 0.562500
vt 0.125000 0.531250
vt 0.125000 0.500000
vt 0.156250 0.500000
vt 0.125000 0.593750
vt 0.312500 0.562500
vt 0.343750 0.500000
vt 0.312500 0.500000
vt 0.250000 0.562500
vt 0.281250 0.500000
vt 0.437500 0.187500
vt 0.437500 0.125000
vt 0.375000 0.187500
vt 0.375000 0.156250
vt 0.375000 0.125000
vt 0.375000 0.218750
vt 0.437500 0.062500
vt 0.468750 0.000000
vt 0.437500 0.000000
vt 0.500000 0.000000
vt 0.375000 0.062500
vt 0.375000 0.031250
vt 0.375000 0.000000
vt 0.406250 0.000000
vt 0.375000 0.093750
vt 0.562500 0.062500
vt 0.593750 0.000000
vt 0.562500 0.000000
vt 0.625000 0.000000
vt 0.500000 0.062500
vt 0.531250 0.000000
vt 0.437500 0.937500
vt 0.437500 0.875000
vt 0.375000 0.937500
vt 0.375000 0.906250
vt 0.375000 0.875000
vt 0.375000 1.000000
vt 0.375000 0.968750
vt 0.437500 0.812500
vt 0.437500 0.750000
vt 0.375000 0.812500
vt 0.375000 0.781250
vt 0.375000 0.843750
vt 0.562500 0.812500
vt 0.562500 0.750000
vt 0.500000 0.812500
vt 0.687500 0.687500
vt 0.687500 0.625000
vt 0.625000 0.687500
vt 0.625000 0.718750
vt 0.687500 0.562500
vt 0.718750 0.500000
vt 0.687500 0.500000
vt 0.750000 0.500000
vt 0.625000 0.562500
vt 0.656250 0.500000
vt 0.812500 0.562500
vt 0.843750 0.500000
vt 0.812500 0.500000
vt 0.875000 0.500000
vt 0.750000 0.562500
vt 0.781250 0.500000
vt 0.875000 0.562500
vt 0.687500 0.750000
vt 0.625000 0.812500
vt 0.437500 1.000000
vt 0.625000 0.062500
vt 0.187500 0.750000
vt 0.625000 0.312500
vt 0.625000 0.437500
vt 0.312500 0.750000
vt 0.625000 0.187500
vt 0.562500 1.000000
vt 0.625000 0.937500
vt 0.812500 0.750000
vt 0.875000 0.687500
vt 0.875000 0.718750
vt 0.625000 0.968750
vt 0.625000 0.218750
vt 0.625000 0.468750
s 0
usemtl Material
f 386/1/1 7/2/1 105/3/1
f 385/4/2 7/5/2 102/6/2
f 384/7/3 5/8/3 164/9/3
f 383/10/4 4/11/4 107/12/4
f 382/13/5 3/14/5 163/15/5
f 381/16/6 1/17/6 161/18/6
f 123/19/7 149/20/7 380/21/7
f 124/22/8 173/23/8 379/24/8
f 121/25/9 174/26/9 378/27/9
f 127/28/10 151/29/10 377/30/10
f 128/31/11 177/32/11 376/33/11
f 118/34/12 178/35/12 375/36/12
f 131/37/13 119/38/13 374/39/13
f 132/40/14 181/41/14 373/42/14
f 158/43/15 182/44/15 372/45/15
f 135/46/16 152/47/16 371/48/16
f 136/49/17 185/50/17 370/51/17
f 120/52/18 186/53/18 369/54/18
f 139/55/19 114/56/19 368/57/19
f 140/58/20 189/59/20 367/60/20
f 117/61/21 190/62/21 366/63/21
f 143/64/22 117/65/22 365/66/22
f 144/67/23 193/68/23 364/69/23
f 156/70/24 194/71/24 363/72/24
f 195/73/23 146/74/23 362/75/23
f 196/76/23 197/77/23 361/78/23
f 108/79/24 198/80/24 360/81/24
f 199/82/23 145/83/23 359/84/23
f 200/85/23 201/86/23 358/87/23
f 192/88/23 202/89/23 357/90/23
f 203/91/22 165/92/22 356/93/22
f 204/94/23 205/95/23 355/96/23
f 191/97/23 206/98/23 354/99/23
f 207/100/20 142/101/20 353/102/20
f 208/103/20 209/104/20 352/105/20
f 165/106/21 210/107/21 351/108/21
f 211/109/20 141/110/20 350/111/20
f 212/112/20 213/113/20 349/114/20
f 188/115/20 214/116/20 348/117/20
f 215/118/19 162/119/19 347/120/19
f 216/121/20 217/122/20 346/123/20
f 187/124/20 218/125/20 345/126/20
f 219/127/17 138/128/17 344/129/17
f 220/130/17 221/131/17 343/132/17
f 168/133/18 222/134/18 342/135/18
f 223/136/17 137/137/17 341/138/17
f 224/139/17 225/140/17 340/141/17
f 184/142/17 226/143/17 339/144/17
f 227/145/16 104/146/16 338/147/16
f 228/148/17 229/149/17 337/150/17
f 183/151/17 230/152/17 336/153/17
f 231/154/14 134/155/14 335/156/14
f 232/157/14 233/158/14 334/159/14
f 110/160/15 234/161/15 333/162/15
f 235/163/14 133/164/14 332/165/14
f 236/166/14 237/167/14 331/168/14
f 180/169/14 238/170/14 330/171/14
f 239/172/13 167/173/13 329/174/13
f 240/175/14 241/176/14 328/177/14
f 179/178/14 242/179/14 327/180/14
f 243/181/11 130/182/11 326/183/11
f 244/184/11 245/185/11 325/186/11
f 166/187/12 246/188/12 324/189/12
f 247/190/11 129/191/11 323/192/11
f 248/193/11 249/194/11 322/195/11
f 176/196/11 250/197/11 321/198/11
f 251/199/10 103/200/10 320/201/10
f 252/202/11 253/203/11 319/204/11
f 175/205/11 254/206/11 318/207/11
f 255/208/8 126/209/8 317/210/8
f 256/211/8 257/212/8 316/213/8
f 169/214/9 258/215/9 315/216/9
f 259/217/8 125/218/8 314/219/8
f 260/220/8 261/221/8 313/222/8
f 172/223/8 262/224/8 312/225/8
f 263/226/7 101/227/7 311/228/7
f 264/229/8 265/230/8 310/231/8
f 171/232/8 266/233/8 309/234/8
f 267/235/7 113/236/7 308/237/7
f 268/238/8 269/239/8 307/240/8
f 157/241/9 270/242/9 306/243/9
f 271/244/10 115/245/10 305/246/10
f 272/247/11 273/248/11 304/249/11
f 154/250/12 274/251/12 303/252/12
f 275/253/13 155/254/13 302/255/13
f 276/256/14 277/257/14 301/258/14
f 122/259/15 278/260/15 300/261/15
f 279/262/16 116/263/16 299/264/16
f 280/265/17 281/266/17 298/267/17
f 156/268/18 282/269/18 297/270/18
f 283/271/19 150/272/19 296/273/19
f 284/274/20 285/275/20 295/276/20
f 153/277/21 286/278/21 294/279/21
f 287/280/22 153/281/22 293/282/22
f 288/283/23 289/284/23 292/285/23
f 120/286/24 290/287/24 291/288/24
f 291/288/23 98/289/23 288/283/23
f 194/71/23 288/283/23 74/290/23
f 18/291/24 291/288/24 194/71/24
f 292/285/23 71/292/23 191/97/23
f 146/74/23 191/97/23 26/293/23
f 74/290/23 292/285/23 146/74/23
f 293/282/22 15/294/22 143/64/22
f 289/284/23 143/64/23 71/292/23
f 98/289/23 293/282/23 289/284/23
f 294/279/20 97/295/20 284/274/20
f 190/62/20 284/274/20 70/296/20
f 15/297/21 294/279/21 190/62/21
f 295/276/20 67/298/20 187/124/20
f 142/101/20 187/124/20 25/299/20
f 70/296/20 295/276/20 142/101/20
f 296/273/19 12/300/19 139/55/19
f 285/275/20 139/55/20 67/298/20
f 97/295/20 296/273/20 285/275/20
f 297/270/17 96/301/17 280/265/17
f 186/53/17 280/265/17 66/302/17
f 18/303/18 297/270/18 186/53/18
f 298/267/17 63/304/17 183/151/17
f 138/128/17 183/151/17 24/305/17
f 66/302/17 298/267/17 138/128/17
f 299/264/16 14/306/16 135/46/16
f 281/266/17 135/46/17 63/304/17
f 96/301/17 299/264/17 281/266/17
f 300/261/14 95/307/14 276/256/14
f 182/44/14 276/256/14 62/308/14
f 20/309/15 300/261/15 182/44/15
f 301/258/14 59/310/14 179/178/14
f 134/155/14 179/178/14 23/311/14
f 62/308/14 301/258/14 134/155/14
f 302/255/13 17/312/13 131/37/13
f 277/257/14 131/37/14 59/310/14
f 95/307/14 302/255/14 277/257/14
f 303/252/11 94/313/11 272/247/11
f 178/35/11 272/247/11 58/314/11
f 16/315/12 303/252/12 178/35/12
f 304/249/11 55/316/11 175/205/11
f 130/182/11 175/205/11 22/317/11
f 58/314/11 304/249/11 130/182/11
f 305/246/10 13/318/10 127/28/10
f 273/248/11 127/28/11 55/316/11
f 94/313/11 305/246/11 273/248/11
f 306/243/8 93/319/8 268/238/8
f 174/26/8 268/238/8 54/320/8
f 19/321/9 306/243/9 174/26/9
f 307/240/8 51/322/8 171/232/8
f 126/209/8 171/232/8 21/323/8
f 54/320/8 307/240/8 126/209/8
f 308/237/7 11/324/7 123/19/7
f 269/239/8 123/19/8 51/322/8
f 93/319/8 308/237/8 269/239/8
f 309/234/8 92/325/8 264/229/8
f 173/23/8 264/229/8 53/326/8
f 21/323/8 309/234/8 173/23/8
f 310/231/25 40/327/25 112/328/25
f 125/218/25 112/328/25 10/329/25
f 53/326/8 310/231/8 125/218/8
f 311/228/26 2/330/26 160/331/26
f 265/230/25 160/331/25 40/327/25
f 92/325/8 311/228/8 265/230/8
f 312/225/8 91/332/8 260/220/8
f 152/47/27 260/220/27 32/333/27
f 14/306/27 312/225/27 152/47/27
f 313/222/25 28/334/25 100/335/25
f 6/336/28 313/222/28 100/335/28
f 32/333/27 313/222/27 104/146/27
f 314/219/25 10/329/25 148/337/25
f 261/221/25 148/337/25 28/334/25
f 91/332/8 314/219/8 261/221/8
f 315/216/8 90/338/8 256/211/8
f 164/9/27 256/211/27 44/339/27
f 5/8/29 315/216/29 164/9/29
f 316/213/8 52/340/8 172/223/8
f 116/263/27 172/223/27 14/306/27
f 44/339/27 316/213/27 116/263/27
f 317/210/8 21/323/8 124/22/8
f 257/212/8 124/22/8 52/340/8
f 90/338/8 317/210/8 257/212/8
f 318/207/11 89/341/11 252/202/11
f 177/32/11 252/202/11 57/342/11
f 22/317/11 318/207/11 177/32/11
f 319/204/30 50/343/30 122/259/30
f 129/191/30 122/259/30 20/309/30
f 57/342/11 319/204/11 129/191/11
f 320/201/31 4/11/31 170/344/31
f 253/203/30 170/344/30 50/343/30
f 89/341/11 320/201/11 253/203/11
f 321/198/11 88/345/11 248/193/11
f 149/20/32 248/193/32 29/346/32
f 11/324/32 321/198/32 149/20/32
f 322/195/30 38/347/30 110/160/30
f 2/330/33 322/195/33 110/160/33
f 29/346/32 322/195/32 101/227/32
f 323/192/30 20/309/30 158/43/30
f 249/194/30 158/43/30 38/347/30
f 88/345/11 323/192/11 249/194/11
f 324/189/11 87/348/11 244/184/11
f 161/18/32 244/184/32 41/349/32
f 1/17/34 324/189/34 161/18/34
f 325/186/11 56/350/11 176/196/11
f 113/236/32 176/196/32 11/324/32
f 41/349/32 325/186/32 113/236/32
f 326/183/11 22/317/11 128/31/11
f 245/185/11 128/31/11 56/350/11
f 87/348/11 326/183/11 245/185/11
f 327/180/14 86/351/14 240/175/14
f 181/41/14 240/175/14 61/352/14
f 23/311/14 327/180/14 181/41/14
f 328/177/35 27/353/35 147/354/35
f 133/164/35 147/354/35 9/355/35
f 61/352/14 328/177/14 133/164/14
f 329/174/36 8/356/36 99/357/36
f 241/176/35 99/357/35 27/353/35
f 86/351/14 329/174/14 241/176/14
f 330/171/14 85/358/14 236/166/14
f 148/359/37 236/166/37 28/360/37
f 10/361/37 330/171/37 148/359/37
f 331/168/35 39/362/35 159/363/35
f 6/364/38 331/168/38 159/363/38
f 28/360/37 331/168/37 100/365/37
f 332/165/35 9/355/35 111/366/35
f 237/167/35 111/366/35 39/362/35
f 85/358/14 332/165/14 237/167/14
f 333/162/14 84/367/14 232/157/14
f 160/368/37 232/157/37 40/369/37
f 2/330/39 333/162/39 160/368/39
f 334/159/14 60/370/14 180/169/14
f 112/371/37 180/169/37 10/361/37
f 40/369/37 334/159/37 112/371/37
f 335/156/14 23/311/14 132/40/14
f 233/158/14 132/40/14 60/370/14
f 84/367/14 335/156/14 233/158/14
f 336/153/17 83/372/17 228/148/17
f 185/50/17 228/148/17 65/373/17
f 24/305/17 336/153/17 185/50/17
f 337/150/40 39/374/40 111/375/40
f 137/137/40 111/375/40 9/376/40
f 65/373/17 337/150/17 137/137/17
f 338/147/41 6/336/41 159/377/41
f 229/149/40 159/377/40 39/374/40
f 83/372/17 338/147/17 229/149/17
f 339/144/17 82/378/17 224/139/17
f 114/379/42 224/139/42 42/380/42
f 12/381/42 339/144/42 114/379/42
f 340/141/40 27/382/40 99/383/40
f 8/384/43 340/141/43 99/383/43
f 42/380/42 340/141/42 162/385/42
f 341/138/40 9/376/40 147/386/40
f 225/140/40 147/386/40 27/382/40
f 82/378/17 341/138/17 225/140/17
f 342/135/17 81/387/17 220/130/17
f 102/388/42 220/130/42 30/389/42
f 7/390/44 342/135/44 102/388/44
f 343/132/17 64/391/17 184/142/17
f 150/392/42 184/142/42 12/381/42
f 30/389/42 343/132/42 150/392/42
f 344/129/17 24/305/17 136/49/17
f 221/131/17 136/49/17 64/391/17
f 81/387/17 344/129/17 221/131/17
f 345/126/20 80/393/20 216/121/20
f 189/59/20 216/121/20 69/394/20
f 25/299/20 345/126/20 189/59/20
f 346/123/45 47/395/45 119/396/45
f 141/110/45 119/396/45 17/397/45
f 69/394/20 346/123/20 141/110/20
f 347/120/46 8/398/46 167/399/46
f 217/122/45 167/399/45 47/395/45
f 80/393/20 347/120/20 217/122/20
f 348/117/20 79/400/20 212/112/20
f 151/29/47 212/112/47 31/401/47
f 13/318/47 348/117/47 151/29/47
f 349/114/45 35/402/45 107/403/45
f 4/11/48 349/114/48 107/403/48
f 31/401/47 349/114/47 103/200/47
f 350/111/45 17/397/45 155/404/45
f 213/113/45 155/404/45 35/402/45
f 79/400/20 350/111/20 213/113/20
f 351/108/20 78/405/20 208/103/20
f 163/15/47 208/103/47 43/406/47
f 3/14/49 351/108/49 163/15/49
f 352/105/20 68/407/20 188/115/20
f 115/245/47 188/115/47 13/318/47
f 43/406/47 352/105/47 115/245/47
f 353/102/20 25/299/20 140/58/20
f 209/104/20 140/58/20 68/407/20
f 78/405/20 353/102/20 209/104/20
f 354/99/23 77/408/23 204/94/23
f 193/68/23 204/94/23 73/409/23
f 26/293/23 354/99/23 193/68/23
f 355/96/50 34/410/50 154/250/50
f 145/83/50 154/250/50 16/315/50
f 73/409/23 355/96/23 145/83/23
f 356/93/51 3/14/51 106/411/51
f 205/95/50 106/411/50 34/410/50
f 77/408/23 356/93/23 205/95/23
f 357/90/23 76/412/23 200/85/23
f 157/413/52 200/85/52 37/414/52
f 19/415/52 357/90/52 157/413/52
f 358/87/50 46/416/50 166/187/50
f 1/17/53 358/87/53 166/187/53
f 37/414/52 358/87/52 109/417/52
f 359/84/50 16/315/50 118/34/50
f 201/86/50 118/34/50 46/416/50
f 76/412/23 359/84/23 201/86/23
f 360/81/23 75/418/23 196/76/23
f 169/419/52 196/76/52 49/420/52
f 5/421/54 360/81/54 169/419/54
f 361/78/23 72/422/23 192/88/23
f 121/423/52 192/88/52 19/415/52
f 49/420/52 361/78/52 121/423/52
f 362/75/23 26/293/23 144/67/23
f 197/77/23 144/67/23 72/422/23
f 75/418/23 362/75/23 197/77/23
f 363/72/23 74/290/23 195/73/23
f 198/80/23 195/73/23 75/418/23
f 36/424/24 363/72/24 198/80/24
f 364/69/23 73/409/23 199/82/23
f 202/89/23 199/82/23 76/412/23
f 72/422/23 364/69/23 202/89/23
f 365/66/22 45/425/22 203/91/22
f 206/98/23 203/91/23 77/408/23
f 71/292/23 365/66/23 206/98/23
f 366/63/20 70/296/20 207/100/20
f 210/107/20 207/100/20 78/405/20
f 45/426/21 366/63/21 210/107/21
f 367/60/20 69/394/20 211/109/20
f 214/116/20 211/109/20 79/400/20
f 68/407/20 367/60/20 214/116/20
f 368/57/19 42/427/19 215/118/19
f 218/125/20 215/118/20 80/393/20
f 67/298/20 368/57/20 218/125/20
f 369/54/17 66/302/17 219/127/17
f 222/134/17 219/127/17 81/387/17
f 48/428/18 369/54/18 222/134/18
f 370/51/17 65/373/17 223/136/17
f 226/143/17 223/136/17 82/378/17
f 64/391/17 370/51/17 226/143/17
f 371/48/16 32/333/16 227/145/16
f 230/152/17 227/145/17 83/372/17
f 63/304/17 371/48/17 230/152/17
f 372/45/14 62/308/14 231/154/14
f 234/161/14 231/154/14 84/367/14
f 38/347/15 372/45/15 234/161/15
f 373/42/14 61/352/14 235/163/14
f 238/170/14 235/163/14 85/358/14
f 60/370/14 373/42/14 238/170/14
f 374/39/13 47/429/13 239/172/13
f 242/179/14 239/172/14 86/351/14
f 59/310/14 374/39/14 242/179/14
f 375/36/11 58/314/11 243/181/11
f 246/188/11 243/181/11 87/348/11
f 46/416/12 375/36/12 246/188/12
f 376/33/11 57/342/11 247/190/11
f 250/197/11 247/190/11 88/345/11
f 56/350/11 376/33/11 250/197/11
f 377/30/10 31/401/10 251/199/10
f 254/206/11 251/199/11 89/341/11
f 55/316/11 377/30/11 254/206/11
f 378/27/8 54/320/8 255/208/8
f 258/215/8 255/208/8 90/338/8
f 49/430/9 378/27/9 258/215/9
f 379/24/8 53/326/8 259/217/8
f 262/224/8 259/217/8 91/332/8
f 52/340/8 379/24/8 262/224/8
f 380/21/7 29/346/7 263/226/7
f 266/233/8 263/226/8 92/325/8
f 51/322/8 380/21/8 266/233/8
f 381/16/7 41/349/7 267/235/7
f 270/242/8 267/235/8 93/319/8
f 37/431/9 381/16/9 270/242/9
f 382/13/10 43/406/10 271/244/10
f 274/251/11 271/244/11 94/313/11
f 34/410/12 382/13/12 274/251/12
f 383/10/13 35/432/13 275/253/13
f 278/260/14 275/253/14 95/307/14
f 50/343/15 383/10/15 278/260/15
f 384/7/16 44/339/16 279/262/16
f 282/269/17 279/262/17 96/301/17
f 36/433/18 384/7/18 282/269/18
f 385/4/19 30/434/19 283/271/19
f 286/278/20 283/271/20 97/295/20
f 33/435/21 385/4/21 286/278/21
f 386/1/22 33/436/22 287/280/22
f 290/287/23 287/280/23 98/289/23
f 48/437/24 386/1/24 290/287/24
f 386/1/55 168/438/55 7/2/55
f 385/4/56 105/439/56 7/5/56
f 384/7/57 108/440/57 5/8/57
f 383/10/58 170/344/58 4/11/58
f 382/13/59 106/411/59 3/14/59
f 381/16/60 109/441/60 1/17/60
f 123/19/7 11/324/7 149/20/7
f 124/22/8 21/323/8 173/23/8
f 121/25/9 19/321/9 174/26/9
f 127/28/10 13/318/10 151/29/10
f 128/31/11 22/317/11 177/32/11
f 118/34/12 16/315/12 178/35/12
f 131/37/13 17/312/13 119/38/13
f 132/40/14 23/311/14 181/41/14
f 158/43/15 20/309/15 182/44/15
f 135/46/16 14/306/16 152/47/16
f 136/49/17 24/305/17 185/50/17
f 120/52/18 18/303/18 186/53/18
f 139/55/19 12/300/19 114/56/19
f 140/58/20 25/299/20 189/59/20
f 117/61/21 15/297/21 190/62/21
f 143/64/22 15/294/22 117/65/22
f 144/67/23 26/293/23 193/68/23
f 156/70/24 18/291/24 194/71/24
f 195/73/23 74/290/23 146/74/23
f 196/76/23 75/418/23 197/77/23
f 108/79/24 36/424/24 198/80/24
f 199/82/23 73/409/23 145/83/23
f 200/85/23 76/412/23 201/86/23
f 192/88/23 72/422/23 202/89/23
f 203/91/22 45/425/22 165/92/22
f 204/94/23 77/408/23 205/95/23
f 191/97/23 71/292/23 206/98/23
f 207/100/20 70/296/20 142/101/20
f 208/103/20 78/405/20 209/104/20
f 165/106/21 45/426/21 210/107/21
f 211/109/20 69/394/20 141/110/20
f 212/112/20 79/400/20 213/113/20
f 188/115/20 68/407/20 214/116/20
f 215/118/19 42/427/19 162/119/19
f 216/121/20 80/393/20 217/122/20
f 187/124/20 67/298/20 218/125/20
f 219/127/17 66/302/17 138/128/17
f 220/130/17 81/387/17 221/131/17
f 168/133/18 48/428/18 222/134/18
f 223/136/17 65/373/17 137/137/17
f 224/139/17 82/378/17 225/140/17
f 184/142/17 64/391/17 226/143/17
f 227/145/16 32/333/16 104/146/16
f 228/148/17 83/372/17 229/149/17
f 183/151/17 63/304/17 230/152/17
f 231/154/14 62/308/14 134/155/14
f 232/157/14 84/367/14 233/158/14
f 110/160/15 38/347/15 234/161/15
f 235/163/14 61/352/14 133/164/14
f 236/166/14 85/358/14 237/167/14
f 180/169/14 60/370/14 238/170/14
f 239/172/13 47/429/13 167/173/13
f 240/175/14 86/351/14 241/176/14
f 179/178/14 59/310/14 242/179/14
f 243/181/11 58/314/11 130/182/11
f 244/184/11 87/348/11 245/185/11
f 166/187/12 46/416/12 246/188/12
f 247/190/11 57/342/11 129/191/11
f 248/193/11 88/345/11 249/194/11
f 176/196/11 56/350/11 250/197/11
f 251/199/10 31/401/10 103/200/10
f 252/202/11 89/341/11 253/203/11
f 175/205/11 55/316/11 254/206/11
f 255/208/8 54/320/8 126/209/8
f 256/211/8 90/338/8 257/212/8
f 169/214/9 49/430/9 258/215/9
f 259/217/8 53/326/8 125/218/8
f 260/220/8 91/332/8 261/221/8
f 172/223/8 52/340/8 262/224/8
f 263/226/7 29/346/7 101/227/7
f 264/229/8 92/325/8 265/230/8
f 171/232/8 51/322/8 266/233/8
f 267/235/7 41/349/7 113/236/7
f 268/238/8 93/319/8 269/239/8
f 157/241/9 37/431/9 270/242/9
f 271/244/10 43/406/10 115/245/10
f 272/247/11 94/313/11 273/248/11
f 154/250/12 34/410/12 274/251/12
f 275/253/13 35/432/13 155/254/13
f 276/256/14 95/307/14 277/257/14
f 122/259/15 50/343/15 278/260/15
f 279/262/16 44/339/16 116/263/16
f 280/265/17 96/301/17 281/266/17
f 156/268/18 36/433/18 282/269/18
f 283/271/19 30/434/19 150/272/19
f 284/274/20 97/295/20 285/275/20
f 153/277/21 33/435/21 286/278/21
f 287/280/22 33/436/22 153/281/22
f 288/283/23 98/289/23 289/284/23
f 120/286/24 48/437/24 290/287/24
f 291/288/23 290/287/23 98/289/23
f 194/71/23 291/288/23 288/283/23
f 18/291/24 120/286/24 291/288/24
f 292/285/23 289/284/23 71/292/23
f 146/74/23 292/285/23 191/97/23
f 74/290/23 288/283/23 292/285/23
f 293/282/22 153/281/22 15/294/22
f 289/284/23 293/282/23 143/64/23
f 98/289/23 287/280/23 293/282/23
f 294/279/20 286/278/20 97/295/20
f 190/62/20 294/279/20 284/274/20
f 15/297/21 153/277/21 294/279/21
f 295/276/20 285/275/20 67/298/20
f 142/101/20 295/276/20 187/124/20
f 70/296/20 284/274/20 295/276/20
f 296/273/19 150/272/19 12/300/19
f 285/275/20 296/273/20 139/55/20
f 97/295/20 283/271/20 296/273/20
f 297/270/17 282/269/17 96/301/17
f 186/53/17 297/270/17 280/265/17
f 18/303/18 156/268/18 297/270/18
f 298/267/17 281/266/17 63/304/17
f 138/128/17 298/267/17 183/151/17
f 66/302/17 280/265/17 298/267/17
f 299/264/16 116/263/16 14/306/16
f 281/266/17 299/264/17 135/46/17
f 96/301/17 279/262/17 299/264/17
f 300/261/14 278/260/14 95/307/14
f 182/44/14 300/261/14 276/256/14
f 20/309/15 122/259/15 300/261/15
f 301/258/14 277/257/14 59/310/14
f 134/155/14 301/258/14 179/178/14
f 62/308/14 276/256/14 301/258/14
f 302/255/13 155/254/13 17/312/13
f 277/257/14 302/255/14 131/37/14
f 95/307/14 275/253/14 302/255/14
f 303/252/11 274/251/11 94/313/11
f 178/35/11 303/252/11 272/247/11
f 16/315/12 154/250/12 303/252/12
f 304/249/11 273/248/11 55/316/11
f 130/182/11 304/249/11 175/205/11
f 58/314/11 272/247/11 304/249/11
f 305/246/10 115/245/10 13/318/10
f 273/248/11 305/246/11 127/28/11
f 94/313/11 271/244/11 305/246/11
f 306/243/8 270/242/8 93/319/8
f 174/26/8 306/243/8 268/238/8
f 19/321/9 157/241/9 306/243/9
f 307/240/8 269/239/8 51/322/8
f 126/209/8 307/240/8 171/232/8
f 54/320/8 268/238/8 307/240/8
f 308/237/7 113/236/7 11/324/7
f 269/239/8 308/237/8 123/19/8
f 93/319/8 267/235/8 308/237/8
f 309/234/8 266/233/8 92/325/8
f 173/23/8 309/234/8 264/229/8
f 21/323/8 171/232/8 309/234/8
f 310/231/25 265/230/25 40/327/25
f 125/218/25 310/231/25 112/328/25
f 53/326/8 264/229/8 310/231/8
f 311/228/61 101/227/61 2/330/61
f 265/230/25 311/228/25 160/331/25
f 92/325/8 263/226/8 311/228/8
f 312/225/8 262/224/8 91/332/8
f 152/47/27 312/225/27 260/220/27
f 14/306/27 172/223/27 312/225/27
f 313/222/25 261/221/25 28/334/25
f 6/336/62 104/146/62 313/222/62
f 32/333/27 260/220/27 313/222/27
f 314/219/25 125/218/25 10/329/25
f 261/221/25 314/219/25 148/337/25
f 91/332/8 259/217/8 314/219/8
f 315/216/8 258/215/8 90/338/8
f 164/9/27 315/216/27 256/211/27
f 5/8/63 169/214/63 315/216/63
f 316/213/8 257/212/8 52/340/8
f 116/263/27 316/213/27 172/223/27
f 44/339/27 256/211/27 316/213/27
f 317/210/8 126/209/8 21/323/8
f 257/212/8 317/210/8 124/22/8
f 90/338/8 255/208/8 317/210/8
f 318/207/11 254/206/11 89/341/11
f 177/32/11 318/207/11 252/202/11
f 22/317/11 175/205/11 318/207/11
f 319/204/30 253/203/30 50/343/30
f 129/191/30 319/204/30 122/259/30
f 57/342/11 252/202/11 319/204/11
f 320/201/64 103/200/64 4/11/64
f 253/203/30 320/201/30 170/344/30
f 89/341/11 251/199/11 320/201/11
f 321/198/11 250/197/11 88/345/11
f 149/20/32 321/198/32 248/193/32
f 11/324/32 176/196/32 321/198/32
f 322/195/30 249/194/30 38/347/30
f 2/330/65 101/227/65 322/195/65
f 29/346/32 248/193/32 322/195/32
f 323/192/30 129/191/30 20/309/30
f 249/194/30 323/192/30 158/43/30
f 88/345/11 247/190/11 323/192/11
f 324/189/11 246/188/11 87/348/11
f 161/18/32 324/189/32 244/184/32
f 1/17/66 166/187/66 324/189/66
f 325/186/11 245/185/11 56/350/11
f 113/236/32 325/186/32 176/196/32
f 41/349/32 244/184/32 325/186/32
f 326/183/11 130/182/11 22/317/11
f 245/185/11 326/183/11 128/31/11
f 87/348/11 243/181/11 326/183/11
f 327/180/14 242/179/14 86/351/14
f 181/41/14 327/180/14 240/175/14
f 23/311/14 179/178/14 327/180/14
f 328/177/35 241/176/35 27/353/35
f 133/164/35 328/177/35 147/354/35
f 61/352/14 240/175/14 328/177/14
f 329/174/67 167/173/67 8/356/67
f 241/176/35 329/174/35 99/357/35
f 86/351/14 239/172/14 329/174/14
f 330/171/14 238/170/14 85/358/14
f 148/359/37 330/171/37 236/166/37
f 10/361/37 180/169/37 330/171/37
f 331/168/35 237/167/35 39/362/35
f 6/364/68 100/365/68 331/168/68
f 28/360/37 236/166/37 331/168/37
f 332/165/35 133/164/35 9/355/35
f 237/167/35 332/165/35 111/366/35
f 85/358/14 235/163/14 332/165/14
f 333/162/14 234/161/14 84/367/14
f 160/368/37 333/162/37 232/157/37
f 2/330/69 110/160/69 333/162/69
f 334/159/14 233/158/14 60/370/14
f 112/371/37 334/159/37 180/169/37
f 40/369/37 232/157/37 334/159/37
f 335/156/14 134/155/14 23/311/14
f 233/158/14 335/156/14 132/40/14
f 84/367/14 231/154/14 335/156/14
f 336/153/17 230/152/17 83/372/17
f 185/50/17 336/153/17 228/148/17
f 24/305/17 183/151/17 336/153/17
f 337/150/40 229/149/40 39/374/40
f 137/137/40 337/150/40 111/375/40
f 65/373/17 228/148/17 337/150/17
f 338/147/70 104/146/70 6/336/70
f 229/149/40 338/147/40 159/377/40
f 83/372/17 227/145/17 338/147/17
f 339/144/17 226/143/17 82/378/17
f 114/379/42 339/144/42 224/139/42
f 12/381/42 184/142/42 339/144/42
f 340/141/40 225/140/40 27/382/40
f 8/384/71 162/385/71 340/141/71
f 42/380/42 224/139/42 340/141/42
f 341/138/40 137/137/40 9/376/40
f 225/140/40 341/138/40 147/386/40
f 82/378/17 223/136/17 341/138/17
f 342/135/17 222/134/17 81/387/17
f 102/388/42 342/135/42 220/130/42
f 7/390/72 168/133/72 342/135/72
f 343/132/17 221/131/17 64/391/17
f 150/392/42 343/132/42 184/142/42
f 30/389/42 220/130/42 343/132/42
f 344/129/17 138/128/17 24/305/17
f 221/131/17 344/129/17 136/49/17
f 81/387/17 219/127/17 344/129/17
f 345/126/20 218/125/20 80/393/20
f 189/59/20 345/126/20 216/121/20
f 25/299/20 187/124/20 345/126/20
f 346/123/45 217/122/45 47/395/45
f 141/110/45 346/123/45 119/396/45
f 69/394/20 216/121/20 346/123/20
f 347/120/73 162/119/73 8/398/73
f 217/122/45 347/120/45 167/399/45
f 80/393/20 215/118/20 347/120/20
f 348/117/20 214/116/20 79/400/20
f 151/29/47 348/117/47 212/112/47
f 13/318/47 188/115/47 348/117/47
f 349/114/45 213/113/45 35/402/45
f 4/11/74 103/200/74 349/114/74
f 31/401/47 212/112/47 349/114/47
f 350/111/45 141/110/45 17/397/45
f 213/113/45 350/111/45 155/404/45
f 79/400/20 211/109/20 350/111/20
f 351/108/20 210/107/20 78/405/20
f 163/15/47 351/108/47 208/103/47
f 3/14/75 165/106/75 351/108/75
f 352/105/20 209/104/20 68/407/20
f 115/245/47 352/105/47 188/115/47
f 43/406/47 208/103/47 352/105/47
f 353/102/20 142/101/20 25/299/20
f 209/104/20 353/102/20 140/58/20
f 78/405/20 207/100/20 353/102/20
f 354/99/23 206/98/23 77/408/23
f 193/68/23 354/99/23 204/94/23
f 26/293/23 191/97/23 354/99/23
f 355/96/50 205/95/50 34/410/50
f 145/83/50 355/96/50 154/250/50
f 73/409/23 204/94/23 355/96/23
f 356/93/76 165/92/76 3/14/76
f 205/95/50 356/93/50 106/411/50
f 77/408/23 203/91/23 356/93/23
f 357/90/23 202/89/23 76/412/23
f 157/413/52 357/90/52 200/85/52
f 19/415/52 192/88/52 357/90/52
f 358/87/50 201/86/50 46/416/50
f 1/17/77 109/417/77 358/87/77
f 37/414/52 200/85/52 358/87/52
f 359/84/50 145/83/50 16/315/50
f 201/86/50 359/84/50 118/34/50
f 76/412/23 199/82/23 359/84/23
f 360/81/23 198/80/23 75/418/23
f 169/419/52 360/81/52 196/76/52
f 5/421/78 108/79/78 360/81/78
f 361/78/23 197/77/23 72/422/23
f 121/423/52 361/78/52 192/88/52
f 49/420/52 196/76/52 361/78/52
f 362/75/23 146/74/23 26/293/23
f 197/77/23 362/75/23 144/67/23
f 75/418/23 195/73/23 362/75/23
f 363/72/23 194/71/23 74/290/23
f 198/80/23 363/72/23 195/73/23
f 36/424/24 156/70/24 363/72/24
f 364/69/23 193/68/23 73/409/23
f 202/89/23 364/69/23 199/82/23
f 72/422/23 144/67/23 364/69/23
f 365/66/22 117/65/22 45/425/22
f 206/98/23 365/66/23 203/91/23
f 71/292/23 143/64/23 365/66/23
f 366/63/20 190/62/20 70/296/20
f 210/107/20 366/63/20 207/100/20
f 45/426/21 117/61/21 366/63/21
f 367/60/20 189/59/20 69/394/20
f 214/116/20 367/60/20 211/109/20
f 68/407/20 140/58/20 367/60/20
f 368/57/19 114/56/19 42/427/19
f 218/125/20 368/57/20 215/118/20
f 67/298/20 139/55/20 368/57/20
f 369/54/17 186/53/17 66/302/17
f 222/134/17 369/54/17 219/127/17
f 48/428/18 120/52/18 369/54/18
f 370/51/17 185/50/17 65/373/17
f 226/143/17 370/51/17 223/136/17
f 64/391/17 136/49/17 370/51/17
f 371/48/16 152/47/16 32/333/16
f 230/152/17 371/48/17 227/145/17
f 63/304/17 135/46/17 371/48/17
f 372/45/14 182/44/14 62/308/14
f 234/161/14 372/45/14 231/154/14
f 38/347/15 158/43/15 372/45/15
f 373/42/14 181/41/14 61/352/14
f 238/170/14 373/42/14 235/163/14
f 60/370/14 132/40/14 373/42/14
f 374/39/13 119/38/13 47/429/13
f 242/179/14 374/39/14 239/172/14
f 59/310/14 131/37/14 374/39/14
f 375/36/11 178/35/11 58/314/11
f 246/188/11 375/36/11 243/181/11
f 46/416/12 118/34/12 375/36/12
f 376/33/11 177/32/11 57/342/11
f 250/197/11 376/33/11 247/190/11
f 56/350/11 128/31/11 376/33/11
f 377/30/10 151/29/10 31/401/10
f 254/206/11 377/30/11 251/199/11
f 55/316/11 127/28/11 377/30/11
f 378/27/8 174/26/8 54/320/8
f 258/215/8 378/27/8 255/208/8
f 49/430/9 121/25/9 378/27/9
f 379/24/8 173/23/8 53/326/8
f 262/224/8 379/24/8 259/217/8
f 52/340/8 124/22/8 379/24/8
f 380/21/7 149/20/7 29/346/7
f 266/233/8 380/21/8 263/226/8
f 51/322/8 123/19/8 380/21/8
f 381/16/7 161/18/7 41/349/7
f 270/242/8 381/16/8 267/235/8
f 37/431/9 109/441/9 381/16/9
f 382/13/10 163/15/10 43/406/10
f 274/251/11 382/13/11 271/244/11
f 34/410/12 106/411/12 382/13/12
f 383/10/13 107/12/13 35/432/13
f 278/260/14 383/10/14 275/253/14
f 50/343/15 170/344/15 383/10/15
f 384/7/16 164/9/16 44/339/16
f 282/269/17 384/7/17 279/262/17
f 36/433/18 108/440/18 384/7/18
f 385/4/19 102/6/19 30/434/19
f 286/278/20 385/4/20 283/271/20
f 33/435/21 105/439/21 385/4/21
f 386/1/22 105/3/22 33/436/22
f 290/287/23 386/1/23 287/280/23
f 48/437/24 168/438/24 386/1/24
