# Blender 4.2.1 LTS
# www.blender.org
mtllib itembox.mtl
o Plane.003
v 6.411397 -3.613568 3.613009
v 5.509132 -3.613568 3.613009
v 6.411397 3.622048 3.613009
v 5.509132 3.622048 3.613009
v 6.411397 -3.613568 10.067536
v 5.509132 -3.613568 10.067536
v 6.411397 3.622048 10.067536
v 5.509132 3.622048 10.067536
vn -0.0000 -0.0000 -1.0000
vn -0.0000 -0.0000 1.0000
vn -1.0000 -0.0000 -0.0000
vn 1.0000 -0.0000 -0.0000
vn -0.0000 1.0000 -0.0000
vn -0.0000 -1.0000 -0.0000
vt 0.000000 1.000000
vt 1.000000 0.000000
vt 0.000000 0.000000
vt 1.000000 1.000000
s 0
f 3/1/1 1/3/1 2/2/1
f 6/2/2 5/3/2 7/1/2
f 4/4/3 2/2/3 6/2/3
f 1/3/4 3/1/4 7/1/4
f 3/1/5 4/4/5 8/4/5
f 2/2/6 1/3/6 5/3/6
f 3/1/1 2/2/1 4/4/1
f 6/2/2 7/1/2 8/4/2
f 4/4/3 6/2/3 8/4/3
f 1/3/4 7/1/4 5/3/4
f 3/1/5 8/4/5 7/1/5
f 2/2/6 5/3/6 6/2/6
o Plane.002
v -4.497948 -5.024282 2.375924
v 5.559097 -5.024282 2.375924
v -4.497948 5.032763 2.375924
v 5.559097 5.032763 2.375924
v -4.497948 -5.024282 11.257210
v 5.559097 -5.024282 11.257210
v -4.497948 5.032763 11.257210
v 5.559097 5.032763 11.257210
vn -0.0000 -0.0000 -1.0000
vn -0.0000 -0.0000 1.0000
vn 1.0000 -0.0000 -0.0000
vn -1.0000 -0.0000 -0.0000
vn -0.0000 1.0000 -0.0000
vn -0.0000 -1.0000 -0.0000
vt 0.000000 1.000000
vt 1.000000 0.000000
vt 0.000000 0.000000
vt 1.000000 1.000000
s 0
f 11/5/7 10/6/7 9/7/7
f 14/6/8 15/5/8 13/7/8
f 12/8/9 14/6/9 10/6/9
f 9/7/10 15/5/10 11/5/10
f 11/5/11 16/8/11 12/8/11
f 10/6/12 13/7/12 9/7/12
f 11/5/7 12/8/7 10/6/7
f 14/6/8 16/8/8 15/5/8
f 12/8/9 16/8/9 14/6/9
f 9/7/10 13/7/10 15/5/10
f 11/5/11 15/5/11 16/8/11
f 10/6/12 14/6/12 13/7/12
o Plane.001
v -1.866480 -2.182274 1.012934
v 2.927630 -2.182274 1.012934
v -1.866480 2.190754 1.012934
v 2.927630 2.190754 1.012934
v -1.866480 -2.182274 2.433162
v 2.927630 -2.182274 2.433162
v -1.866480 2.190754 2.433162
v 2.927630 2.190754 2.433162
vn -0.0000 -0.0000 -1.0000
vn -0.0000 -0.0000 1.0000
vn 1.0000 -0.0000 -0.0000
vn -1.0000 -0.0000 -0.0000
vn -0.0000 1.0000 -0.0000
vn -0.0000 -1.0000 -0.0000
vt 0.000000 1.000000
vt 1.000000 0.000000
vt 0.000000 0.000000
vt 1.000000 1.000000
s 0
f 19/9/13 18/10/13 17/11/13
f 22/10/14 23/9/14 21/11/14
f 20/12/15 22/10/15 18/10/15
f 17/11/16 23/9/16 19/9/16
f 19/9/17 24/12/17 20/12/17
f 18/10/18 21/11/18 17/11/18
f 19/9/13 20/12/13 18/10/13
f 22/10/14 24/12/14 23/9/14
f 20/12/15 24/12/15 22/10/15
f 17/11/16 21/11/16 23/9/16
f 19/9/17 23/9/17 24/12/17
f 18/10/18 22/10/18 21/11/18
o Plane
v -4.497948 -5.024282 -0.298538
v 5.559097 -5.024282 -0.298538
v -4.497948 5.032763 -0.298538
v 5.559097 5.032763 -0.298538
v -4.497948 -5.024282 1.121690
v 5.559097 -5.024282 1.121690
v -4.497948 5.032763 1.121690
v 5.559097 5.032763 1.121690
vn -0.0000 -0.0000 -1.0000
vn -0.0000 -0.0000 1.0000
vn 1.0000 -0.0000 -0.0000
vn -1.0000 -0.0000 -0.0000
vn -0.0000 1.0000 -0.0000
vn -0.0000 -1.0000 -0.0000
vt 0.000000 1.000000
vt 1.000000 0.000000
vt 0.000000 0.000000
vt 1.000000 1.000000
s 0
f 27/13/19 26/14/19 25/15/19
f 30/14/20 31/13/20 29/15/20
f 28/16/21 30/14/21 26/14/21
f 25/15/22 31/13/22 27/13/22
f 27/13/23 32/16/23 28/16/23
f 26/14/24 29/15/24 25/15/24
f 27/13/19 28/16/19 26/14/19
f 30/14/20 32/16/20 31/13/20
f 28/16/21 32/16/21 30/14/21
f 25/15/22 29/15/22 31/13/22
f 27/13/23 31/13/23 32/16/23
f 26/14/24 30/14/24 29/15/24
