# Blender 4.2.1 LTS
# www.blender.org
mtllib rings.mtl
o Torus
v -0.000000 0.000000 -3.653442
v 0.338567 0.000000 -3.563324
v 0.586416 0.000000 -3.317117
v 0.677135 0.000000 -2.980792
v 0.586416 0.000000 -2.644467
v 0.338567 0.000000 -2.398260
v -0.000000 0.000000 -2.308142
v -0.338568 0.000000 -2.398260
v -0.586416 0.000000 -2.644467
v -0.677135 0.000000 -2.980792
v -0.586416 0.000000 -3.317117
v -0.338568 0.000000 -3.563324
v -0.000000 0.476870 -3.622186
v 0.338567 0.465107 -3.532839
v 0.586416 0.432971 -3.288739
v 0.677135 0.389071 -2.955291
v 0.586416 0.345172 -2.621843
v 0.338568 0.313036 -2.377743
v -0.000000 0.301273 -2.288396
v -0.338568 0.313036 -2.377743
v -0.586416 0.345172 -2.621843
v -0.677135 0.389071 -2.955291
v -0.586416 0.432971 -3.288739
v -0.338568 0.465107 -3.532839
v -0.000000 0.945580 -3.528954
v 0.338567 0.922256 -3.441907
v 0.586416 0.858533 -3.204089
v 0.677135 0.771486 -2.879224
v 0.586416 0.684438 -2.554359
v 0.338568 0.620715 -2.316541
v -0.000000 0.597391 -2.229494
v -0.338568 0.620715 -2.316541
v -0.586416 0.684438 -2.554359
v -0.677135 0.771486 -2.879224
v -0.586416 0.858533 -3.204089
v -0.338568 0.922256 -3.441907
v -0.000000 1.398112 -3.375340
v 0.338567 1.363625 -3.292082
v 0.586416 1.269406 -3.064616
v 0.677135 1.140700 -2.753893
v 0.586416 1.011994 -2.443169
v 0.338568 0.917774 -2.215703
v -0.000000 0.883288 -2.132445
v -0.338568 0.917774 -2.215703
v -0.586416 1.011994 -2.443169
v -0.677135 1.140700 -2.753893
v -0.586416 1.269406 -3.064616
v -0.338568 1.363625 -3.292082
v -0.000000 1.826721 -3.163973
v 0.338567 1.781662 -3.085929
v 0.586416 1.658559 -2.872707
v 0.677135 1.490396 -2.581442
v 0.586416 1.322234 -2.290175
v 0.338568 1.199130 -2.076954
v -0.000000 1.154071 -1.998910
v -0.338568 1.199130 -2.076954
v -0.586416 1.322234 -2.290175
v -0.677135 1.490396 -2.581442
v -0.586416 1.658559 -2.872707
v -0.338568 1.781662 -3.085929
v -0.000000 2.224074 -2.898470
v 0.338567 2.169214 -2.826975
v 0.586416 2.019333 -2.631646
v 0.677135 1.814591 -2.364821
v 0.586416 1.609850 -2.097997
v 0.338568 1.459968 -1.902668
v -0.000000 1.405108 -1.831172
v -0.338568 1.459968 -1.902668
v -0.586416 1.609850 -2.097997
v -0.677135 1.814591 -2.364821
v -0.586416 2.019333 -2.631646
v -0.338568 2.169214 -2.826975
v -0.000000 2.583374 -2.583374
v 0.338567 2.519650 -2.519650
v 0.586416 2.345556 -2.345556
v 0.677135 2.107738 -2.107738
v 0.586416 1.869921 -1.869921
v 0.338568 1.695826 -1.695826
v -0.000000 1.632103 -1.632103
v -0.338568 1.695826 -1.695826
v -0.586416 1.869921 -1.869921
v -0.677135 2.107738 -2.107738
v -0.586416 2.345556 -2.345556
v -0.338568 2.519650 -2.519651
v -0.000000 2.898470 -2.224075
v 0.338568 2.826975 -2.169214
v 0.586416 2.631646 -2.019333
v 0.677135 2.364821 -1.814591
v 0.586416 2.097997 -1.609850
v 0.338568 1.902668 -1.459968
v -0.000000 1.831172 -1.405108
v -0.338568 1.902668 -1.459968
v -0.586416 2.097997 -1.609850
v -0.677135 2.364821 -1.814591
v -0.586416 2.631646 -2.019333
v -0.338568 2.826975 -2.169214
v -0.000000 3.163973 -1.826721
v 0.338568 3.085929 -1.781662
v 0.586416 2.872708 -1.658559
v 0.677135 2.581442 -1.490396
v 0.586416 2.290176 -1.322234
v 0.338568 2.076954 -1.199130
v -0.000000 1.998910 -1.154071
v -0.338568 2.076954 -1.199130
v -0.586416 2.290176 -1.322234
v -0.677135 2.581442 -1.490396
v -0.586416 2.872708 -1.658559
v -0.338568 3.085929 -1.781662
v -0.000000 3.375340 -1.398112
v 0.338568 3.292082 -1.363625
v 0.586416 3.064616 -1.269406
v 0.677135 2.753893 -1.140700
v 0.586416 2.443169 -1.011994
v 0.338568 2.215703 -0.917775
v -0.000000 2.132445 -0.883288
v -0.338568 2.215703 -0.917775
v -0.586416 2.443169 -1.011994
v -0.677135 2.753893 -1.140700
v -0.586416 3.064616 -1.269406
v -0.338568 3.292082 -1.363625
v -0.000000 3.528954 -0.945580
v 0.338568 3.441906 -0.922256
v 0.586416 3.204089 -0.858533
v 0.677135 2.879224 -0.771486
v 0.586416 2.554359 -0.684438
v 0.338568 2.316541 -0.620715
v -0.000000 2.229494 -0.597391
v -0.338568 2.316541 -0.620715
v -0.586416 2.554359 -0.684438
v -0.677135 2.879224 -0.771486
v -0.586416 3.204089 -0.858533
v -0.338568 3.441906 -0.922256
v -0.000000 3.622186 -0.476870
v 0.338568 3.532839 -0.465107
v 0.586416 3.288739 -0.432970
v 0.677135 2.955291 -0.389071
v 0.586416 2.621843 -0.345172
v 0.338568 2.377743 -0.313036
v -0.000000 2.288396 -0.301273
v -0.338568 2.377743 -0.313036
v -0.586416 2.621843 -0.345172
v -0.677135 2.955291 -0.389071
v -0.586416 3.288739 -0.432970
v -0.338568 3.532839 -0.465107
v 0.000000 3.653442 0.000000
v 0.338568 3.563324 0.000000
v 0.586416 3.317117 0.000000
v 0.677135 2.980792 0.000000
v 0.586416 2.644467 0.000000
v 0.338568 2.398260 0.000000
v 0.000000 2.308142 0.000000
v -0.338568 2.398260 0.000000
v -0.586416 2.644467 0.000000
v -0.677135 2.980792 0.000000
v -0.586416 3.317117 0.000000
v -0.338568 3.563324 0.000000
v 0.000000 3.622186 0.476870
v 0.338568 3.532839 0.465107
v 0.586416 3.288739 0.432971
v 0.677135 2.955291 0.389072
v 0.586416 2.621844 0.345172
v 0.338568 2.377743 0.313036
v 0.000000 2.288396 0.301273
v -0.338568 2.377743 0.313036
v -0.586416 2.621843 0.345172
v -0.677135 2.955291 0.389072
v -0.586416 3.288739 0.432971
v -0.338568 3.532839 0.465107
v 0.000000 3.528954 0.945580
v 0.338568 3.441907 0.922256
v 0.586416 3.204089 0.858533
v 0.677135 2.879224 0.771486
v 0.586416 2.554359 0.684438
v 0.338568 2.316541 0.620715
v 0.000000 2.229494 0.597391
v -0.338568 2.316541 0.620715
v -0.586416 2.554359 0.684438
v -0.677135 2.879224 0.771486
v -0.586416 3.204089 0.858533
v -0.338568 3.441907 0.922256
v 0.000000 3.375340 1.398112
v 0.338568 3.292082 1.363625
v 0.586416 3.064617 1.269406
v 0.677135 2.753893 1.140700
v 0.586416 2.443169 1.011994
v 0.338568 2.215703 0.917774
v 0.000000 2.132445 0.883288
v -0.338568 2.215703 0.917774
v -0.586416 2.443169 1.011994
v -0.677135 2.753893 1.140700
v -0.586416 3.064617 1.269406
v -0.338568 3.292082 1.363625
v 0.000000 3.163973 1.826721
v 0.338568 3.085929 1.781662
v 0.586416 2.872708 1.658558
v 0.677135 2.581442 1.490396
v 0.586416 2.290176 1.322233
v 0.338568 2.076954 1.199130
v 0.000000 1.998910 1.154071
v -0.338568 2.076954 1.199130
v -0.586416 2.290176 1.322233
v -0.677135 2.581442 1.490396
v -0.586416 2.872708 1.658558
v -0.338568 3.085929 1.781662
v 0.000000 2.898470 2.224074
v 0.338568 2.826975 2.169214
v 0.586416 2.631646 2.019333
v 0.677135 2.364821 1.814591
v 0.586416 2.097997 1.609850
v 0.338568 1.902668 1.459968
v 0.000000 1.831172 1.405108
v -0.338568 1.902668 1.459968
v -0.586416 2.097997 1.609850
v -0.677135 2.364821 1.814591
v -0.586416 2.631646 2.019333
v -0.338568 2.826975 2.169214
v 0.000000 2.583373 2.583374
v 0.338568 2.519650 2.519651
v 0.586416 2.345556 2.345556
v 0.677135 2.107738 2.107738
v 0.586416 1.869920 1.869921
v 0.338568 1.695826 1.695826
v 0.000000 1.632103 1.632103
v -0.338568 1.695826 1.695826
v -0.586416 1.869920 1.869921
v -0.677135 2.107738 2.107738
v -0.586416 2.345556 2.345556
v -0.338567 2.519650 2.519651
v 0.000000 2.224074 2.898470
v 0.338568 2.169214 2.826975
v 0.586416 2.019333 2.631646
v 0.677135 1.814591 2.364821
v 0.586416 1.609850 2.097997
v 0.338568 1.459968 1.902668
v 0.000000 1.405108 1.831172
v -0.338568 1.459968 1.902668
v -0.586416 1.609850 2.097997
v -0.677135 1.814591 2.364821
v -0.586416 2.019333 2.631646
v -0.338567 2.169214 2.826975
v 0.000000 1.826721 3.163973
v 0.338568 1.781662 3.085929
v 0.586416 1.658559 2.872707
v 0.677135 1.490396 2.581441
v 0.586416 1.322234 2.290175
v 0.338568 1.199130 2.076954
v 0.000000 1.154071 1.998909
v -0.338568 1.199130 2.076954
v -0.586416 1.322234 2.290175
v -0.677135 1.490396 2.581441
v -0.586416 1.658559 2.872707
v -0.338567 1.781662 3.085929
v 0.000000 1.398112 3.375340
v 0.338568 1.363625 3.292082
v 0.586416 1.269406 3.064616
v 0.677135 1.140700 2.753893
v 0.586416 1.011994 2.443169
v 0.338568 0.917774 2.215703
v 0.000000 0.883288 2.132445
v -0.338568 0.917774 2.215703
v -0.586416 1.011994 2.443169
v -0.677135 1.140700 2.753893
v -0.586416 1.269406 3.064616
v -0.338567 1.363625 3.292082
v 0.000000 0.945580 3.528954
v 0.338568 0.922256 3.441907
v 0.586416 0.858533 3.204089
v 0.677135 0.771486 2.879224
v 0.586416 0.684438 2.554359
v 0.338568 0.620715 2.316541
v 0.000000 0.597391 2.229494
v -0.338568 0.620715 2.316541
v -0.586416 0.684438 2.554359
v -0.677135 0.771486 2.879224
v -0.586416 0.858533 3.204089
v -0.338567 0.922256 3.441907
v 0.000000 0.476870 3.622186
v 0.338568 0.465107 3.532839
v 0.586416 0.432971 3.288739
v 0.677135 0.389072 2.955291
v 0.586416 0.345172 2.621843
v 0.338568 0.313036 2.377743
v 0.000000 0.301273 2.288396
v -0.338568 0.313036 2.377743
v -0.586416 0.345172 2.621843
v -0.677135 0.389072 2.955291
v -0.586416 0.432971 3.288739
v -0.338567 0.465107 3.532839
v 0.000000 0.000000 3.653442
v 0.338568 0.000000 3.563324
v 0.586416 0.000000 3.317117
v 0.677135 0.000000 2.980792
v 0.586416 0.000000 2.644467
v 0.338568 0.000000 2.398260
v 0.000000 0.000000 2.308142
v -0.338567 0.000000 2.398260
v -0.586416 0.000000 2.644467
v -0.677135 0.000000 2.980792
v -0.586416 0.000000 3.317117
v -0.338567 0.000000 3.563324
v 0.000000 -0.476870 3.622186
v 0.338568 -0.465107 3.532839
v 0.586416 -0.432971 3.288739
v 0.677135 -0.389071 2.955291
v 0.586416 -0.345172 2.621844
v 0.338568 -0.313036 2.377743
v 0.000000 -0.301273 2.288396
v -0.338568 -0.313036 2.377743
v -0.586416 -0.345172 2.621843
v -0.677135 -0.389071 2.955291
v -0.586416 -0.432971 3.288739
v -0.338567 -0.465107 3.532839
v 0.000000 -0.945580 3.528954
v 0.338568 -0.922256 3.441907
v 0.586416 -0.858533 3.204089
v 0.677135 -0.771485 2.879224
v 0.586416 -0.684438 2.554359
v 0.338568 -0.620715 2.316542
v 0.000000 -0.597391 2.229494
v -0.338568 -0.620715 2.316542
v -0.586416 -0.684438 2.554359
v -0.677135 -0.771485 2.879224
v -0.586416 -0.858533 3.204089
v -0.338567 -0.922256 3.441907
v 0.000000 -1.398111 3.375340
v 0.338568 -1.363624 3.292083
v 0.586416 -1.269405 3.064617
v 0.677135 -1.140699 2.753893
v 0.586416 -1.011993 2.443170
v 0.338568 -0.917774 2.215704
v 0.000000 -0.883287 2.132446
v -0.338568 -0.917774 2.215704
v -0.586416 -1.011993 2.443170
v -0.677135 -1.140699 2.753893
v -0.586416 -1.269405 3.064617
v -0.338567 -1.363624 3.292083
v 0.000000 -1.826720 3.163974
v 0.338568 -1.781661 3.085929
v 0.586416 -1.658558 2.872708
v 0.677135 -1.490396 2.581442
v 0.586416 -1.322233 2.290176
v 0.338568 -1.199130 2.076954
v 0.000000 -1.154071 1.998910
v -0.338568 -1.199130 2.076955
v -0.586416 -1.322233 2.290176
v -0.677135 -1.490396 2.581442
v -0.586416 -1.658558 2.872708
v -0.338567 -1.781661 3.085929
v 0.000000 -2.224074 2.898471
v 0.338568 -2.169214 2.826975
v 0.586416 -2.019332 2.631646
v 0.677135 -1.814591 2.364821
v 0.586416 -1.609849 2.097997
v 0.338568 -1.459968 1.902668
v 0.000000 -1.405108 1.831172
v -0.338568 -1.459968 1.902668
v -0.586416 -1.609849 2.097997
v -0.677135 -1.814591 2.364821
v -0.586416 -2.019332 2.631646
v -0.338567 -2.169214 2.826975
v 0.000000 -2.583373 2.583374
v 0.338568 -2.519650 2.519651
v 0.586416 -2.345555 2.345556
v 0.677135 -2.107738 2.107739
v 0.586416 -1.869920 1.869921
v 0.338568 -1.695826 1.695827
v 0.000000 -1.632103 1.632103
v -0.338568 -1.695826 1.695827
v -0.586416 -1.869920 1.869921
v -0.677135 -2.107738 2.107739
v -0.586416 -2.345556 2.345556
v -0.338567 -2.519650 2.519651
v 0.000000 -2.898470 2.224075
v 0.338568 -2.826974 2.169215
v 0.586416 -2.631645 2.019334
v 0.677135 -2.364821 1.814592
v 0.586416 -2.097996 1.609850
v 0.338568 -1.902667 1.459969
v 0.000000 -1.831172 1.405108
v -0.338568 -1.902667 1.459969
v -0.586416 -2.097996 1.609850
v -0.677135 -2.364821 1.814592
v -0.586416 -2.631645 2.019334
v -0.338568 -2.826974 2.169215
v 0.000000 -3.163973 1.826721
v 0.338568 -3.085929 1.781662
v 0.586416 -2.872708 1.658559
v 0.677135 -2.581441 1.490396
v 0.586416 -2.290175 1.322234
v 0.338568 -2.076954 1.199130
v 0.000000 -1.998910 1.154071
v -0.338568 -2.076954 1.199130
v -0.586416 -2.290175 1.322234
v -0.677135 -2.581441 1.490396
v -0.586416 -2.872708 1.658559
v -0.338568 -3.085929 1.781662
v 0.000000 -3.375340 1.398112
v 0.338568 -3.292082 1.363625
v 0.586416 -3.064616 1.269406
v 0.677135 -2.753893 1.140700
v 0.586416 -2.443169 1.011994
v 0.338568 -2.215703 0.917775
v 0.000000 -2.132445 0.883288
v -0.338568 -2.215703 0.917775
v -0.586416 -2.443169 1.011994
v -0.677135 -2.753893 1.140700
v -0.586416 -3.064616 1.269406
v -0.338568 -3.292082 1.363625
v 0.000000 -3.528954 0.945581
v 0.338568 -3.441906 0.922257
v 0.586416 -3.204089 0.858534
v 0.677135 -2.879224 0.771487
v 0.586416 -2.554359 0.684439
v 0.338568 -2.316541 0.620716
v 0.000000 -2.229494 0.597392
v -0.338568 -2.316541 0.620716
v -0.586416 -2.554359 0.684439
v -0.677135 -2.879224 0.771487
v -0.586416 -3.204089 0.858534
v -0.338568 -3.441906 0.922257
v 0.000000 -3.622186 0.476871
v 0.338568 -3.532839 0.465108
v 0.586416 -3.288739 0.432972
v 0.677135 -2.955291 0.389073
v 0.586416 -2.621843 0.345173
v 0.338568 -2.377743 0.313037
v 0.000000 -2.288396 0.301274
v -0.338568 -2.377743 0.313037
v -0.586416 -2.621843 0.345173
v -0.677135 -2.955291 0.389073
v -0.586416 -3.288739 0.432972
v -0.338568 -3.532839 0.465108
v 0.000000 -3.653442 0.000001
v 0.338568 -3.563324 0.000001
v 0.586416 -3.317117 0.000001
v 0.677135 -2.980792 0.000000
v 0.586416 -2.644467 0.000000
v 0.338568 -2.398260 0.000000
v 0.000000 -2.308142 0.000000
v -0.338568 -2.398260 0.000000
v -0.586416 -2.644467 0.000000
v -0.677135 -2.980792 0.000001
v -0.586416 -3.317117 0.000001
v -0.338568 -3.563324 0.000001
v -0.000000 -3.622186 -0.476869
v 0.338568 -3.532839 -0.465106
v 0.586416 -3.288739 -0.432970
v 0.677135 -2.955291 -0.389071
v 0.586416 -2.621844 -0.345172
v 0.338568 -2.377743 -0.313035
v -0.000000 -2.288396 -0.301273
v -0.338568 -2.377743 -0.313035
v -0.586416 -2.621844 -0.345172
v -0.677135 -2.955291 -0.389071
v -0.586416 -3.288739 -0.432970
v -0.338568 -3.532839 -0.465106
v -0.000000 -3.528954 -0.945580
v 0.338568 -3.441907 -0.922255
v 0.586416 -3.204089 -0.858532
v 0.677135 -2.879224 -0.771485
v 0.586416 -2.554359 -0.684438
v 0.338568 -2.316541 -0.620715
v -0.000000 -2.229494 -0.597391
v -0.338568 -2.316541 -0.620715
v -0.586416 -2.554359 -0.684438
v -0.677135 -2.879224 -0.771485
v -0.586416 -3.204089 -0.858532
v -0.338568 -3.441907 -0.922255
v -0.000000 -3.375340 -1.398112
v 0.338568 -3.292082 -1.363625
v 0.586416 -3.064617 -1.269406
v 0.677135 -2.753893 -1.140700
v 0.586416 -2.443169 -1.011994
v 0.338568 -2.215703 -0.917774
v -0.000000 -2.132445 -0.883288
v -0.338568 -2.215703 -0.917774
v -0.586416 -2.443169 -1.011994
v -0.677135 -2.753893 -1.140700
v -0.586416 -3.064617 -1.269406
v -0.338568 -3.292082 -1.363625
v -0.000000 -3.163974 -1.826721
v 0.338568 -3.085929 -1.781662
v 0.586416 -2.872708 -1.658558
v 0.677135 -2.581442 -1.490396
v 0.586416 -2.290176 -1.322233
v 0.338568 -2.076954 -1.199130
v -0.000000 -1.998910 -1.154071
v -0.338568 -2.076954 -1.199130
v -0.586416 -2.290176 -1.322233
v -0.677135 -2.581442 -1.490396
v -0.586416 -2.872708 -1.658558
v -0.338568 -3.085929 -1.781662
v -0.000000 -2.898471 -2.224074
v 0.338568 -2.826976 -2.169214
v 0.586416 -2.631647 -2.019332
v 0.677135 -2.364822 -1.814591
v 0.586416 -2.097997 -1.609849
v 0.338568 -1.902668 -1.459968
v -0.000000 -1.831173 -1.405107
v -0.338568 -1.902668 -1.459968
v -0.586416 -2.097997 -1.609849
v -0.677135 -2.364822 -1.814591
v -0.586416 -2.631647 -2.019332
v -0.338568 -2.826976 -2.169214
v -0.000000 -2.583374 -2.583373
v 0.338567 -2.519651 -2.519650
v 0.586416 -2.345557 -2.345555
v 0.677135 -2.107739 -2.107738
v 0.586416 -1.869921 -1.869920
v 0.338568 -1.695827 -1.695825
v -0.000000 -1.632103 -1.632102
v -0.338568 -1.695827 -1.695826
v -0.586416 -1.869921 -1.869920
v -0.677135 -2.107739 -2.107738
v -0.586416 -2.345557 -2.345555
v -0.338568 -2.519651 -2.519650
v -0.000000 -2.224075 -2.898470
v 0.338567 -2.169214 -2.826975
v 0.586416 -2.019333 -2.631646
v 0.677135 -1.814592 -2.364821
v 0.586416 -1.609850 -2.097997
v 0.338568 -1.459969 -1.902668
v -0.000000 -1.405108 -1.831172
v -0.338568 -1.459968 -1.902668
v -0.586416 -1.609850 -2.097997
v -0.677135 -1.814591 -2.364821
v -0.586416 -2.019333 -2.631645
v -0.338568 -2.169214 -2.826975
v -0.000000 -1.826721 -3.163973
v 0.338567 -1.781662 -3.085929
v 0.586416 -1.658559 -2.872707
v 0.677135 -1.490396 -2.581441
v 0.586416 -1.322234 -2.290175
v 0.338568 -1.199130 -2.076954
v -0.000000 -1.154071 -1.998909
v -0.338568 -1.199130 -2.076954
v -0.586416 -1.322234 -2.290175
v -0.677135 -1.490396 -2.581441
v -0.586416 -1.658559 -2.872707
v -0.338568 -1.781662 -3.085929
v -0.000000 -1.398112 -3.375340
v 0.338567 -1.363626 -3.292082
v 0.586416 -1.269406 -3.064616
v 0.677135 -1.140700 -2.753893
v 0.586416 -1.011994 -2.443169
v 0.338568 -0.917775 -2.215703
v -0.000000 -0.883288 -2.132445
v -0.338568 -0.917775 -2.215703
v -0.586416 -1.011994 -2.443169
v -0.677135 -1.140700 -2.753893
v -0.586416 -1.269406 -3.064616
v -0.338568 -1.363626 -3.292082
v -0.000000 -0.945580 -3.528954
v 0.338567 -0.922256 -3.441907
v 0.586416 -0.858533 -3.204089
v 0.677135 -0.771486 -2.879224
v 0.586416 -0.684438 -2.554359
v 0.338568 -0.620715 -2.316541
v -0.000000 -0.597391 -2.229494
v -0.338568 -0.620715 -2.316541
v -0.586416 -0.684438 -2.554359
v -0.677135 -0.771486 -2.879224
v -0.586416 -0.858533 -3.204089
v -0.338568 -0.922256 -3.441907
v -0.000000 -0.476870 -3.622186
v 0.338567 -0.465107 -3.532839
v 0.586416 -0.432970 -3.288739
v 0.677135 -0.389071 -2.955291
v 0.586416 -0.345172 -2.621844
v 0.338568 -0.313036 -2.377743
v -0.000000 -0.301273 -2.288396
v -0.338568 -0.313036 -2.377743
v -0.586416 -0.345172 -2.621843
v -0.677135 -0.389071 -2.955291
v -0.586416 -0.432970 -3.288739
v -0.338568 -0.465107 -3.532839
vn 0.2567 0.0632 -0.9644
vn 0.7040 0.0464 -0.7087
vn 0.9654 0.0171 -0.2604
vn 0.9654 -0.0171 0.2604
vn 0.7040 -0.0464 0.7087
vn 0.2567 -0.0632 0.9644
vn -0.2567 -0.0632 0.9644
vn -0.7040 -0.0465 0.7087
vn -0.9654 -0.0171 0.2604
vn -0.9654 0.0171 -0.2604
vn -0.7040 0.0464 -0.7087
vn -0.2567 0.0632 -0.9644
vn 0.2567 0.1886 -0.9479
vn 0.7040 0.1386 -0.6966
vn 0.9654 0.0509 -0.2559
vn 0.9654 -0.0509 0.2559
vn 0.7040 -0.1386 0.6966
vn 0.2567 -0.1886 0.9479
vn -0.2567 -0.1886 0.9479
vn -0.7040 -0.1386 0.6966
vn -0.9654 -0.0509 0.2559
vn -0.9654 0.0509 -0.2559
vn -0.7040 0.1386 -0.6966
vn -0.2567 0.1886 -0.9479
vn 0.2567 0.3107 -0.9152
vn 0.7040 0.2283 -0.6725
vn 0.9654 0.0839 -0.2471
vn 0.9654 -0.0839 0.2471
vn 0.7040 -0.2283 0.6725
vn 0.2567 -0.3107 0.9152
vn -0.2567 -0.3107 0.9152
vn -0.7040 -0.2283 0.6725
vn -0.9654 -0.0839 0.2471
vn -0.9654 0.0839 -0.2471
vn -0.7040 0.2283 -0.6725
vn -0.2567 0.3107 -0.9152
vn 0.2567 0.4275 -0.8668
vn 0.7040 0.3141 -0.6370
vn 0.9654 0.1154 -0.2340
vn 0.9654 -0.1154 0.2340
vn 0.7040 -0.3141 0.6370
vn 0.2567 -0.4275 0.8668
vn -0.2567 -0.4275 0.8668
vn -0.7040 -0.3141 0.6370
vn -0.9654 -0.1154 0.2340
vn -0.9654 0.1154 -0.2340
vn -0.7040 0.3141 -0.6370
vn -0.2567 0.4275 -0.8668
vn 0.2567 0.5370 -0.8036
vn 0.7040 0.3946 -0.5905
vn 0.9654 0.1450 -0.2170
vn 0.9654 -0.1450 0.2170
vn 0.7040 -0.3946 0.5905
vn 0.2567 -0.5370 0.8036
vn -0.2567 -0.5370 0.8036
vn -0.7040 -0.3946 0.5905
vn -0.9654 -0.1450 0.2170
vn -0.9654 0.1450 -0.2170
vn -0.7040 0.3946 -0.5905
vn -0.2567 0.5370 -0.8036
vn 0.2567 0.6373 -0.7266
vn 0.7040 0.4683 -0.5340
vn 0.9654 0.1721 -0.1962
vn 0.9654 -0.1721 0.1962
vn 0.7040 -0.4683 0.5340
vn 0.2567 -0.6373 0.7266
vn -0.2567 -0.6373 0.7266
vn -0.7040 -0.4683 0.5340
vn -0.9654 -0.1721 0.1962
vn -0.9654 0.1721 -0.1962
vn -0.7040 0.4683 -0.5340
vn -0.2567 0.6373 -0.7266
vn 0.2567 0.7266 -0.6373
vn 0.7040 0.5340 -0.4683
vn 0.9654 0.1962 -0.1721
vn 0.9654 -0.1962 0.1721
vn 0.7040 -0.5340 0.4683
vn 0.2567 -0.7266 0.6373
vn -0.2567 -0.7266 0.6373
vn -0.7040 -0.5340 0.4683
vn -0.9654 -0.1962 0.1721
vn -0.9654 0.1962 -0.1721
vn -0.7040 0.5340 -0.4683
vn -0.2567 0.7266 -0.6373
vn 0.2567 0.8036 -0.5370
vn 0.7040 0.5905 -0.3946
vn 0.9654 0.2170 -0.1450
vn 0.9654 -0.2170 0.1450
vn 0.7040 -0.5905 0.3946
vn 0.2567 -0.8036 0.5370
vn -0.2567 -0.8036 0.5370
vn -0.7040 -0.5905 0.3946
vn -0.9654 -0.2170 0.1450
vn -0.9654 0.2170 -0.1450
vn -0.7040 0.5905 -0.3946
vn -0.2567 0.8036 -0.5370
vn 0.2567 0.8668 -0.4275
vn 0.7040 0.6370 -0.3141
vn 0.9654 0.2340 -0.1154
vn 0.9654 -0.2340 0.1154
vn 0.7040 -0.6370 0.3141
vn 0.2567 -0.8668 0.4275
vn -0.2567 -0.8668 0.4275
vn -0.7040 -0.6370 0.3141
vn -0.9654 -0.2340 0.1154
vn -0.9654 0.2340 -0.1154
vn -0.7040 0.6370 -0.3141
vn -0.2567 0.8668 -0.4275
vn 0.2567 0.9152 -0.3107
vn 0.7040 0.6725 -0.2283
vn 0.9654 0.2471 -0.0839
vn 0.9654 -0.2471 0.0839
vn 0.7040 -0.6725 0.2283
vn 0.2567 -0.9152 0.3107
vn -0.2567 -0.9152 0.3107
vn -0.7040 -0.6725 0.2283
vn -0.9654 -0.2471 0.0839
vn -0.9654 0.2471 -0.0839
vn -0.7040 0.6725 -0.2283
vn -0.2567 0.9152 -0.3107
vn 0.2567 0.9479 -0.1886
vn 0.7040 0.6966 -0.1386
vn 0.9654 0.2559 -0.0509
vn 0.9654 -0.2559 0.0509
vn 0.7040 -0.6966 0.1386
vn 0.2567 -0.9479 0.1886
vn -0.2567 -0.9479 0.1886
vn -0.7040 -0.6966 0.1386
vn -0.9654 -0.2559 0.0509
vn -0.9654 0.2559 -0.0509
vn -0.7040 0.6966 -0.1386
vn -0.2567 0.9479 -0.1886
vn 0.2567 0.9644 -0.0632
vn 0.7040 0.7087 -0.0465
vn 0.9654 0.2604 -0.0171
vn 0.9654 -0.2604 0.0171
vn 0.7040 -0.7087 0.0465
vn 0.2567 -0.9644 0.0632
vn -0.2567 -0.9644 0.0632
vn -0.7040 -0.7087 0.0464
vn -0.9654 -0.2604 0.0171
vn -0.9654 0.2604 -0.0171
vn -0.7040 0.7087 -0.0465
vn -0.2567 0.9644 -0.0632
vn 0.2567 0.9644 0.0632
vn 0.7040 0.7087 0.0464
vn 0.9654 0.2604 0.0171
vn 0.9654 -0.2604 -0.0171
vn 0.7040 -0.7087 -0.0464
vn 0.2567 -0.9644 -0.0632
vn -0.2567 -0.9644 -0.0632
vn -0.7040 -0.7087 -0.0464
vn -0.9654 -0.2604 -0.0171
vn -0.9654 0.2604 0.0171
vn -0.7040 0.7087 0.0464
vn -0.2567 0.9644 0.0632
vn 0.2567 0.9479 0.1886
vn 0.7040 0.6966 0.1386
vn 0.9654 0.2559 0.0509
vn 0.9654 -0.2559 -0.0509
vn 0.7040 -0.6966 -0.1386
vn 0.2567 -0.9479 -0.1886
vn -0.2567 -0.9479 -0.1886
vn -0.7040 -0.6966 -0.1386
vn -0.9654 -0.2559 -0.0509
vn -0.9654 0.2559 0.0509
vn -0.7040 0.6966 0.1386
vn -0.2567 0.9479 0.1886
vn 0.2567 0.9152 0.3107
vn 0.7040 0.6725 0.2283
vn 0.9654 0.2471 0.0839
vn 0.9654 -0.2471 -0.0839
vn 0.7040 -0.6725 -0.2283
vn 0.2567 -0.9152 -0.3107
vn -0.2567 -0.9152 -0.3107
vn -0.7040 -0.6725 -0.2283
vn -0.9654 -0.2471 -0.0839
vn -0.9654 0.2471 0.0839
vn -0.7040 0.6725 0.2283
vn -0.2567 0.9152 0.3107
vn 0.2567 0.8668 0.4275
vn 0.7040 0.6370 0.3141
vn 0.9654 0.2340 0.1154
vn 0.9654 -0.2340 -0.1154
vn 0.7040 -0.6370 -0.3141
vn 0.2567 -0.8668 -0.4275
vn -0.2567 -0.8668 -0.4275
vn -0.7040 -0.6370 -0.3141
vn -0.9654 -0.2340 -0.1154
vn -0.9654 0.2340 0.1154
vn -0.7040 0.6370 0.3141
vn -0.2567 0.8668 0.4275
vn 0.2567 0.8036 0.5370
vn 0.7040 0.5905 0.3946
vn 0.9654 0.2170 0.1450
vn 0.9654 -0.2170 -0.1450
vn 0.7040 -0.5905 -0.3946
vn 0.2567 -0.8036 -0.5370
vn -0.2567 -0.8036 -0.5370
vn -0.7040 -0.5905 -0.3946
vn -0.9654 -0.2170 -0.1450
vn -0.9654 0.2170 0.1450
vn -0.7040 0.5905 0.3946
vn -0.2567 0.8036 0.5370
vn 0.2567 0.7266 0.6373
vn 0.7040 0.5340 0.4683
vn 0.9654 0.1962 0.1721
vn 0.9654 -0.1962 -0.1721
vn 0.7040 -0.5340 -0.4683
vn 0.2567 -0.7266 -0.6373
vn -0.2567 -0.7266 -0.6373
vn -0.7040 -0.5340 -0.4683
vn -0.9654 -0.1962 -0.1721
vn -0.9654 0.1962 0.1721
vn -0.7040 0.5340 0.4683
vn -0.2567 0.7266 0.6373
vn 0.2567 0.6373 0.7266
vn 0.7040 0.4683 0.5340
vn 0.9654 0.1721 0.1962
vn 0.9654 -0.1721 -0.1962
vn 0.7040 -0.4683 -0.5340
vn 0.2567 -0.6373 -0.7266
vn -0.2567 -0.6373 -0.7266
vn -0.7040 -0.4683 -0.5340
vn -0.9654 -0.1721 -0.1962
vn -0.9654 0.1721 0.1962
vn -0.7040 0.4683 0.5340
vn -0.2567 0.6373 0.7266
vn 0.2567 0.5370 0.8036
vn 0.7040 0.3946 0.5905
vn 0.9654 0.1450 0.2170
vn 0.9654 -0.1450 -0.2170
vn 0.7040 -0.3946 -0.5905
vn 0.2567 -0.5370 -0.8036
vn -0.2567 -0.5370 -0.8036
vn -0.7040 -0.3946 -0.5905
vn -0.9654 -0.1450 -0.2170
vn -0.9654 0.1450 0.2170
vn -0.7040 0.3946 0.5905
vn -0.2567 0.5370 0.8036
vn 0.2567 0.4275 0.8668
vn 0.7040 0.3141 0.6370
vn 0.9654 0.1154 0.2340
vn 0.9654 -0.1154 -0.2340
vn 0.7040 -0.3141 -0.6370
vn 0.2567 -0.4275 -0.8668
vn -0.2567 -0.4275 -0.8668
vn -0.7040 -0.3141 -0.6370
vn -0.9654 -0.1154 -0.2340
vn -0.9654 0.1154 0.2340
vn -0.7040 0.3141 0.6370
vn -0.2567 0.4275 0.8668
vn 0.2567 0.3107 0.9152
vn 0.7040 0.2283 0.6725
vn 0.9654 0.0839 0.2471
vn 0.9654 -0.0839 -0.2471
vn 0.7040 -0.2283 -0.6725
vn 0.2567 -0.3107 -0.9152
vn -0.2567 -0.3107 -0.9152
vn -0.7040 -0.2283 -0.6725
vn -0.9654 -0.0839 -0.2471
vn -0.9654 0.0839 0.2471
vn -0.7040 0.2283 0.6725
vn -0.2567 0.3107 0.9152
vn 0.2567 0.1886 0.9479
vn 0.7040 0.1386 0.6966
vn 0.9654 0.0509 0.2559
vn 0.9654 -0.0509 -0.2559
vn 0.7040 -0.1386 -0.6966
vn 0.2567 -0.1886 -0.9479
vn -0.2567 -0.1886 -0.9479
vn -0.7040 -0.1386 -0.6966
vn -0.9654 -0.0509 -0.2559
vn -0.9654 0.0509 0.2559
vn -0.7040 0.1386 0.6966
vn -0.2567 0.1886 0.9479
vn 0.2567 0.0632 0.9644
vn 0.7040 0.0465 0.7087
vn 0.9654 0.0171 0.2604
vn 0.9654 -0.0171 -0.2604
vn 0.7040 -0.0464 -0.7087
vn 0.2567 -0.0632 -0.9644
vn -0.2567 -0.0632 -0.9644
vn -0.7040 -0.0465 -0.7087
vn -0.9654 -0.0171 -0.2604
vn -0.9654 0.0171 0.2604
vn -0.7040 0.0465 0.7087
vn -0.2567 0.0632 0.9644
vn -0.7040 0.0465 -0.7087
vn -0.7040 -0.0464 0.7087
vn 0.7040 -0.7087 0.0464
vn 0.7040 0.7087 -0.0464
vn -0.7040 -0.7087 0.0465
vn 0.7040 -0.0465 -0.7087
vn 0.7040 0.0464 0.7087
vn 0.7040 0.0465 -0.7087
vn -0.7040 0.7087 -0.0464
vn 0.7040 0.7087 0.0465
vn -0.7040 0.7087 0.0465
vn -0.7040 -0.0464 -0.7087
vn -0.7040 0.0464 0.7087
vn 0.7040 -0.0465 0.7087
vn -0.7040 -0.7087 -0.0465
vt 0.520833 0.500000
vt 0.500000 0.583333
vt 0.500000 0.500000
vt 0.520833 0.666667
vt 0.500000 0.666667
vt 0.520833 0.750000
vt 0.500000 0.750000
vt 0.500000 0.833333
vt 0.520833 0.916667
vt 0.500000 0.916667
vt 0.500000 1.000000
vt 0.520833 0.000000
vt 0.500000 0.083333
vt 0.500000 0.000000
vt 0.520833 0.083333
vt 0.500000 0.166667
vt 0.520833 0.250000
vt 0.500000 0.250000
vt 0.520833 0.333333
vt 0.500000 0.333333
vt 0.500000 0.416667
vt 0.520833 0.416667
vt 0.541667 0.583333
vt 0.520833 0.583333
vt 0.541667 0.666667
vt 0.541667 0.750000
vt 0.520833 0.833333
vt 0.541667 0.833333
vt 0.541667 0.916667
vt 0.520833 1.000000
vt 0.541667 0.000000
vt 0.541667 0.083333
vt 0.520833 0.166667
vt 0.541667 0.166667
vt 0.541667 0.333333
vt 0.541667 0.416667
vt 0.541667 0.500000
vt 0.562500 0.583333
vt 0.562500 0.666667
vt 0.562500 0.750000
vt 0.562500 0.833333
vt 0.562500 0.916667
vt 0.541667 1.000000
vt 0.562500 0.000000
vt 0.562500 0.083333
vt 0.562500 0.166667
vt 0.541667 0.250000
vt 0.562500 0.333333
vt 0.562500 0.416667
vt 0.562500 0.500000
vt 0.583333 0.583333
vt 0.583333 0.666667
vt 0.583333 0.833333
vt 0.583333 0.916667
vt 0.562500 1.000000
vt 0.583333 0.000000
vt 0.583333 0.083333
vt 0.583333 0.166667
vt 0.562500 0.250000
vt 0.583333 0.250000
vt 0.583333 0.416667
vt 0.604167 0.500000
vt 0.583333 0.500000
vt 0.604167 0.583333
vt 0.604167 0.750000
vt 0.583333 0.750000
vt 0.604167 0.916667
vt 0.583333 1.000000
vt 0.604167 0.083333
vt 0.604167 0.166667
vt 0.604167 0.250000
vt 0.583333 0.333333
vt 0.604167 0.333333
vt 0.604167 0.416667
vt 0.625000 0.583333
vt 0.604167 0.666667
vt 0.625000 0.666667
vt 0.625000 0.750000
vt 0.604167 0.833333
vt 0.625000 0.833333
vt 0.625000 0.916667
vt 0.604167 1.000000
vt 0.604167 0.000000
vt 0.625000 0.083333
vt 0.625000 0.166667
vt 0.625000 0.333333
vt 0.625000 0.416667
vt 0.645833 0.500000
vt 0.625000 0.500000
vt 0.645833 0.666667
vt 0.645833 0.750000
vt 0.645833 0.833333
vt 0.645833 0.916667
vt 0.625000 1.000000
vt 0.625000 0.000000
vt 0.645833 0.083333
vt 0.645833 0.250000
vt 0.625000 0.250000
vt 0.645833 0.333333
vt 0.645833 0.416667
vt 0.666667 0.500000
vt 0.645833 0.583333
vt 0.666667 0.666667
vt 0.666667 0.750000
vt 0.666667 0.833333
vt 0.666667 0.916667
vt 0.645833 1.000000
vt 0.666667 0.000000
vt 0.645833 0.000000
vt 0.666667 0.083333
vt 0.645833 0.166667
vt 0.666667 0.166667
vt 0.666667 0.250000
vt 0.666667 0.416667
vt 0.687500 0.500000
vt 0.666667 0.583333
vt 0.687500 0.666667
vt 0.687500 0.750000
vt 0.687500 0.833333
vt 0.687500 0.916667
vt 0.666667 1.000000
vt 0.687500 0.083333
vt 0.687500 0.166667
vt 0.687500 0.333333
vt 0.666667 0.333333
vt 0.687500 0.416667
vt 0.708333 0.500000
vt 0.687500 0.583333
vt 0.708333 0.666667
vt 0.708333 0.750000
vt 0.708333 0.833333
vt 0.708333 0.916667
vt 0.687500 1.000000
vt 0.708333 0.000000
vt 0.687500 0.000000
vt 0.708333 0.166667
vt 0.687500 0.250000
vt 0.708333 0.250000
vt 0.708333 0.333333
vt 0.708333 0.416667
vt 0.729167 0.500000
vt 0.708333 0.583333
vt 0.729167 0.583333
vt 0.729167 0.666667
vt 0.729167 0.750000
vt 0.729167 0.833333
vt 0.729167 1.000000
vt 0.708333 1.000000
vt 0.729167 0.000000
vt 0.708333 0.083333
vt 0.729167 0.166667
vt 0.729167 0.333333
vt 0.729167 0.416667
vt 0.750000 0.583333
vt 0.750000 0.666667
vt 0.750000 0.833333
vt 0.729167 0.916667
vt 0.750000 0.916667
vt 0.750000 0.000000
vt 0.729167 0.083333
vt 0.750000 0.083333
vt 0.750000 0.166667
vt 0.729167 0.250000
vt 0.750000 0.333333
vt 0.750000 0.416667
vt 0.750000 0.500000
vt 0.770833 0.583333
vt 0.770833 0.666667
vt 0.750000 0.750000
vt 0.770833 0.750000
vt 0.770833 0.916667
vt 0.770833 1.000000
vt 0.750000 1.000000
vt 0.770833 0.000000
vt 0.770833 0.166667
vt 0.750000 0.250000
vt 0.770833 0.333333
vt 0.770833 0.416667
vt 0.791667 0.500000
vt 0.770833 0.500000
vt 0.791667 0.583333
vt 0.791667 0.666667
vt 0.791667 0.750000
vt 0.770833 0.833333
vt 0.791667 0.833333
vt 0.791667 0.916667
vt 0.791667 0.000000
vt 0.770833 0.083333
vt 0.791667 0.083333
vt 0.791667 0.166667
vt 0.770833 0.250000
vt 0.791667 0.333333
vt 0.791667 0.416667
vt 0.812500 0.583333
vt 0.812500 0.666667
vt 0.812500 0.750000
vt 0.812500 0.833333
vt 0.812500 0.916667
vt 0.791667 1.000000
vt 0.812500 0.000000
vt 0.812500 0.083333
vt 0.812500 0.166667
vt 0.791667 0.250000
vt 0.812500 0.333333
vt 0.812500 0.416667
vt 0.812500 0.500000
vt 0.833333 0.583333
vt 0.833333 0.750000
vt 0.833333 0.833333
vt 0.833333 0.916667
vt 0.812500 1.000000
vt 0.833333 0.000000
vt 0.833333 0.083333
vt 0.833333 0.250000
vt 0.812500 0.250000
vt 0.833333 0.416667
vt 0.833333 0.500000
vt 0.854167 0.583333
vt 0.833333 0.666667
vt 0.854167 0.666667
vt 0.854167 0.750000
vt 0.854167 0.833333
vt 0.854167 0.916667
vt 0.833333 1.000000
vt 0.854167 0.000000
vt 0.854167 0.083333
vt 0.833333 0.166667
vt 0.854167 0.250000
vt 0.833333 0.333333
vt 0.854167 0.416667
vt 0.875000 0.500000
vt 0.854167 0.500000
vt 0.875000 0.583333
vt 0.875000 0.666667
vt 0.875000 0.750000
vt 0.875000 0.916667
vt 0.875000 1.000000
vt 0.854167 1.000000
vt 0.875000 0.000000
vt 0.875000 0.083333
vt 0.854167 0.166667
vt 0.875000 0.250000
vt 0.875000 0.333333
vt 0.854167 0.333333
vt 0.875000 0.416667
vt 0.895833 0.500000
vt 0.895833 0.666667
vt 0.895833 0.750000
vt 0.875000 0.833333
vt 0.895833 0.833333
vt 0.895833 0.916667
vt 0.895833 0.000000
vt 0.895833 0.083333
vt 0.875000 0.166667
vt 0.895833 0.166667
vt 0.895833 0.333333
vt 0.916667 0.500000
vt 0.895833 0.583333
vt 0.916667 0.666667
vt 0.916667 0.750000
vt 0.916667 0.833333
vt 0.916667 0.916667
vt 0.895833 1.000000
vt 0.916667 0.083333
vt 0.916667 0.166667
vt 0.916667 0.250000
vt 0.895833 0.250000
vt 0.916667 0.333333
vt 0.895833 0.416667
vt 0.937500 0.500000
vt 0.916667 0.583333
vt 0.937500 0.583333
vt 0.937500 0.666667
vt 0.937500 0.833333
vt 0.937500 0.916667
vt 0.916667 1.000000
vt 0.937500 0.000000
vt 0.916667 0.000000
vt 0.937500 0.083333
vt 0.937500 0.250000
vt 0.937500 0.333333
vt 0.916667 0.416667
vt 0.958333 0.500000
vt 0.958333 0.666667
vt 0.937500 0.750000
vt 0.958333 0.833333
vt 0.958333 1.000000
vt 0.937500 1.000000
vt 0.958333 0.000000
vt 0.958333 0.083333
vt 0.937500 0.166667
vt 0.958333 0.166667
vt 0.958333 0.250000
vt 0.958333 0.333333
vt 0.937500 0.416667
vt 0.979167 0.500000
vt 0.958333 0.583333
vt 0.979167 0.666667
vt 0.979167 0.750000
vt 0.958333 0.750000
vt 0.979167 0.833333
vt 0.958333 0.916667
vt 0.979167 0.916667
vt 0.979167 0.000000
vt 0.979167 0.083333
vt 0.979167 0.166667
vt 0.979167 0.250000
vt 0.979167 0.333333
vt 0.958333 0.416667
vt 1.000000 0.500000
vt 0.979167 0.583333
vt 1.000000 0.583333
vt 1.000000 0.666667
vt 1.000000 0.833333
vt 1.000000 0.916667
vt 0.979167 1.000000
vt 1.000000 0.083333
vt 1.000000 0.166667
vt 1.000000 0.333333
vt 1.000000 0.416667
vt 0.979167 0.416667
vt 0.000000 0.500000
vt 0.020833 0.583333
vt 0.000000 0.583333
vt 0.020833 0.666667
vt 0.000000 0.666667
vt 0.020833 0.750000
vt 0.000000 0.750000
vt 0.020833 0.833333
vt 0.000000 0.833333
vt 0.020833 0.916667
vt 0.000000 0.916667
vt 0.000000 1.000000
vt 0.000000 0.000000
vt 0.020833 0.083333
vt 0.000000 0.083333
vt 0.000000 0.166667
vt 0.020833 0.250000
vt 0.000000 0.250000
vt 0.000000 0.333333
vt 0.020833 0.333333
vt 0.000000 0.416667
vt 0.020833 0.416667
vt 0.020833 0.500000
vt 0.041667 0.583333
vt 0.041667 0.666667
vt 0.041667 0.750000
vt 0.041667 0.833333
vt 0.041667 0.916667
vt 0.020833 1.000000
vt 0.041667 0.000000
vt 0.020833 0.000000
vt 0.041667 0.083333
vt 0.020833 0.166667
vt 0.041667 0.166667
vt 0.041667 0.333333
vt 0.041667 0.416667
vt 0.062500 0.500000
vt 0.041667 0.500000
vt 0.062500 0.583333
vt 0.062500 0.666667
vt 0.062500 0.833333
vt 0.062500 0.916667
vt 0.041667 1.000000
vt 0.062500 0.083333
vt 0.062500 0.166667
vt 0.041667 0.250000
vt 0.062500 0.250000
vt 0.062500 0.333333
vt 0.062500 0.416667
vt 0.083333 0.500000
vt 0.083333 0.583333
vt 0.083333 0.666667
vt 0.062500 0.750000
vt 0.083333 0.750000
vt 0.083333 0.833333
vt 0.083333 0.916667
vt 0.062500 1.000000
vt 0.083333 0.000000
vt 0.062500 0.000000
vt 0.083333 0.083333
vt 0.083333 0.250000
vt 0.083333 0.333333
vt 0.083333 0.416667
vt 0.104167 0.500000
vt 0.104167 0.666667
vt 0.104167 0.750000
vt 0.104167 0.833333
vt 0.104167 0.916667
vt 0.083333 1.000000
vt 0.104167 0.000000
vt 0.104167 0.083333
vt 0.083333 0.166667
vt 0.104167 0.166667
vt 0.104167 0.250000
vt 0.104167 0.416667
vt 0.125000 0.583333
vt 0.104167 0.583333
vt 0.125000 0.666667
vt 0.125000 0.750000
vt 0.125000 0.833333
vt 0.125000 0.916667
vt 0.104167 1.000000
vt 0.125000 0.083333
vt 0.125000 0.166667
vt 0.125000 0.250000
vt 0.104167 0.333333
vt 0.125000 0.416667
vt 0.145833 0.500000
vt 0.125000 0.500000
vt 0.145833 0.583333
vt 0.145833 0.666667
vt 0.145833 0.750000
vt 0.145833 0.916667
vt 0.125000 1.000000
vt 0.125000 0.000000
vt 0.145833 0.083333
vt 0.145833 0.166667
vt 0.145833 0.250000
vt 0.125000 0.333333
vt 0.145833 0.416667
vt 0.166667 0.583333
vt 0.166667 0.666667
vt 0.166667 0.750000
vt 0.145833 0.833333
vt 0.166667 0.833333
vt 0.166667 0.916667
vt 0.145833 1.000000
vt 0.145833 0.000000
vt 0.166667 0.083333
vt 0.166667 0.166667
vt 0.166667 0.250000
vt 0.145833 0.333333
vt 0.166667 0.333333
vt 0.166667 0.416667
vt 0.187500 0.500000
vt 0.166667 0.500000
vt 0.187500 0.583333
vt 0.187500 0.666667
vt 0.187500 0.833333
vt 0.187500 0.916667
vt 0.166667 1.000000
vt 0.187500 0.000000
vt 0.166667 0.000000
vt 0.187500 0.083333
vt 0.187500 0.166667
vt 0.187500 0.250000
vt 0.187500 0.416667
vt 0.208333 0.500000
vt 0.208333 0.666667
vt 0.208333 0.750000
vt 0.187500 0.750000
vt 0.208333 0.833333
vt 0.208333 1.000000
vt 0.187500 1.000000
vt 0.208333 0.000000
vt 0.208333 0.083333
vt 0.208333 0.166667
vt 0.208333 0.250000
vt 0.187500 0.333333
vt 0.208333 0.333333
vt 0.208333 0.416667
vt 0.229167 0.500000
vt 0.208333 0.583333
vt 0.229167 0.583333
vt 0.229167 0.666667
vt 0.229167 0.833333
vt 0.208333 0.916667
vt 0.229167 0.916667
vt 0.229167 0.000000
vt 0.229167 0.166667
vt 0.229167 0.250000
vt 0.229167 0.416667
vt 0.250000 0.500000
vt 0.250000 0.583333
vt 0.250000 0.666667
vt 0.229167 0.750000
vt 0.250000 0.750000
vt 0.250000 0.833333
vt 0.250000 0.916667
vt 0.229167 1.000000
vt 0.250000 0.083333
vt 0.229167 0.083333
vt 0.250000 0.250000
vt 0.250000 0.333333
vt 0.229167 0.333333
vt 0.250000 0.416667
vt 0.270833 0.500000
vt 0.270833 0.583333
vt 0.270833 0.750000
vt 0.270833 0.833333
vt 0.270833 0.916667
vt 0.270833 1.000000
vt 0.250000 1.000000
vt 0.270833 0.000000
vt 0.250000 0.000000
vt 0.270833 0.166667
vt 0.250000 0.166667
vt 0.270833 0.250000
vt 0.270833 0.333333
vt 0.270833 0.416667
vt 0.291667 0.583333
vt 0.291667 0.666667
vt 0.270833 0.666667
vt 0.291667 0.750000
vt 0.291667 0.833333
vt 0.291667 0.916667
vt 0.291667 0.000000
vt 0.270833 0.083333
vt 0.291667 0.166667
vt 0.291667 0.250000
vt 0.291667 0.333333
vt 0.291667 0.416667
vt 0.312500 0.500000
vt 0.291667 0.500000
vt 0.312500 0.666667
vt 0.312500 0.750000
vt 0.312500 0.833333
vt 0.312500 1.000000
vt 0.291667 1.000000
vt 0.312500 0.000000
vt 0.291667 0.083333
vt 0.312500 0.083333
vt 0.312500 0.250000
vt 0.312500 0.333333
vt 0.333333 0.500000
vt 0.312500 0.583333
vt 0.333333 0.583333
vt 0.333333 0.750000
vt 0.333333 0.833333
vt 0.312500 0.916667
vt 0.333333 0.916667
vt 0.333333 0.083333
vt 0.312500 0.166667
vt 0.333333 0.166667
vt 0.333333 0.250000
vt 0.333333 0.333333
vt 0.312500 0.416667
vt 0.354167 0.500000
vt 0.354167 0.583333
vt 0.333333 0.666667
vt 0.354167 0.666667
vt 0.354167 0.750000
vt 0.354167 0.833333
vt 0.354167 1.000000
vt 0.333333 1.000000
vt 0.333333 0.000000
vt 0.354167 0.083333
vt 0.354167 0.166667
vt 0.354167 0.333333
vt 0.333333 0.416667
vt 0.375000 0.500000
vt 0.375000 0.583333
vt 0.375000 0.750000
vt 0.375000 0.833333
vt 0.354167 0.916667
vt 0.375000 0.916667
vt 0.375000 0.000000
vt 0.354167 0.000000
vt 0.375000 0.083333
vt 0.375000 0.166667
vt 0.354167 0.250000
vt 0.375000 0.250000
vt 0.375000 0.333333
vt 0.354167 0.416667
vt 0.375000 0.416667
vt 0.395833 0.583333
vt 0.375000 0.666667
vt 0.395833 0.666667
vt 0.395833 0.750000
vt 0.395833 0.916667
vt 0.375000 1.000000
vt 0.395833 0.083333
vt 0.395833 0.166667
vt 0.395833 0.250000
vt 0.395833 0.333333
vt 0.395833 0.416667
vt 0.395833 0.500000
vt 0.416667 0.583333
vt 0.416667 0.666667
vt 0.416667 0.750000
vt 0.395833 0.833333
vt 0.416667 0.916667
vt 0.395833 1.000000
vt 0.416667 0.000000
vt 0.395833 0.000000
vt 0.416667 0.083333
vt 0.416667 0.250000
vt 0.416667 0.333333
vt 0.416667 0.416667
vt 0.416667 0.500000
vt 0.437500 0.583333
vt 0.437500 0.666667
vt 0.437500 0.750000
vt 0.416667 0.833333
vt 0.437500 0.833333
vt 0.437500 1.000000
vt 0.416667 1.000000
vt 0.437500 0.000000
vt 0.437500 0.166667
vt 0.416667 0.166667
vt 0.437500 0.333333
vt 0.437500 0.416667
vt 0.458333 0.500000
vt 0.437500 0.500000
vt 0.458333 0.666667
vt 0.458333 0.833333
vt 0.437500 0.916667
vt 0.458333 1.000000
vt 0.458333 0.000000
vt 0.437500 0.083333
vt 0.458333 0.083333
vt 0.458333 0.166667
vt 0.437500 0.250000
vt 0.458333 0.250000
vt 0.458333 0.333333
vt 0.458333 0.416667
vt 0.479167 0.500000
vt 0.458333 0.583333
vt 0.479167 0.583333
vt 0.479167 0.750000
vt 0.458333 0.750000
vt 0.479167 0.833333
vt 0.458333 0.916667
vt 0.479167 1.000000
vt 0.479167 0.000000
vt 0.479167 0.083333
vt 0.479167 0.166667
vt 0.479167 0.250000
vt 0.479167 0.333333
vt 0.479167 0.666667
vt 0.479167 0.916667
vt 0.479167 0.416667
vt 1.000000 0.750000
vt 1.000000 1.000000
vt 1.000000 0.000000
vt 1.000000 0.250000
s 0
f 13/1/1 2/2/1 1/3/1
f 2/2/2 15/4/2 3/5/2
f 3/5/3 16/6/3 4/7/3
f 16/6/4 5/8/4 4/7/4
f 5/8/5 18/9/5 6/10/5
f 18/9/6 7/11/6 6/10/6
f 19/12/7 8/13/7 7/14/7
f 20/15/8 9/16/8 8/13/8
f 9/16/9 22/17/9 10/18/9
f 10/18/10 23/19/10 11/20/10
f 23/19/11 12/21/11 11/20/11
f 24/22/12 1/3/12 12/21/12
f 13/1/13 26/23/13 14/24/13
f 26/23/14 15/4/14 14/24/14
f 27/25/15 16/6/15 15/4/15
f 28/26/16 17/27/16 16/6/16
f 29/28/17 18/9/17 17/27/17
f 30/29/18 19/30/18 18/9/18
f 31/31/19 20/15/19 19/12/19
f 32/32/20 21/33/20 20/15/20
f 33/34/21 22/17/21 21/33/21
f 22/17/22 35/35/22 23/19/22
f 23/19/23 36/36/23 24/22/23
f 36/36/24 13/1/24 24/22/24
f 25/37/25 38/38/25 26/23/25
f 38/38/26 27/25/26 26/23/26
f 39/39/27 28/26/27 27/25/27
f 40/40/28 29/28/28 28/26/28
f 41/41/29 30/29/29 29/28/29
f 42/42/30 31/43/30 30/29/30
f 43/44/31 32/32/31 31/31/31
f 44/45/32 33/34/32 32/32/32
f 45/46/33 34/47/33 33/34/33
f 34/47/34 47/48/34 35/35/34
f 35/35/35 48/49/35 36/36/35
f 48/49/36 25/37/36 36/36/36
f 37/50/37 50/51/37 38/38/37
f 50/51/38 39/39/38 38/38/38
f 51/52/39 40/40/39 39/39/39
f 40/40/40 53/53/40 41/41/40
f 53/53/41 42/42/41 41/41/41
f 54/54/42 43/55/42 42/42/42
f 55/56/43 44/45/43 43/44/43
f 56/57/44 45/46/44 44/45/44
f 57/58/45 46/59/45 45/46/45
f 58/60/46 47/48/46 46/59/46
f 47/48/47 60/61/47 48/49/47
f 60/61/48 37/50/48 48/49/48
f 61/62/49 50/51/49 49/63/49
f 62/64/50 51/52/50 50/51/50
f 51/52/51 64/65/51 52/66/51
f 64/65/52 53/53/52 52/66/52
f 53/53/53 66/67/53 54/54/53
f 66/67/54 55/68/54 54/54/54
f 55/56/55 68/69/55 56/57/55
f 68/69/56 57/58/56 56/57/56
f 69/70/57 58/60/57 57/58/57
f 70/71/58 59/72/58 58/60/58
f 71/73/59 60/61/59 59/72/59
f 72/74/60 49/63/60 60/61/60
f 61/62/61 74/75/61 62/64/61
f 74/75/62 63/76/62 62/64/62
f 75/77/63 64/65/63 63/76/63
f 76/78/64 65/79/64 64/65/64
f 77/80/65 66/67/65 65/79/65
f 78/81/66 67/82/66 66/67/66
f 67/83/67 80/84/67 68/69/67
f 68/69/68 81/85/68 69/70/68
f 81/85/69 70/71/69 69/70/69
f 70/71/70 83/86/70 71/73/70
f 83/86/71 72/74/71 71/73/71
f 84/87/72 61/62/72 72/74/72
f 85/88/73 74/75/73 73/89/73
f 74/75/74 87/90/74 75/77/74
f 87/90/75 76/78/75 75/77/75
f 88/91/76 77/80/76 76/78/76
f 89/92/77 78/81/77 77/80/77
f 90/93/78 79/94/78 78/81/78
f 79/95/79 92/96/79 80/84/79
f 92/96/80 81/85/80 80/84/80
f 81/85/81 94/97/81 82/98/81
f 82/98/82 95/99/82 83/86/82
f 83/86/83 96/100/83 84/87/83
f 96/100/84 73/89/84 84/87/84
f 97/101/85 86/102/85 85/88/85
f 86/102/86 99/103/86 87/90/86
f 87/90/87 100/104/87 88/91/87
f 100/104/88 89/92/88 88/91/88
f 101/105/89 90/93/89 89/92/89
f 102/106/90 91/107/90 90/93/90
f 103/108/91 92/96/91 91/109/91
f 104/110/92 93/111/92 92/96/92
f 105/112/93 94/97/93 93/111/93
f 106/113/94 95/99/94 94/97/94
f 95/99/95 108/114/95 96/100/95
f 96/100/96 97/101/96 85/88/96
f 109/115/97 98/116/97 97/101/97
f 98/116/98 111/117/98 99/103/98
f 111/117/99 100/104/99 99/103/99
f 112/118/100 101/105/100 100/104/100
f 113/119/101 102/106/101 101/105/101
f 114/120/102 103/121/102 102/106/102
f 103/108/103 116/122/103 104/110/103
f 116/122/104 105/112/104 104/110/104
f 117/123/105 106/113/105 105/112/105
f 106/113/106 119/124/106 107/125/106
f 119/124/107 108/114/107 107/125/107
f 120/126/108 97/101/108 108/114/108
f 121/127/109 110/128/109 109/115/109
f 110/128/110 123/129/110 111/117/110
f 111/117/111 124/130/111 112/118/111
f 124/130/112 113/119/112 112/118/112
f 125/131/113 114/120/113 113/119/113
f 126/132/114 115/133/114 114/120/114
f 127/134/115 116/122/115 115/135/115
f 116/122/116 129/136/116 117/123/116
f 129/136/117 118/137/117 117/123/117
f 130/138/118 119/124/118 118/137/118
f 131/139/119 120/126/119 119/124/119
f 132/140/120 109/115/120 120/126/120
f 133/141/121 122/142/121 121/127/121
f 134/143/122 123/129/122 122/142/122
f 135/144/123 124/130/123 123/129/123
f 136/145/124 125/131/124 124/130/124
f 137/146/125 126/132/125 125/131/125
f 126/132/126 139/147/126 127/148/126
f 139/149/127 128/150/127 127/134/127
f 128/150/128 141/151/128 129/136/128
f 141/151/129 130/138/129 129/136/129
f 130/138/130 143/152/130 131/139/130
f 143/152/131 132/140/131 131/139/131
f 144/153/132 121/127/132 132/140/132
f 133/141/133 146/154/133 134/143/133
f 146/154/134 135/144/134 134/143/134
f 147/155/135 136/145/135 135/144/135
f 136/145/136 149/156/136 137/146/136
f 149/156/137 138/157/137 137/146/137
f 150/158/138 139/147/138 138/157/138
f 151/159/139 140/160/139 139/149/139
f 152/161/140 141/151/140 140/160/140
f 153/162/141 142/163/141 141/151/141
f 142/163/142 155/164/142 143/152/142
f 143/152/143 156/165/143 144/153/143
f 156/165/144 133/141/144 144/153/144
f 145/166/145 158/167/145 146/154/145
f 146/154/146 159/168/146 147/155/146
f 159/168/147 148/169/147 147/155/147
f 160/170/148 149/156/148 148/169/148
f 149/156/149 162/171/149 150/158/149
f 150/158/150 163/172/150 151/173/150
f 163/174/151 152/161/151 151/159/151
f 152/161/152 165/175/152 153/162/152
f 165/175/153 154/176/153 153/162/153
f 154/176/154 167/177/154 155/164/154
f 167/177/155 156/165/155 155/164/155
f 168/178/156 145/166/156 156/165/156
f 169/179/157 158/167/157 157/180/157
f 170/181/158 159/168/158 158/167/158
f 171/182/159 160/170/159 159/168/159
f 172/183/160 161/184/160 160/170/160
f 173/185/161 162/171/161 161/184/161
f 174/186/162 163/172/162 162/171/162
f 175/187/163 164/188/163 163/174/163
f 176/189/164 165/175/164 164/188/164
f 177/190/165 166/191/165 165/175/165
f 166/191/166 179/192/166 167/177/166
f 167/177/167 180/193/167 168/178/167
f 180/193/168 157/180/168 168/178/168
f 169/179/169 182/194/169 170/181/169
f 182/194/170 171/182/170 170/181/170
f 183/195/171 172/183/171 171/182/171
f 184/196/172 173/185/172 172/183/172
f 185/197/173 174/186/173 173/185/173
f 186/198/174 175/199/174 174/186/174
f 187/200/175 176/189/175 175/187/175
f 188/201/176 177/190/176 176/189/176
f 189/202/177 178/203/177 177/190/177
f 178/203/178 191/204/178 179/192/178
f 179/192/179 192/205/179 180/193/179
f 192/205/180 169/179/180 180/193/180
f 181/206/181 194/207/181 182/194/181
f 194/207/182 183/195/182 182/194/182
f 183/195/183 196/208/183 184/196/183
f 184/196/184 197/209/184 185/197/184
f 197/209/185 186/198/185 185/197/185
f 198/210/186 187/211/186 186/198/186
f 199/212/187 188/201/187 187/200/187
f 200/213/188 189/202/188 188/201/188
f 189/202/189 202/214/189 190/215/189
f 202/214/190 191/204/190 190/215/190
f 191/204/191 204/216/191 192/205/191
f 204/216/192 181/206/192 192/205/192
f 193/217/193 206/218/193 194/207/193
f 206/218/194 195/219/194 194/207/194
f 207/220/195 196/208/195 195/219/195
f 208/221/196 197/209/196 196/208/196
f 209/222/197 198/210/197 197/209/197
f 210/223/198 199/224/198 198/210/198
f 211/225/199 200/213/199 199/212/199
f 212/226/200 201/227/200 200/213/200
f 201/227/201 214/228/201 202/214/201
f 214/228/202 203/229/202 202/214/202
f 203/229/203 216/230/203 204/216/203
f 216/230/204 193/217/204 204/216/204
f 217/231/205 206/218/205 205/232/205
f 218/233/206 207/220/206 206/218/206
f 219/234/207 208/221/207 207/220/207
f 220/235/208 209/222/208 208/221/208
f 209/222/209 222/236/209 210/223/209
f 210/223/210 223/237/210 211/238/210
f 223/239/211 212/226/211 211/225/211
f 224/240/212 213/241/212 212/226/212
f 213/241/213 226/242/213 214/228/213
f 214/228/214 227/243/214 215/244/214
f 227/243/215 216/230/215 215/244/215
f 228/245/216 205/232/216 216/230/216
f 229/246/217 218/233/217 217/231/217
f 218/233/218 231/247/218 219/234/218
f 231/247/219 220/235/219 219/234/219
f 232/248/220 221/249/220 220/235/220
f 233/250/221 222/236/221 221/249/221
f 234/251/222 223/237/222 222/236/222
f 235/252/223 224/240/223 223/239/223
f 236/253/224 225/254/224 224/240/224
f 237/255/225 226/242/225 225/254/225
f 226/242/226 239/256/226 227/243/226
f 239/256/227 228/245/227 227/243/227
f 228/245/228 229/246/228 217/231/228
f 241/257/229 230/258/229 229/246/229
f 230/258/230 243/259/230 231/247/230
f 231/247/231 244/260/231 232/248/231
f 244/260/232 233/250/232 232/248/232
f 245/261/233 234/251/233 233/250/233
f 246/262/234 235/263/234 234/251/234
f 235/252/235 248/264/235 236/253/235
f 236/253/236 249/265/236 237/255/236
f 237/255/237 250/266/237 238/267/237
f 250/266/238 239/256/238 238/267/238
f 251/268/239 240/269/239 239/256/239
f 240/269/240 241/257/240 229/246/240
f 253/270/241 242/271/241 241/257/241
f 254/272/242 243/259/242 242/271/242
f 255/273/243 244/260/243 243/259/243
f 244/260/244 257/274/244 245/261/244
f 245/261/245 258/275/245 246/262/245
f 258/275/246 247/276/246 246/262/246
f 259/277/247 248/264/247 247/278/247
f 260/279/248 249/265/248 248/264/248
f 249/265/249 262/280/249 250/266/249
f 262/280/250 251/268/250 250/266/250
f 263/281/251 252/282/251 251/268/251
f 252/282/252 253/270/252 241/257/252
f 265/283/253 254/272/253 253/270/253
f 254/272/254 267/284/254 255/273/254
f 267/284/255 256/285/255 255/273/255
f 256/285/256 269/286/256 257/274/256
f 269/286/257 258/275/257 257/274/257
f 258/275/258 271/287/258 259/288/258
f 271/289/259 260/279/259 259/277/259
f 272/290/260 261/291/260 260/279/260
f 273/292/261 262/280/261 261/291/261
f 274/293/262 263/281/262 262/280/262
f 275/294/263 264/295/263 263/281/263
f 264/295/264 265/283/264 253/270/264
f 277/296/265 266/297/265 265/283/265
f 266/297/266 279/298/266 267/284/266
f 267/284/267 280/299/267 268/300/267
f 268/300/268 281/301/268 269/286/268
f 281/301/269 270/302/269 269/286/269
f 282/303/270 271/287/270 270/302/270
f 283/304/271 272/290/271 271/289/271
f 284/305/272 273/292/272 272/290/272
f 285/306/273 274/293/273 273/292/273
f 286/307/274 275/294/274 274/293/274
f 287/308/275 276/309/275 275/294/275
f 276/309/276 277/296/276 265/283/276
f 289/310/277 278/311/277 277/296/277
f 290/312/278 279/298/278 278/311/278
f 291/313/279 280/299/279 279/298/279
f 280/299/280 293/314/280 281/301/280
f 293/314/281 282/303/281 281/301/281
f 294/315/282 283/316/282 282/303/282
f 283/304/283 296/317/283 284/305/283
f 296/317/284 285/306/284 284/305/284
f 297/318/285 286/307/285 285/306/285
f 286/307/286 299/319/286 287/308/286
f 287/308/287 300/320/287 288/321/287
f 288/321/288 289/310/288 277/296/288
f 289/322/6 302/323/6 290/324/6
f 290/324/5 303/325/5 291/326/5
f 291/326/4 304/327/4 292/328/4
f 292/328/3 305/329/3 293/330/3
f 293/330/2 306/331/2 294/332/2
f 306/331/1 295/333/1 294/332/1
f 295/334/12 308/335/12 296/336/12
f 308/335/289 297/337/289 296/336/289
f 297/337/10 310/338/10 298/339/10
f 310/338/9 299/340/9 298/339/9
f 311/341/290 300/342/290 299/340/290
f 312/343/7 289/322/7 300/342/7
f 301/344/18 314/345/18 302/323/18
f 302/323/17 315/346/17 303/325/17
f 315/346/16 304/327/16 303/325/16
f 316/347/15 305/329/15 304/327/15
f 317/348/14 306/331/14 305/329/14
f 318/349/13 307/350/13 306/331/13
f 319/351/24 308/335/24 307/352/24
f 320/353/23 309/354/23 308/335/23
f 321/355/22 310/338/22 309/354/22
f 310/338/21 323/356/21 311/341/21
f 323/356/20 312/343/20 311/341/20
f 324/357/19 301/344/19 312/343/19
f 325/358/30 314/345/30 313/359/30
f 326/360/29 315/346/29 314/345/29
f 327/361/28 316/347/28 315/346/28
f 316/347/27 329/362/27 317/348/27
f 329/362/26 318/349/26 317/348/26
f 330/363/25 319/364/25 318/349/25
f 319/351/36 332/365/36 320/353/36
f 320/353/35 333/366/35 321/355/35
f 333/366/34 322/367/34 321/355/34
f 334/368/33 323/356/33 322/367/33
f 335/369/32 324/357/32 323/356/32
f 336/370/31 313/359/31 324/357/31
f 337/371/42 326/360/42 325/358/42
f 338/372/41 327/361/41 326/360/41
f 339/373/40 328/374/40 327/361/40
f 340/375/39 329/362/39 328/374/39
f 341/376/38 330/363/38 329/362/38
f 342/377/37 331/378/37 330/363/37
f 343/379/48 332/365/48 331/380/48
f 344/381/47 333/366/47 332/365/47
f 333/366/46 346/382/46 334/368/46
f 334/368/45 347/383/45 335/369/45
f 335/369/44 348/384/44 336/370/44
f 348/384/43 325/358/43 336/370/43
f 349/385/54 338/372/54 337/371/54
f 338/372/53 351/386/53 339/373/53
f 339/373/52 352/387/52 340/375/52
f 340/375/51 353/388/51 341/376/51
f 353/388/50 342/377/50 341/376/50
f 354/389/49 343/390/49 342/377/49
f 355/391/60 344/381/60 343/379/60
f 356/392/59 345/393/59 344/381/59
f 357/394/58 346/382/58 345/393/58
f 358/395/57 347/383/57 346/382/57
f 347/383/56 360/396/56 348/384/56
f 360/396/55 337/371/55 348/384/55
f 349/385/66 362/397/66 350/398/66
f 350/398/65 363/399/65 351/386/65
f 351/386/64 364/400/64 352/387/64
f 352/387/63 365/401/63 353/388/63
f 365/401/62 354/389/62 353/388/62
f 366/402/61 355/403/61 354/389/61
f 355/391/72 368/404/72 356/392/72
f 368/404/71 357/394/71 356/392/71
f 369/405/70 358/395/70 357/394/70
f 370/406/69 359/407/69 358/395/69
f 359/407/68 372/408/68 360/396/68
f 372/408/67 349/385/67 360/396/67
f 373/409/78 362/397/78 361/410/78
f 374/411/77 363/399/77 362/397/77
f 375/412/76 364/400/76 363/399/76
f 376/413/75 365/401/75 364/400/75
f 365/401/74 378/414/74 366/402/74
f 378/414/73 367/415/73 366/402/73
f 367/416/84 380/417/84 368/404/84
f 380/417/83 369/405/83 368/404/83
f 381/418/82 370/406/82 369/405/82
f 382/419/81 371/420/81 370/406/81
f 371/420/80 384/421/80 372/408/80
f 384/421/79 361/410/79 372/408/79
f 373/409/90 386/422/90 374/411/90
f 374/411/89 387/423/89 375/412/89
f 375/412/88 388/424/88 376/413/88
f 388/424/87 377/425/87 376/413/87
f 389/426/86 378/414/86 377/425/86
f 390/427/85 379/428/85 378/414/85
f 379/429/96 392/430/96 380/417/96
f 380/417/95 393/431/95 381/418/95
f 393/431/94 382/419/94 381/418/94
f 394/432/93 383/433/93 382/419/93
f 395/434/92 384/421/92 383/433/92
f 396/435/91 373/409/91 384/421/91
f 397/436/102 386/422/102 385/437/102
f 398/438/101 387/423/101 386/422/101
f 399/439/100 388/424/100 387/423/100
f 388/424/99 401/440/99 389/426/99
f 389/426/98 402/441/98 390/427/98
f 402/441/97 391/442/97 390/427/97
f 403/443/108 392/430/108 391/444/108
f 404/445/107 393/431/107 392/430/107
f 405/446/106 394/432/106 393/431/106
f 406/447/105 395/434/105 394/432/105
f 395/434/104 408/448/104 396/435/104
f 396/435/103 397/436/103 385/437/103
f 409/449/114 398/438/114 397/436/114
f 398/438/113 411/450/113 399/439/113
f 399/439/112 412/451/112 400/452/112
f 400/452/111 413/453/111 401/440/111
f 413/453/110 402/441/110 401/440/110
f 402/441/109 415/454/109 403/455/109
f 415/456/120 404/445/120 403/443/120
f 416/457/119 405/446/119 404/445/119
f 417/458/118 406/447/118 405/446/118
f 418/459/117 407/460/117 406/447/117
f 419/461/116 408/448/116 407/460/116
f 420/462/115 397/436/115 408/448/115
f 421/463/126 410/464/126 409/449/126
f 422/465/125 411/450/125 410/464/125
f 423/466/124 412/451/124 411/450/124
f 412/451/123 425/467/123 413/453/123
f 425/467/122 414/468/122 413/453/122
f 426/469/121 415/454/121 414/468/121
f 427/470/132 416/457/132 415/456/132
f 416/457/131 429/471/131 417/458/131
f 429/471/130 418/459/130 417/458/130
f 430/472/129 419/461/129 418/459/129
f 419/461/128 432/473/128 420/462/128
f 432/473/127 409/449/127 420/462/127
f 433/474/138 422/465/138 421/463/138
f 434/475/291 423/466/291 422/465/291
f 435/476/136 424/477/136 423/466/136
f 436/478/135 425/467/135 424/477/135
f 437/479/292 426/469/292 425/467/292
f 438/480/133 427/481/133 426/469/133
f 427/470/144 440/482/144 428/483/144
f 440/482/143 429/471/143 428/483/143
f 429/471/142 442/484/142 430/472/142
f 430/472/141 443/485/141 431/486/141
f 431/486/293 444/487/293 432/473/293
f 432/473/139 433/474/139 421/463/139
f 445/488/150 434/475/150 433/474/150
f 446/489/149 435/476/149 434/475/149
f 435/476/148 448/490/148 436/478/148
f 436/478/147 449/491/147 437/479/147
f 437/479/146 450/492/146 438/480/146
f 438/480/145 451/493/145 439/494/145
f 451/495/156 440/482/156 439/496/156
f 440/482/155 453/497/155 441/498/155
f 453/497/154 442/484/154 441/498/154
f 454/499/153 443/485/153 442/484/153
f 455/500/152 444/487/152 443/485/152
f 456/501/151 433/474/151 444/487/151
f 445/488/162 458/502/162 446/489/162
f 446/489/161 459/503/161 447/504/161
f 459/503/160 448/490/160 447/504/160
f 460/505/159 449/491/159 448/490/159
f 461/506/158 450/492/158 449/491/158
f 462/507/157 451/493/157 450/492/157
f 463/508/168 452/509/168 451/495/168
f 452/509/167 465/510/167 453/497/167
f 453/497/166 466/511/166 454/499/166
f 454/499/165 467/512/165 455/500/165
f 467/512/164 456/501/164 455/500/164
f 468/513/163 445/488/163 456/501/163
f 469/514/174 458/502/174 457/515/174
f 458/502/173 471/516/173 459/503/173
f 471/516/172 460/505/172 459/503/172
f 472/517/171 461/506/171 460/505/171
f 473/518/170 462/507/170 461/506/170
f 462/507/169 475/519/169 463/520/169
f 475/521/180 464/522/180 463/508/180
f 476/523/179 465/510/179 464/522/179
f 465/510/178 478/524/178 466/511/178
f 466/511/177 479/525/177 467/512/177
f 479/525/176 468/513/176 467/512/176
f 468/513/175 469/514/175 457/515/175
f 481/526/186 470/527/186 469/514/186
f 482/528/185 471/516/185 470/527/185
f 471/516/184 484/529/184 472/517/184
f 484/529/183 473/518/183 472/517/183
f 485/530/182 474/531/182 473/518/182
f 486/532/181 475/519/181 474/531/181
f 475/521/192 488/533/192 476/523/192
f 488/533/191 477/534/191 476/523/191
f 489/535/190 478/524/190 477/534/190
f 490/536/189 479/525/189 478/524/189
f 491/537/188 480/538/188 479/525/188
f 480/538/187 481/526/187 469/514/187
f 493/539/198 482/528/198 481/526/198
f 494/540/197 483/541/197 482/528/197
f 495/542/196 484/529/196 483/541/196
f 496/543/195 485/530/195 484/529/195
f 497/544/194 486/532/194 485/530/194
f 486/532/193 499/545/193 487/546/193
f 487/547/204 500/548/204 488/533/204
f 488/533/203 501/549/203 489/535/203
f 501/549/202 490/536/202 489/535/202
f 490/536/201 503/550/201 491/537/201
f 503/550/200 492/551/200 491/537/200
f 492/551/199 493/539/199 481/526/199
f 505/552/210 494/540/210 493/539/210
f 506/553/209 495/542/209 494/540/209
f 495/542/208 508/554/208 496/543/208
f 496/543/207 509/555/207 497/544/207
f 509/555/206 498/556/206 497/544/206
f 510/557/205 499/545/205 498/556/205
f 511/558/216 500/548/216 499/559/216
f 512/560/215 501/549/215 500/548/215
f 513/561/214 502/562/214 501/549/214
f 514/563/213 503/550/213 502/562/213
f 515/564/212 504/565/212 503/550/212
f 516/566/211 493/539/211 504/565/211
f 505/552/222 518/567/222 506/553/222
f 518/567/221 507/568/221 506/553/221
f 519/569/220 508/554/220 507/568/220
f 520/570/219 509/555/219 508/554/219
f 509/555/218 522/571/218 510/557/218
f 522/571/217 511/572/217 510/557/217
f 511/558/228 524/573/228 512/560/228
f 512/560/227 525/574/227 513/561/227
f 513/561/226 526/575/226 514/563/226
f 514/563/225 527/576/225 515/564/225
f 527/576/224 516/566/224 515/564/224
f 528/577/223 505/552/223 516/566/223
f 517/578/234 530/579/234 518/567/234
f 518/567/233 531/580/233 519/569/233
f 519/569/232 532/581/232 520/570/232
f 532/581/231 521/582/231 520/570/231
f 521/582/230 534/583/230 522/571/230
f 534/583/229 523/584/229 522/571/229
f 535/585/240 524/573/240 523/586/240
f 536/587/239 525/574/239 524/573/239
f 525/574/238 538/588/238 526/575/238
f 538/588/237 527/576/237 526/575/237
f 539/589/236 528/577/236 527/576/236
f 540/590/235 517/578/235 528/577/235
f 529/591/246 542/592/246 530/579/246
f 530/579/245 543/593/245 531/580/245
f 543/593/244 532/581/244 531/580/244
f 544/594/243 533/595/243 532/581/243
f 545/596/242 534/583/242 533/595/242
f 534/583/241 547/597/241 535/598/241
f 547/599/252 536/587/252 535/585/252
f 536/587/251 549/600/251 537/601/251
f 549/600/250 538/588/250 537/601/250
f 538/588/249 551/602/249 539/589/249
f 551/602/248 540/590/248 539/589/248
f 552/603/247 529/591/247 540/590/247
f 553/604/258 542/592/258 541/605/258
f 542/592/257 555/606/257 543/593/257
f 555/606/256 544/594/256 543/593/256
f 544/594/255 557/607/255 545/596/255
f 557/607/254 546/608/254 545/596/254
f 546/608/253 559/609/253 547/597/253
f 559/610/264 548/611/264 547/599/264
f 560/612/263 549/600/263 548/611/263
f 561/613/262 550/614/262 549/600/262
f 562/615/261 551/602/261 550/614/261
f 563/616/260 552/603/260 551/602/260
f 564/617/259 541/605/259 552/603/259
f 565/618/270 554/619/270 553/604/270
f 566/620/269 555/606/269 554/619/269
f 555/606/268 568/621/268 556/622/268
f 556/622/267 569/623/267 557/607/267
f 569/623/266 558/624/266 557/607/266
f 558/624/265 571/625/265 559/609/265
f 571/626/276 560/612/276 559/610/276
f 572/627/275 561/613/275 560/612/275
f 573/628/274 562/615/274 561/613/274
f 574/629/273 563/616/273 562/615/273
f 575/630/272 564/617/272 563/616/272
f 564/617/271 565/618/271 553/604/271
f 1/3/282 566/620/282 565/618/282
f 2/2/294 567/631/294 566/620/294
f 3/5/280 568/621/280 567/631/280
f 4/7/279 569/623/279 568/621/279
f 5/8/295 570/632/295 569/623/295
f 6/10/277 571/625/277 570/632/277
f 7/14/288 572/627/288 571/626/288
f 8/13/287 573/628/287 572/627/287
f 9/16/286 574/629/286 573/628/286
f 574/629/285 11/20/285 575/630/285
f 575/630/284 12/21/284 576/633/284
f 12/21/283 565/618/283 576/633/283
f 13/1/1 14/24/1 2/2/1
f 2/2/296 14/24/296 15/4/296
f 3/5/3 15/4/3 16/6/3
f 16/6/4 17/27/4 5/8/4
f 5/8/5 17/27/5 18/9/5
f 18/9/6 19/30/6 7/11/6
f 19/12/7 20/15/7 8/13/7
f 20/15/290 21/33/290 9/16/290
f 9/16/9 21/33/9 22/17/9
f 10/18/10 22/17/10 23/19/10
f 23/19/289 24/22/289 12/21/289
f 24/22/12 13/1/12 1/3/12
f 13/1/13 25/37/13 26/23/13
f 26/23/14 27/25/14 15/4/14
f 27/25/15 28/26/15 16/6/15
f 28/26/16 29/28/16 17/27/16
f 29/28/17 30/29/17 18/9/17
f 30/29/18 31/43/18 19/30/18
f 31/31/19 32/32/19 20/15/19
f 32/32/20 33/34/20 21/33/20
f 33/34/21 34/47/21 22/17/21
f 22/17/22 34/47/22 35/35/22
f 23/19/23 35/35/23 36/36/23
f 36/36/24 25/37/24 13/1/24
f 25/37/25 37/50/25 38/38/25
f 38/38/26 39/39/26 27/25/26
f 39/39/27 40/40/27 28/26/27
f 40/40/28 41/41/28 29/28/28
f 41/41/29 42/42/29 30/29/29
f 42/42/30 43/55/30 31/43/30
f 43/44/31 44/45/31 32/32/31
f 44/45/32 45/46/32 33/34/32
f 45/46/33 46/59/33 34/47/33
f 34/47/34 46/59/34 47/48/34
f 35/35/35 47/48/35 48/49/35
f 48/49/36 37/50/36 25/37/36
f 37/50/37 49/63/37 50/51/37
f 50/51/38 51/52/38 39/39/38
f 51/52/39 52/66/39 40/40/39
f 40/40/40 52/66/40 53/53/40
f 53/53/41 54/54/41 42/42/41
f 54/54/42 55/68/42 43/55/42
f 55/56/43 56/57/43 44/45/43
f 56/57/44 57/58/44 45/46/44
f 57/58/45 58/60/45 46/59/45
f 58/60/46 59/72/46 47/48/46
f 47/48/47 59/72/47 60/61/47
f 60/61/48 49/63/48 37/50/48
f 61/62/49 62/64/49 50/51/49
f 62/64/50 63/76/50 51/52/50
f 51/52/51 63/76/51 64/65/51
f 64/65/52 65/79/52 53/53/52
f 53/53/53 65/79/53 66/67/53
f 66/67/54 67/82/54 55/68/54
f 55/56/55 67/83/55 68/69/55
f 68/69/56 69/70/56 57/58/56
f 69/70/57 70/71/57 58/60/57
f 70/71/58 71/73/58 59/72/58
f 71/73/59 72/74/59 60/61/59
f 72/74/60 61/62/60 49/63/60
f 61/62/61 73/89/61 74/75/61
f 74/75/62 75/77/62 63/76/62
f 75/77/63 76/78/63 64/65/63
f 76/78/64 77/80/64 65/79/64
f 77/80/65 78/81/65 66/67/65
f 78/81/66 79/94/66 67/82/66
f 67/83/67 79/95/67 80/84/67
f 68/69/68 80/84/68 81/85/68
f 81/85/69 82/98/69 70/71/69
f 70/71/70 82/98/70 83/86/70
f 83/86/71 84/87/71 72/74/71
f 84/87/72 73/89/72 61/62/72
f 85/88/73 86/102/73 74/75/73
f 74/75/74 86/102/74 87/90/74
f 87/90/75 88/91/75 76/78/75
f 88/91/76 89/92/76 77/80/76
f 89/92/77 90/93/77 78/81/77
f 90/93/78 91/107/78 79/94/78
f 79/95/79 91/109/79 92/96/79
f 92/96/80 93/111/80 81/85/80
f 81/85/81 93/111/81 94/97/81
f 82/98/82 94/97/82 95/99/82
f 83/86/83 95/99/83 96/100/83
f 96/100/84 85/88/84 73/89/84
f 97/101/85 98/116/85 86/102/85
f 86/102/86 98/116/86 99/103/86
f 87/90/87 99/103/87 100/104/87
f 100/104/88 101/105/88 89/92/88
f 101/105/89 102/106/89 90/93/89
f 102/106/90 103/121/90 91/107/90
f 103/108/91 104/110/91 92/96/91
f 104/110/92 105/112/92 93/111/92
f 105/112/93 106/113/93 94/97/93
f 106/113/94 107/125/94 95/99/94
f 95/99/95 107/125/95 108/114/95
f 96/100/96 108/114/96 97/101/96
f 109/115/97 110/128/97 98/116/97
f 98/116/98 110/128/98 111/117/98
f 111/117/99 112/118/99 100/104/99
f 112/118/100 113/119/100 101/105/100
f 113/119/101 114/120/101 102/106/101
f 114/120/102 115/133/102 103/121/102
f 103/108/103 115/135/103 116/122/103
f 116/122/104 117/123/104 105/112/104
f 117/123/105 118/137/105 106/113/105
f 106/113/106 118/137/106 119/124/106
f 119/124/107 120/126/107 108/114/107
f 120/126/108 109/115/108 97/101/108
f 121/127/109 122/142/109 110/128/109
f 110/128/110 122/142/110 123/129/110
f 111/117/111 123/129/111 124/130/111
f 124/130/112 125/131/112 113/119/112
f 125/131/113 126/132/113 114/120/113
f 126/132/114 127/148/114 115/133/114
f 127/134/115 128/150/115 116/122/115
f 116/122/116 128/150/116 129/136/116
f 129/136/117 130/138/117 118/137/117
f 130/138/118 131/139/118 119/124/118
f 131/139/119 132/140/119 120/126/119
f 132/140/120 121/127/120 109/115/120
f 133/141/121 134/143/121 122/142/121
f 134/143/122 135/144/122 123/129/122
f 135/144/123 136/145/123 124/130/123
f 136/145/124 137/146/124 125/131/124
f 137/146/125 138/157/125 126/132/125
f 126/132/126 138/157/126 139/147/126
f 139/149/127 140/160/127 128/150/127
f 128/150/128 140/160/128 141/151/128
f 141/151/129 142/163/129 130/138/129
f 130/138/130 142/163/130 143/152/130
f 143/152/131 144/153/131 132/140/131
f 144/153/132 133/141/132 121/127/132
f 133/141/133 145/166/133 146/154/133
f 146/154/292 147/155/292 135/144/292
f 147/155/135 148/169/135 136/145/135
f 136/145/136 148/169/136 149/156/136
f 149/156/291 150/158/291 138/157/291
f 150/158/138 151/173/138 139/147/138
f 151/159/139 152/161/139 140/160/139
f 152/161/293 153/162/293 141/151/293
f 153/162/141 154/176/141 142/163/141
f 142/163/142 154/176/142 155/164/142
f 143/152/297 155/164/297 156/165/297
f 156/165/144 145/166/144 133/141/144
f 145/166/145 157/180/145 158/167/145
f 146/154/298 158/167/298 159/168/298
f 159/168/147 160/170/147 148/169/147
f 160/170/148 161/184/148 149/156/148
f 149/156/149 161/184/149 162/171/149
f 150/158/150 162/171/150 163/172/150
f 163/174/151 164/188/151 152/161/151
f 152/161/152 164/188/152 165/175/152
f 165/175/153 166/191/153 154/176/153
f 154/176/154 166/191/154 167/177/154
f 167/177/299 168/178/299 156/165/299
f 168/178/156 157/180/156 145/166/156
f 169/179/157 170/181/157 158/167/157
f 170/181/158 171/182/158 159/168/158
f 171/182/159 172/183/159 160/170/159
f 172/183/160 173/185/160 161/184/160
f 173/185/161 174/186/161 162/171/161
f 174/186/162 175/199/162 163/172/162
f 175/187/163 176/189/163 164/188/163
f 176/189/164 177/190/164 165/175/164
f 177/190/165 178/203/165 166/191/165
f 166/191/166 178/203/166 179/192/166
f 167/177/167 179/192/167 180/193/167
f 180/193/168 169/179/168 157/180/168
f 169/179/169 181/206/169 182/194/169
f 182/194/170 183/195/170 171/182/170
f 183/195/171 184/196/171 172/183/171
f 184/196/172 185/197/172 173/185/172
f 185/197/173 186/198/173 174/186/173
f 186/198/174 187/211/174 175/199/174
f 187/200/175 188/201/175 176/189/175
f 188/201/176 189/202/176 177/190/176
f 189/202/177 190/215/177 178/203/177
f 178/203/178 190/215/178 191/204/178
f 179/192/179 191/204/179 192/205/179
f 192/205/180 181/206/180 169/179/180
f 181/206/181 193/217/181 194/207/181
f 194/207/182 195/219/182 183/195/182
f 183/195/183 195/219/183 196/208/183
f 184/196/184 196/208/184 197/209/184
f 197/209/185 198/210/185 186/198/185
f 198/210/186 199/224/186 187/211/186
f 199/212/187 200/213/187 188/201/187
f 200/213/188 201/227/188 189/202/188
f 189/202/189 201/227/189 202/214/189
f 202/214/190 203/229/190 191/204/190
f 191/204/191 203/229/191 204/216/191
f 204/216/192 193/217/192 181/206/192
f 193/217/193 205/232/193 206/218/193
f 206/218/194 207/220/194 195/219/194
f 207/220/195 208/221/195 196/208/195
f 208/221/196 209/222/196 197/209/196
f 209/222/197 210/223/197 198/210/197
f 210/223/198 211/238/198 199/224/198
f 211/225/199 212/226/199 200/213/199
f 212/226/200 213/241/200 201/227/200
f 201/227/201 213/241/201 214/228/201
f 214/228/202 215/244/202 203/229/202
f 203/229/203 215/244/203 216/230/203
f 216/230/204 205/232/204 193/217/204
f 217/231/205 218/233/205 206/218/205
f 218/233/206 219/234/206 207/220/206
f 219/234/207 220/235/207 208/221/207
f 220/235/208 221/249/208 209/222/208
f 209/222/209 221/249/209 222/236/209
f 210/223/210 222/236/210 223/237/210
f 223/239/211 224/240/211 212/226/211
f 224/240/212 225/254/212 213/241/212
f 213/241/213 225/254/213 226/242/213
f 214/228/214 226/242/214 227/243/214
f 227/243/215 228/245/215 216/230/215
f 228/245/216 217/231/216 205/232/216
f 229/246/217 230/258/217 218/233/217
f 218/233/218 230/258/218 231/247/218
f 231/247/219 232/248/219 220/235/219
f 232/248/220 233/250/220 221/249/220
f 233/250/221 234/251/221 222/236/221
f 234/251/222 235/263/222 223/237/222
f 235/252/223 236/253/223 224/240/223
f 236/253/224 237/255/224 225/254/224
f 237/255/225 238/267/225 226/242/225
f 226/242/226 238/267/226 239/256/226
f 239/256/227 240/269/227 228/245/227
f 228/245/228 240/269/228 229/246/228
f 241/257/229 242/271/229 230/258/229
f 230/258/230 242/271/230 243/259/230
f 231/247/231 243/259/231 244/260/231
f 244/260/232 245/261/232 233/250/232
f 245/261/233 246/262/233 234/251/233
f 246/262/234 247/276/234 235/263/234
f 235/252/235 247/278/235 248/264/235
f 236/253/236 248/264/236 249/265/236
f 237/255/237 249/265/237 250/266/237
f 250/266/238 251/268/238 239/256/238
f 251/268/239 252/282/239 240/269/239
f 240/269/240 252/282/240 241/257/240
f 253/270/241 254/272/241 242/271/241
f 254/272/242 255/273/242 243/259/242
f 255/273/243 256/285/243 244/260/243
f 244/260/244 256/285/244 257/274/244
f 245/261/245 257/274/245 258/275/245
f 258/275/246 259/288/246 247/276/246
f 259/277/247 260/279/247 248/264/247
f 260/279/248 261/291/248 249/265/248
f 249/265/249 261/291/249 262/280/249
f 262/280/250 263/281/250 251/268/250
f 263/281/251 264/295/251 252/282/251
f 252/282/252 264/295/252 253/270/252
f 265/283/253 266/297/253 254/272/253
f 254/272/254 266/297/254 267/284/254
f 267/284/255 268/300/255 256/285/255
f 256/285/256 268/300/256 269/286/256
f 269/286/257 270/302/257 258/275/257
f 258/275/258 270/302/258 271/287/258
f 271/289/259 272/290/259 260/279/259
f 272/290/260 273/292/260 261/291/260
f 273/292/261 274/293/261 262/280/261
f 274/293/262 275/294/262 263/281/262
f 275/294/263 276/309/263 264/295/263
f 264/295/264 276/309/264 265/283/264
f 277/296/265 278/311/265 266/297/265
f 266/297/266 278/311/266 279/298/266
f 267/284/267 279/298/267 280/299/267
f 268/300/268 280/299/268 281/301/268
f 281/301/269 282/303/269 270/302/269
f 282/303/270 283/316/270 271/287/270
f 283/304/271 284/305/271 272/290/271
f 284/305/272 285/306/272 273/292/272
f 285/306/273 286/307/273 274/293/273
f 286/307/274 287/308/274 275/294/274
f 287/308/275 288/321/275 276/309/275
f 276/309/276 288/321/276 277/296/276
f 289/310/277 290/312/277 278/311/277
f 290/312/295 291/313/295 279/298/295
f 291/313/279 292/634/279 280/299/279
f 280/299/280 292/634/280 293/314/280
f 293/314/281 294/315/281 282/303/281
f 294/315/282 295/635/282 283/316/282
f 283/304/283 295/636/283 296/317/283
f 296/317/300 297/318/300 285/306/300
f 297/318/285 298/637/285 286/307/285
f 286/307/286 298/637/286 299/319/286
f 287/308/301 299/319/301 300/320/301
f 288/321/288 300/320/288 289/310/288
f 289/322/6 301/344/6 302/323/6
f 290/324/302 302/323/302 303/325/302
f 291/326/4 303/325/4 304/327/4
f 292/328/3 304/327/3 305/329/3
f 293/330/2 305/329/2 306/331/2
f 306/331/1 307/350/1 295/333/1
f 295/334/12 307/352/12 308/335/12
f 308/335/11 309/354/11 297/337/11
f 297/337/10 309/354/10 310/338/10
f 310/338/9 311/341/9 299/340/9
f 311/341/8 312/343/8 300/342/8
f 312/343/7 301/344/7 289/322/7
f 301/344/18 313/359/18 314/345/18
f 302/323/17 314/345/17 315/346/17
f 315/346/16 316/347/16 304/327/16
f 316/347/15 317/348/15 305/329/15
f 317/348/14 318/349/14 306/331/14
f 318/349/13 319/364/13 307/350/13
f 319/351/24 320/353/24 308/335/24
f 320/353/23 321/355/23 309/354/23
f 321/355/22 322/367/22 310/338/22
f 310/338/21 322/367/21 323/356/21
f 323/356/20 324/357/20 312/343/20
f 324/357/19 313/359/19 301/344/19
f 325/358/30 326/360/30 314/345/30
f 326/360/29 327/361/29 315/346/29
f 327/361/28 328/374/28 316/347/28
f 316/347/27 328/374/27 329/362/27
f 329/362/26 330/363/26 318/349/26
f 330/363/25 331/378/25 319/364/25
f 319/351/36 331/380/36 332/365/36
f 320/353/35 332/365/35 333/366/35
f 333/366/34 334/368/34 322/367/34
f 334/368/33 335/369/33 323/356/33
f 335/369/32 336/370/32 324/357/32
f 336/370/31 325/358/31 313/359/31
f 337/371/42 338/372/42 326/360/42
f 338/372/41 339/373/41 327/361/41
f 339/373/40 340/375/40 328/374/40
f 340/375/39 341/376/39 329/362/39
f 341/376/38 342/377/38 330/363/38
f 342/377/37 343/390/37 331/378/37
f 343/379/48 344/381/48 332/365/48
f 344/381/47 345/393/47 333/366/47
f 333/366/46 345/393/46 346/382/46
f 334/368/45 346/382/45 347/383/45
f 335/369/44 347/383/44 348/384/44
f 348/384/43 337/371/43 325/358/43
f 349/385/54 350/398/54 338/372/54
f 338/372/53 350/398/53 351/386/53
f 339/373/52 351/386/52 352/387/52
f 340/375/51 352/387/51 353/388/51
f 353/388/50 354/389/50 342/377/50
f 354/389/49 355/403/49 343/390/49
f 355/391/60 356/392/60 344/381/60
f 356/392/59 357/394/59 345/393/59
f 357/394/58 358/395/58 346/382/58
f 358/395/57 359/407/57 347/383/57
f 347/383/56 359/407/56 360/396/56
f 360/396/55 349/385/55 337/371/55
f 349/385/66 361/410/66 362/397/66
f 350/398/65 362/397/65 363/399/65
f 351/386/64 363/399/64 364/400/64
f 352/387/63 364/400/63 365/401/63
f 365/401/62 366/402/62 354/389/62
f 366/402/61 367/415/61 355/403/61
f 355/391/72 367/416/72 368/404/72
f 368/404/71 369/405/71 357/394/71
f 369/405/70 370/406/70 358/395/70
f 370/406/69 371/420/69 359/407/69
f 359/407/68 371/420/68 372/408/68
f 372/408/67 361/410/67 349/385/67
f 373/409/78 374/411/78 362/397/78
f 374/411/77 375/412/77 363/399/77
f 375/412/76 376/413/76 364/400/76
f 376/413/75 377/425/75 365/401/75
f 365/401/74 377/425/74 378/414/74
f 378/414/73 379/428/73 367/415/73
f 367/416/84 379/429/84 380/417/84
f 380/417/83 381/418/83 369/405/83
f 381/418/82 382/419/82 370/406/82
f 382/419/81 383/433/81 371/420/81
f 371/420/80 383/433/80 384/421/80
f 384/421/79 373/409/79 361/410/79
f 373/409/90 385/437/90 386/422/90
f 374/411/89 386/422/89 387/423/89
f 375/412/88 387/423/88 388/424/88
f 388/424/87 389/426/87 377/425/87
f 389/426/86 390/427/86 378/414/86
f 390/427/85 391/442/85 379/428/85
f 379/429/96 391/444/96 392/430/96
f 380/417/95 392/430/95 393/431/95
f 393/431/94 394/432/94 382/419/94
f 394/432/93 395/434/93 383/433/93
f 395/434/92 396/435/92 384/421/92
f 396/435/91 385/437/91 373/409/91
f 397/436/102 398/438/102 386/422/102
f 398/438/101 399/439/101 387/423/101
f 399/439/100 400/452/100 388/424/100
f 388/424/99 400/452/99 401/440/99
f 389/426/98 401/440/98 402/441/98
f 402/441/97 403/455/97 391/442/97
f 403/443/108 404/445/108 392/430/108
f 404/445/107 405/446/107 393/431/107
f 405/446/106 406/447/106 394/432/106
f 406/447/105 407/460/105 395/434/105
f 395/434/104 407/460/104 408/448/104
f 396/435/103 408/448/103 397/436/103
f 409/449/114 410/464/114 398/438/114
f 398/438/113 410/464/113 411/450/113
f 399/439/112 411/450/112 412/451/112
f 400/452/111 412/451/111 413/453/111
f 413/453/110 414/468/110 402/441/110
f 402/441/109 414/468/109 415/454/109
f 415/456/120 416/457/120 404/445/120
f 416/457/119 417/458/119 405/446/119
f 417/458/118 418/459/118 406/447/118
f 418/459/117 419/461/117 407/460/117
f 419/461/116 420/462/116 408/448/116
f 420/462/115 409/449/115 397/436/115
f 421/463/126 422/465/126 410/464/126
f 422/465/125 423/466/125 411/450/125
f 423/466/124 424/477/124 412/451/124
f 412/451/123 424/477/123 425/467/123
f 425/467/122 426/469/122 414/468/122
f 426/469/121 427/481/121 415/454/121
f 427/470/132 428/483/132 416/457/132
f 416/457/131 428/483/131 429/471/131
f 429/471/130 430/472/130 418/459/130
f 430/472/129 431/486/129 419/461/129
f 419/461/128 431/486/128 432/473/128
f 432/473/127 421/463/127 409/449/127
f 433/474/138 434/475/138 422/465/138
f 434/475/291 435/476/291 423/466/291
f 435/476/136 436/478/136 424/477/136
f 436/478/135 437/479/135 425/467/135
f 437/479/134 438/480/134 426/469/134
f 438/480/133 439/494/133 427/481/133
f 427/470/144 439/496/144 440/482/144
f 440/482/297 441/498/297 429/471/297
f 429/471/142 441/498/142 442/484/142
f 430/472/141 442/484/141 443/485/141
f 431/486/140 443/485/140 444/487/140
f 432/473/139 444/487/139 433/474/139
f 445/488/150 446/489/150 434/475/150
f 446/489/149 447/504/149 435/476/149
f 435/476/148 447/504/148 448/490/148
f 436/478/147 448/490/147 449/491/147
f 437/479/146 449/491/146 450/492/146
f 438/480/145 450/492/145 451/493/145
f 451/495/156 452/509/156 440/482/156
f 440/482/155 452/509/155 453/497/155
f 453/497/154 454/499/154 442/484/154
f 454/499/153 455/500/153 443/485/153
f 455/500/303 456/501/303 444/487/303
f 456/501/151 445/488/151 433/474/151
f 445/488/162 457/515/162 458/502/162
f 446/489/161 458/502/161 459/503/161
f 459/503/160 460/505/160 448/490/160
f 460/505/159 461/506/159 449/491/159
f 461/506/158 462/507/158 450/492/158
f 462/507/157 463/520/157 451/493/157
f 463/508/168 464/522/168 452/509/168
f 452/509/167 464/522/167 465/510/167
f 453/497/166 465/510/166 466/511/166
f 454/499/165 466/511/165 467/512/165
f 467/512/164 468/513/164 456/501/164
f 468/513/163 457/515/163 445/488/163
f 469/514/174 470/527/174 458/502/174
f 458/502/173 470/527/173 471/516/173
f 471/516/172 472/517/172 460/505/172
f 472/517/171 473/518/171 461/506/171
f 473/518/170 474/531/170 462/507/170
f 462/507/169 474/531/169 475/519/169
f 475/521/180 476/523/180 464/522/180
f 476/523/179 477/534/179 465/510/179
f 465/510/178 477/534/178 478/524/178
f 466/511/177 478/524/177 479/525/177
f 479/525/176 480/538/176 468/513/176
f 468/513/175 480/538/175 469/514/175
f 481/526/186 482/528/186 470/527/186
f 482/528/185 483/541/185 471/516/185
f 471/516/184 483/541/184 484/529/184
f 484/529/183 485/530/183 473/518/183
f 485/530/182 486/532/182 474/531/182
f 486/532/181 487/546/181 475/519/181
f 475/521/192 487/547/192 488/533/192
f 488/533/191 489/535/191 477/534/191
f 489/535/190 490/536/190 478/524/190
f 490/536/189 491/537/189 479/525/189
f 491/537/188 492/551/188 480/538/188
f 480/538/187 492/551/187 481/526/187
f 493/539/198 494/540/198 482/528/198
f 494/540/197 495/542/197 483/541/197
f 495/542/196 496/543/196 484/529/196
f 496/543/195 497/544/195 485/530/195
f 497/544/194 498/556/194 486/532/194
f 486/532/193 498/556/193 499/545/193
f 487/547/204 499/559/204 500/548/204
f 488/533/203 500/548/203 501/549/203
f 501/549/202 502/562/202 490/536/202
f 490/536/201 502/562/201 503/550/201
f 503/550/200 504/565/200 492/551/200
f 492/551/199 504/565/199 493/539/199
f 505/552/210 506/553/210 494/540/210
f 506/553/209 507/568/209 495/542/209
f 495/542/208 507/568/208 508/554/208
f 496/543/207 508/554/207 509/555/207
f 509/555/206 510/557/206 498/556/206
f 510/557/205 511/572/205 499/545/205
f 511/558/216 512/560/216 500/548/216
f 512/560/215 513/561/215 501/549/215
f 513/561/214 514/563/214 502/562/214
f 514/563/213 515/564/213 503/550/213
f 515/564/212 516/566/212 504/565/212
f 516/566/211 505/552/211 493/539/211
f 505/552/222 517/578/222 518/567/222
f 518/567/221 519/569/221 507/568/221
f 519/569/220 520/570/220 508/554/220
f 520/570/219 521/582/219 509/555/219
f 509/555/218 521/582/218 522/571/218
f 522/571/217 523/584/217 511/572/217
f 511/558/228 523/586/228 524/573/228
f 512/560/227 524/573/227 525/574/227
f 513/561/226 525/574/226 526/575/226
f 514/563/225 526/575/225 527/576/225
f 527/576/224 528/577/224 516/566/224
f 528/577/223 517/578/223 505/552/223
f 517/578/234 529/591/234 530/579/234
f 518/567/233 530/579/233 531/580/233
f 519/569/232 531/580/232 532/581/232
f 532/581/231 533/595/231 521/582/231
f 521/582/230 533/595/230 534/583/230
f 534/583/229 535/598/229 523/584/229
f 535/585/240 536/587/240 524/573/240
f 536/587/239 537/601/239 525/574/239
f 525/574/238 537/601/238 538/588/238
f 538/588/237 539/589/237 527/576/237
f 539/589/236 540/590/236 528/577/236
f 540/590/235 529/591/235 517/578/235
f 529/591/246 541/605/246 542/592/246
f 530/579/245 542/592/245 543/593/245
f 543/593/244 544/594/244 532/581/244
f 544/594/243 545/596/243 533/595/243
f 545/596/242 546/608/242 534/583/242
f 534/583/241 546/608/241 547/597/241
f 547/599/252 548/611/252 536/587/252
f 536/587/251 548/611/251 549/600/251
f 549/600/250 550/614/250 538/588/250
f 538/588/249 550/614/249 551/602/249
f 551/602/248 552/603/248 540/590/248
f 552/603/247 541/605/247 529/591/247
f 553/604/258 554/619/258 542/592/258
f 542/592/257 554/619/257 555/606/257
f 555/606/256 556/622/256 544/594/256
f 544/594/255 556/622/255 557/607/255
f 557/607/254 558/624/254 546/608/254
f 546/608/253 558/624/253 559/609/253
f 559/610/264 560/612/264 548/611/264
f 560/612/263 561/613/263 549/600/263
f 561/613/262 562/615/262 550/614/262
f 562/615/261 563/616/261 551/602/261
f 563/616/260 564/617/260 552/603/260
f 564/617/259 553/604/259 541/605/259
f 565/618/270 566/620/270 554/619/270
f 566/620/269 567/631/269 555/606/269
f 555/606/268 567/631/268 568/621/268
f 556/622/267 568/621/267 569/623/267
f 569/623/266 570/632/266 558/624/266
f 558/624/265 570/632/265 571/625/265
f 571/626/276 572/627/276 560/612/276
f 572/627/275 573/628/275 561/613/275
f 573/628/274 574/629/274 562/615/274
f 574/629/273 575/630/273 563/616/273
f 575/630/272 576/633/272 564/617/272
f 564/617/271 576/633/271 565/618/271
f 1/3/282 2/2/282 566/620/282
f 2/2/281 3/5/281 567/631/281
f 3/5/280 4/7/280 568/621/280
f 4/7/279 5/8/279 569/623/279
f 5/8/295 6/10/295 570/632/295
f 6/10/277 7/11/277 571/625/277
f 7/14/288 8/13/288 572/627/288
f 8/13/301 9/16/301 573/628/301
f 9/16/286 10/18/286 574/629/286
f 574/629/285 10/18/285 11/20/285
f 575/630/300 11/20/300 12/21/300
f 12/21/283 1/3/283 565/618/283
