# Blender 4.2.1 LTS
# www.blender.org
mtllib loop.mtl
o Plane.003
v -13.091661 -21.198132 -1.742365
v -12.757654 -44.321590 21.379196
v -13.088297 -44.321640 -1.742365
v -35.573357 -21.201403 -1.477605
v -35.239342 -44.324860 21.643950
v -35.569992 -44.324909 -1.477605
vn 0.9999 0.0001 -0.0143
vn -0.9999 -0.0001 0.0143
vn 0.0082 0.7071 0.7071
vn 0.0001 -1.0000 -0.0000
vn -0.0118 -0.0000 -0.9999
vt 1.000000 0.000000
vt 0.000000 1.000000
vt 1.000000 1.000000
s 0
f 1/1/1 2/2/1 3/3/1
f 4/1/2 6/3/2 5/2/2
f 1/1/3 5/2/3 2/2/3
f 2/2/4 6/3/4 3/3/4
f 3/3/5 4/1/5 1/1/5
f 1/1/3 4/1/3 5/2/3
f 2/2/4 5/2/4 6/3/4
f 3/3/5 6/3/5 4/1/5
o Plane.002
v -34.129078 -21.199333 68.024414
v -34.429138 -44.322838 44.902851
v -34.129074 -44.322838 68.024414
v -13.727306 -21.199331 67.759651
v -14.027365 -44.322838 44.638088
v -13.727304 -44.322838 67.759651
vn -0.9999 -0.0000 0.0130
vn 0.9999 -0.0000 -0.0130
vn -0.0092 0.7071 -0.7070
vn -0.0000 -1.0000 -0.0000
vn 0.0130 -0.0000 0.9999
vt 1.000000 0.000000
vt 0.000000 1.000000
vt 1.000000 1.000000
s 0
f 7/4/6 8/5/6 9/6/6
f 10/4/7 12/6/7 11/5/7
f 7/4/8 11/5/8 8/5/8
f 8/5/9 12/6/9 9/6/9
f 9/6/10 10/4/10 7/4/10
f 7/4/8 10/4/8 11/5/8
f 8/5/9 11/5/9 12/6/9
f 9/6/10 12/6/10 10/4/10
o Plane.001
v 11.401646 16.463209 68.024406
v 11.732291 39.586716 44.902847
v 11.401646 39.586716 68.024406
v -11.080047 16.463209 67.759651
v -10.749401 39.586716 44.638092
v -11.080047 39.586716 67.759651
vn 0.9999 -0.0000 0.0143
vn -0.9999 -0.0000 -0.0143
vn 0.0083 -0.7071 -0.7071
vn -0.0000 1.0000 -0.0000
vn -0.0118 -0.0000 0.9999
vt 1.000000 0.000000
vt 0.000000 1.000000
vt 1.000000 1.000000
s 0
f 13/7/11 14/8/11 15/9/11
f 16/7/12 18/9/12 17/8/12
f 13/7/13 17/8/13 14/8/13
f 15/9/14 17/8/14 18/9/14
f 15/9/15 16/7/15 13/7/15
f 13/7/13 16/7/13 17/8/13
f 15/9/14 14/8/14 17/8/14
f 15/9/15 18/9/15 16/7/15
o Plane
v -10.934303 16.463209 -1.742365
v -11.264946 39.586716 21.379196
v -10.934303 39.586716 -1.742365
v 11.547390 16.463209 -1.477605
v 11.216745 39.586716 21.643950
v 11.547390 39.586716 -1.477605
vn -0.9999 -0.0000 -0.0143
vn 0.9999 -0.0000 0.0143
vn -0.0083 -0.7071 0.7071
vn -0.0000 1.0000 -0.0000
vn 0.0118 -0.0000 -0.9999
vt 1.000000 0.000000
vt 0.000000 1.000000
vt 1.000000 1.000000
s 0
f 19/10/16 20/11/16 21/12/16
f 22/10/17 24/12/17 23/11/17
f 19/10/18 23/11/18 20/11/18
f 20/11/19 24/12/19 21/12/19
f 21/12/20 22/10/20 19/10/20
f 19/10/18 22/10/18 23/11/18
f 20/11/19 23/11/19 24/12/19
f 21/12/20 24/12/20 22/10/20
o Cube.006
v -12.659640 -44.350780 -1.551140
v -12.659640 -44.350780 21.572369
v -12.656275 -67.474289 -1.551140
v -12.656275 -67.474289 21.572369
v -35.783150 -44.354149 -1.551140
v -35.783150 -44.354149 21.572369
v -35.779785 -67.477646 -1.551140
v -35.779785 -67.477646 21.572369
vn 1.0000 0.0001 -0.0000
vn 0.0001 -1.0000 -0.0000
vn -1.0000 -0.0001 -0.0000
vn -0.0001 1.0000 -0.0000
vn -0.0000 -0.0000 -1.0000
vn -0.0000 -0.0000 1.0000
vt 0.625000 0.000000
vt 0.375000 0.250000
vt 0.375000 0.000000
vt 0.625000 0.250000
vt 0.375000 0.500000
vt 0.625000 0.500000
vt 0.375000 0.750000
vt 0.625000 0.750000
vt 0.375000 1.000000
vt 0.125000 0.750000
vt 0.125000 0.500000
vt 0.875000 0.500000
vt 0.625000 1.000000
vt 0.875000 0.750000
s 0
f 26/13/21 27/14/21 25/15/21
f 28/16/22 31/17/22 27/14/22
f 32/18/23 29/19/23 31/17/23
f 30/20/24 25/21/24 29/19/24
f 31/17/25 25/22/25 27/23/25
f 28/24/26 30/20/26 32/18/26
f 26/13/21 28/16/21 27/14/21
f 28/16/22 32/18/22 31/17/22
f 32/18/23 30/20/23 29/19/23
f 30/20/24 26/25/24 25/21/24
f 31/17/25 29/19/25 25/22/25
f 28/24/26 26/26/26 30/20/26
o Cube.005
v -12.659640 -44.350780 21.411116
v -12.659640 -44.350780 44.534622
v -12.656275 -67.474289 21.411116
v -12.656275 -67.474289 44.534622
v -35.783150 -44.354149 21.411116
v -35.783150 -44.354149 44.534622
v -35.779785 -67.477646 21.411116
v -35.779785 -67.477646 44.534622
vn 1.0000 0.0001 -0.0000
vn 0.0001 -1.0000 -0.0000
vn -1.0000 -0.0001 -0.0000
vn -0.0001 1.0000 -0.0000
vn -0.0000 -0.0000 -1.0000
vn -0.0000 -0.0000 1.0000
vt 0.625000 0.000000
vt 0.375000 0.250000
vt 0.375000 0.000000
vt 0.625000 0.250000
vt 0.375000 0.500000
vt 0.625000 0.500000
vt 0.375000 0.750000
vt 0.625000 0.750000
vt 0.375000 1.000000
vt 0.125000 0.750000
vt 0.125000 0.500000
vt 0.875000 0.500000
vt 0.625000 1.000000
vt 0.875000 0.750000
s 0
f 34/27/27 35/28/27 33/29/27
f 36/30/28 39/31/28 35/28/28
f 40/32/29 37/33/29 39/31/29
f 38/34/30 33/35/30 37/33/30
f 39/31/31 33/36/31 35/37/31
f 36/38/32 38/34/32 40/32/32
f 34/27/27 36/30/27 35/28/27
f 36/30/28 40/32/28 39/31/28
f 40/32/29 38/34/29 37/33/29
f 38/34/30 34/39/30 33/35/30
f 39/31/31 37/33/31 33/36/31
f 36/38/32 34/40/32 38/34/32
o Cube.004
v -12.659640 -44.350780 44.866920
v -12.659640 -44.350780 67.990425
v -12.656275 -67.474289 44.866920
v -12.656275 -67.474289 67.990425
v -35.783150 -44.354149 44.866920
v -35.783150 -44.354149 67.990425
v -35.779785 -67.477646 44.866920
v -35.779785 -67.477646 67.990425
vn 1.0000 0.0001 -0.0000
vn 0.0001 -1.0000 -0.0000
vn -1.0000 -0.0001 -0.0000
vn -0.0001 1.0000 -0.0000
vn -0.0000 -0.0000 -1.0000
vn -0.0000 -0.0000 1.0000
vt 0.625000 0.000000
vt 0.375000 0.250000
vt 0.375000 0.000000
vt 0.625000 0.250000
vt 0.375000 0.500000
vt 0.625000 0.500000
vt 0.375000 0.750000
vt 0.625000 0.750000
vt 0.375000 1.000000
vt 0.125000 0.750000
vt 0.125000 0.500000
vt 0.875000 0.500000
vt 0.625000 1.000000
vt 0.875000 0.750000
s 0
f 42/41/33 43/42/33 41/43/33
f 44/44/34 47/45/34 43/42/34
f 48/46/35 45/47/35 47/45/35
f 46/48/36 41/49/36 45/47/36
f 47/45/37 41/50/37 43/51/37
f 44/52/38 46/48/38 48/46/38
f 42/41/33 44/44/33 43/42/33
f 44/44/34 48/46/34 47/45/34
f 48/46/35 46/48/35 45/47/35
f 46/48/36 42/53/36 41/49/36
f 47/45/37 45/47/37 41/50/37
f 44/52/38 42/54/38 46/48/38
o Cube.003
v -34.949303 -67.419716 68.860489
v -34.949303 -67.419716 91.984001
v -34.949303 63.278172 68.860489
v -34.949303 63.278172 91.984001
v 12.140926 -67.419716 68.860489
v 12.140926 -67.419716 91.984001
v 12.140926 63.278172 68.860489
v 12.140926 63.278172 91.984001
vn -1.0000 -0.0000 -0.0000
vn -0.0000 1.0000 -0.0000
vn 1.0000 -0.0000 -0.0000
vn -0.0000 -1.0000 -0.0000
vn -0.0000 -0.0000 -1.0000
vn -0.0000 -0.0000 1.0000
vt 0.625000 0.000000
vt 0.375000 0.250000
vt 0.375000 0.000000
vt 0.625000 0.250000
vt 0.375000 0.500000
vt 0.625000 0.500000
vt 0.375000 0.750000
vt 0.625000 0.750000
vt 0.375000 1.000000
vt 0.125000 0.750000
vt 0.125000 0.500000
vt 0.875000 0.500000
vt 0.625000 1.000000
vt 0.875000 0.750000
s 0
f 50/55/39 51/56/39 49/57/39
f 52/58/40 55/59/40 51/56/40
f 56/60/41 53/61/41 55/59/41
f 54/62/42 49/63/42 53/61/42
f 55/59/43 49/64/43 51/65/43
f 52/66/44 54/62/44 56/60/44
f 50/55/39 52/58/39 51/56/39
f 52/58/40 56/60/40 55/59/40
f 56/60/41 54/62/41 53/61/41
f 54/62/42 50/67/42 49/63/42
f 55/59/43 53/61/43 49/64/43
f 52/66/44 50/68/44 54/62/44
o Cube.002
v -11.362961 39.615925 44.866920
v -11.362961 39.615925 67.990425
v -11.362961 62.739429 44.866920
v -11.362961 62.739429 67.990425
v 11.760547 39.615925 44.866920
v 11.760547 39.615925 67.990425
v 11.760547 62.739429 44.866920
v 11.760547 62.739429 67.990425
vn -1.0000 -0.0000 -0.0000
vn -0.0000 1.0000 -0.0000
vn 1.0000 -0.0000 -0.0000
vn -0.0000 -1.0000 -0.0000
vn -0.0000 -0.0000 -1.0000
vn -0.0000 -0.0000 1.0000
vt 0.625000 0.000000
vt 0.375000 0.250000
vt 0.375000 0.000000
vt 0.625000 0.250000
vt 0.375000 0.500000
vt 0.625000 0.500000
vt 0.375000 0.750000
vt 0.625000 0.750000
vt 0.375000 1.000000
vt 0.125000 0.750000
vt 0.125000 0.500000
vt 0.875000 0.500000
vt 0.625000 1.000000
vt 0.875000 0.750000
s 0
f 58/69/45 59/70/45 57/71/45
f 60/72/46 63/73/46 59/70/46
f 64/74/47 61/75/47 63/73/47
f 62/76/48 57/77/48 61/75/48
f 63/73/49 57/78/49 59/79/49
f 60/80/50 62/76/50 64/74/50
f 58/69/45 60/72/45 59/70/45
f 60/72/46 64/74/46 63/73/46
f 64/74/47 62/76/47 61/75/47
f 62/76/48 58/81/48 57/77/48
f 63/73/49 61/75/49 57/78/49
f 60/80/50 58/82/50 62/76/50
o Cube.001
v -11.362961 39.615925 21.411116
v -11.362961 39.615925 44.534622
v -11.362961 62.739429 21.411116
v -11.362961 62.739429 44.534622
v 11.760547 39.615925 21.411116
v 11.760547 39.615925 44.534622
v 11.760547 62.739429 21.411116
v 11.760547 62.739429 44.534622
vn -1.0000 -0.0000 -0.0000
vn -0.0000 1.0000 -0.0000
vn 1.0000 -0.0000 -0.0000
vn -0.0000 -1.0000 -0.0000
vn -0.0000 -0.0000 -1.0000
vn -0.0000 -0.0000 1.0000
vt 0.625000 0.000000
vt 0.375000 0.250000
vt 0.375000 0.000000
vt 0.625000 0.250000
vt 0.375000 0.500000
vt 0.625000 0.500000
vt 0.375000 0.750000
vt 0.625000 0.750000
vt 0.375000 1.000000
vt 0.125000 0.750000
vt 0.125000 0.500000
vt 0.875000 0.500000
vt 0.625000 1.000000
vt 0.875000 0.750000
s 0
f 66/83/51 67/84/51 65/85/51
f 68/86/52 71/87/52 67/84/52
f 72/88/53 69/89/53 71/87/53
f 70/90/54 65/91/54 69/89/54
f 71/87/55 65/92/55 67/93/55
f 68/94/56 70/90/56 72/88/56
f 66/83/51 68/86/51 67/84/51
f 68/86/52 72/88/52 71/87/52
f 72/88/53 70/90/53 69/89/53
f 70/90/54 66/95/54 65/91/54
f 71/87/55 69/89/55 65/92/55
f 68/94/56 66/96/56 70/90/56
o Cube.007
v -11.362961 39.615925 -1.551140
v -11.362961 39.615925 21.572369
v -11.362961 62.739429 -1.551140
v -11.362961 62.739429 21.572369
v 11.760547 39.615925 -1.551140
v 11.760547 39.615925 21.572369
v 11.760547 62.739429 -1.551140
v 11.760547 62.739429 21.572369
vn -1.0000 -0.0000 -0.0000
vn -0.0000 1.0000 -0.0000
vn 1.0000 -0.0000 -0.0000
vn -0.0000 -1.0000 -0.0000
vn -0.0000 -0.0000 -1.0000
vn -0.0000 -0.0000 1.0000
vt 0.625000 0.000000
vt 0.375000 0.250000
vt 0.375000 0.000000
vt 0.625000 0.250000
vt 0.375000 0.500000
vt 0.625000 0.500000
vt 0.375000 0.750000
vt 0.625000 0.750000
vt 0.375000 1.000000
vt 0.125000 0.750000
vt 0.125000 0.500000
vt 0.875000 0.500000
vt 0.625000 1.000000
vt 0.875000 0.750000
s 0
f 74/97/57 75/98/57 73/99/57
f 76/100/58 79/101/58 75/98/58
f 80/102/59 77/103/59 79/101/59
f 78/104/60 73/105/60 77/103/60
f 79/101/61 73/106/61 75/107/61
f 76/108/62 78/104/62 80/102/62
f 74/97/57 76/100/57 75/98/57
f 76/100/58 80/102/58 79/101/58
f 80/102/59 78/104/59 77/103/59
f 78/104/60 74/109/60 73/105/60
f 79/101/61 77/103/61 73/106/61
f 76/108/62 74/110/62 78/104/62
