# Blender 4.2.1 LTS
# www.blender.org
mtllib terrain_water_32.mtl
o Plane
v -50.000000 -312.500000 71.535988
v 50.000000 -312.500000 71.535988
v -50.000000 312.500000 71.535988
v 50.000000 312.500000 71.535988
v -50.000000 -312.500000 83.955170
v 50.000000 -312.500000 83.955170
v -50.000000 312.500000 83.955170
v 50.000000 312.500000 83.955170
vn -0.0000 -0.0000 -1.0000
vn -0.0000 -0.0000 1.0000
vn -0.0000 1.0000 -0.0000
vn -0.0000 -1.0000 -0.0000
vn 1.0000 -0.0000 -0.0000
vn -1.0000 -0.0000 -0.0000
vt 0.000000 1.000000
vt 1.000000 0.000000
vt 0.000000 0.000000
vt 1.000000 1.000000
s 0
f 3/1/1 2/2/1 1/3/1
f 6/2/2 7/1/2 5/3/2
f 3/1/3 8/4/3 4/4/3
f 2/2/4 5/3/4 1/3/4
f 4/4/5 6/2/5 2/2/5
f 1/3/6 7/1/6 3/1/6
f 3/1/1 4/4/1 2/2/1
f 6/2/2 8/4/2 7/1/2
f 3/1/3 7/1/3 8/4/3
f 2/2/4 6/2/4 5/3/4
f 4/4/5 8/4/5 6/2/5
f 1/3/6 5/3/6 7/1/6
o Plane.001
v -50.000000 -302.381714 -92.480614
v 50.000000 -302.381714 -92.480614
v -50.000000 -312.217468 -92.480614
v 50.000000 -312.217468 -92.480614
v -50.000000 -302.381714 75.309814
v 50.000000 -302.381714 75.309814
v -50.000000 -312.217468 75.309814
v 50.000000 -312.217468 75.309814
vn -0.0000 -0.0000 1.0000
vn -0.0000 -0.0000 -1.0000
vn -0.0000 1.0000 -0.0000
vn -0.0000 -1.0000 -0.0000
vn -1.0000 -0.0000 -0.0000
vn 1.0000 -0.0000 -0.0000
vt 0.000000 1.000000
vt 1.000000 0.000000
vt 0.000000 0.000000
vt 1.000000 1.000000
s 0
f 11/5/7 10/6/7 9/7/7
f 14/6/8 15/5/8 13/7/8
f 11/5/9 16/8/9 12/8/9
f 10/6/10 13/7/10 9/7/10
f 12/8/11 14/6/11 10/6/11
f 9/7/12 15/5/12 11/5/12
f 11/5/7 12/8/7 10/6/7
f 14/6/8 16/8/8 15/5/8
f 11/5/9 15/5/9 16/8/9
f 10/6/10 14/6/10 13/7/10
f 12/8/11 16/8/11 14/6/11
f 9/7/12 13/7/12 15/5/12
o Plane.002
v -50.000000 310.471069 -92.480614
v 50.000000 310.471069 -92.480614
v -50.000000 300.635315 -92.480614
v 50.000000 300.635315 -92.480614
v -50.000000 310.471069 75.309814
v 50.000000 310.471069 75.309814
v -50.000000 300.635315 75.309814
v 50.000000 300.635315 75.309814
vn -0.0000 -0.0000 1.0000
vn -0.0000 -0.0000 -1.0000
vn -0.0000 1.0000 -0.0000
vn -0.0000 -1.0000 -0.0000
vn -1.0000 -0.0000 -0.0000
vn 1.0000 -0.0000 -0.0000
vt 0.000000 1.000000
vt 1.000000 0.000000
vt 0.000000 0.000000
vt 1.000000 1.000000
s 0
f 19/9/13 18/10/13 17/11/13
f 22/10/14 23/9/14 21/11/14
f 19/9/15 24/12/15 20/12/15
f 18/10/16 21/11/16 17/11/16
f 20/12/17 22/10/17 18/10/17
f 17/11/18 23/9/18 19/9/18
f 19/9/13 20/12/13 18/10/13
f 22/10/14 24/12/14 23/9/14
f 19/9/15 23/9/15 24/12/15
f 18/10/16 22/10/16 21/11/16
f 20/12/17 24/12/17 22/10/17
f 17/11/18 21/11/18 23/9/18
o Plane.005
v -50.000000 -312.500000 -91.024353
v 50.000000 -312.500000 -91.024353
v -50.000000 312.500000 -91.024353
v 50.000000 312.500000 -91.024353
v -50.000000 -312.500000 -78.605171
v 50.000000 -312.500000 -78.605171
v -50.000000 312.500000 -78.605171
v 50.000000 312.500000 -78.605171
vn -0.0000 -0.0000 -1.0000
vn -0.0000 -0.0000 1.0000
vn -0.0000 1.0000 -0.0000
vn -0.0000 -1.0000 -0.0000
vn 1.0000 -0.0000 -0.0000
vn -1.0000 -0.0000 -0.0000
vt 0.000000 1.000000
vt 1.000000 0.000000
vt 0.000000 0.000000
vt 1.000000 1.000000
s 0
f 27/13/19 26/14/19 25/15/19
f 30/14/20 31/13/20 29/15/20
f 27/13/21 32/16/21 28/16/21
f 26/14/22 29/15/22 25/15/22
f 28/16/23 30/14/23 26/14/23
f 25/15/24 31/13/24 27/13/24
f 27/13/19 28/16/19 26/14/19
f 30/14/20 32/16/20 31/13/20
f 27/13/21 31/13/21 32/16/21
f 26/14/22 30/14/22 29/15/22
f 28/16/23 32/16/23 30/14/23
f 25/15/24 29/15/24 31/13/24
