# Blender 4.2.1 LTS
# www.blender.org
mtllib beam.mtl
o Sphere
v 0.000000 2.158749 1.659841
v 0.000000 3.237920 1.109070
v 0.000000 3.821962 0.389454
v 0.000000 3.897120 0.000000
v 0.000000 3.821962 -0.389454
v 0.000000 3.237920 -1.109070
v 0.073213 0.734083 1.957916
v 0.143612 1.453747 1.844316
v 0.208492 2.116994 1.659841
v 0.265360 2.698334 1.411579
v 0.312030 3.175428 1.109070
v 0.346710 3.529941 0.763941
v 0.368065 3.748249 0.389454
v 0.375276 3.821962 0.000000
v 0.368065 3.748249 -0.389454
v 0.346710 3.529941 -0.763941
v 0.312030 3.175428 -1.109070
v 0.265360 2.698334 -1.411579
v 0.208492 2.116994 -1.659841
v 0.143612 1.453747 -1.844316
v 0.073213 0.734083 -1.957916
v 0.143612 0.690659 1.957916
v 0.281705 1.368568 1.844316
v 0.408972 1.993332 1.659841
v 0.520522 2.540943 1.411579
v 0.612070 2.990355 1.109070
v 0.680095 3.324299 0.763941
v 0.721985 3.529941 0.389454
v 0.736130 3.599377 0.000000
v 0.721985 3.529941 -0.389454
v 0.680095 3.324299 -0.763941
v 0.612070 2.990355 -1.109070
v 0.520522 2.540943 -1.411579
v 0.408972 1.993332 -1.659841
v 0.281705 1.368568 -1.844316
v 0.143612 0.690659 -1.957916
v 0.208492 0.620142 1.957916
v 0.408972 1.230244 1.844316
v 0.593735 1.792517 1.659841
v 0.755681 2.285354 1.411579
v 0.888587 2.689814 1.109070
v 0.987345 2.990355 0.763941
v 1.048160 3.175428 0.389454
v 1.068695 3.237919 0.000000
v 1.048160 3.175428 -0.389454
v 0.987345 2.990355 -0.763941
v 0.888587 2.689814 -1.109070
v 0.755681 2.285354 -1.411579
v 0.593735 1.792517 -1.659841
v 0.408972 1.230244 -1.844316
v 0.208492 0.620142 -1.957916
v 0.265360 0.525242 1.957916
v 0.520522 1.044091 1.844316
v 0.755681 1.522265 1.659841
v 0.961800 1.941388 1.411579
v 1.130957 2.285353 1.109070
v 1.256652 2.540943 0.763941
v 1.334055 2.698334 0.389454
v 1.360191 2.751478 0.000000
v 1.334055 2.698334 -0.389454
v 1.256652 2.540943 -0.763941
v 1.130957 2.285353 -1.109070
v 0.961800 1.941388 -1.411579
v 0.755681 1.522265 -1.659841
v 0.520522 1.044091 -1.844316
v 0.265360 0.525242 -1.957916
v 0.312030 0.409606 1.957916
v 0.612070 0.817263 1.844316
v 0.888587 1.192962 1.659841
v 1.130957 1.522265 1.411579
v 1.329865 1.792516 1.109070
v 1.477666 1.993332 0.763941
v 1.568683 2.116993 0.389454
v 1.599415 2.158748 0.000000
v 1.568683 2.116993 -0.389454
v 1.477666 1.993332 -0.763941
v 1.329865 1.792516 -1.109070
v 1.130957 1.522265 -1.411579
v 0.888587 1.192962 -1.659841
v 0.612070 0.817263 -1.844316
v 0.312030 0.409606 -1.957916
v 0.000000 -0.014343 1.996274
v 0.346709 0.277678 1.957916
v 0.680095 0.558477 1.844316
v 0.987345 0.817263 1.659841
v 1.256652 1.044091 1.411579
v 1.477666 1.230243 1.109070
v 1.641895 1.368568 0.763941
v 1.743026 1.453747 0.389454
v 1.777174 1.482508 0.000000
v 1.743026 1.453747 -0.389454
v 1.641895 1.368568 -0.763941
v 1.477666 1.230243 -1.109070
v 1.256652 1.044091 -1.411579
v 0.987345 0.817263 -1.659841
v 0.680095 0.558477 -1.844316
v 0.346709 0.277678 -1.957916
v 0.368065 0.134528 1.957916
v 0.721985 0.277678 1.844316
v 1.048160 0.409606 1.659841
v 1.334055 0.525242 1.411579
v 1.568682 0.620141 1.109070
v 1.743026 0.690659 0.763941
v 1.850387 0.734082 0.389454
v 1.886638 0.748744 0.000000
v 1.850387 0.734082 -0.389454
v 1.743026 0.690659 -0.763941
v 1.568682 0.620141 -1.109070
v 1.334055 0.525242 -1.411579
v 1.048160 0.409606 -1.659841
v 0.721985 0.277678 -1.844316
v 0.368065 0.134528 -1.957916
v 0.375276 -0.014343 1.957916
v 0.736130 -0.014343 1.844316
v 1.068695 -0.014344 1.659841
v 1.360190 -0.014343 1.411579
v 1.599415 -0.014344 1.109070
v 1.777174 -0.014343 0.763941
v 1.886638 -0.014344 0.389454
v 1.923599 -0.014344 0.000000
v 1.886638 -0.014344 -0.389454
v 1.777174 -0.014343 -0.763941
v 1.599415 -0.014344 -1.109070
v 1.360190 -0.014343 -1.411579
v 1.068695 -0.014344 -1.659841
v 0.736130 -0.014343 -1.844316
v 0.375276 -0.014343 -1.957916
v 0.368065 -0.163215 1.957916
v 0.721985 -0.306365 1.844316
v 1.048160 -0.438293 1.659841
v 1.334055 -0.553928 1.411579
v 1.568682 -0.648829 1.109070
v 1.743026 -0.719345 0.763941
v 1.850387 -0.762770 0.389454
v 1.886638 -0.777432 0.000000
v 1.850387 -0.762770 -0.389454
v 1.743026 -0.719345 -0.763941
v 1.568682 -0.648829 -1.109070
v 1.334055 -0.553928 -1.411579
v 1.048160 -0.438293 -1.659841
v 0.721985 -0.306365 -1.844316
v 0.368065 -0.163215 -1.957916
v 0.346709 -0.306365 1.957916
v 0.680095 -0.587164 1.844316
v 0.987345 -0.845950 1.659841
v 1.256652 -1.072778 1.411579
v 1.477666 -1.258931 1.109070
v 1.641895 -1.397254 0.763941
v 1.743026 -1.482434 0.389454
v 1.777174 -1.511196 0.000000
v 1.743026 -1.482434 -0.389454
v 1.641895 -1.397254 -0.763941
v 1.477666 -1.258931 -1.109070
v 1.256652 -1.072778 -1.411579
v 0.987345 -0.845950 -1.659841
v 0.680095 -0.587164 -1.844316
v 0.346709 -0.306365 -1.957916
v 0.312030 -0.438293 1.957916
v 0.612069 -0.845950 1.844316
v 0.888587 -1.221649 1.659841
v 1.130957 -1.550952 1.411579
v 1.329864 -1.821203 1.109070
v 1.477666 -2.022019 0.763941
v 1.568682 -2.145680 0.389454
v 1.599414 -2.187436 0.000000
v 1.568682 -2.145680 -0.389454
v 1.477666 -2.022019 -0.763941
v 1.329864 -1.821203 -1.109070
v 1.130957 -1.550952 -1.411579
v 0.888587 -1.221649 -1.659841
v 0.612069 -0.845950 -1.844316
v 0.312030 -0.438293 -1.957916
v 0.265360 -0.553928 1.957916
v 0.520522 -1.072778 1.844316
v 0.755681 -1.550952 1.659841
v 0.961800 -1.970075 1.411579
v 1.130957 -2.314040 1.109070
v 1.256652 -2.569629 0.763941
v 1.334054 -2.727021 0.389454
v 1.360190 -2.780165 0.000000
v 1.334054 -2.727021 -0.389454
v 1.256652 -2.569629 -0.763941
v 1.130957 -2.314040 -1.109070
v 0.961800 -1.970075 -1.411579
v 0.755681 -1.550952 -1.659841
v 0.520522 -1.072778 -1.844316
v 0.265360 -0.553928 -1.957916
v 0.208492 -0.648828 1.957916
v 0.408972 -1.258930 1.844316
v 0.593735 -1.821203 1.659841
v 0.755681 -2.314040 1.411579
v 0.888587 -2.718500 1.109070
v 0.987345 -3.019042 0.763941
v 1.048160 -3.204114 0.389454
v 1.068694 -3.266605 0.000000
v 1.048160 -3.204114 -0.389454
v 0.987345 -3.019042 -0.763941
v 0.888587 -2.718500 -1.109070
v 0.755681 -2.314040 -1.411579
v 0.593735 -1.821203 -1.659841
v 0.408972 -1.258930 -1.844316
v 0.208492 -0.648828 -1.957916
v 0.143612 -0.719345 1.957916
v 0.281705 -1.397254 1.844316
v 0.408971 -2.022018 1.659841
v 0.520522 -2.569629 1.411579
v 0.612069 -3.019041 1.109070
v 0.680095 -3.352985 0.763941
v 0.721985 -3.558627 0.389454
v 0.736129 -3.628062 0.000000
v 0.721985 -3.558627 -0.389454
v 0.680095 -3.352985 -0.763941
v 0.612069 -3.019041 -1.109070
v 0.520522 -2.569629 -1.411579
v 0.408971 -2.022018 -1.659841
v 0.281705 -1.397254 -1.844316
v 0.143612 -0.719345 -1.957916
v 0.073213 -0.762769 1.957916
v 0.143612 -1.482434 1.844316
v 0.208492 -2.145679 1.659841
v 0.265360 -2.727021 1.411579
v 0.312030 -3.204114 1.109070
v 0.346710 -3.558627 0.763941
v 0.368065 -3.776934 0.389454
v 0.375275 -3.850647 0.000000
v 0.368065 -3.776934 -0.389454
v 0.346710 -3.558627 -0.763941
v 0.312030 -3.204114 -1.109070
v 0.265360 -2.727021 -1.411579
v 0.208492 -2.145679 -1.659841
v 0.143612 -1.482434 -1.844316
v 0.073213 -0.762769 -1.957916
v -0.000000 -0.777431 1.957916
v -0.000000 -1.511195 1.844316
v -0.000000 -2.187435 1.659841
v -0.000000 -2.780165 1.411579
v -0.000000 -3.266605 1.109070
v 0.000000 -3.628063 0.763941
v -0.000000 -3.850648 0.389454
v -0.000001 -3.925804 0.000000
v -0.000000 -3.850648 -0.389454
v 0.000000 -3.628063 -0.763941
v -0.000000 -3.266605 -1.109070
v -0.000000 -2.780165 -1.411579
v -0.000000 -2.187435 -1.659841
v -0.000000 -1.511195 -1.844316
v -0.000000 -0.777431 -1.957916
v -0.073213 -0.762769 1.957916
v -0.143612 -1.482434 1.844316
v -0.208492 -2.145679 1.659841
v -0.265360 -2.727020 1.411579
v -0.312030 -3.204113 1.109070
v -0.346709 -3.558626 0.763941
v -0.368065 -3.776934 0.389454
v -0.375276 -3.850646 0.000000
v -0.368065 -3.776934 -0.389454
v -0.346709 -3.558626 -0.763941
v -0.312030 -3.204113 -1.109070
v -0.265360 -2.727020 -1.411579
v -0.208492 -2.145679 -1.659841
v -0.143612 -1.482434 -1.844316
v -0.073213 -0.762769 -1.957916
v -0.143612 -0.719345 1.957916
v -0.281705 -1.397254 1.844316
v -0.408972 -2.022018 1.659841
v -0.520522 -2.569629 1.411579
v -0.612070 -3.019041 1.109070
v -0.680095 -3.352985 0.763941
v -0.721985 -3.558626 0.389454
v -0.736130 -3.628061 0.000000
v -0.721985 -3.558626 -0.389454
v -0.680095 -3.352985 -0.763941
v -0.612070 -3.019041 -1.109070
v -0.520522 -2.569629 -1.411579
v -0.408972 -2.022018 -1.659841
v -0.281705 -1.397254 -1.844316
v -0.143612 -0.719345 -1.957916
v -0.208492 -0.648828 1.957916
v -0.408972 -1.258930 1.844316
v -0.593735 -1.821202 1.659841
v -0.755681 -2.314040 1.411579
v -0.888587 -2.718499 1.109070
v -0.987345 -3.019041 0.763941
v -1.048160 -3.204113 0.389454
v -1.068695 -3.266603 0.000000
v -1.048160 -3.204113 -0.389454
v -0.987345 -3.019041 -0.763941
v -0.888587 -2.718499 -1.109070
v -0.755681 -2.314040 -1.411579
v -0.593735 -1.821202 -1.659841
v -0.408972 -1.258930 -1.844316
v -0.208492 -0.648828 -1.957916
v -0.265360 -0.553928 1.957916
v -0.520522 -1.072777 1.844316
v -0.755681 -1.550950 1.659841
v -0.961800 -1.970075 1.411579
v -1.130957 -2.314039 1.109070
v -1.256652 -2.569629 0.763941
v -1.334055 -2.727020 0.389454
v -1.360190 -2.780162 0.000000
v -1.334055 -2.727020 -0.389454
v -1.256652 -2.569629 -0.763941
v -1.130957 -2.314039 -1.109070
v -0.961800 -1.970075 -1.411579
v -0.755681 -1.550950 -1.659841
v -0.520522 -1.072777 -1.844316
v -0.265360 -0.553928 -1.957916
v 0.000000 -0.014343 -1.996274
v -0.312030 -0.438292 1.957916
v -0.612069 -0.845949 1.844316
v -0.888587 -1.221648 1.659841
v -1.130957 -1.550951 1.411579
v -1.329864 -1.821203 1.109070
v -1.477666 -2.022018 0.763941
v -1.568682 -2.145679 0.389454
v -1.599414 -2.187433 0.000000
v -1.568682 -2.145679 -0.389454
v -1.477666 -2.022018 -0.763941
v -1.329864 -1.821203 -1.109070
v -1.130957 -1.550951 -1.411579
v -0.888587 -1.221648 -1.659841
v -0.612069 -0.845949 -1.844316
v -0.312030 -0.438292 -1.957916
v -0.346709 -0.306364 1.957916
v -0.680095 -0.587164 1.844316
v -0.987345 -0.845949 1.659841
v -1.256652 -1.072777 1.411579
v -1.477666 -1.258929 1.109070
v -1.641895 -1.397254 0.763941
v -1.743026 -1.482432 0.389454
v -1.777173 -1.511193 0.000000
v -1.743026 -1.482432 -0.389454
v -1.641895 -1.397254 -0.763941
v -1.477666 -1.258929 -1.109070
v -1.256652 -1.072777 -1.411579
v -0.987345 -0.845949 -1.659841
v -0.680095 -0.587164 -1.844316
v -0.346709 -0.306364 -1.957916
v -0.368065 -0.163214 1.957916
v -0.721985 -0.306364 1.844316
v -1.048159 -0.438292 1.659841
v -1.334055 -0.553928 1.411579
v -1.568682 -0.648827 1.109070
v -1.743026 -0.719345 0.763941
v -1.850387 -0.762768 0.389454
v -1.886637 -0.777430 0.000000
v -1.850387 -0.762768 -0.389454
v -1.743026 -0.719345 -0.763941
v -1.568682 -0.648827 -1.109070
v -1.334055 -0.553928 -1.411579
v -1.048159 -0.438292 -1.659841
v -0.721985 -0.306364 -1.844316
v -0.368065 -0.163214 -1.957916
v -0.375275 -0.014343 1.957916
v -0.736129 -0.014343 1.844316
v -1.068694 -0.014343 1.659841
v -1.360190 -0.014343 1.411579
v -1.599414 -0.014343 1.109070
v -1.777174 -0.014343 0.763941
v -1.886638 -0.014342 0.389454
v -1.923598 -0.014342 0.000000
v -1.886638 -0.014342 -0.389454
v -1.777174 -0.014343 -0.763941
v -1.599414 -0.014343 -1.109070
v -1.360190 -0.014343 -1.411579
v -1.068694 -0.014343 -1.659841
v -0.736129 -0.014343 -1.844316
v -0.375275 -0.014343 -1.957916
v -0.368065 0.134528 1.957916
v -0.721985 0.277678 1.844316
v -1.048159 0.409606 1.659841
v -1.334054 0.525242 1.411579
v -1.568682 0.620142 1.109070
v -1.743026 0.690658 0.763941
v -1.850386 0.734083 0.389454
v -1.886636 0.748746 0.000000
v -1.850386 0.734083 -0.389454
v -1.743026 0.690658 -0.763941
v -1.568682 0.620142 -1.109070
v -1.334054 0.525242 -1.411579
v -1.048159 0.409606 -1.659841
v -0.721985 0.277678 -1.844316
v -0.368065 0.134528 -1.957916
v -0.346709 0.277678 1.957916
v -0.680095 0.558477 1.844316
v -0.987344 0.817263 1.659841
v -1.256652 1.044091 1.411579
v -1.477666 1.230244 1.109070
v -1.641894 1.368567 0.763941
v -1.743026 1.453747 0.389454
v -1.777173 1.482509 0.000000
v -1.743026 1.453747 -0.389454
v -1.641894 1.368567 -0.763941
v -1.477666 1.230244 -1.109070
v -1.256652 1.044091 -1.411579
v -0.987344 0.817263 -1.659841
v -0.680095 0.558477 -1.844316
v -0.346709 0.277678 -1.957916
v -0.312030 0.409606 1.957916
v -0.612069 0.817263 1.844316
v -0.888586 1.192962 1.659841
v -1.130957 1.522265 1.411579
v -1.329864 1.792516 1.109070
v -1.477666 1.993332 0.763941
v -1.568681 2.116994 0.389454
v -1.599413 2.158749 0.000000
v -1.568681 2.116994 -0.389454
v -1.477666 1.993332 -0.763941
v -1.329864 1.792516 -1.109070
v -1.130957 1.522265 -1.411579
v -0.888586 1.192962 -1.659841
v -0.612069 0.817263 -1.844316
v -0.312030 0.409606 -1.957916
v -0.265360 0.525241 1.957916
v -0.520522 1.044091 1.844316
v -0.755680 1.522264 1.659841
v -0.961800 1.941388 1.411579
v -1.130956 2.285353 1.109070
v -1.256652 2.540942 0.763941
v -1.334054 2.698334 0.389454
v -1.360188 2.751477 0.000000
v -1.334054 2.698334 -0.389454
v -1.256652 2.540942 -0.763941
v -1.130956 2.285353 -1.109070
v -0.961800 1.941388 -1.411579
v -0.755680 1.522264 -1.659841
v -0.520522 1.044091 -1.844316
v -0.265360 0.525241 -1.957916
v -0.208492 0.620141 1.957916
v -0.408972 1.230243 1.844316
v -0.593734 1.792516 1.659841
v -0.755681 2.285353 1.411579
v -0.888586 2.689813 1.109070
v -0.987345 2.990354 0.763941
v -1.048159 3.175427 0.389454
v -1.068693 3.237917 0.000000
v -1.048159 3.175427 -0.389454
v -0.987345 2.990354 -0.763941
v -0.888586 2.689813 -1.109070
v -0.755681 2.285353 -1.411579
v -0.593734 1.792516 -1.659841
v -0.408972 1.230243 -1.844316
v -0.208492 0.620141 -1.957916
v -0.143612 0.690658 1.957916
v -0.281704 1.368567 1.844316
v -0.408971 1.993331 1.659841
v -0.520522 2.540943 1.411579
v -0.612069 2.990354 1.109070
v -0.680095 3.324298 0.763941
v -0.721984 3.529939 0.389454
v -0.736128 3.599374 0.000000
v -0.721984 3.529939 -0.389454
v -0.680095 3.324298 -0.763941
v -0.612069 2.990354 -1.109070
v -0.520522 2.540943 -1.411579
v -0.408971 1.993331 -1.659841
v -0.281704 1.368567 -1.844316
v -0.143612 0.690658 -1.957916
v -0.073213 0.734082 1.957916
v -0.143612 1.453746 1.844316
v -0.208491 2.116992 1.659841
v -0.265360 2.698334 1.411579
v -0.312030 3.175426 1.109070
v -0.346709 3.529939 0.763941
v -0.368064 3.748247 0.389454
v -0.375274 3.821958 0.000000
v -0.368064 3.748247 -0.389454
v -0.346709 3.529939 -0.763941
v -0.312030 3.175426 -1.109070
v -0.265360 2.698334 -1.411579
v -0.208491 2.116992 -1.659841
v -0.143612 1.453746 -1.844316
v -0.073213 0.734082 -1.957916
v 0.000000 0.748744 1.957916
v 0.000000 1.482508 1.844316
v 0.000000 2.751478 1.411579
v 0.000000 3.599376 0.763941
v 0.000000 3.599376 -0.763941
v 0.000000 2.751478 -1.411579
v 0.000000 2.158746 -1.659841
v 0.000000 1.482508 -1.844316
v 0.000000 0.748744 -1.957916
vn 0.0101 0.0502 0.9987
vn 0.0101 0.0502 -0.9987
vn 0.1930 0.9634 -0.1859
vn 0.0306 0.1529 0.9878
vn 0.1697 0.8472 -0.5035
vn 0.0526 0.2628 0.9634
vn 0.1370 0.6841 -0.7164
vn 0.0771 0.3852 0.9196
vn 0.1052 0.5252 -0.8445
vn 0.1052 0.5252 0.8445
vn 0.0771 0.3852 -0.9196
vn 0.1370 0.6841 0.7164
vn 0.0526 0.2628 -0.9634
vn 0.1697 0.8472 0.5035
vn 0.0306 0.1529 -0.9878
vn 0.1930 0.9634 0.1859
vn 0.0904 0.1466 -0.9850
vn 0.5175 0.8390 0.1684
vn 0.0298 0.0483 0.9984
vn 0.0298 0.0483 -0.9984
vn 0.5175 0.8390 -0.1684
vn 0.0905 0.1466 0.9850
vn 0.4646 0.7532 -0.4656
vn 0.1546 0.2507 0.9556
vn 0.3850 0.6242 -0.6798
vn 0.2246 0.3640 0.9039
vn 0.3018 0.4893 -0.8182
vn 0.3018 0.4893 0.8182
vn 0.2246 0.3640 -0.9039
vn 0.3850 0.6242 0.6798
vn 0.1546 0.2507 -0.9556
vn 0.4646 0.7532 0.4656
vn 0.3538 0.3255 0.8769
vn 0.4646 0.4274 -0.7756
vn 0.4646 0.4274 0.7756
vn 0.3538 0.3255 -0.8769
vn 0.5746 0.5287 0.6248
vn 0.2475 0.2277 -0.9418
vn 0.6701 0.6165 0.4135
vn 0.1461 0.1345 -0.9801
vn 0.7280 0.6698 0.1459
vn 0.0483 0.0444 0.9978
vn 0.0483 0.0444 -0.9978
vn 0.7280 0.6698 -0.1459
vn 0.1461 0.1345 0.9801
vn 0.6701 0.6165 -0.4135
vn 0.2475 0.2277 0.9418
vn 0.5746 0.5287 -0.6248
vn 0.8509 0.5099 0.1267
vn 0.0650 0.0389 0.9971
vn 0.0650 0.0389 -0.9971
vn 0.8509 0.5099 -0.1267
vn 0.1954 0.1171 0.9737
vn 0.7983 0.4783 -0.3660
vn 0.3269 0.1959 0.9245
vn 0.7050 0.4225 -0.5696
vn 0.4587 0.2749 0.8450
vn 0.5874 0.3520 -0.7287
vn 0.5874 0.3520 0.7287
vn 0.4587 0.2749 -0.8450
vn 0.7050 0.4225 0.5696
vn 0.3269 0.1959 -0.9245
vn 0.7983 0.4783 0.3660
vn 0.1954 0.1171 -0.9737
vn 0.6743 0.2721 -0.6865
vn 0.6743 0.2721 0.6865
vn 0.5385 0.2174 -0.8141
vn 0.7899 0.3188 0.5238
vn 0.3907 0.1577 -0.9069
vn 0.8755 0.3534 0.3295
vn 0.2364 0.0954 -0.9669
vn 0.9214 0.3719 0.1126
vn 0.0791 0.0319 0.9964
vn 0.0791 0.0319 -0.9964
vn 0.9214 0.3719 -0.1126
vn 0.2364 0.0954 0.9669
vn 0.8755 0.3534 -0.3295
vn 0.3907 0.1577 0.9069
vn 0.7899 0.3188 -0.5238
vn 0.5385 0.2174 0.8141
vn 0.0902 0.0237 0.9956
vn 0.0902 0.0237 -0.9956
vn 0.9620 0.2529 -0.1030
vn 0.2681 0.0705 0.9608
vn 0.9214 0.2422 -0.3039
vn 0.4382 0.1152 0.8915
vn 0.8431 0.2216 -0.4900
vn 0.5950 0.1564 0.7884
vn 0.7322 0.1925 -0.6534
vn 0.7322 0.1925 0.6534
vn 0.5950 0.1564 -0.7884
vn 0.8431 0.2216 0.4900
vn 0.4382 0.1152 -0.8915
vn 0.9214 0.2422 0.3039
vn 0.2680 0.0705 -0.9608
vn 0.9620 0.2529 0.1030
vn 0.7673 0.1145 0.6310
vn 0.6308 0.0941 -0.7702
vn 0.8740 0.1304 0.4681
vn 0.4695 0.0700 -0.8802
vn 0.9472 0.1413 0.2879
vn 0.2895 0.0432 -0.9562
vn 0.9844 0.1469 0.0972
vn 0.0978 0.0146 0.9951
vn 0.0978 0.0146 -0.9951
vn 0.9844 0.1469 -0.0972
vn 0.2895 0.0432 0.9562
vn 0.9472 0.1413 -0.2879
vn 0.4695 0.0700 0.8802
vn 0.8740 0.1304 -0.4681
vn 0.6308 0.0941 0.7702
vn 0.7673 0.1145 -0.6310
vn 0.9944 0.0482 -0.0944
vn 0.3002 0.0145 0.9538
vn 0.9588 0.0464 -0.2803
vn 0.4849 0.0235 0.8742
vn 0.8882 0.0430 -0.4575
vn 0.6481 0.0314 0.7609
vn 0.7838 0.0380 -0.6198
vn 0.7838 0.0380 0.6198
vn 0.6481 0.0314 -0.7609
vn 0.8882 0.0430 0.4575
vn 0.4849 0.0235 -0.8742
vn 0.9588 0.0464 0.2803
vn 0.3002 0.0145 -0.9538
vn 0.9944 0.0482 0.0944
vn 0.1017 0.0049 0.9948
vn 0.1017 0.0049 -0.9948
vn 0.6481 -0.0314 -0.7609
vn 0.8882 -0.0430 0.4575
vn 0.4849 -0.0235 -0.8742
vn 0.9588 -0.0464 0.2803
vn 0.3002 -0.0145 -0.9538
vn 0.9944 -0.0482 0.0944
vn 0.1017 -0.0049 0.9948
vn 0.1017 -0.0049 -0.9948
vn 0.9944 -0.0482 -0.0944
vn 0.3002 -0.0145 0.9538
vn 0.9588 -0.0464 -0.2803
vn 0.4849 -0.0235 0.8742
vn 0.8882 -0.0430 -0.4575
vn 0.6481 -0.0314 0.7609
vn 0.7838 -0.0380 -0.6198
vn 0.7838 -0.0380 0.6198
vn 0.9472 -0.1413 -0.2879
vn 0.4695 -0.0700 0.8802
vn 0.8740 -0.1304 -0.4681
vn 0.6308 -0.0941 0.7702
vn 0.7673 -0.1145 -0.6310
vn 0.7673 -0.1145 0.6310
vn 0.6308 -0.0941 -0.7702
vn 0.8740 -0.1304 0.4681
vn 0.4695 -0.0700 -0.8802
vn 0.9472 -0.1413 0.2879
vn 0.2895 -0.0432 -0.9562
vn 0.9844 -0.1469 0.0972
vn 0.0978 -0.0146 0.9951
vn 0.0978 -0.0146 -0.9951
vn 0.9844 -0.1469 -0.0972
vn 0.2895 -0.0432 0.9562
vn 0.4382 -0.1152 -0.8915
vn 0.9214 -0.2422 0.3039
vn 0.2680 -0.0705 -0.9608
vn 0.9620 -0.2529 0.1030
vn 0.0902 -0.0237 0.9956
vn 0.0902 -0.0237 -0.9956
vn 0.9620 -0.2529 -0.1030
vn 0.2681 -0.0705 0.9608
vn 0.9214 -0.2422 -0.3039
vn 0.4382 -0.1152 0.8915
vn 0.8431 -0.2216 -0.4900
vn 0.5950 -0.1564 0.7884
vn 0.7322 -0.1925 -0.6534
vn 0.7322 -0.1925 0.6534
vn 0.5950 -0.1564 -0.7884
vn 0.8431 -0.2216 0.4900
vn 0.3907 -0.1577 0.9069
vn 0.7899 -0.3188 -0.5238
vn 0.5385 -0.2174 0.8141
vn 0.6743 -0.2721 -0.6865
vn 0.6743 -0.2721 0.6865
vn 0.5385 -0.2174 -0.8141
vn 0.7899 -0.3188 0.5238
vn 0.3907 -0.1577 -0.9069
vn 0.8755 -0.3534 0.3295
vn 0.2364 -0.0954 -0.9669
vn 0.9214 -0.3719 0.1126
vn 0.0791 -0.0319 0.9964
vn 0.0791 -0.0319 -0.9964
vn 0.9214 -0.3719 -0.1126
vn 0.2364 -0.0954 0.9669
vn 0.8755 -0.3534 -0.3295
vn 0.7983 -0.4783 0.3660
vn 0.1954 -0.1171 -0.9737
vn 0.8509 -0.5099 0.1267
vn 0.0650 -0.0389 0.9971
vn 0.0650 -0.0389 -0.9971
vn 0.8509 -0.5099 -0.1267
vn 0.1954 -0.1171 0.9737
vn 0.7983 -0.4783 -0.3660
vn 0.3269 -0.1959 0.9245
vn 0.7050 -0.4225 -0.5696
vn 0.4587 -0.2749 0.8450
vn 0.5874 -0.3520 -0.7287
vn 0.5874 -0.3520 0.7287
vn 0.4588 -0.2749 -0.8450
vn 0.7050 -0.4225 0.5696
vn 0.3269 -0.1959 -0.9245
vn 0.5746 -0.5287 -0.6248
vn 0.3538 -0.3255 0.8769
vn 0.4646 -0.4274 -0.7756
vn 0.4646 -0.4274 0.7756
vn 0.3538 -0.3255 -0.8769
vn 0.5746 -0.5287 0.6248
vn 0.2475 -0.2277 -0.9418
vn 0.6701 -0.6165 0.4135
vn 0.1461 -0.1345 -0.9801
vn 0.7280 -0.6698 0.1459
vn 0.0483 -0.0444 0.9978
vn 0.0483 -0.0444 -0.9978
vn 0.7280 -0.6698 -0.1459
vn 0.1461 -0.1345 0.9801
vn 0.6701 -0.6165 -0.4135
vn 0.2475 -0.2277 0.9418
vn 0.0905 -0.1466 -0.9850
vn 0.5175 -0.8390 0.1684
vn 0.0298 -0.0483 0.9984
vn 0.0298 -0.0483 -0.9984
vn 0.5175 -0.8390 -0.1684
vn 0.0905 -0.1466 0.9850
vn 0.4646 -0.7532 -0.4656
vn 0.1546 -0.2507 0.9556
vn 0.3850 -0.6242 -0.6798
vn 0.2246 -0.3640 0.9039
vn 0.3018 -0.4893 -0.8182
vn 0.3018 -0.4893 0.8182
vn 0.2246 -0.3640 -0.9039
vn 0.3850 -0.6242 0.6798
vn 0.1546 -0.2507 -0.9556
vn 0.4646 -0.7532 0.4656
vn 0.0771 -0.3852 0.9196
vn 0.1052 -0.5252 -0.8445
vn 0.1052 -0.5252 0.8445
vn 0.0771 -0.3852 -0.9196
vn 0.1370 -0.6841 0.7164
vn 0.0526 -0.2628 -0.9634
vn 0.1697 -0.8472 0.5035
vn 0.0306 -0.1529 -0.9878
vn 0.1929 -0.9634 0.1859
vn 0.0101 -0.0502 0.9987
vn 0.0101 -0.0502 -0.9987
vn 0.1929 -0.9634 -0.1859
vn 0.0306 -0.1529 0.9878
vn 0.1697 -0.8472 -0.5035
vn 0.0526 -0.2628 0.9634
vn 0.1370 -0.6841 -0.7164
vn -0.1930 -0.9634 0.1859
vn -0.0101 -0.0502 0.9987
vn -0.0101 -0.0502 -0.9987
vn -0.1930 -0.9634 -0.1859
vn -0.0306 -0.1529 0.9878
vn -0.1697 -0.8472 -0.5035
vn -0.0526 -0.2628 0.9634
vn -0.1370 -0.6841 -0.7164
vn -0.0771 -0.3852 0.9196
vn -0.1052 -0.5252 -0.8445
vn -0.1052 -0.5252 0.8445
vn -0.0771 -0.3852 -0.9196
vn -0.1370 -0.6841 0.7164
vn -0.0526 -0.2628 -0.9634
vn -0.1697 -0.8472 0.5035
vn -0.0306 -0.1529 -0.9878
vn -0.3018 -0.4893 -0.8182
vn -0.3018 -0.4893 0.8182
vn -0.2246 -0.3640 -0.9039
vn -0.3850 -0.6242 0.6798
vn -0.1546 -0.2507 -0.9556
vn -0.4646 -0.7532 0.4656
vn -0.0904 -0.1466 -0.9850
vn -0.5175 -0.8390 0.1684
vn -0.0298 -0.0483 0.9984
vn -0.0298 -0.0483 -0.9984
vn -0.5175 -0.8390 -0.1684
vn -0.0905 -0.1466 0.9850
vn -0.4646 -0.7532 -0.4656
vn -0.1546 -0.2507 0.9556
vn -0.3850 -0.6242 -0.6798
vn -0.2246 -0.3640 0.9039
vn -0.0483 -0.0444 -0.9978
vn -0.7280 -0.6698 -0.1459
vn -0.1461 -0.1345 0.9801
vn -0.6701 -0.6165 -0.4135
vn -0.2475 -0.2277 0.9418
vn -0.5746 -0.5287 -0.6248
vn -0.3538 -0.3255 0.8769
vn -0.4646 -0.4274 -0.7756
vn -0.4646 -0.4274 0.7756
vn -0.3538 -0.3255 -0.8769
vn -0.5746 -0.5287 0.6248
vn -0.2475 -0.2277 -0.9418
vn -0.6701 -0.6165 0.4135
vn -0.1461 -0.1345 -0.9801
vn -0.7280 -0.6698 0.1459
vn -0.0483 -0.0444 0.9978
vn -0.4587 -0.2749 -0.8450
vn -0.7050 -0.4225 0.5696
vn -0.3269 -0.1959 -0.9245
vn -0.7983 -0.4783 0.3660
vn -0.1954 -0.1171 -0.9737
vn -0.8509 -0.5099 0.1267
vn -0.0650 -0.0389 0.9971
vn -0.0650 -0.0389 -0.9971
vn -0.8509 -0.5099 -0.1267
vn -0.1954 -0.1171 0.9737
vn -0.7983 -0.4783 -0.3660
vn -0.3269 -0.1959 0.9245
vn -0.7050 -0.4225 -0.5696
vn -0.4587 -0.2749 0.8450
vn -0.5874 -0.3520 -0.7287
vn -0.5874 -0.3520 0.7287
vn -0.2364 -0.0954 0.9669
vn -0.8755 -0.3534 -0.3295
vn -0.3907 -0.1577 0.9069
vn -0.7899 -0.3188 -0.5238
vn -0.5385 -0.2174 0.8141
vn -0.6743 -0.2721 -0.6865
vn -0.6743 -0.2721 0.6865
vn -0.5385 -0.2174 -0.8141
vn -0.7899 -0.3188 0.5238
vn -0.3907 -0.1577 -0.9069
vn -0.8755 -0.3534 0.3295
vn -0.2364 -0.0954 -0.9669
vn -0.9214 -0.3719 0.1126
vn -0.0791 -0.0319 0.9964
vn -0.0791 -0.0319 -0.9964
vn -0.9214 -0.3719 -0.1126
vn -0.8431 -0.2216 0.4900
vn -0.4382 -0.1152 -0.8915
vn -0.9214 -0.2422 0.3039
vn -0.2681 -0.0705 -0.9608
vn -0.9620 -0.2529 0.1030
vn -0.0902 -0.0237 0.9956
vn -0.0902 -0.0237 -0.9956
vn -0.9620 -0.2529 -0.1030
vn -0.2681 -0.0705 0.9608
vn -0.9214 -0.2422 -0.3039
vn -0.4382 -0.1152 0.8915
vn -0.8431 -0.2216 -0.4900
vn -0.5950 -0.1564 0.7884
vn -0.7322 -0.1925 -0.6534
vn -0.7322 -0.1925 0.6534
vn -0.5950 -0.1564 -0.7884
vn -0.9472 -0.1413 -0.2879
vn -0.4695 -0.0700 0.8802
vn -0.8740 -0.1304 -0.4681
vn -0.6308 -0.0941 0.7702
vn -0.7673 -0.1145 -0.6310
vn -0.7673 -0.1145 0.6310
vn -0.6308 -0.0941 -0.7702
vn -0.8740 -0.1304 0.4681
vn -0.4695 -0.0700 -0.8802
vn -0.9472 -0.1413 0.2879
vn -0.2895 -0.0432 -0.9562
vn -0.9844 -0.1468 0.0972
vn -0.0978 -0.0146 0.9951
vn -0.0978 -0.0146 -0.9951
vn -0.9844 -0.1469 -0.0972
vn -0.2895 -0.0432 0.9562
vn -0.4849 -0.0235 -0.8742
vn -0.9588 -0.0464 0.2803
vn -0.3002 -0.0145 -0.9538
vn -0.9944 -0.0482 0.0944
vn -0.1017 -0.0049 0.9948
vn -0.1017 -0.0049 -0.9948
vn -0.9944 -0.0482 -0.0944
vn -0.3002 -0.0145 0.9538
vn -0.9588 -0.0464 -0.2803
vn -0.4849 -0.0235 0.8742
vn -0.8882 -0.0430 -0.4575
vn -0.6481 -0.0314 0.7609
vn -0.7838 -0.0380 -0.6198
vn -0.7838 -0.0380 0.6198
vn -0.6481 -0.0314 -0.7609
vn -0.8882 -0.0430 0.4575
vn -0.4849 0.0235 0.8742
vn -0.8882 0.0430 -0.4575
vn -0.6481 0.0314 0.7609
vn -0.7838 0.0380 -0.6198
vn -0.7838 0.0380 0.6198
vn -0.6481 0.0314 -0.7609
vn -0.8882 0.0430 0.4575
vn -0.4849 0.0235 -0.8742
vn -0.9588 0.0464 0.2803
vn -0.3002 0.0145 -0.9538
vn -0.9944 0.0482 0.0944
vn -0.1017 0.0049 0.9948
vn -0.1017 0.0049 -0.9948
vn -0.9944 0.0482 -0.0944
vn -0.3002 0.0145 0.9538
vn -0.9588 0.0464 -0.2803
vn -0.9472 0.1413 0.2879
vn -0.2895 0.0432 -0.9562
vn -0.9844 0.1469 0.0972
vn -0.0978 0.0146 0.9951
vn -0.0978 0.0146 -0.9951
vn -0.9844 0.1469 -0.0972
vn -0.2895 0.0432 0.9562
vn -0.9472 0.1413 -0.2879
vn -0.4695 0.0700 0.8802
vn -0.8740 0.1304 -0.4681
vn -0.6308 0.0941 0.7702
vn -0.7673 0.1145 -0.6310
vn -0.7673 0.1145 0.6310
vn -0.6308 0.0941 -0.7702
vn -0.8740 0.1304 0.4681
vn -0.4695 0.0700 -0.8802
vn -0.8431 0.2216 -0.4900
vn -0.5950 0.1564 0.7884
vn -0.7322 0.1925 -0.6534
vn -0.7322 0.1925 0.6534
vn -0.5950 0.1564 -0.7884
vn -0.8431 0.2216 0.4900
vn -0.4382 0.1152 -0.8915
vn -0.9214 0.2422 0.3039
vn -0.2680 0.0705 -0.9608
vn -0.9620 0.2529 0.1030
vn -0.0902 0.0237 0.9956
vn -0.0902 0.0237 -0.9956
vn -0.9620 0.2529 -0.1030
vn -0.2680 0.0705 0.9608
vn -0.9214 0.2422 -0.3039
vn -0.4382 0.1152 0.8915
vn -0.2364 0.0954 -0.9669
vn -0.9214 0.3719 0.1126
vn -0.0791 0.0319 0.9964
vn -0.0791 0.0319 -0.9964
vn -0.9214 0.3719 -0.1126
vn -0.2364 0.0954 0.9669
vn -0.8755 0.3534 -0.3295
vn -0.3907 0.1577 0.9069
vn -0.7899 0.3188 -0.5238
vn -0.5385 0.2174 0.8141
vn -0.6743 0.2721 -0.6865
vn -0.6743 0.2721 0.6865
vn -0.5385 0.2174 -0.8141
vn -0.7899 0.3188 0.5238
vn -0.3907 0.1577 -0.9069
vn -0.8755 0.3534 0.3295
vn -0.5874 0.3520 -0.7287
vn -0.5874 0.3520 0.7287
vn -0.4587 0.2749 -0.8450
vn -0.7050 0.4225 0.5696
vn -0.3269 0.1959 -0.9245
vn -0.7983 0.4783 0.3660
vn -0.1954 0.1171 -0.9737
vn -0.8509 0.5099 0.1267
vn -0.0650 0.0389 0.9971
vn -0.0650 0.0389 -0.9971
vn -0.8509 0.5099 -0.1267
vn -0.1954 0.1171 0.9737
vn -0.7983 0.4783 -0.3660
vn -0.3269 0.1959 0.9245
vn -0.7050 0.4225 -0.5696
vn -0.4587 0.2749 0.8450
vn -0.0483 0.0444 0.9978
vn -0.0483 0.0444 -0.9978
vn -0.7280 0.6698 -0.1459
vn -0.1461 0.1345 0.9801
vn -0.6701 0.6165 -0.4135
vn -0.2475 0.2277 0.9418
vn -0.5746 0.5287 -0.6248
vn -0.3538 0.3255 0.8769
vn -0.4646 0.4274 -0.7756
vn -0.4646 0.4274 0.7756
vn -0.3538 0.3255 -0.8769
vn -0.5746 0.5287 0.6248
vn -0.2475 0.2277 -0.9418
vn -0.6701 0.6165 0.4135
vn -0.1461 0.1345 -0.9801
vn -0.7280 0.6698 0.1459
vn -0.3018 0.4893 0.8182
vn -0.2246 0.3640 -0.9039
vn -0.3850 0.6242 0.6798
vn -0.1546 0.2507 -0.9556
vn -0.4646 0.7532 0.4656
vn -0.0905 0.1466 -0.9850
vn -0.5175 0.8390 0.1684
vn -0.0298 0.0483 0.9984
vn -0.0298 0.0483 -0.9984
vn -0.5175 0.8390 -0.1684
vn -0.0905 0.1466 0.9850
vn -0.4646 0.7532 -0.4656
vn -0.1546 0.2507 0.9556
vn -0.3850 0.6242 -0.6798
vn -0.2246 0.3640 0.9039
vn -0.3018 0.4893 -0.8182
vn -0.1930 0.9634 -0.1859
vn -0.0306 0.1529 0.9878
vn -0.1697 0.8472 -0.5035
vn -0.0526 0.2628 0.9634
vn -0.1370 0.6841 -0.7164
vn -0.0771 0.3852 0.9196
vn -0.1052 0.5252 -0.8445
vn -0.1052 0.5252 0.8445
vn -0.0771 0.3852 -0.9196
vn -0.1370 0.6841 0.7164
vn -0.0526 0.2628 -0.9634
vn -0.1697 0.8472 0.5035
vn -0.0306 0.1529 -0.9878
vn -0.1930 0.9634 0.1859
vn -0.0101 0.0502 0.9987
vn -0.0101 0.0502 -0.9987
vn 0.1929 0.9634 -0.1859
vn 0.0905 0.1466 -0.9850
vn 0.2680 0.0705 0.9608
vn 0.2681 0.0705 -0.9608
vn 0.2680 -0.0705 0.9608
vn 0.4588 -0.2749 0.8450
vn 0.4587 -0.2749 -0.8450
vn -0.0905 -0.1466 -0.9850
vn -0.0904 -0.1466 0.9850
vn -0.3908 -0.1577 -0.9069
vn -0.2680 -0.0705 -0.9608
vn -0.2680 -0.0705 0.9608
vn -0.9844 -0.1469 0.0972
vn -0.9844 -0.1468 -0.0972
vt 0.750000 0.937500
vt 0.734375 1.000000
vt 0.718750 0.937500
vt 0.734375 0.000000
vt 0.750000 0.062500
vt 0.718750 0.062500
vt 0.750000 0.500000
vt 0.718750 0.437500
vt 0.750000 0.437500
vt 0.750000 0.875000
vt 0.718750 0.875000
vt 0.718750 0.375000
vt 0.750000 0.375000
vt 0.750000 0.812500
vt 0.718750 0.812500
vt 0.718750 0.312500
vt 0.750000 0.312500
vt 0.750000 0.750000
vt 0.718750 0.750000
vt 0.718750 0.250000
vt 0.750000 0.250000
vt 0.750000 0.687500
vt 0.718750 0.687500
vt 0.718750 0.187500
vt 0.750000 0.187500
vt 0.750000 0.625000
vt 0.718750 0.625000
vt 0.718750 0.125000
vt 0.750000 0.125000
vt 0.750000 0.562500
vt 0.718750 0.562500
vt 0.718750 0.500000
vt 0.687500 0.062500
vt 0.687500 0.500000
vt 0.703125 1.000000
vt 0.687500 0.937500
vt 0.703125 0.000000
vt 0.687500 0.437500
vt 0.687500 0.875000
vt 0.687500 0.375000
vt 0.687500 0.812500
vt 0.687500 0.312500
vt 0.687500 0.750000
vt 0.687500 0.250000
vt 0.687500 0.687500
vt 0.687500 0.187500
vt 0.687500 0.625000
vt 0.687500 0.125000
vt 0.687500 0.562500
vt 0.656250 0.750000
vt 0.656250 0.312500
vt 0.656250 0.250000
vt 0.656250 0.687500
vt 0.656250 0.187500
vt 0.656250 0.625000
vt 0.656250 0.125000
vt 0.656250 0.562500
vt 0.656250 0.062500
vt 0.656250 0.500000
vt 0.671875 1.000000
vt 0.656250 0.937500
vt 0.671875 0.000000
vt 0.656250 0.437500
vt 0.656250 0.875000
vt 0.656250 0.375000
vt 0.656250 0.812500
vt 0.625000 0.562500
vt 0.625000 0.500000
vt 0.640625 1.000000
vt 0.625000 0.937500
vt 0.640625 0.000000
vt 0.625000 0.062500
vt 0.625000 0.437500
vt 0.625000 0.875000
vt 0.625000 0.375000
vt 0.625000 0.812500
vt 0.625000 0.312500
vt 0.625000 0.750000
vt 0.625000 0.250000
vt 0.625000 0.687500
vt 0.625000 0.187500
vt 0.625000 0.625000
vt 0.625000 0.125000
vt 0.593750 0.250000
vt 0.593750 0.750000
vt 0.593750 0.687500
vt 0.593750 0.187500
vt 0.593750 0.625000
vt 0.593750 0.125000
vt 0.593750 0.562500
vt 0.593750 0.062500
vt 0.593750 0.500000
vt 0.609375 1.000000
vt 0.593750 0.937500
vt 0.609375 0.000000
vt 0.593750 0.437500
vt 0.593750 0.875000
vt 0.593750 0.375000
vt 0.593750 0.812500
vt 0.593750 0.312500
vt 0.578125 1.000000
vt 0.562500 0.937500
vt 0.578125 0.000000
vt 0.562500 0.062500
vt 0.562500 0.437500
vt 0.562500 0.875000
vt 0.562500 0.375000
vt 0.562500 0.812500
vt 0.562500 0.312500
vt 0.562500 0.750000
vt 0.562500 0.250000
vt 0.562500 0.687500
vt 0.562500 0.187500
vt 0.562500 0.625000
vt 0.562500 0.125000
vt 0.562500 0.562500
vt 0.562500 0.500000
vt 0.531250 0.750000
vt 0.531250 0.687500
vt 0.531250 0.250000
vt 0.531250 0.187500
vt 0.531250 0.625000
vt 0.531250 0.125000
vt 0.531250 0.562500
vt 0.531250 0.062500
vt 0.531250 0.500000
vt 0.546875 1.000000
vt 0.531250 0.937500
vt 0.546875 0.000000
vt 0.531250 0.437500
vt 0.531250 0.875000
vt 0.531250 0.375000
vt 0.531250 0.812500
vt 0.531250 0.312500
vt 0.500000 0.437500
vt 0.500000 0.937500
vt 0.500000 0.875000
vt 0.500000 0.375000
vt 0.500000 0.812500
vt 0.500000 0.312500
vt 0.500000 0.750000
vt 0.500000 0.250000
vt 0.500000 0.687500
vt 0.500000 0.187500
vt 0.500000 0.625000
vt 0.500000 0.125000
vt 0.500000 0.562500
vt 0.500000 0.062500
vt 0.500000 0.500000
vt 0.515625 1.000000
vt 0.515625 0.000000
vt 0.468750 0.250000
vt 0.468750 0.187500
vt 0.468750 0.625000
vt 0.468750 0.125000
vt 0.468750 0.562500
vt 0.468750 0.062500
vt 0.468750 0.500000
vt 0.484375 1.000000
vt 0.468750 0.937500
vt 0.484375 0.000000
vt 0.468750 0.437500
vt 0.468750 0.875000
vt 0.468750 0.375000
vt 0.468750 0.812500
vt 0.468750 0.312500
vt 0.468750 0.750000
vt 0.468750 0.687500
vt 0.437500 0.375000
vt 0.437500 0.875000
vt 0.437500 0.812500
vt 0.437500 0.312500
vt 0.437500 0.750000
vt 0.437500 0.250000
vt 0.437500 0.687500
vt 0.437500 0.187500
vt 0.437500 0.625000
vt 0.437500 0.125000
vt 0.437500 0.562500
vt 0.437500 0.062500
vt 0.437500 0.500000
vt 0.453125 1.000000
vt 0.437500 0.937500
vt 0.453125 0.000000
vt 0.437500 0.437500
vt 0.406250 0.125000
vt 0.406250 0.625000
vt 0.406250 0.562500
vt 0.406250 0.062500
vt 0.406250 0.500000
vt 0.421875 1.000000
vt 0.406250 0.937500
vt 0.421875 0.000000
vt 0.406250 0.437500
vt 0.406250 0.875000
vt 0.406250 0.375000
vt 0.406250 0.812500
vt 0.406250 0.312500
vt 0.406250 0.750000
vt 0.406250 0.250000
vt 0.406250 0.687500
vt 0.406250 0.187500
vt 0.375000 0.812500
vt 0.375000 0.375000
vt 0.375000 0.312500
vt 0.375000 0.750000
vt 0.375000 0.250000
vt 0.375000 0.687500
vt 0.375000 0.187500
vt 0.375000 0.625000
vt 0.375000 0.125000
vt 0.375000 0.562500
vt 0.375000 0.062500
vt 0.375000 0.500000
vt 0.390625 1.000000
vt 0.375000 0.937500
vt 0.390625 0.000000
vt 0.375000 0.437500
vt 0.375000 0.875000
vt 0.343750 0.625000
vt 0.343750 0.562500
vt 0.343750 0.062500
vt 0.343750 0.500000
vt 0.359375 1.000000
vt 0.343750 0.937500
vt 0.359375 0.000000
vt 0.343750 0.437500
vt 0.343750 0.875000
vt 0.343750 0.375000
vt 0.343750 0.812500
vt 0.343750 0.312500
vt 0.343750 0.750000
vt 0.343750 0.250000
vt 0.343750 0.687500
vt 0.343750 0.187500
vt 0.343750 0.125000
vt 0.312500 0.375000
vt 0.312500 0.312500
vt 0.312500 0.750000
vt 0.312500 0.250000
vt 0.312500 0.687500
vt 0.312500 0.187500
vt 0.312500 0.625000
vt 0.312500 0.125000
vt 0.312500 0.562500
vt 0.312500 0.062500
vt 0.312500 0.500000
vt 0.328125 1.000000
vt 0.312500 0.937500
vt 0.328125 0.000000
vt 0.312500 0.437500
vt 0.312500 0.875000
vt 0.312500 0.812500
vt 0.281250 0.062500
vt 0.281250 0.562500
vt 0.281250 0.500000
vt 0.296875 1.000000
vt 0.281250 0.937500
vt 0.296875 0.000000
vt 0.281250 0.437500
vt 0.281250 0.875000
vt 0.281250 0.375000
vt 0.281250 0.812500
vt 0.281250 0.312500
vt 0.281250 0.750000
vt 0.281250 0.250000
vt 0.281250 0.687500
vt 0.281250 0.187500
vt 0.281250 0.625000
vt 0.281250 0.125000
vt 0.250000 0.750000
vt 0.250000 0.250000
vt 0.250000 0.687500
vt 0.250000 0.187500
vt 0.250000 0.625000
vt 0.250000 0.125000
vt 0.250000 0.562500
vt 0.250000 0.062500
vt 0.250000 0.500000
vt 0.265625 1.000000
vt 0.250000 0.937500
vt 0.265625 0.000000
vt 0.250000 0.437500
vt 0.250000 0.875000
vt 0.250000 0.375000
vt 0.250000 0.812500
vt 0.250000 0.312500
vt 0.218750 0.562500
vt 0.218750 0.500000
vt 0.234375 1.000000
vt 0.218750 0.937500
vt 0.234375 0.000000
vt 0.218750 0.062500
vt 0.218750 0.437500
vt 0.218750 0.875000
vt 0.218750 0.375000
vt 0.218750 0.812500
vt 0.218750 0.312500
vt 0.218750 0.750000
vt 0.218750 0.250000
vt 0.218750 0.687500
vt 0.218750 0.187500
vt 0.218750 0.625000
vt 0.218750 0.125000
vt 0.187500 0.250000
vt 0.187500 0.750000
vt 0.187500 0.687500
vt 0.187500 0.187500
vt 0.187500 0.625000
vt 0.187500 0.125000
vt 0.187500 0.562500
vt 0.187500 0.062500
vt 0.187500 0.500000
vt 0.203125 1.000000
vt 0.187500 0.937500
vt 0.203125 0.000000
vt 0.187500 0.437500
vt 0.187500 0.875000
vt 0.187500 0.375000
vt 0.187500 0.812500
vt 0.187500 0.312500
vt 0.171875 0.000000
vt 0.156250 0.062500
vt 0.156250 0.437500
vt 0.156250 0.937500
vt 0.156250 0.875000
vt 0.156250 0.375000
vt 0.156250 0.812500
vt 0.156250 0.312500
vt 0.156250 0.750000
vt 0.156250 0.250000
vt 0.156250 0.687500
vt 0.156250 0.187500
vt 0.156250 0.625000
vt 0.156250 0.125000
vt 0.156250 0.562500
vt 0.156250 0.500000
vt 0.171875 1.000000
vt 0.125000 0.250000
vt 0.125000 0.187500
vt 0.125000 0.625000
vt 0.125000 0.125000
vt 0.125000 0.562500
vt 0.125000 0.062500
vt 0.125000 0.500000
vt 0.140625 1.000000
vt 0.125000 0.937500
vt 0.140625 0.000000
vt 0.125000 0.437500
vt 0.125000 0.875000
vt 0.125000 0.375000
vt 0.125000 0.812500
vt 0.125000 0.312500
vt 0.125000 0.750000
vt 0.125000 0.687500
vt 0.093750 0.875000
vt 0.093750 0.375000
vt 0.093750 0.812500
vt 0.093750 0.312500
vt 0.093750 0.750000
vt 0.093750 0.250000
vt 0.093750 0.687500
vt 0.093750 0.187500
vt 0.093750 0.625000
vt 0.093750 0.125000
vt 0.093750 0.562500
vt 0.093750 0.062500
vt 0.093750 0.500000
vt 0.109375 1.000000
vt 0.093750 0.937500
vt 0.109375 0.000000
vt 0.093750 0.437500
vt 0.062500 0.625000
vt 0.062500 0.125000
vt 0.062500 0.562500
vt 0.062500 0.062500
vt 0.062500 0.500000
vt 0.078125 1.000000
vt 0.062500 0.937500
vt 0.078125 0.000000
vt 0.062500 0.437500
vt 0.062500 0.875000
vt 0.062500 0.375000
vt 0.062500 0.812500
vt 0.062500 0.312500
vt 0.062500 0.750000
vt 0.062500 0.250000
vt 0.062500 0.687500
vt 0.062500 0.187500
vt 0.031250 0.375000
vt 0.031250 0.812500
vt 0.031250 0.312500
vt 0.031250 0.750000
vt 0.031250 0.250000
vt 0.031250 0.687500
vt 0.031250 0.187500
vt 0.031250 0.625000
vt 0.031250 0.125000
vt 0.031250 0.562500
vt 0.031250 0.062500
vt 0.031250 0.500000
vt 0.046875 1.000000
vt 0.031250 0.937500
vt 0.046875 0.000000
vt 0.031250 0.437500
vt 0.031250 0.875000
vt 0.000000 0.125000
vt 0.000000 0.625000
vt 0.000000 0.562500
vt 0.000000 0.062500
vt 0.000000 0.500000
vt 0.015625 1.000000
vt 0.000000 0.937500
vt 0.015625 0.000000
vt 0.000000 0.437500
vt 0.000000 0.875000
vt 0.000000 0.375000
vt 0.000000 0.812500
vt 0.000000 0.312500
vt 0.000000 0.750000
vt 0.000000 0.250000
vt 0.000000 0.687500
vt 0.000000 0.187500
vt 1.000000 0.812500
vt 0.968750 0.875000
vt 0.968750 0.812500
vt 1.000000 0.312500
vt 0.968750 0.375000
vt 0.968750 0.312500
vt 0.968750 0.750000
vt 1.000000 0.750000
vt 0.968750 0.250000
vt 1.000000 0.250000
vt 1.000000 0.687500
vt 0.968750 0.687500
vt 1.000000 0.187500
vt 0.968750 0.187500
vt 0.968750 0.625000
vt 1.000000 0.625000
vt 0.968750 0.125000
vt 1.000000 0.125000
vt 1.000000 0.562500
vt 0.968750 0.562500
vt 0.968750 0.062500
vt 1.000000 0.062500
vt 1.000000 0.500000
vt 0.968750 0.500000
vt 1.000000 0.937500
vt 0.984375 1.000000
vt 0.968750 0.937500
vt 0.984375 0.000000
vt 0.968750 0.437500
vt 1.000000 0.437500
vt 1.000000 0.875000
vt 1.000000 0.375000
vt 0.937500 0.625000
vt 0.937500 0.562500
vt 0.937500 0.062500
vt 0.937500 0.500000
vt 0.953125 1.000000
vt 0.937500 0.937500
vt 0.953125 0.000000
vt 0.937500 0.437500
vt 0.937500 0.875000
vt 0.937500 0.375000
vt 0.937500 0.812500
vt 0.937500 0.312500
vt 0.937500 0.750000
vt 0.937500 0.250000
vt 0.937500 0.687500
vt 0.937500 0.187500
vt 0.937500 0.125000
vt 0.906250 0.375000
vt 0.906250 0.312500
vt 0.906250 0.750000
vt 0.906250 0.250000
vt 0.906250 0.687500
vt 0.906250 0.187500
vt 0.906250 0.625000
vt 0.906250 0.125000
vt 0.906250 0.562500
vt 0.906250 0.062500
vt 0.906250 0.500000
vt 0.921875 1.000000
vt 0.906250 0.937500
vt 0.921875 0.000000
vt 0.906250 0.437500
vt 0.906250 0.875000
vt 0.906250 0.812500
vt 0.875000 0.062500
vt 0.875000 0.562500
vt 0.875000 0.500000
vt 0.890625 1.000000
vt 0.875000 0.937500
vt 0.890625 0.000000
vt 0.875000 0.437500
vt 0.875000 0.875000
vt 0.875000 0.375000
vt 0.875000 0.812500
vt 0.875000 0.312500
vt 0.875000 0.750000
vt 0.875000 0.250000
vt 0.875000 0.687500
vt 0.875000 0.187500
vt 0.875000 0.625000
vt 0.875000 0.125000
vt 0.843750 0.250000
vt 0.843750 0.750000
vt 0.843750 0.687500
vt 0.843750 0.187500
vt 0.843750 0.625000
vt 0.843750 0.125000
vt 0.843750 0.562500
vt 0.843750 0.062500
vt 0.843750 0.500000
vt 0.859375 1.000000
vt 0.843750 0.937500
vt 0.859375 0.000000
vt 0.843750 0.437500
vt 0.843750 0.875000
vt 0.843750 0.375000
vt 0.843750 0.812500
vt 0.843750 0.312500
vt 0.828125 1.000000
vt 0.812500 0.937500
vt 0.828125 0.000000
vt 0.812500 0.062500
vt 0.812500 0.437500
vt 0.812500 0.875000
vt 0.812500 0.375000
vt 0.812500 0.812500
vt 0.812500 0.312500
vt 0.812500 0.750000
vt 0.812500 0.250000
vt 0.812500 0.687500
vt 0.812500 0.187500
vt 0.812500 0.625000
vt 0.812500 0.125000
vt 0.812500 0.562500
vt 0.812500 0.500000
vt 0.781250 0.750000
vt 0.781250 0.687500
vt 0.781250 0.250000
vt 0.781250 0.187500
vt 0.781250 0.625000
vt 0.781250 0.125000
vt 0.781250 0.562500
vt 0.781250 0.062500
vt 0.781250 0.500000
vt 0.796875 1.000000
vt 0.781250 0.937500
vt 0.796875 0.000000
vt 0.781250 0.437500
vt 0.781250 0.875000
vt 0.781250 0.375000
vt 0.781250 0.812500
vt 0.781250 0.312500
vt 0.765625 1.000000
vt 0.765625 0.000000
s 0
f 474/1/1 82/2/1 7/3/1
f 308/4/2 482/5/2 21/6/2
f 4/7/3 15/8/3 5/9/3
f 475/10/4 7/3/4 8/11/4
f 5/9/5 16/12/5 478/13/5
f 1/14/6 8/11/6 9/15/6
f 478/13/7 17/16/7 6/17/7
f 476/18/8 9/15/8 10/19/8
f 6/17/9 18/20/9 479/21/9
f 2/22/10 10/19/10 11/23/10
f 479/21/11 19/24/11 480/25/11
f 477/26/12 11/23/12 12/27/12
f 480/25/13 20/28/13 481/29/13
f 3/30/14 12/27/14 13/31/14
f 481/29/15 21/6/15 482/5/15
f 3/30/16 14/32/16 4/7/16
f 20/28/17 36/33/17 21/6/17
f 13/31/18 29/34/18 14/32/18
f 7/3/19 82/35/19 22/36/19
f 308/37/20 21/6/20 36/33/20
f 14/32/21 30/38/21 15/8/21
f 7/3/22 23/39/22 8/11/22
f 15/8/23 31/40/23 16/12/23
f 8/11/24 24/41/24 9/15/24
f 16/12/25 32/42/25 17/16/25
f 9/15/26 25/43/26 10/19/26
f 17/16/27 33/44/27 18/20/27
f 10/19/28 26/45/28 11/23/28
f 19/24/29 33/44/29 34/46/29
f 11/23/30 27/47/30 12/27/30
f 20/28/31 34/46/31 35/48/31
f 13/31/32 27/47/32 28/49/32
f 24/41/33 40/50/33 25/43/33
f 33/44/34 47/51/34 48/52/34
f 25/43/35 41/53/35 26/45/35
f 34/46/36 48/52/36 49/54/36
f 26/45/37 42/55/37 27/47/37
f 34/46/38 50/56/38 35/48/38
f 27/47/39 43/57/39 28/49/39
f 35/48/40 51/58/40 36/33/40
f 28/49/41 44/59/41 29/34/41
f 22/36/42 82/60/42 37/61/42
f 308/62/43 36/33/43 51/58/43
f 30/38/44 44/59/44 45/63/44
f 22/36/45 38/64/45 23/39/45
f 30/38/46 46/65/46 31/40/46
f 23/39/47 39/66/47 24/41/47
f 32/42/48 46/65/48 47/51/48
f 44/59/49 58/67/49 59/68/49
f 37/61/50 82/69/50 52/70/50
f 308/71/51 51/58/51 66/72/51
f 44/59/52 60/73/52 45/63/52
f 37/61/53 53/74/53 38/64/53
f 45/63/54 61/75/54 46/65/54
f 38/64/55 54/76/55 39/66/55
f 47/51/56 61/75/56 62/77/56
f 39/66/57 55/78/57 40/50/57
f 47/51/58 63/79/58 48/52/58
f 40/50/59 56/80/59 41/53/59
f 48/52/60 64/81/60 49/54/60
f 41/53/61 57/82/61 42/55/61
f 49/54/62 65/83/62 50/56/62
f 43/57/63 57/82/63 58/67/63
f 50/56/64 66/72/64 51/58/64
f 62/77/65 78/84/65 63/79/65
f 56/80/66 70/85/66 71/86/66
f 63/79/67 79/87/67 64/81/67
f 56/80/68 72/88/68 57/82/68
f 65/83/69 79/87/69 80/89/69
f 58/67/70 72/88/70 73/90/70
f 65/83/71 81/91/71 66/72/71
f 59/68/72 73/90/72 74/92/72
f 52/70/73 82/93/73 67/94/73
f 308/95/74 66/72/74 81/91/74
f 59/68/75 75/96/75 60/73/75
f 52/70/76 68/97/76 53/74/76
f 60/73/77 76/98/77 61/75/77
f 53/74/78 69/99/78 54/76/78
f 62/77/79 76/98/79 77/100/79
f 54/76/80 70/85/80 55/78/80
f 67/94/81 82/101/81 83/102/81
f 308/103/82 81/91/82 97/104/82
f 74/92/83 91/105/83 75/96/83
f 67/94/84 84/106/84 68/97/84
f 75/96/85 92/107/85 76/98/85
f 68/97/86 85/108/86 69/99/86
f 77/100/87 92/107/87 93/109/87
f 69/99/88 86/110/88 70/85/88
f 77/100/89 94/111/89 78/84/89
f 71/86/90 86/110/90 87/112/90
f 78/84/91 95/113/91 79/87/91
f 71/86/92 88/114/92 72/88/92
f 79/87/93 96/115/93 80/89/93
f 73/90/94 88/114/94 89/116/94
f 81/91/95 96/115/95 97/104/95
f 74/92/96 89/116/96 90/117/96
f 87/112/97 101/118/97 102/119/97
f 95/113/98 109/120/98 110/121/98
f 87/112/99 103/122/99 88/114/99
f 96/115/100 110/121/100 111/123/100
f 89/116/101 103/122/101 104/124/101
f 96/115/102 112/125/102 97/104/102
f 90/117/103 104/124/103 105/126/103
f 83/102/104 82/127/104 98/128/104
f 308/129/105 97/104/105 112/125/105
f 90/117/106 106/130/106 91/105/106
f 84/106/107 98/128/107 99/131/107
f 91/105/108 107/132/108 92/107/108
f 84/106/109 100/133/109 85/108/109
f 93/109/110 107/132/110 108/134/110
f 85/108/111 101/118/111 86/110/111
f 93/109/112 109/120/112 94/111/112
f 105/126/113 121/135/113 106/130/113
f 99/131/114 113/136/114 114/137/114
f 106/130/115 122/138/115 107/132/115
f 99/131/116 115/139/116 100/133/116
f 108/134/117 122/138/117 123/140/117
f 100/133/118 116/141/118 101/118/118
f 108/134/119 124/142/119 109/120/119
f 102/119/120 116/141/120 117/143/120
f 110/121/121 124/142/121 125/144/121
f 102/119/122 118/145/122 103/122/122
f 110/121/123 126/146/123 111/123/123
f 104/124/124 118/145/124 119/147/124
f 111/123/125 127/148/125 112/125/125
f 105/126/126 119/147/126 120/149/126
f 98/128/127 82/150/127 113/136/127
f 308/151/128 112/125/128 127/148/128
f 125/144/129 139/152/129 140/153/129
f 117/143/130 133/154/130 118/145/130
f 125/144/131 141/155/131 126/146/131
f 119/147/132 133/154/132 134/156/132
f 126/146/133 142/157/133 127/148/133
f 120/149/134 134/156/134 135/158/134
f 113/136/135 82/159/135 128/160/135
f 308/161/136 127/148/136 142/157/136
f 120/149/137 136/162/137 121/135/137
f 113/136/138 129/163/138 114/137/138
f 121/135/139 137/164/139 122/138/139
f 114/137/140 130/165/140 115/139/140
f 123/140/141 137/164/141 138/166/141
f 115/139/142 131/167/142 116/141/142
f 123/140/143 139/152/143 124/142/143
f 117/143/144 131/167/144 132/168/144
f 136/162/145 152/169/145 137/164/145
f 130/165/146 144/170/146 145/171/146
f 138/166/147 152/169/147 153/172/147
f 130/165/148 146/173/148 131/167/148
f 138/166/149 154/174/149 139/152/149
f 132/168/150 146/173/150 147/175/150
f 140/153/151 154/174/151 155/176/151
f 132/168/152 148/177/152 133/154/152
f 140/153/153 156/178/153 141/155/153
f 134/156/154 148/177/154 149/179/154
f 142/157/155 156/178/155 157/180/155
f 135/158/156 149/179/156 150/181/156
f 128/160/157 82/182/157 143/183/157
f 308/184/158 142/157/158 157/180/158
f 135/158/159 151/185/159 136/162/159
f 128/160/160 144/170/160 129/163/160
f 155/176/161 171/186/161 156/178/161
f 149/179/162 163/187/162 164/188/162
f 156/178/163 172/189/163 157/180/163
f 150/181/164 164/188/164 165/190/164
f 143/183/165 82/191/165 158/192/165
f 308/193/166 157/180/166 172/189/166
f 150/181/167 166/194/167 151/185/167
f 143/183/168 159/195/168 144/170/168
f 151/185/169 167/196/169 152/169/169
f 145/171/170 159/195/170 160/197/170
f 153/172/171 167/196/171 168/198/171
f 145/171/172 161/199/172 146/173/172
f 153/172/173 169/200/173 154/174/173
f 147/175/174 161/199/174 162/201/174
f 155/176/175 169/200/175 170/202/175
f 147/175/176 163/187/176 148/177/176
f 159/195/177 175/203/177 160/197/177
f 168/198/178 182/204/178 183/205/178
f 160/197/179 176/206/179 161/199/179
f 168/198/180 184/207/180 169/200/180
f 162/201/181 176/206/181 177/208/181
f 169/200/182 185/209/182 170/202/182
f 162/201/183 178/210/183 163/187/183
f 171/186/184 185/209/184 186/211/184
f 164/188/185 178/210/185 179/212/185
f 172/189/186 186/211/186 187/213/186
f 165/190/187 179/212/187 180/214/187
f 158/192/188 82/215/188 173/216/188
f 308/217/189 172/189/189 187/213/189
f 165/190/190 181/218/190 166/194/190
f 158/192/191 174/219/191 159/195/191
f 166/194/192 182/204/192 167/196/192
f 179/212/193 193/220/193 194/221/193
f 186/211/194 202/222/194 187/213/194
f 180/214/195 194/221/195 195/223/195
f 173/216/196 82/224/196 188/225/196
f 308/226/197 187/213/197 202/222/197
f 180/214/198 196/227/198 181/218/198
f 174/219/199 188/225/199 189/228/199
f 181/218/200 197/229/200 182/204/200
f 175/203/201 189/228/201 190/230/201
f 183/205/202 197/229/202 198/231/202
f 175/203/203 191/232/203 176/206/203
f 183/205/204 199/233/204 184/207/204
f 177/208/205 191/232/205 192/234/205
f 185/209/206 199/233/206 200/235/206
f 177/208/207 193/220/207 178/210/207
f 185/209/208 201/236/208 186/211/208
f 198/231/209 212/237/209 213/238/209
f 190/230/210 206/239/210 191/232/210
f 198/231/211 214/240/211 199/233/211
f 192/234/212 206/239/212 207/241/212
f 200/235/213 214/240/213 215/242/213
f 192/234/214 208/243/214 193/220/214
f 200/235/215 216/244/215 201/236/215
f 194/221/216 208/243/216 209/245/216
f 201/236/217 217/246/217 202/222/217
f 195/223/218 209/245/218 210/247/218
f 188/225/219 82/248/219 203/249/219
f 308/250/220 202/222/220 217/246/220
f 195/223/221 211/251/221 196/227/221
f 188/225/222 204/252/222 189/228/222
f 196/227/223 212/237/223 197/229/223
f 189/228/224 205/253/224 190/230/224
f 216/244/225 232/254/225 217/246/225
f 210/247/226 224/255/226 225/256/226
f 203/249/227 82/257/227 218/258/227
f 308/259/228 217/246/228 232/254/228
f 210/247/229 226/260/229 211/251/229
f 203/249/230 219/261/230 204/252/230
f 211/251/231 227/262/231 212/237/231
f 204/252/232 220/263/232 205/253/232
f 213/238/233 227/262/233 228/264/233
f 205/253/234 221/265/234 206/239/234
f 213/238/235 229/266/235 214/240/235
f 207/241/236 221/265/236 222/267/236
f 215/242/237 229/266/237 230/268/237
f 207/241/238 223/269/238 208/243/238
f 215/242/239 231/270/239 216/244/239
f 209/245/240 223/269/240 224/255/240
f 220/263/241 236/271/241 221/265/241
f 228/264/242 244/272/242 229/266/242
f 222/267/243 236/271/243 237/273/243
f 230/268/244 244/272/244 245/274/244
f 222/267/245 238/275/245 223/269/245
f 230/268/246 246/276/246 231/270/246
f 224/255/247 238/275/247 239/277/247
f 232/254/248 246/276/248 247/278/248
f 225/256/249 239/277/249 240/279/249
f 218/258/250 82/280/250 233/281/250
f 308/282/251 232/254/251 247/278/251
f 225/256/252 241/283/252 226/260/252
f 218/258/253 234/284/253 219/261/253
f 226/260/254 242/285/254 227/262/254
f 220/263/255 234/284/255 235/286/255
f 228/264/256 242/285/256 243/287/256
f 240/279/257 254/288/257 255/289/257
f 233/281/258 82/290/258 248/291/258
f 308/292/259 247/278/259 262/293/259
f 240/279/260 256/294/260 241/283/260
f 233/281/261 249/295/261 234/284/261
f 241/283/262 257/296/262 242/285/262
f 234/284/263 250/297/263 235/286/263
f 243/287/264 257/296/264 258/298/264
f 235/286/265 251/299/265 236/271/265
f 243/287/266 259/300/266 244/272/266
f 237/273/267 251/299/267 252/301/267
f 245/274/268 259/300/268 260/302/268
f 237/273/269 253/303/269 238/275/269
f 245/274/270 261/304/270 246/276/270
f 239/277/271 253/303/271 254/288/271
f 246/276/272 262/293/272 247/278/272
f 258/298/273 274/305/273 259/300/273
f 252/301/274 266/306/274 267/307/274
f 260/302/275 274/305/275 275/308/275
f 252/301/276 268/309/276 253/303/276
f 260/302/277 276/310/277 261/304/277
f 254/288/278 268/309/278 269/311/278
f 261/304/279 277/312/279 262/293/279
f 255/289/280 269/311/280 270/313/280
f 248/291/281 82/314/281 263/315/281
f 308/316/282 262/293/282 277/312/282
f 255/289/283 271/317/283 256/294/283
f 249/295/284 263/315/284 264/318/284
f 256/294/285 272/319/285 257/296/285
f 249/295/286 265/320/286 250/297/286
f 258/298/287 272/319/287 273/321/287
f 250/297/288 266/306/288 251/299/288
f 308/322/289 277/312/289 292/323/289
f 270/313/290 286/324/290 271/317/290
f 264/318/291 278/325/291 279/326/291
f 271/317/292 287/327/292 272/319/292
f 264/318/293 280/328/293 265/320/293
f 273/321/294 287/327/294 288/329/294
f 265/320/295 281/330/295 266/306/295
f 273/321/296 289/331/296 274/305/296
f 267/307/297 281/330/297 282/332/297
f 275/308/298 289/331/298 290/333/298
f 267/307/299 283/334/299 268/309/299
f 275/308/300 291/335/300 276/310/300
f 269/311/301 283/334/301 284/336/301
f 277/312/302 291/335/302 292/323/302
f 270/313/303 284/336/303 285/337/303
f 263/315/304 82/338/304 278/325/304
f 290/333/305 304/339/305 305/340/305
f 282/332/306 298/341/306 283/334/306
f 290/333/307 306/342/307 291/335/307
f 284/336/308 298/341/308 299/343/308
f 292/323/309 306/342/309 307/344/309
f 285/337/310 299/343/310 300/345/310
f 278/325/311 82/346/311 293/347/311
f 308/348/312 292/323/312 307/344/312
f 285/337/313 301/349/313 286/324/313
f 278/325/314 294/350/314 279/326/314
f 286/324/315 302/351/315 287/327/315
f 279/326/316 295/352/316 280/328/316
f 288/329/317 302/351/317 303/353/317
f 280/328/318 296/354/318 281/330/318
f 288/329/319 304/339/319 289/331/319
f 282/332/320 296/354/320 297/355/320
f 293/347/321 310/356/321 294/350/321
f 301/349/322 318/357/322 302/351/322
f 294/350/323 311/358/323 295/352/323
f 303/353/324 318/357/324 319/359/324
f 295/352/325 312/360/325 296/354/325
f 303/353/326 320/361/326 304/339/326
f 297/355/327 312/360/327 313/362/327
f 305/340/328 320/361/328 321/363/328
f 297/355/329 314/364/329 298/341/329
f 305/340/330 322/365/330 306/342/330
f 299/343/331 314/364/331 315/366/331
f 306/342/332 323/367/332 307/344/332
f 300/345/333 315/366/333 316/368/333
f 293/347/334 82/369/334 309/370/334
f 308/371/335 307/344/335 323/367/335
f 300/345/336 317/372/336 301/349/336
f 313/362/337 329/373/337 314/364/337
f 321/363/338 337/374/338 322/365/338
f 315/366/339 329/373/339 330/375/339
f 322/365/340 338/376/340 323/367/340
f 316/368/341 330/375/341 331/377/341
f 309/370/342 82/378/342 324/379/342
f 308/380/343 323/367/343 338/376/343
f 316/368/344 332/381/344 317/372/344
f 309/370/345 325/382/345 310/356/345
f 317/372/346 333/383/346 318/357/346
f 310/356/347 326/384/347 311/358/347
f 319/359/348 333/383/348 334/385/348
f 311/358/349 327/386/349 312/360/349
f 319/359/350 335/387/350 320/361/350
f 312/360/351 328/388/351 313/362/351
f 321/363/352 335/387/352 336/389/352
f 332/381/353 348/390/353 333/383/353
f 325/382/354 341/391/354 326/384/354
f 334/385/355 348/390/355 349/392/355
f 326/384/356 342/393/356 327/386/356
f 334/385/357 350/394/357 335/387/357
f 328/388/358 342/393/358 343/395/358
f 336/389/359 350/394/359 351/396/359
f 328/388/360 344/397/360 329/373/360
f 336/389/361 352/398/361 337/374/361
f 330/375/362 344/397/362 345/399/362
f 337/374/363 353/400/363 338/376/363
f 331/377/364 345/399/364 346/401/364
f 324/379/365 82/402/365 339/403/365
f 308/404/366 338/376/366 353/400/366
f 331/377/367 347/405/367 332/381/367
f 324/379/368 340/406/368 325/382/368
f 351/396/369 367/407/369 352/398/369
f 345/399/370 359/408/370 360/409/370
f 352/398/371 368/410/371 353/400/371
f 346/401/372 360/409/372 361/411/372
f 339/403/373 82/412/373 354/413/373
f 308/414/374 353/400/374 368/410/374
f 346/401/375 362/415/375 347/405/375
f 339/403/376 355/416/376 340/406/376
f 347/405/377 363/417/377 348/390/377
f 341/391/378 355/416/378 356/418/378
f 349/392/379 363/417/379 364/419/379
f 341/391/380 357/420/380 342/393/380
f 349/392/381 365/421/381 350/394/381
f 343/395/382 357/420/382 358/422/382
f 351/396/383 365/421/383 366/423/383
f 343/395/384 359/408/384 344/397/384
f 356/424/385 370/425/385 371/426/385
f 364/427/386 378/428/386 379/429/386
f 356/424/387 372/430/387 357/431/387
f 364/427/388 380/432/388 365/433/388
f 358/434/389 372/430/389 373/435/389
f 366/436/390 380/432/390 381/437/390
f 358/434/391 374/438/391 359/439/391
f 366/436/392 382/440/392 367/441/392
f 360/442/393 374/438/393 375/443/393
f 367/441/394 383/444/394 368/445/394
f 361/446/395 375/443/395 376/447/395
f 354/448/396 82/449/396 369/450/396
f 308/451/397 368/445/397 383/444/397
f 361/446/398 377/452/398 362/453/398
f 354/448/399 370/425/399 355/454/399
f 362/453/400 378/428/400 363/455/400
f 375/443/401 389/456/401 390/457/401
f 382/440/402 398/458/402 383/444/402
f 376/447/403 390/457/403 391/459/403
f 369/450/404 82/460/404 384/461/404
f 308/462/405 383/444/405 398/458/405
f 376/447/406 392/463/406 377/452/406
f 369/450/407 385/464/407 370/425/407
f 377/452/408 393/465/408 378/428/408
f 371/426/409 385/464/409 386/466/409
f 379/429/410 393/465/410 394/467/410
f 371/426/411 387/468/411 372/430/411
f 379/429/412 395/469/412 380/432/412
f 373/435/413 387/468/413 388/470/413
f 381/437/414 395/469/414 396/471/414
f 373/435/415 389/456/415 374/438/415
f 381/437/416 397/472/416 382/440/416
f 394/467/417 408/473/417 409/474/417
f 386/466/418 402/475/418 387/468/418
f 394/467/419 410/476/419 395/469/419
f 388/470/420 402/475/420 403/477/420
f 396/471/421 410/476/421 411/478/421
f 388/470/422 404/479/422 389/456/422
f 397/472/423 411/478/423 412/480/423
f 390/457/424 404/479/424 405/481/424
f 397/472/425 413/482/425 398/458/425
f 391/459/426 405/481/426 406/483/426
f 384/461/427 82/484/427 399/485/427
f 308/486/428 398/458/428 413/482/428
f 391/459/429 407/487/429 392/463/429
f 385/464/430 399/485/430 400/488/430
f 392/463/431 408/473/431 393/465/431
f 385/464/432 401/489/432 386/466/432
f 412/480/433 428/490/433 413/482/433
f 406/483/434 420/491/434 421/492/434
f 399/485/435 82/493/435 414/494/435
f 308/495/436 413/482/436 428/490/436
f 406/483/437 422/496/437 407/487/437
f 399/485/438 415/497/438 400/488/438
f 407/487/439 423/498/439 408/473/439
f 401/489/440 415/497/440 416/499/440
f 409/474/441 423/498/441 424/500/441
f 401/489/442 417/501/442 402/475/442
f 409/474/443 425/502/443 410/476/443
f 403/477/444 417/501/444 418/503/444
f 411/478/445 425/502/445 426/504/445
f 403/477/446 419/505/446 404/479/446
f 411/478/447 427/506/447 412/480/447
f 405/481/448 419/505/448 420/491/448
f 424/500/449 440/507/449 425/502/449
f 418/503/450 432/508/450 433/509/450
f 426/504/451 440/507/451 441/510/451
f 418/503/452 434/511/452 419/505/452
f 426/504/453 442/512/453 427/506/453
f 420/491/454 434/511/454 435/513/454
f 427/506/455 443/514/455 428/490/455
f 421/492/456 435/513/456 436/515/456
f 414/494/457 82/516/457 429/517/457
f 308/518/458 428/490/458 443/514/458
f 421/492/459 437/519/459 422/496/459
f 414/494/460 430/520/460 415/497/460
f 422/496/461 438/521/461 423/498/461
f 416/499/462 430/520/462 431/522/462
f 424/500/463 438/521/463 439/523/463
f 416/499/464 432/508/464 417/501/464
f 429/517/465 82/524/465 444/525/465
f 308/526/466 443/514/466 458/527/466
f 436/515/467 452/528/467 437/519/467
f 430/520/468 444/525/468 445/529/468
f 437/519/469 453/530/469 438/521/469
f 430/520/470 446/531/470 431/522/470
f 439/523/471 453/530/471 454/532/471
f 431/522/472 447/533/472 432/508/472
f 439/523/473 455/534/473 440/507/473
f 433/509/474 447/533/474 448/535/474
f 441/510/475 455/534/475 456/536/475
f 433/509/476 449/537/476 434/511/476
f 441/510/477 457/538/477 442/512/477
f 435/513/478 449/537/478 450/539/478
f 442/512/479 458/527/479 443/514/479
f 436/515/480 450/539/480 451/540/480
f 448/535/481 462/541/481 463/542/481
f 456/536/482 470/543/482 471/544/482
f 448/535/483 464/545/483 449/537/483
f 456/536/484 472/546/484 457/538/484
f 450/539/485 464/545/485 465/547/485
f 458/527/486 472/546/486 473/548/486
f 451/540/487 465/547/487 466/549/487
f 444/525/488 82/550/488 459/551/488
f 308/552/489 458/527/489 473/548/489
f 451/540/490 467/553/490 452/528/490
f 444/525/491 460/554/491 445/529/491
f 452/528/492 468/555/492 453/530/492
f 446/531/493 460/554/493 461/556/493
f 454/532/494 468/555/494 469/557/494
f 446/531/495 462/541/495 447/533/495
f 454/532/496 470/543/496 455/534/496
f 466/549/497 5/9/497 467/553/497
f 460/554/498 474/1/498 475/10/498
f 467/553/499 478/13/499 468/555/499
f 461/556/500 475/10/500 1/14/500
f 468/555/501 6/17/501 469/557/501
f 462/541/502 1/14/502 476/18/502
f 469/557/503 479/21/503 470/543/503
f 463/542/504 476/18/504 2/22/504
f 471/544/505 479/21/505 480/25/505
f 464/545/506 2/22/506 477/26/506
f 471/544/507 481/29/507 472/546/507
f 465/547/508 477/26/508 3/30/508
f 472/546/509 482/5/509 473/548/509
f 466/549/510 3/30/510 4/7/510
f 459/551/511 82/558/511 474/1/511
f 308/559/512 473/548/512 482/5/512
f 4/7/513 14/32/513 15/8/513
f 475/10/4 474/1/4 7/3/4
f 5/9/5 15/8/5 16/12/5
f 1/14/6 475/10/6 8/11/6
f 478/13/7 16/12/7 17/16/7
f 476/18/8 1/14/8 9/15/8
f 6/17/9 17/16/9 18/20/9
f 2/22/10 476/18/10 10/19/10
f 479/21/11 18/20/11 19/24/11
f 477/26/12 2/22/12 11/23/12
f 480/25/13 19/24/13 20/28/13
f 3/30/14 477/26/14 12/27/14
f 481/29/15 20/28/15 21/6/15
f 3/30/16 13/31/16 14/32/16
f 20/28/514 35/48/514 36/33/514
f 13/31/18 28/49/18 29/34/18
f 14/32/21 29/34/21 30/38/21
f 7/3/22 22/36/22 23/39/22
f 15/8/23 30/38/23 31/40/23
f 8/11/24 23/39/24 24/41/24
f 16/12/25 31/40/25 32/42/25
f 9/15/26 24/41/26 25/43/26
f 17/16/27 32/42/27 33/44/27
f 10/19/28 25/43/28 26/45/28
f 19/24/29 18/20/29 33/44/29
f 11/23/30 26/45/30 27/47/30
f 20/28/31 19/24/31 34/46/31
f 13/31/32 12/27/32 27/47/32
f 24/41/33 39/66/33 40/50/33
f 33/44/34 32/42/34 47/51/34
f 25/43/35 40/50/35 41/53/35
f 34/46/36 33/44/36 48/52/36
f 26/45/37 41/53/37 42/55/37
f 34/46/38 49/54/38 50/56/38
f 27/47/39 42/55/39 43/57/39
f 35/48/40 50/56/40 51/58/40
f 28/49/41 43/57/41 44/59/41
f 30/38/44 29/34/44 44/59/44
f 22/36/45 37/61/45 38/64/45
f 30/38/46 45/63/46 46/65/46
f 23/39/47 38/64/47 39/66/47
f 32/42/48 31/40/48 46/65/48
f 44/59/49 43/57/49 58/67/49
f 44/59/52 59/68/52 60/73/52
f 37/61/53 52/70/53 53/74/53
f 45/63/54 60/73/54 61/75/54
f 38/64/55 53/74/55 54/76/55
f 47/51/56 46/65/56 61/75/56
f 39/66/57 54/76/57 55/78/57
f 47/51/58 62/77/58 63/79/58
f 40/50/59 55/78/59 56/80/59
f 48/52/60 63/79/60 64/81/60
f 41/53/61 56/80/61 57/82/61
f 49/54/62 64/81/62 65/83/62
f 43/57/63 42/55/63 57/82/63
f 50/56/64 65/83/64 66/72/64
f 62/77/65 77/100/65 78/84/65
f 56/80/66 55/78/66 70/85/66
f 63/79/67 78/84/67 79/87/67
f 56/80/68 71/86/68 72/88/68
f 65/83/69 64/81/69 79/87/69
f 58/67/70 57/82/70 72/88/70
f 65/83/71 80/89/71 81/91/71
f 59/68/72 58/67/72 73/90/72
f 59/68/75 74/92/75 75/96/75
f 52/70/76 67/94/76 68/97/76
f 60/73/77 75/96/77 76/98/77
f 53/74/78 68/97/78 69/99/78
f 62/77/79 61/75/79 76/98/79
f 54/76/80 69/99/80 70/85/80
f 74/92/83 90/117/83 91/105/83
f 67/94/515 83/102/515 84/106/515
f 75/96/85 91/105/85 92/107/85
f 68/97/86 84/106/86 85/108/86
f 77/100/87 76/98/87 92/107/87
f 69/99/88 85/108/88 86/110/88
f 77/100/89 93/109/89 94/111/89
f 71/86/90 70/85/90 86/110/90
f 78/84/91 94/111/91 95/113/91
f 71/86/92 87/112/92 88/114/92
f 79/87/93 95/113/93 96/115/93
f 73/90/94 72/88/94 88/114/94
f 81/91/516 80/89/516 96/115/516
f 74/92/96 73/90/96 89/116/96
f 87/112/97 86/110/97 101/118/97
f 95/113/98 94/111/98 109/120/98
f 87/112/99 102/119/99 103/122/99
f 96/115/100 95/113/100 110/121/100
f 89/116/101 88/114/101 103/122/101
f 96/115/102 111/123/102 112/125/102
f 90/117/103 89/116/103 104/124/103
f 90/117/106 105/126/106 106/130/106
f 84/106/107 83/102/107 98/128/107
f 91/105/108 106/130/108 107/132/108
f 84/106/109 99/131/109 100/133/109
f 93/109/110 92/107/110 107/132/110
f 85/108/111 100/133/111 101/118/111
f 93/109/112 108/134/112 109/120/112
f 105/126/113 120/149/113 121/135/113
f 99/131/114 98/128/114 113/136/114
f 106/130/115 121/135/115 122/138/115
f 99/131/116 114/137/116 115/139/116
f 108/134/117 107/132/117 122/138/117
f 100/133/118 115/139/118 116/141/118
f 108/134/119 123/140/119 124/142/119
f 102/119/120 101/118/120 116/141/120
f 110/121/121 109/120/121 124/142/121
f 102/119/122 117/143/122 118/145/122
f 110/121/123 125/144/123 126/146/123
f 104/124/124 103/122/124 118/145/124
f 111/123/125 126/146/125 127/148/125
f 105/126/126 104/124/126 119/147/126
f 125/144/129 124/142/129 139/152/129
f 117/143/130 132/168/130 133/154/130
f 125/144/131 140/153/131 141/155/131
f 119/147/132 118/145/132 133/154/132
f 126/146/133 141/155/133 142/157/133
f 120/149/134 119/147/134 134/156/134
f 120/149/137 135/158/137 136/162/137
f 113/136/138 128/160/138 129/163/138
f 121/135/139 136/162/139 137/164/139
f 114/137/140 129/163/140 130/165/140
f 123/140/141 122/138/141 137/164/141
f 115/139/142 130/165/142 131/167/142
f 123/140/143 138/166/143 139/152/143
f 117/143/144 116/141/144 131/167/144
f 136/162/145 151/185/145 152/169/145
f 130/165/146 129/163/146 144/170/146
f 138/166/147 137/164/147 152/169/147
f 130/165/148 145/171/148 146/173/148
f 138/166/149 153/172/149 154/174/149
f 132/168/150 131/167/150 146/173/150
f 140/153/151 139/152/151 154/174/151
f 132/168/152 147/175/152 148/177/152
f 140/153/153 155/176/153 156/178/153
f 134/156/154 133/154/154 148/177/154
f 142/157/155 141/155/155 156/178/155
f 135/158/156 134/156/156 149/179/156
f 135/158/159 150/181/159 151/185/159
f 128/160/160 143/183/160 144/170/160
f 155/176/161 170/202/161 171/186/161
f 149/179/162 148/177/162 163/187/162
f 156/178/163 171/186/163 172/189/163
f 150/181/164 149/179/164 164/188/164
f 150/181/167 165/190/167 166/194/167
f 143/183/517 158/192/517 159/195/517
f 151/185/169 166/194/169 167/196/169
f 145/171/170 144/170/170 159/195/170
f 153/172/171 152/169/171 167/196/171
f 145/171/172 160/197/172 161/199/172
f 153/172/173 168/198/173 169/200/173
f 147/175/174 146/173/174 161/199/174
f 155/176/175 154/174/175 169/200/175
f 147/175/176 162/201/176 163/187/176
f 159/195/177 174/219/177 175/203/177
f 168/198/178 167/196/178 182/204/178
f 160/197/179 175/203/179 176/206/179
f 168/198/180 183/205/180 184/207/180
f 162/201/181 161/199/181 176/206/181
f 169/200/182 184/207/182 185/209/182
f 162/201/183 177/208/183 178/210/183
f 171/186/184 170/202/184 185/209/184
f 164/188/185 163/187/185 178/210/185
f 172/189/186 171/186/186 186/211/186
f 165/190/187 164/188/187 179/212/187
f 165/190/190 180/214/190 181/218/190
f 158/192/191 173/216/191 174/219/191
f 166/194/192 181/218/192 182/204/192
f 179/212/193 178/210/193 193/220/193
f 186/211/194 201/236/194 202/222/194
f 180/214/195 179/212/195 194/221/195
f 180/214/198 195/223/198 196/227/198
f 174/219/199 173/216/199 188/225/199
f 181/218/200 196/227/200 197/229/200
f 175/203/201 174/219/201 189/228/201
f 183/205/202 182/204/202 197/229/202
f 175/203/518 190/230/518 191/232/518
f 183/205/204 198/231/204 199/233/204
f 177/208/205 176/206/205 191/232/205
f 185/209/519 184/207/519 199/233/519
f 177/208/207 192/234/207 193/220/207
f 185/209/208 200/235/208 201/236/208
f 198/231/209 197/229/209 212/237/209
f 190/230/210 205/253/210 206/239/210
f 198/231/211 213/238/211 214/240/211
f 192/234/212 191/232/212 206/239/212
f 200/235/213 199/233/213 214/240/213
f 192/234/214 207/241/214 208/243/214
f 200/235/215 215/242/215 216/244/215
f 194/221/216 193/220/216 208/243/216
f 201/236/217 216/244/217 217/246/217
f 195/223/218 194/221/218 209/245/218
f 195/223/221 210/247/221 211/251/221
f 188/225/222 203/249/222 204/252/222
f 196/227/223 211/251/223 212/237/223
f 189/228/224 204/252/224 205/253/224
f 216/244/225 231/270/225 232/254/225
f 210/247/226 209/245/226 224/255/226
f 210/247/229 225/256/229 226/260/229
f 203/249/230 218/258/230 219/261/230
f 211/251/231 226/260/231 227/262/231
f 204/252/232 219/261/232 220/263/232
f 213/238/233 212/237/233 227/262/233
f 205/253/234 220/263/234 221/265/234
f 213/238/235 228/264/235 229/266/235
f 207/241/236 206/239/236 221/265/236
f 215/242/237 214/240/237 229/266/237
f 207/241/238 222/267/238 223/269/238
f 215/242/239 230/268/239 231/270/239
f 209/245/240 208/243/240 223/269/240
f 220/263/241 235/286/241 236/271/241
f 228/264/242 243/287/242 244/272/242
f 222/267/243 221/265/243 236/271/243
f 230/268/244 229/266/244 244/272/244
f 222/267/245 237/273/245 238/275/245
f 230/268/246 245/274/246 246/276/246
f 224/255/247 223/269/247 238/275/247
f 232/254/248 231/270/248 246/276/248
f 225/256/249 224/255/249 239/277/249
f 225/256/252 240/279/252 241/283/252
f 218/258/253 233/281/253 234/284/253
f 226/260/254 241/283/254 242/285/254
f 220/263/255 219/261/255 234/284/255
f 228/264/256 227/262/256 242/285/256
f 240/279/257 239/277/257 254/288/257
f 240/279/260 255/289/260 256/294/260
f 233/281/261 248/291/261 249/295/261
f 241/283/262 256/294/262 257/296/262
f 234/284/263 249/295/263 250/297/263
f 243/287/264 242/285/264 257/296/264
f 235/286/265 250/297/265 251/299/265
f 243/287/266 258/298/266 259/300/266
f 237/273/267 236/271/267 251/299/267
f 245/274/268 244/272/268 259/300/268
f 237/273/269 252/301/269 253/303/269
f 245/274/270 260/302/270 261/304/270
f 239/277/271 238/275/271 253/303/271
f 246/276/272 261/304/272 262/293/272
f 258/298/273 273/321/273 274/305/273
f 252/301/274 251/299/274 266/306/274
f 260/302/275 259/300/275 274/305/275
f 252/301/276 267/307/276 268/309/276
f 260/302/277 275/308/277 276/310/277
f 254/288/278 253/303/278 268/309/278
f 261/304/520 276/310/520 277/312/520
f 255/289/280 254/288/280 269/311/280
f 255/289/283 270/313/283 271/317/283
f 249/295/521 248/291/521 263/315/521
f 256/294/285 271/317/285 272/319/285
f 249/295/286 264/318/286 265/320/286
f 258/298/287 257/296/287 272/319/287
f 250/297/288 265/320/288 266/306/288
f 270/313/290 285/337/290 286/324/290
f 264/318/291 263/315/291 278/325/291
f 271/317/292 286/324/292 287/327/292
f 264/318/293 279/326/293 280/328/293
f 273/321/294 272/319/294 287/327/294
f 265/320/295 280/328/295 281/330/295
f 273/321/296 288/329/296 289/331/296
f 267/307/297 266/306/297 281/330/297
f 275/308/298 274/305/298 289/331/298
f 267/307/299 282/332/299 283/334/299
f 275/308/300 290/333/300 291/335/300
f 269/311/301 268/309/301 283/334/301
f 277/312/302 276/310/302 291/335/302
f 270/313/303 269/311/303 284/336/303
f 290/333/305 289/331/305 304/339/305
f 282/332/306 297/355/306 298/341/306
f 290/333/307 305/340/307 306/342/307
f 284/336/308 283/334/308 298/341/308
f 292/323/309 291/335/309 306/342/309
f 285/337/310 284/336/310 299/343/310
f 285/337/313 300/345/313 301/349/313
f 278/325/314 293/347/314 294/350/314
f 286/324/315 301/349/315 302/351/315
f 279/326/316 294/350/316 295/352/316
f 288/329/317 287/327/317 302/351/317
f 280/328/318 295/352/318 296/354/318
f 288/329/319 303/353/319 304/339/319
f 282/332/320 281/330/320 296/354/320
f 293/347/321 309/370/321 310/356/321
f 301/349/322 317/372/322 318/357/322
f 294/350/323 310/356/323 311/358/323
f 303/353/324 302/351/324 318/357/324
f 295/352/325 311/358/325 312/360/325
f 303/353/326 319/359/326 320/361/326
f 297/355/327 296/354/327 312/360/327
f 305/340/328 304/339/328 320/361/328
f 297/355/329 313/362/329 314/364/329
f 305/340/522 321/363/522 322/365/522
f 299/343/331 298/341/331 314/364/331
f 306/342/332 322/365/332 323/367/332
f 300/345/333 299/343/333 315/366/333
f 300/345/336 316/368/336 317/372/336
f 313/362/337 328/388/337 329/373/337
f 321/363/338 336/389/338 337/374/338
f 315/366/339 314/364/339 329/373/339
f 322/365/523 337/374/523 338/376/523
f 316/368/341 315/366/341 330/375/341
f 316/368/344 331/377/344 332/381/344
f 309/370/524 324/379/524 325/382/524
f 317/372/346 332/381/346 333/383/346
f 310/356/347 325/382/347 326/384/347
f 319/359/348 318/357/348 333/383/348
f 311/358/349 326/384/349 327/386/349
f 319/359/350 334/385/350 335/387/350
f 312/360/351 327/386/351 328/388/351
f 321/363/352 320/361/352 335/387/352
f 332/381/353 347/405/353 348/390/353
f 325/382/354 340/406/354 341/391/354
f 334/385/355 333/383/355 348/390/355
f 326/384/356 341/391/356 342/393/356
f 334/385/357 349/392/357 350/394/357
f 328/388/358 327/386/358 342/393/358
f 336/389/359 335/387/359 350/394/359
f 328/388/360 343/395/360 344/397/360
f 336/389/361 351/396/361 352/398/361
f 330/375/362 329/373/362 344/397/362
f 337/374/363 352/398/363 353/400/363
f 331/377/525 330/375/525 345/399/525
f 331/377/526 346/401/526 347/405/526
f 324/379/368 339/403/368 340/406/368
f 351/396/369 366/423/369 367/407/369
f 345/399/370 344/397/370 359/408/370
f 352/398/371 367/407/371 368/410/371
f 346/401/372 345/399/372 360/409/372
f 346/401/375 361/411/375 362/415/375
f 339/403/376 354/413/376 355/416/376
f 347/405/377 362/415/377 363/417/377
f 341/391/378 340/406/378 355/416/378
f 349/392/379 348/390/379 363/417/379
f 341/391/380 356/418/380 357/420/380
f 349/392/381 364/419/381 365/421/381
f 343/395/382 342/393/382 357/420/382
f 351/396/383 350/394/383 365/421/383
f 343/395/384 358/422/384 359/408/384
f 356/424/385 355/454/385 370/425/385
f 364/427/386 363/455/386 378/428/386
f 356/424/387 371/426/387 372/430/387
f 364/427/388 379/429/388 380/432/388
f 358/434/389 357/431/389 372/430/389
f 366/436/390 365/433/390 380/432/390
f 358/434/391 373/435/391 374/438/391
f 366/436/392 381/437/392 382/440/392
f 360/442/393 359/439/393 374/438/393
f 367/441/394 382/440/394 383/444/394
f 361/446/395 360/442/395 375/443/395
f 361/446/398 376/447/398 377/452/398
f 354/448/399 369/450/399 370/425/399
f 362/453/400 377/452/400 378/428/400
f 375/443/401 374/438/401 389/456/401
f 382/440/402 397/472/402 398/458/402
f 376/447/403 375/443/403 390/457/403
f 376/447/406 391/459/406 392/463/406
f 369/450/407 384/461/407 385/464/407
f 377/452/408 392/463/408 393/465/408
f 371/426/409 370/425/409 385/464/409
f 379/429/410 378/428/410 393/465/410
f 371/426/411 386/466/411 387/468/411
f 379/429/412 394/467/412 395/469/412
f 373/435/413 372/430/413 387/468/413
f 381/437/414 380/432/414 395/469/414
f 373/435/415 388/470/415 389/456/415
f 381/437/416 396/471/416 397/472/416
f 394/467/417 393/465/417 408/473/417
f 386/466/418 401/489/418 402/475/418
f 394/467/419 409/474/419 410/476/419
f 388/470/420 387/468/420 402/475/420
f 396/471/421 395/469/421 410/476/421
f 388/470/422 403/477/422 404/479/422
f 397/472/423 396/471/423 411/478/423
f 390/457/424 389/456/424 404/479/424
f 397/472/425 412/480/425 413/482/425
f 391/459/426 390/457/426 405/481/426
f 391/459/429 406/483/429 407/487/429
f 385/464/430 384/461/430 399/485/430
f 392/463/431 407/487/431 408/473/431
f 385/464/432 400/488/432 401/489/432
f 412/480/433 427/506/433 428/490/433
f 406/483/434 405/481/434 420/491/434
f 406/483/437 421/492/437 422/496/437
f 399/485/438 414/494/438 415/497/438
f 407/487/439 422/496/439 423/498/439
f 401/489/440 400/488/440 415/497/440
f 409/474/441 408/473/441 423/498/441
f 401/489/442 416/499/442 417/501/442
f 409/474/443 424/500/443 425/502/443
f 403/477/444 402/475/444 417/501/444
f 411/478/445 410/476/445 425/502/445
f 403/477/446 418/503/446 419/505/446
f 411/478/447 426/504/447 427/506/447
f 405/481/448 404/479/448 419/505/448
f 424/500/449 439/523/449 440/507/449
f 418/503/450 417/501/450 432/508/450
f 426/504/451 425/502/451 440/507/451
f 418/503/452 433/509/452 434/511/452
f 426/504/453 441/510/453 442/512/453
f 420/491/454 419/505/454 434/511/454
f 427/506/455 442/512/455 443/514/455
f 421/492/456 420/491/456 435/513/456
f 421/492/459 436/515/459 437/519/459
f 414/494/460 429/517/460 430/520/460
f 422/496/461 437/519/461 438/521/461
f 416/499/462 415/497/462 430/520/462
f 424/500/463 423/498/463 438/521/463
f 416/499/464 431/522/464 432/508/464
f 436/515/467 451/540/467 452/528/467
f 430/520/468 429/517/468 444/525/468
f 437/519/469 452/528/469 453/530/469
f 430/520/470 445/529/470 446/531/470
f 439/523/471 438/521/471 453/530/471
f 431/522/472 446/531/472 447/533/472
f 439/523/473 454/532/473 455/534/473
f 433/509/474 432/508/474 447/533/474
f 441/510/475 440/507/475 455/534/475
f 433/509/476 448/535/476 449/537/476
f 441/510/477 456/536/477 457/538/477
f 435/513/478 434/511/478 449/537/478
f 442/512/479 457/538/479 458/527/479
f 436/515/480 435/513/480 450/539/480
f 448/535/481 447/533/481 462/541/481
f 456/536/482 455/534/482 470/543/482
f 448/535/483 463/542/483 464/545/483
f 456/536/484 471/544/484 472/546/484
f 450/539/485 449/537/485 464/545/485
f 458/527/486 457/538/486 472/546/486
f 451/540/487 450/539/487 465/547/487
f 451/540/490 466/549/490 467/553/490
f 444/525/491 459/551/491 460/554/491
f 452/528/492 467/553/492 468/555/492
f 446/531/493 445/529/493 460/554/493
f 454/532/494 453/530/494 468/555/494
f 446/531/495 461/556/495 462/541/495
f 454/532/496 469/557/496 470/543/496
f 466/549/497 4/7/497 5/9/497
f 460/554/498 459/551/498 474/1/498
f 467/553/499 5/9/499 478/13/499
f 461/556/500 460/554/500 475/10/500
f 468/555/501 478/13/501 6/17/501
f 462/541/502 461/556/502 1/14/502
f 469/557/503 6/17/503 479/21/503
f 463/542/504 462/541/504 476/18/504
f 471/544/505 470/543/505 479/21/505
f 464/545/506 463/542/506 2/22/506
f 471/544/507 480/25/507 481/29/507
f 465/547/508 464/545/508 477/26/508
f 472/546/509 481/29/509 482/5/509
f 466/549/510 465/547/510 3/30/510
