# Blender 4.2.1 LTS
# www.blender.org
mtllib lowpolysonic.mtl
o Grp0
v 0.620000 1.180000 -3.013431
v -0.000000 1.470000 -2.603429
v 1.130000 2.650000 -2.593431
v -0.000000 1.180000 -3.273429
v -0.000000 1.200000 -1.503429
v 1.010000 0.450000 -1.373430
v -1.130000 2.650000 -2.593430
v -0.890000 1.190000 -2.603429
v -1.440000 0.440000 -2.383430
v -1.010000 0.450000 -1.373430
v -0.000000 0.460000 -0.953430
v -0.620000 1.180000 -3.013430
v 1.440000 0.440000 -2.383430
v 0.890000 1.190000 -2.603429
v 1.010000 -0.460000 -1.363430
v 1.440000 -0.470000 -2.373431
v 0.730000 -1.080000 -1.643430
v 1.040000 -1.090000 -2.373430
v -0.000000 -0.460000 -0.943429
v -0.000000 -1.080000 -1.343431
v -0.000000 -1.510000 -2.363430
v -0.730000 -1.080000 -1.643430
v -1.010000 -0.460000 -1.363430
v -1.440000 -0.470000 -2.373430
v -1.040000 -1.090000 -2.373430
v -0.730000 -1.100000 -3.103429
v -1.010000 0.430000 -3.403430
v -1.010000 -0.490000 -3.393430
v -0.000000 0.420000 -3.823430
v -0.000000 -0.490000 -3.813429
v -0.000000 -1.100000 -3.413430
v 0.730000 -1.100000 -3.103429
v 1.010000 0.430000 -3.403430
v 1.010000 -0.490000 -3.393431
vn -0.3833 0.3742 -0.8444
vn 0.1643 0.9052 -0.3918
vn 0.2328 0.4619 0.8558
vn 0.7128 0.6812 0.1672
vn -0.7243 0.6198 0.3022
vn 0.3216 0.5648 0.7600
vn 0.3833 0.3742 -0.8444
vn 0.7243 0.6198 0.3022
vn -0.2328 0.4619 0.8558
vn -0.7128 0.6812 0.1672
vn -0.1643 0.9052 -0.3918
vn -0.3216 0.5648 0.7600
vn 0.9691 -0.1580 -0.1896
vn 0.9201 0.0043 0.3917
vn 0.7895 -0.5094 0.3423
vn 0.3839 0.0101 0.9233
vn 0.3275 -0.5078 0.7968
vn -0.1576 -0.9099 0.3836
vn -0.3840 0.0100 0.9233
vn -0.3299 -0.5118 0.7933
vn -0.9691 -0.1580 -0.1896
vn -0.9201 0.0043 0.3917
vn -0.7893 -0.5105 0.3411
vn -0.3694 -0.9180 -0.1443
vn -0.8026 0.4879 -0.3431
vn -0.9215 -0.0043 -0.3884
vn -0.7947 -0.5127 -0.3250
vn -0.3197 0.5627 -0.7624
vn -0.3840 -0.0100 -0.9233
vn -0.3327 -0.5251 -0.7833
vn 0.1527 -0.9206 -0.3595
vn 0.3143 0.5566 -0.7691
vn 0.3839 -0.0101 -0.9233
vn 0.3285 -0.5179 -0.7899
vn 0.6704 0.5856 -0.4557
vn 0.9215 -0.0042 -0.3884
vn 0.7896 -0.5185 -0.3282
vn 0.3704 -0.9132 0.1698
vn 0.8293 -0.1326 -0.5429
vn 0.7893 -0.5105 0.3411
vn 0.3840 0.0100 0.9233
vn 0.3299 -0.5118 0.7933
vn 0.1576 -0.9099 0.3836
vn -0.3839 0.0101 0.9233
vn -0.3275 -0.5078 0.7968
vn -0.8293 -0.1326 -0.5429
vn -0.7895 -0.5094 0.3423
vn -0.3704 -0.9132 0.1698
vn -0.6704 0.5856 -0.4557
vn -0.9215 -0.0042 -0.3884
vn -0.7896 -0.5185 -0.3282
vn -0.3143 0.5566 -0.7691
vn -0.3839 -0.0101 -0.9233
vn -0.3285 -0.5179 -0.7899
vn -0.1527 -0.9206 -0.3595
vn 0.3197 0.5627 -0.7624
vn 0.3840 -0.0100 -0.9233
vn 0.3326 -0.5251 -0.7833
vn 0.8026 0.4879 -0.3431
vn 0.9215 -0.0043 -0.3884
vn 0.7947 -0.5127 -0.3250
vn 0.3694 -0.9180 -0.1443
vt 0.036196 0.964624
vt 0.008852 0.991968
vt 0.008852 0.964624
vt 0.036196 0.991968
vt 0.407262 0.745902
vt 0.379918 0.718558
vt 0.407262 0.718558
vt 0.379918 0.745902
s 0
usemtl Texture
f 1/1/1 2/2/1 3/3/1
f 2/1/2 1/2/2 4/3/2
f 5/1/3 6/2/3 3/3/3
f 5/1/4 2/2/4 7/3/4
f 8/1/5 9/2/5 10/3/5
f 11/1/6 6/2/6 5/3/6
f 7/1/7 2/2/7 12/3/7
f 6/1/8 13/2/8 14/3/8
f 7/1/9 10/2/9 5/3/9
f 3/1/10 2/2/10 5/3/10
f 4/1/11 12/2/11 2/3/11
f 5/1/12 10/2/12 11/3/12
f 14/3/13 3/4/13 6/2/13
f 6/2/14 16/1/14 13/4/14
f 16/4/15 17/3/15 18/1/15
f 6/4/16 19/3/16 15/1/16
f 15/4/17 20/3/17 17/1/17
f 21/5/18 20/6/18 22/7/18
f 10/2/19 19/1/19 11/4/19
f 23/2/20 20/1/20 19/4/20
f 7/2/21 8/1/21 10/4/21
f 10/4/22 24/3/22 23/1/22
f 24/2/23 22/1/23 23/4/23
f 21/5/24 25/6/24 26/7/24
f 8/4/25 27/3/25 9/1/25
f 27/2/26 24/1/26 9/4/26
f 28/2/27 25/1/27 24/4/27
f 4/2/28 27/1/28 12/4/28
f 29/2/29 28/1/29 27/4/29
f 28/4/30 31/3/30 26/1/30
f 21/5/31 31/6/31 32/7/31
f 4/4/32 33/3/32 29/1/32
f 29/4/33 34/3/33 30/1/33
f 34/2/34 31/1/34 30/4/34
f 14/2/35 33/1/35 1/4/35
f 33/4/36 16/3/36 34/1/36
f 34/4/37 18/3/37 32/1/37
f 21/5/38 18/6/38 17/7/38
f 14/3/39 1/1/39 3/4/39
f 6/2/14 15/3/14 16/1/14
f 16/4/40 15/2/40 17/3/40
f 6/4/41 11/2/41 19/3/41
f 15/4/42 19/2/42 20/3/42
f 21/5/43 17/8/43 20/6/43
f 10/2/44 23/3/44 19/1/44
f 23/2/45 22/3/45 20/1/45
f 7/2/46 12/3/46 8/1/46
f 10/4/22 9/2/22 24/3/22
f 24/2/47 25/3/47 22/1/47
f 21/5/48 22/8/48 25/6/48
f 8/4/49 12/2/49 27/3/49
f 27/2/50 28/3/50 24/1/50
f 28/2/51 26/3/51 25/1/51
f 4/2/52 29/3/52 27/1/52
f 29/2/53 30/3/53 28/1/53
f 28/4/54 30/2/54 31/3/54
f 21/5/55 26/8/55 31/6/55
f 4/4/56 1/2/56 33/3/56
f 29/4/57 33/2/57 34/3/57
f 34/2/58 32/3/58 31/1/58
f 14/2/59 13/3/59 33/1/59
f 33/4/60 13/2/60 16/3/60
f 34/4/61 16/2/61 18/3/61
f 21/5/62 32/8/62 18/6/62
o Grp1
v 1.580000 1.140000 -1.245717
v 1.640000 -0.000000 -1.365716
v -0.000000 0.000000 -1.765717
v 2.289999 1.850000 0.124284
v 2.609999 -0.000000 -0.285716
v 3.419999 5.370000 1.314285
v 2.609998 -0.000000 1.734284
v 1.609998 0.670000 3.204284
v -0.000000 1.620000 -1.245717
v 2.630000 4.210000 -1.675715
v -0.000000 5.300000 -0.375717
v 0.899999 2.240000 1.994283
v 1.249999 2.190000 0.604284
v -1.580000 1.140000 -1.245718
v -2.290000 1.850000 0.124282
v -2.490000 4.210000 -1.675717
v -0.900001 2.240000 1.994283
v -1.250001 2.190000 0.604283
v -3.420001 5.370000 1.314281
v -1.640000 0.000000 -1.365717
v -2.610000 0.000000 -0.285717
v -2.610002 0.000000 1.734284
v -1.610003 0.670000 3.204282
v -1.140000 -1.920000 -1.365716
v -1.140002 -1.130000 3.204282
v -0.000002 1.300000 4.394283
v -0.000000 -2.300000 -1.355717
v -0.000002 -1.610000 3.014284
v 1.130000 -1.920000 -1.365716
v 1.139997 -1.130000 3.204284
v 2.929997 -0.560000 4.344284
v -1.250001 2.190000 0.604283
v 1.249999 2.190000 0.604284
v 1.249999 2.190000 0.604284
v -1.250001 2.190000 0.604283
v -0.000000 2.230000 -0.365716
v -0.000000 2.230000 -0.365716
v 0.009998 5.500000 4.604284
v -2.930002 -0.560000 4.324282
v -2.930002 -0.560000 4.324282
v -1.870001 -0.110000 2.694283
v 2.929997 -0.560000 4.344284
v 1.869999 -0.110000 2.694285
v 1.610000 -2.140000 -1.005716
v -1.610000 -2.140000 -1.015717
v -0.000000 -3.610000 -0.195716
v 0.249999 -3.080000 0.074284
v -0.240001 -3.080000 0.074284
v -1.840000 -1.960000 -0.685718
v -1.840001 -1.960000 1.734284
v -0.000000 -2.900000 -0.685717
v -0.000000 -2.730000 -0.365716
v -0.000002 -2.730000 1.424284
v 1.840000 -1.960000 -0.685717
v 1.839998 -1.960000 1.734284
v -0.000000 -2.870000 -0.645717
v -0.050000 -2.790000 -0.495717
v 0.050000 -2.790000 -0.495717
v -0.000000 -2.870000 -0.645717
v -0.050000 -2.790000 -0.495717
v 0.050000 -2.790000 -0.495717
vn 0.2354 0.1140 -0.9652
vn 0.7962 0.2589 -0.5468
vn 0.9127 -0.1668 -0.3731
vn 0.8079 -0.0762 0.5843
vn 0.0925 0.3043 -0.9481
vn 0.8943 -0.3457 -0.2843
vn 0.8834 0.4204 0.2073
vn -0.0925 0.3043 -0.9481
vn -0.9002 -0.3097 -0.3060
vn 0.7828 0.5828 -0.2181
vn -0.2354 0.1140 -0.9652
vn -0.7396 0.1088 -0.6642
vn -0.9854 0.1704 -0.0000
vn -0.8079 -0.0762 0.5843
vn -0.2365 -0.0616 -0.9697
vn -0.5512 -0.1439 0.8219
vn -0.0498 -0.1753 -0.9833
vn -0.0298 -0.4283 0.9031
vn 0.0502 -0.1753 -0.9832
vn 0.0298 -0.4283 0.9031
vn 0.2365 -0.0628 -0.9696
vn -0.5643 0.1473 0.8123
vn 0.5512 -0.1439 0.8219
vn 0.9854 0.1704 -0.0000
vn -0.9127 -0.1668 -0.3731
vn -0.4923 0.5011 0.7117
vn -0.2792 0.3868 -0.8789
vn -0.7828 0.5828 -0.2181
vn 0.2792 0.3868 -0.8789
vn 0.4921 0.4820 0.7249
vn -0.8834 0.4204 0.2073
vn 0.6130 -0.0026 -0.7901
vn -0.6130 -0.0026 -0.7901
vn 0.3626 0.7866 0.4997
vn -0.3550 0.7960 0.4903
vn 0.6900 0.5949 -0.4124
vn 0.0387 -0.1274 -0.9911
vn -0.6700 0.6101 -0.4229
vn -0.0382 -0.1258 -0.9913
vn -0.0000 0.6123 0.7906
vn -0.0000 0.6250 -0.7806
vn 0.7396 0.1088 -0.6642
vn -0.7962 0.2589 -0.5468
vn -0.6390 0.7643 0.0863
vn 0.5577 0.1456 0.8172
vn 0.1107 -0.9741 -0.1969
vn 0.5832 -0.0420 0.8112
vn 0.9342 0.3404 -0.1066
vn -0.3570 0.4636 0.8110
vn -0.5840 -0.0392 0.8108
vn -0.9337 0.3430 -0.1029
vn 0.3570 0.4636 0.8110
vn 0.5438 -0.6528 -0.5274
vn 0.6385 0.7648 0.0858
vn 0.5499 -0.1461 -0.8224
vn -0.5474 -0.1425 -0.8247
vn -0.0000 -0.4539 0.8910
vn -0.1091 -0.9746 -0.1957
vn -0.5403 -0.6524 -0.5315
vn -0.8409 -0.0988 -0.5322
vn -0.9308 -0.3657 -0.0000
vn -0.7713 -0.3030 0.5598
vn -0.4077 -0.8906 0.2016
vn -0.3860 -0.9225 -0.0000
vn -0.2399 -0.7920 0.5614
vn 0.4544 -0.7867 0.4179
vn 0.3860 -0.9225 -0.0000
vn 0.2381 -0.7940 0.5593
vn 0.8342 -0.1028 -0.5418
vn 0.9308 -0.3657 -0.0000
vn 0.7881 -0.2935 0.5410
vn -0.1879 -0.6980 -0.6910
vn 0.1941 -0.7004 -0.6868
vn -0.9592 -0.1468 -0.2414
vn 0.9592 -0.1468 -0.2414
vn -0.0000 0.8913 0.4535
vn -0.7351 -0.1540 -0.6602
vn -0.7881 -0.2935 0.5410
vn -0.4565 -0.7857 0.4174
vn -0.2381 -0.7940 0.5593
vn 0.4081 -0.8892 0.2069
vn 0.2399 -0.7920 0.5614
vn 0.7351 -0.1540 -0.6602
vn 0.7713 -0.3030 0.5598
vn -0.2356 -0.7240 -0.6483
vn 0.2376 -0.7236 -0.6480
vn -0.8941 -0.2010 -0.4003
vn 0.8859 -0.2061 -0.4157
vt 0.034592 0.967019
vt 0.007248 0.994363
vt 0.007248 0.967019
vt 0.415682 0.713932
vt 0.388338 0.741276
vt 0.388338 0.713932
vt 0.415682 0.741276
vt 0.282712 0.468965
vt 0.255369 0.496309
vt 0.255369 0.468965
vt 0.618355 0.881645
vt 0.502739 0.997261
vt 0.618355 0.997261
vt 0.753052 0.880868
vt 0.868503 0.996319
vt 0.868503 0.880868
vt 0.002199 0.881105
vt 0.118895 0.997801
vt 0.118895 0.881105
vt 0.373406 0.875283
vt 0.252931 0.995758
vt 0.373406 0.995758
vt 0.002199 0.997801
vt 0.252931 0.875283
vt 0.502739 0.881645
vt 0.753052 0.996319
vt 0.282712 0.496309
s 0
usemtl Texture
f 35/9/63 36/10/63 37/11/63
f 35/9/64 38/10/64 39/11/64
f 38/9/65 40/10/65 41/11/65
f 41/9/66 40/10/66 42/11/66
f 43/9/67 35/10/67 37/11/67
f 38/10/68 35/11/68 44/9/68
f 45/9/69 46/10/69 47/11/69
f 48/9/70 43/10/70 37/11/70
f 48/9/71 49/10/71 50/11/71
f 51/9/72 52/10/72 53/11/72
f 54/9/73 48/10/73 37/11/73
f 48/9/74 54/10/74 55/11/74
f 49/9/75 55/10/75 56/11/75
f 53/9/76 56/10/76 57/11/76
f 58/12/77 54/13/77 37/14/77
f 57/9/78 59/10/78 60/11/78
f 61/12/79 58/13/79 37/14/79
f 59/9/80 62/10/80 60/11/80
f 63/12/81 61/13/81 37/14/81
f 62/9/82 64/10/82 60/11/82
f 36/12/83 63/13/83 37/14/83
f 42/9/84 64/10/84 65/11/84
f 64/9/85 42/10/85 60/11/85
f 41/9/86 39/10/86 38/11/86
f 56/9/87 53/10/87 49/11/87
f 50/9/88 49/10/88 66/11/88
f 40/9/89 38/10/89 67/11/89
f 40/9/90 67/10/90 46/11/90
f 52/9/91 49/10/91 53/11/91
f 68/9/92 38/10/92 44/11/92
f 69/9/93 51/10/93 45/11/93
f 47/9/94 70/10/94 45/11/94
f 45/9/95 70/10/95 69/11/95
f 66/9/96 71/10/96 50/11/96
f 44/9/97 71/10/97 68/11/97
f 50/9/98 71/10/98 43/11/98
f 50/9/99 43/10/99 48/11/99
f 43/9/100 71/10/100 44/11/100
f 35/9/101 43/10/101 44/11/101
f 45/9/102 51/10/102 46/11/102
f 72/9/103 46/10/103 51/11/103
f 36/10/104 35/11/104 39/9/104
f 55/9/105 49/10/105 48/11/105
f 57/9/106 56/10/106 73/11/106
f 73/9/107 59/10/107 57/11/107
f 74/14/108 56/15/108 75/13/108
f 72/9/109 60/10/109 42/11/109
f 42/9/110 46/10/110 72/11/110
f 40/9/111 46/10/111 42/11/111
f 57/9/112 60/10/112 72/11/112
f 72/9/113 51/10/113 57/11/113
f 57/9/114 51/10/114 53/11/114
f 76/14/115 64/15/115 77/13/115
f 42/9/116 65/10/116 41/11/116
f 78/12/117 63/13/117 36/14/117
f 54/12/118 58/13/118 79/14/118
f 80/16/119 81/17/119 82/18/119
f 77/14/120 41/15/120 76/13/120
f 75/14/121 59/15/121 74/13/121
f 83/13/122 54/12/122 79/15/122
f 55/19/123 84/20/123 56/21/123
f 84/22/124 75/23/124 56/24/124
f 79/13/125 86/12/125 83/15/125
f 86/25/126 84/26/126 83/27/126
f 84/28/127 62/29/127 59/30/127
f 78/13/128 86/12/128 85/15/128
f 86/25/129 89/26/129 87/31/129
f 89/28/130 62/29/130 87/32/130
f 36/15/131 88/14/131 78/12/131
f 39/19/132 89/20/132 88/33/132
f 89/22/133 77/23/133 64/34/133
f 58/13/134 85/12/134 79/15/134
f 85/15/135 63/14/135 78/12/135
f 80/17/136 91/16/136 90/35/136
f 92/35/137 80/18/137 93/16/137
f 82/17/138 95/35/138 94/35/138
f 83/13/139 55/14/139 54/12/139
f 55/19/123 83/33/123 84/20/123
f 84/22/140 59/34/140 75/23/140
f 79/13/141 85/14/141 86/12/141
f 86/25/126 87/31/126 84/26/126
f 84/28/142 87/32/142 62/29/142
f 78/13/143 88/14/143 86/12/143
f 86/25/129 88/27/129 89/26/129
f 89/28/144 64/30/144 62/29/144
f 36/15/145 39/13/145 88/14/145
f 39/19/132 41/21/132 89/20/132
f 89/22/146 41/24/146 77/23/146
f 58/13/147 61/14/147 85/12/147
f 85/15/148 61/13/148 63/14/148
f 80/17/149 82/18/149 91/16/149
f 92/35/150 81/17/150 80/18/150
f 82/17/138 81/17/138 95/35/138
o Grp10
v 0.230000 0.624644 -3.384592
v 0.000001 2.604644 -3.364592
v -0.110000 0.624644 -3.184590
v 0.230000 0.624644 -3.384592
v -0.110000 0.624644 -3.584590
v -0.110000 0.624644 -3.584590
vn 0.5064 0.0501 0.8608
vn 0.5059 0.0674 -0.8600
vn -0.9985 0.0555 -0.0000
vt 0.002623 0.970689
vt 0.029967 0.998033
vt 0.029967 0.970689
s 0
usemtl Texture
f 96/36/151 97/37/151 98/38/151
f 99/36/152 100/37/152 97/38/152
f 101/36/153 98/37/153 97/38/153
o Grp2
v -2.134795 -0.176216 -1.878704
v -3.070347 -0.257222 -1.923216
v -3.086906 0.087104 -2.084972
v -2.150483 0.148479 -2.029789
v -2.150483 0.148479 -2.029789
v -3.086906 0.087104 -2.084972
v -3.103466 0.052871 -1.706088
v -2.166172 0.117557 -1.673002
v -2.166172 0.117557 -1.673002
v -3.103466 0.052871 -1.706088
v -3.070347 -0.257222 -1.923216
v -2.134795 -0.176216 -1.878704
v -3.082557 -0.777860 -2.336603
v -3.080187 -0.791198 -1.564646
v -4.973577 -0.581735 -1.540056
v -4.979057 -0.577200 -2.037397
v -3.080187 -0.791198 -1.564646
v -3.099849 0.580711 -1.531814
v -4.988262 0.312489 -1.524302
v -4.973577 -0.581735 -1.540056
v -3.099849 0.580711 -1.531814
v -3.112182 0.599071 -2.312460
v -4.984653 0.320162 -2.007237
v -4.988262 0.312489 -1.524302
v -3.112182 0.599071 -2.312460
v -3.099849 0.580711 -1.531814
v -3.080187 -0.791198 -1.564646
v -3.082557 -0.777860 -2.336603
vn 0.0807 -0.4173 -0.9052
vn -0.0700 0.9941 0.0831
vn 0.0106 -0.5728 0.8196
vn -0.1078 -0.9940 -0.0168
vn 0.0104 -0.0238 0.9997
vn -0.1406 0.9900 0.0147
vn -0.1629 0.0138 -0.9866
vn -0.9999 -0.0066 0.0110
vn 0.9998 0.0216 -0.0027
vn 0.0794 -0.4207 -0.9037
vn -0.0716 0.9937 0.0866
vn -0.1101 -0.9939 -0.0078
vn 0.0065 -0.0175 0.9998
vn -0.1432 0.9894 0.0255
vn -0.1524 0.0322 -0.9878
vn -0.9998 -0.0163 -0.0077
vn 0.9998 0.0147 -0.0154
vt 0.407346 0.744997
vt 0.380003 0.717654
vt 0.407346 0.717654
vt 0.380003 0.744997
vt 0.005003 0.494997
vt 0.032346 0.467654
vt 0.032346 0.494997
vt 0.005003 0.467654
s 0
usemtl Texture
f 102/39/154 104/40/154 105/41/154
f 107/42/155 109/41/155 106/39/155
f 110/39/156 112/40/156 113/41/156
f 115/43/157 117/44/157 114/45/157
f 119/43/158 121/44/158 118/45/158
f 122/45/159 124/46/159 125/44/159
f 114/43/160 124/44/160 123/45/160
f 116/43/161 124/44/161 117/45/161
f 126/45/162 128/46/162 129/44/162
f 102/39/163 103/42/163 104/40/163
f 107/42/164 108/40/164 109/41/164
f 110/39/156 111/42/156 112/40/156
f 115/43/165 116/46/165 117/44/165
f 119/43/166 120/46/166 121/44/166
f 122/45/167 123/43/167 124/46/167
f 114/43/168 117/46/168 124/44/168
f 116/43/169 125/46/169 124/44/169
f 126/45/170 127/43/170 128/46/170
o Grp3
v 0.425591 0.093780 -5.507486
v 0.971880 -0.528104 -5.569366
v 1.431825 0.261090 -5.508358
v 1.370376 0.897522 -6.024766
v 0.851683 1.247734 -6.177439
v 0.251155 0.679942 -6.026509
v 1.929142 -1.119641 -6.648735
v 1.802697 -2.475695 -7.928082
v 2.321745 -0.927522 -7.802577
v 0.594993 -1.385234 -6.651350
v 0.368746 -1.311466 -7.816026
v 1.400656 -2.556701 -7.928954
v -0.047228 0.759699 -7.631255
v 0.751149 1.760303 -7.557172
v 1.915469 1.146238 -7.627769
v 0.661945 0.135455 -5.507486
v 0.909073 -0.114323 -5.532762
v 0.922391 -0.189855 -4.656111
v 0.676993 0.050113 -4.631706
v 0.909073 -0.114323 -5.532762
v 1.046020 0.203178 -5.507486
v 1.061068 0.117835 -4.631706
v 0.922391 -0.189855 -4.656111
v 0.425591 0.093780 -5.507486
v 0.327216 0.709284 -6.205826
v 0.948411 -0.452592 -6.465942
v 0.971880 -0.528104 -5.569366
v 1.323601 0.874858 -6.206697
v 0.327216 0.709284 -6.205826
v 1.061068 0.117835 -4.631706
v 1.046020 0.203178 -5.507486
v 0.661945 0.135455 -5.507486
v 0.676993 0.050113 -4.631706
v 0.948411 -0.452592 -6.465942
v 1.323601 0.874858 -6.206697
v 1.431825 0.261090 -5.508358
v 0.971880 -0.528104 -5.569366
v 1.915469 1.146238 -7.627769
v 2.321745 -0.927522 -7.802577
v 1.802697 -2.475695 -7.928082
vn 0.0151 -0.0858 0.9962
vn -0.0634 0.3185 0.9458
vn 0.9102 -0.3259 0.2555
vn -0.7607 -0.6401 0.1072
vn -0.0151 0.0858 -0.9962
vn -0.7126 -0.6994 -0.0559
vn 0.9120 -0.4072 -0.0489
vn -0.7526 -0.6575 -0.0357
vn -0.1217 0.7361 0.6659
vn -0.1728 0.9800 0.0985
vn 0.8643 -0.4987 -0.0646
vn 0.1352 -0.6863 0.7146
vn -0.9624 -0.2088 0.1737
vn 0.4611 0.8422 0.2793
vn 0.9283 0.1522 0.3393
vn -0.0097 0.0840 -0.9964
vn -0.7616 0.5874 0.2737
vn 0.0531 -0.2811 0.9582
vn -0.7008 -0.7115 -0.0507
vn 0.9184 -0.3919 -0.0540
vn -0.8771 -0.4148 -0.2420
vn -0.1218 0.7361 0.6658
vn 0.9265 -0.1996 -0.3190
vn 0.1368 -0.6865 0.7141
vn -0.9628 -0.2113 0.1685
vn 0.4753 0.8305 0.2905
vn 0.9275 0.1530 0.3411
vn -0.0093 0.0822 -0.9966
vn -0.0138 0.0790 -0.9968
vn -0.6569 0.7370 0.1588
vn 0.0541 -0.2814 0.9581
vt 0.032346 0.470155
vt 0.005003 0.497499
vt 0.005003 0.470155
vt 0.498717 0.722001
vt 0.471373 0.749344
vt 0.471373 0.722001
vt 0.032346 0.997499
vt 0.005003 0.970155
vt 0.005003 0.997499
vt 0.032346 0.970155
vt 0.032346 0.497499
vt 0.498717 0.749344
vt 0.251595 0.630502
vt 0.369498 0.657125
vt 0.251595 0.657125
vt 0.369498 0.630502
vt 0.369498 0.748405
vt 0.251595 0.748405
s 0
usemtl Texture
f 130/47/171 131/48/171 132/49/171
f 133/50/172 134/51/172 135/52/172
f 136/50/173 137/51/173 138/52/173
f 139/50/174 140/51/174 141/52/174
f 142/50/175 143/51/175 144/52/175
f 146/53/176 148/54/176 145/55/176
f 149/55/177 151/56/177 152/54/177
f 153/57/178 155/49/178 156/47/178
f 130/47/179 157/48/179 158/49/179
f 159/55/180 161/56/180 162/54/180
f 163/57/181 165/49/181 166/47/181
f 141/58/182 136/52/182 139/50/182
f 139/59/183 142/60/183 140/61/183
f 134/58/184 167/52/184 143/50/184
f 136/61/185 167/62/185 133/60/185
f 144/58/175 140/52/175 142/50/175
f 169/58/186 140/52/186 168/50/186
f 142/51/187 134/50/187 143/58/187
f 139/59/188 133/63/188 135/62/188
f 146/53/189 147/56/189 148/54/189
f 149/55/190 150/53/190 151/56/190
f 153/57/191 154/48/191 155/49/191
f 130/47/192 132/57/192 157/48/192
f 159/55/180 160/53/180 161/56/180
f 163/57/193 164/48/193 165/49/193
f 141/58/194 137/51/194 136/52/194
f 139/59/195 135/62/195 142/60/195
f 134/58/196 133/51/196 167/52/196
f 136/61/197 138/59/197 167/62/197
f 144/58/198 168/51/198 140/52/198
f 169/58/199 141/51/199 140/52/199
f 142/51/200 135/52/200 134/50/200
f 139/59/201 136/64/201 133/63/201
o Grp4
v 1.020332 -0.199104 -1.537819
v 1.014483 -0.015320 -1.856236
v 2.184186 0.002341 -1.892026
v 2.379988 -0.177314 -1.574717
v 2.184186 0.002341 -1.892026
v 1.014483 -0.015320 -1.856236
v 1.022680 0.157915 -1.519603
v 2.202382 0.175793 -1.555450
v 1.022680 0.157915 -1.519603
v 1.020332 -0.199104 -1.537819
v 2.379988 -0.177314 -1.574717
v 2.202382 0.175793 -1.555450
vn 0.0006 -0.8701 -0.4930
vn -0.0274 0.8892 -0.4568
vn 0.0311 -0.0511 0.9982
vn -0.0022 -0.8661 -0.4999
vn -0.0274 0.8891 -0.4569
vn 0.0278 -0.0405 0.9988
vt 0.409848 0.744997
vt 0.382504 0.717654
vt 0.409848 0.717654
vt 0.382504 0.744997
s 0
usemtl Texture
f 170/65/202 172/66/202 173/67/202
f 174/65/203 176/66/203 177/67/203
f 179/68/204 181/67/204 178/65/204
f 170/65/205 171/68/205 172/66/205
f 174/65/206 175/68/206 176/66/206
f 179/68/207 180/66/207 181/67/207
o Grp5
v 0.715918 0.113844 -3.449030
v 0.517556 -0.166157 -3.481475
v 0.864374 -0.176157 -4.775816
v 1.060147 0.103844 -4.733711
v 0.517556 -0.166157 -3.481475
v 0.339207 0.113843 -3.549970
v 0.683436 0.103843 -4.834651
v 0.864374 -0.176157 -4.775816
v 0.683436 0.103843 -4.834651
v 0.339207 0.113843 -3.549970
v 0.715918 0.113844 -3.449030
v 1.060147 0.103844 -4.733711
vn 0.7849 -0.5811 0.2148
vn -0.8005 -0.5613 -0.2102
vn 0.0019 1.0000 -0.0073
vn 0.7850 -0.5810 0.2148
vn -0.8004 -0.5614 -0.2101
vt 0.031186 0.996158
vt 0.003842 0.968814
vt 0.031186 0.968814
vt 0.003842 0.996158
s 0
usemtl Texture
f 182/69/208 184/70/208 185/71/208
f 187/72/209 189/71/209 186/69/209
f 191/72/210 193/71/210 190/69/210
f 182/69/211 183/72/211 184/70/211
f 187/72/212 188/70/212 189/71/212
f 191/72/210 192/70/210 193/71/210
o Grp6
v 2.181938 0.018302 -1.879202
v 3.121938 0.019174 -1.889164
v 3.121938 -0.198864 -1.576981
v 2.181938 -0.188031 -1.586071
v 2.181938 0.170599 -1.554695
v 3.121938 0.179690 -1.543860
v 3.121938 0.019174 -1.889164
v 2.181938 0.018302 -1.879202
v 2.181938 -0.188031 -1.586071
v 3.121938 -0.198864 -1.576981
v 3.121938 0.179690 -1.543860
v 2.181938 0.170599 -1.554695
v 5.011938 -0.453019 -1.769865
v 5.031939 -0.445044 -1.287333
v 3.141938 -0.661218 -1.225942
v 3.121938 -0.673804 -1.999983
v 5.031939 -0.445044 -1.287333
v 5.041937 0.460247 -1.308514
v 3.161938 0.726604 -1.255095
v 3.141938 -0.661218 -1.225942
v 5.041937 0.460247 -1.308514
v 5.031938 0.452272 -1.791045
v 3.131938 0.704056 -2.030010
v 3.161938 0.726604 -1.255095
v 3.121938 -0.673804 -1.999983
v 3.141938 -0.661218 -1.225942
v 3.161938 0.726604 -1.255095
v 3.131938 0.704056 -2.030010
vn -0.0053 -0.8177 -0.5756
vn -0.0053 0.9052 -0.4248
vn -0.0106 -0.0872 0.9961
vn 0.1144 -0.9933 0.0132
vn 0.0298 0.0230 0.9993
vn 0.1397 0.9900 -0.0193
vn 0.1214 -0.0259 -0.9923
vn 0.9995 -0.0226 -0.0203
vn -0.9996 0.0078 0.0257
vn -0.0039 -0.8198 -0.5726
vn -0.0039 0.9068 -0.4215
vn 0.1140 -0.9934 0.0117
vn 0.0313 0.0205 0.9993
vn 0.1355 0.9902 -0.0341
vn 0.1234 -0.0225 -0.9921
vn 0.9991 -0.0120 -0.0412
vn -0.9992 0.0152 0.0382
vt 0.380003 0.742496
vt 0.407346 0.715152
vt 0.407346 0.742496
vt 0.380003 0.715152
vt 0.032346 0.492496
vt 0.005003 0.465152
vt 0.032346 0.465152
vt 0.005003 0.492496
s 0
usemtl Texture
f 195/73/213 197/74/213 194/75/213
f 198/75/214 200/76/214 201/74/214
f 203/73/215 205/74/215 202/75/215
f 206/77/216 208/78/216 209/79/216
f 211/80/217 213/79/217 210/77/217
f 215/80/218 217/79/218 214/77/218
f 206/80/219 216/79/219 215/77/219
f 214/80/220 206/79/220 215/77/220
f 219/80/221 221/79/221 218/77/221
f 195/73/222 196/76/222 197/74/222
f 198/75/223 199/73/223 200/76/223
f 203/73/215 204/76/215 205/74/215
f 206/77/224 207/80/224 208/78/224
f 211/80/225 212/78/225 213/79/225
f 215/80/226 216/78/226 217/79/226
f 206/80/227 209/78/227 216/79/227
f 214/80/228 207/78/228 206/79/228
f 219/80/229 220/78/229 221/79/229
o Grp7
v -1.483923 0.213664 -5.492367
v -0.956945 -0.532441 -5.553375
v -0.466936 0.134689 -5.491496
v -0.115126 0.713778 -6.010519
v -0.738893 1.271474 -6.117241
v -1.241693 0.917091 -5.941161
v -2.242520 -0.884491 -7.721961
v -1.694020 -2.417230 -7.911593
v -1.789046 -1.093902 -6.592399
v -1.298863 -2.490051 -7.935004
v -0.275830 -1.237806 -7.838140
v -0.444977 -1.335369 -6.673462
v -1.859365 1.200238 -7.517266
v -0.719866 1.833169 -7.483528
v 0.107249 0.846055 -7.623483
v -0.713575 0.069277 -4.615716
v -0.937125 -0.191165 -4.640120
v -0.930441 -0.114760 -5.516770
v -0.706023 0.155606 -5.491496
v -0.937125 -0.191165 -4.640120
v -1.102091 0.103268 -4.615716
v -1.094538 0.189597 -5.491496
v -0.930441 -0.114760 -5.516770
v -1.483923 0.213664 -5.492367
v -1.428812 0.843584 -6.179872
v -0.940146 -0.455171 -6.449952
v -0.956945 -0.532441 -5.553375
v -0.421787 0.765481 -6.179000
v -1.428812 0.843584 -6.179872
v -0.466936 0.134689 -5.491496
v -0.956945 -0.532441 -5.553375
v -0.940146 -0.455171 -6.449952
v -0.421787 0.765481 -6.179000
v -0.713575 0.069277 -4.615716
v -0.706023 0.155606 -5.491496
v -1.094538 0.189597 -5.491496
v -1.102091 0.103268 -4.615716
v -1.859365 1.200238 -7.517266
v -2.242520 -0.884491 -7.721961
v -1.694020 -2.417230 -7.911593
vn -0.0076 -0.0868 0.9962
vn 0.1137 0.3080 0.9446
vn -0.8887 -0.3541 0.2912
vn 0.7708 -0.6343 0.0588
vn -0.0333 0.1129 -0.9930
vn 0.7708 -0.6346 -0.0559
vn -0.8731 -0.4851 -0.0489
vn -0.8176 -0.5722 -0.0646
vn 0.0563 0.7338 0.6770
vn 0.9107 -0.3323 -0.2451
vn 0.0867 0.9914 0.0985
vn -0.0844 -0.7059 0.7033
vn 0.9734 -0.1918 0.1253
vn -0.4657 0.8207 0.3309
vn -0.9158 0.1257 0.3815
vn -0.0350 0.1040 -0.9940
vn -0.0391 0.1089 -0.9933
vn 0.7584 0.5991 0.2568
vn 0.0029 -0.3082 0.9513
vn 0.7602 -0.6477 -0.0507
vn -0.8808 -0.4704 -0.0540
vn -0.9059 -0.2736 -0.3233
vn 0.0564 0.7339 0.6769
vn 0.8070 -0.5894 -0.0357
vn -0.0886 -0.7064 0.7022
vn 0.9737 -0.1950 0.1182
vn -0.4641 0.8222 0.3296
vn -0.9117 0.1293 0.3900
vn -0.0390 0.1095 -0.9932
vn -0.0388 0.1086 -0.9933
vn 0.6445 0.7497 0.1503
vn 0.0019 -0.3086 0.9512
vt 0.032513 0.468143
vt 0.005169 0.495487
vt 0.005169 0.468143
vt 0.498612 0.721397
vt 0.471268 0.748741
vt 0.471268 0.721397
vt 0.001967 0.998689
vt 0.029311 0.971345
vt 0.001967 0.971345
vt 0.029311 0.998689
vt 0.032513 0.495487
vt 0.498612 0.748741
vt 0.369196 0.630804
vt 0.251897 0.657290
vt 0.251897 0.630804
vt 0.369196 0.657290
vt 0.369196 0.748103
vt 0.251897 0.748103
s 0
usemtl Texture
f 222/81/230 223/82/230 224/83/230
f 225/84/231 226/85/231 227/86/231
f 228/84/232 229/85/232 230/86/232
f 231/84/233 232/85/233 233/86/233
f 234/84/234 235/85/234 236/86/234
f 237/87/235 239/88/235 240/89/235
f 242/90/236 244/89/236 241/87/236
f 245/91/237 247/83/237 248/81/237
f 250/83/238 224/91/238 249/82/238
f 251/91/239 253/83/239 254/81/239
f 256/90/240 258/89/240 255/87/240
f 230/85/241 231/84/241 233/92/241
f 236/93/242 233/94/242 232/95/242
f 259/85/243 226/84/243 235/92/243
f 259/96/244 230/95/244 227/93/244
f 236/92/245 260/86/245 234/84/245
f 232/85/246 261/84/246 260/92/246
f 226/92/247 236/86/247 235/84/247
f 227/97/248 233/95/248 225/93/248
f 237/87/249 238/90/249 239/88/249
f 242/90/250 243/88/250 244/89/250
f 245/91/251 246/82/251 247/83/251
f 250/83/252 222/81/252 224/91/252
f 251/91/253 252/82/253 253/83/253
f 256/90/240 257/88/240 258/89/240
f 230/85/254 229/86/254 231/84/254
f 236/93/255 225/96/255 233/94/255
f 259/85/256 227/86/256 226/84/256
f 259/96/257 228/94/257 230/95/257
f 236/92/258 232/85/258 260/86/258
f 232/85/259 231/86/259 261/84/259
f 226/92/260 225/85/260 236/86/260
f 227/97/261 230/98/261 233/95/261
o Grp8
v -0.821232 0.075246 -1.928924
v -1.033170 -0.251997 -1.790019
v -2.198718 -0.188930 -1.875580
v -2.176057 0.143977 -2.030046
v -1.020218 0.067835 -1.586945
v -2.195728 0.131201 -1.673326
v -2.198718 -0.188930 -1.875580
v -1.033170 -0.251997 -1.790019
v -1.020218 0.067835 -1.586945
v -0.821232 0.075246 -1.928924
v -2.176057 0.143977 -2.030046
v -2.195728 0.131201 -1.673326
vn 0.0467 -0.4158 -0.9083
vn -0.0905 -0.5312 0.8424
vn 0.0510 0.9980 0.0386
vn 0.0436 -0.4229 -0.9051
vn -0.0906 -0.5313 0.8423
vn 0.0470 0.9977 0.0489
vt 0.382504 0.742496
vt 0.409848 0.715152
vt 0.409848 0.742496
vt 0.382504 0.715152
s 0
usemtl Texture
f 263/99/262 265/100/262 262/101/262
f 267/99/263 269/100/263 266/101/263
f 270/101/264 272/102/264 273/100/264
f 263/99/265 264/102/265 265/100/265
f 267/99/266 268/102/266 269/100/266
f 270/101/267 271/99/267 272/102/267
o Grp9
v -0.385378 0.100822 -3.532950
v -0.625181 -0.140195 -3.479049
v -0.970321 -0.130347 -4.773839
v -0.727930 0.110670 -4.818082
v -0.625181 -0.140195 -3.479049
v -0.756366 0.168545 -3.433546
v -1.098918 0.178393 -4.718676
v -0.970321 -0.130347 -4.773839
v -0.385378 0.100822 -3.532950
v -0.727930 0.110670 -4.818082
v -1.098918 0.178393 -4.718676
v -0.756366 0.168545 -3.433546
vn 0.6755 -0.7136 -0.1855
vn -0.8825 -0.4091 0.2321
vn 0.1697 0.9848 -0.0377
vn 0.6756 -0.7135 -0.1855
vn -0.8825 -0.4092 0.2321
vt 0.006253 0.993747
vt 0.033597 0.966403
vt 0.033597 0.993747
vt 0.006253 0.966403
s 0
usemtl Texture
f 275/103/268 277/104/268 274/105/268
f 278/105/269 280/106/269 281/104/269
f 283/103/270 285/104/270 282/105/270
f 275/103/271 276/106/271 277/104/271
f 278/105/272 279/103/272 280/106/272
f 283/103/270 284/106/270 285/104/270
