# Blender 4.2.1 LTS
# www.blender.org
mtllib explosion.mtl.mtl
o Icosphere
v 0.000000 0.000000 -3.000000
v 2.170822 -1.577176 -1.341659
v -0.829164 -2.551948 -1.341660
v -2.683279 0.000000 -1.341647
v -0.829164 2.551948 -1.341660
v 2.170822 1.577176 -1.341659
v 0.829164 -2.551948 1.341660
v -4.063509 -0.877748 1.601429
v -5.752064 1.097296 2.223056
v 0.829164 2.551948 1.341660
v 5.396051 1.752389 1.688761
v 0.000000 0.000000 3.000000
v -0.487367 -1.499986 -2.551963
v 2.454543 -2.788171 -4.198452
v 0.788606 -2.427035 -1.577213
v 2.551944 0.000000 -1.577208
v 1.275968 0.927034 -2.551963
v -1.577189 0.000000 -2.551955
v -2.064568 -1.499991 -1.577209
v -0.487367 1.499986 -2.551963
v -2.064568 1.499991 -1.577209
v 0.788606 2.427035 -1.577213
v 2.853173 -0.927038 0.000000
v 2.853173 0.927038 0.000000
v 0.000000 -3.000000 0.000000
v 1.763357 -2.427050 0.000000
v -2.853173 -0.927038 0.000000
v -1.763357 -2.427050 0.000000
v -1.763357 2.427050 0.000000
v -2.853173 0.927038 0.000000
v 1.763357 2.427050 0.000000
v 0.000000 3.000000 0.000000
v 2.064568 -1.499991 1.577209
v -0.788606 -2.427035 1.577213
v -2.551944 0.000000 1.577208
v -0.788606 2.427035 1.577213
v 2.064568 1.499991 1.577209
v 0.487367 -1.499986 2.551963
v 1.577189 0.000000 2.551955
v -1.275968 -0.927034 2.551963
v -1.275968 0.927034 2.551963
v 1.484888 -4.570082 3.884844
v 1.120435 3.448393 2.866801
v 0.291271 0.896446 4.525141
v -0.497336 3.323481 3.102354
v 2.355839 2.396436 3.102350
v 1.868460 0.896446 4.077096
v -0.984697 1.823480 4.077104
v 0.778637 2.396431 4.077105
v 2.720292 -3.518125 4.120394
v -0.132882 -4.445168 4.120398
v 1.143091 -3.518119 5.095148
v 2.232913 -2.018134 5.095140
v -0.620244 -2.945168 5.095148
v -1.678021 -5.164458 -1.689512
v -0.848857 -5.612511 -0.347852
v -2.612214 -5.039561 -0.347852
v -2.011176 -0.655908 -4.811018
v -4.694455 -0.655908 -3.152665
v -2.498543 -2.155894 -4.362981
v -3.588366 -0.655908 -4.362973
v -4.075745 -2.155899 -3.388227
v -2.498543 0.844078 -4.362981
v -4.864350 -1.582946 -1.811018
v -3.774533 -3.082958 -1.811018
v -4.864350 0.271130 -1.811018
v 0.496642 3.014609 -5.499701
v -0.332522 5.566557 -3.841361
v 1.352709 1.584125 -3.268538
v -1.080548 3.014609 -5.051657
v -0.072509 3.713592 -3.835894
v 2.041071 4.272329 -3.796039
v 1.857600 3.247486 -0.956243
v 0.236206 4.621832 -1.570148
v 5.896321 -2.680561 -2.701728
v 6.277443 -1.103385 -2.937277
v 6.578672 -2.030423 -1.360069
v 0.217407 -4.074736 -2.238295
v 1.763357 -2.427050 0.000000
vn 0.1776 -0.0345 -0.9835
vn 0.5752 -0.8142 -0.0788
vn -0.2043 -0.6289 -0.7501
vn -0.3442 0.7816 -0.5202
vn -0.7688 0.6087 -0.1960
vn 0.7236 0.5257 -0.4472
vn 0.3038 -0.9350 -0.1828
vn -0.9628 0.0414 0.2669
vn -0.9579 -0.0097 0.2869
vn 0.3072 0.9454 -0.1085
vn 0.8794 0.4374 0.1880
vn -0.1674 -0.5151 0.8406
vn -0.0554 -0.7674 -0.6388
vn 0.4419 -0.5736 -0.6897
vn 0.3495 -0.8716 -0.3438
vn 0.8032 0.3891 -0.4512
vn 0.7785 0.1628 -0.6062
vn -0.6416 0.7330 -0.2260
vn 0.1350 -0.9315 -0.3378
vn -0.4681 0.0978 -0.8782
vn -0.6882 0.5000 -0.5257
vn 0.9663 -0.0236 -0.2563
vn 0.8808 -0.4554 0.1293
vn 0.7717 0.4695 -0.4290
vn 0.2755 -0.9501 0.1465
vn 0.5661 -0.7791 0.2693
vn -0.9411 -0.1785 0.2873
vn -0.6070 -0.7662 0.2109
vn -0.4796 0.8675 -0.1321
vn -0.9035 0.2699 -0.3328
vn 0.6912 0.7113 0.1277
vn -0.1545 0.9207 0.3583
vn 0.8644 -0.4871 0.1249
vn -0.4919 -0.8633 0.1130
vn -0.7431 -0.1312 0.6562
vn -0.3994 0.9064 0.1378
vn 0.6668 0.7259 0.1689
vn -0.1433 0.4411 0.8859
vn 0.5678 -0.2099 0.7960
vn -0.4705 -0.0853 0.8783
vn -0.6134 0.0018 0.7897
vn 0.3089 -0.9506 -0.0294
vn 0.3088 0.9504 0.0365
vn -0.1280 -0.3940 0.9101
vn -0.4934 0.8513 0.1784
vn 0.8996 0.3987 0.1784
vn 0.6550 -0.3540 0.6676
vn -0.7380 0.0986 0.6676
vn 0.1625 0.5000 0.8507
vn 0.9026 -0.4107 0.1291
vn -0.4888 -0.8628 0.1291
vn 0.0599 -0.1843 0.9810
vn 0.3500 0.4672 0.8119
vn -0.5578 0.1722 0.8119
vn -0.1396 -0.4298 -0.8921
vn 0.5171 -0.7953 0.3162
vn -0.8859 -0.3395 0.3162
vn 0.2922 -0.0400 -0.9555
vn -0.7665 0.4007 -0.5019
vn 0.0993 -0.7957 -0.5975
vn -0.6153 0.3318 -0.7150
vn -0.4701 -0.7371 -0.4855
vn -0.3462 0.8444 -0.4088
vn -0.9084 -0.3052 0.2858
vn -0.1684 -0.9848 0.0424
vn -0.6861 0.7273 0.0166
vn 0.0851 0.3340 -0.9387
vn -0.4096 0.7914 -0.4538
vn 0.9155 -0.2793 -0.2896
vn 0.7774 -0.4390 -0.4505
vn -0.3355 -0.0789 -0.9387
vn 0.8025 0.3091 -0.5103
vn 0.9498 0.1551 0.2716
vn -0.1548 0.8351 0.5279
vn 0.1815 -0.8323 -0.5239
vn 0.5327 0.5408 -0.6509
vn 0.7724 -0.1967 0.6039
vn 0.8477 -0.0837 -0.5239
vn 0.3392 -0.0335 0.9401
vt 0.181819 0.000000
vt 0.227273 0.078731
vt 0.136365 0.078731
vt 0.272728 0.157461
vt 0.318182 0.078731
vt 0.363637 0.157461
vt 0.909091 0.157461
vt 0.954545 0.078731
vt 0.863636 0.236191
vt 0.772727 0.236191
vt 0.590909 0.078731
vt 0.545455 0.000000
vt 0.318182 0.236191
vt 0.090910 0.157461
vt 0.181819 0.157461
vt 0.136365 0.236191
vt 0.772727 0.078731
vt 0.681818 0.078731
vt 0.636364 0.157461
vt 0.727273 0.157461
vt 0.681818 0.236191
vt 0.454546 0.157461
vt 0.545455 0.157461
vt 0.500000 0.236191
vt 0.227273 0.236191
vt 0.045455 0.236191
vt 0.590909 0.236191
vt 0.409092 0.236191
vt 0.090910 0.314921
vt 0.045455 0.393651
vt 0.000000 0.314921
vt 0.727273 0.314921
vt 0.818182 0.314921
vt 0.772727 0.393651
vt 0.272728 0.472382
vt 0.318182 0.393651
vt 0.363637 0.314921
vt 0.454546 0.314921
vt 0.409092 0.393651
vt 0.545455 0.314921
vt 0.681818 0.393651
vt 0.636364 0.314921
vt 0.818182 0.472382
vt 0.863636 0.393651
vt 0.909091 0.314921
vt 0.136365 0.393651
vt 0.090910 0.472382
vt 0.227273 0.393651
vt 0.272728 0.314921
vt 0.181819 0.314921
vt 0.818182 0.157461
vt 0.954545 0.236191
vt 1.000000 0.157461
vt 0.500000 0.078731
vt 0.409092 0.078731
vt 0.363637 0.000000
vt 0.590909 0.393651
vt 0.500000 0.393651
vt 0.454546 0.472382
vt 0.636364 0.472382
vt 0.909091 0.000000
vt 0.863636 0.078731
vt 0.727273 0.000000
s 1
f 1/1/1 14/2/14 13/3/13
f 2/4/2 14/5/14 16/6/16
f 19/7/19 60/8/60 13/8/13
f 27/9/27 66/10/66 64/9/64
f 20/11/20 67/12/67 1/12/1
f 23/13/23 76/6/76 16/6/16
f 3/14/3 15/15/15 25/16/25
f 18/17/18 63/18/63 61/17/61
f 5/19/5 21/20/21 29/21/29
f 6/22/6 22/23/22 31/24/31
f 2/4/2 23/13/23 26/25/26
f 28/26/28 56/16/56 25/16/25
f 1/12/1 63/11/63 20/11/20
f 5/19/5 29/21/29 32/27/32
f 6/22/6 31/24/31 24/28/24
f 34/29/34 54/30/54 40/30/40
f 8/31/8 34/29/34 40/30/40
f 9/32/9 35/33/35 41/34/41
f 12/35/12 47/36/47 44/35/44
f 11/37/11 37/38/37 39/39/39
f 39/39/39 46/38/46 47/39/47
f 10/40/10 46/38/46 37/38/37
f 41/41/41 45/42/45 36/42/36
f 10/40/10 45/42/45 43/40/43
f 12/43/12 48/34/48 41/34/41
f 36/42/36 9/32/9 41/41/41
f 41/34/41 40/44/40 12/43/12
f 41/34/41 35/33/35 40/44/40
f 35/33/35 8/45/8 40/44/40
f 40/30/40 38/46/38 12/47/12
f 38/48/38 53/36/53 39/36/39
f 33/49/33 53/36/53 50/49/50
f 38/48/38 39/36/39 12/35/12
f 38/46/38 54/30/54 52/46/52
f 33/49/33 11/37/11 39/36/39
f 24/28/24 37/38/37 11/37/11
f 24/28/24 31/24/31 37/38/37
f 31/24/31 10/40/10 37/38/37
f 32/27/32 36/42/36 10/40/10
f 32/27/32 29/21/29 36/42/36
f 29/21/29 9/32/9 36/42/36
f 30/10/30 35/33/35 9/32/9
f 30/10/30 27/9/27 35/33/35
f 27/9/27 8/45/8 35/33/35
f 28/26/28 34/29/34 8/31/8
f 28/26/28 25/16/25 34/29/34
f 25/16/25 7/50/7 34/29/34
f 26/25/26 33/49/33 7/50/7
f 26/25/26 23/13/23 33/49/33
f 23/13/23 11/37/11 33/49/33
f 31/24/31 32/27/32 10/40/10
f 32/27/32 73/24/73 74/27/74
f 5/19/5 71/18/71 20/18/20
f 29/21/29 30/10/30 9/32/9
f 29/21/29 21/20/21 30/10/30
f 21/20/21 4/51/4 30/10/30
f 27/9/27 28/52/28 8/45/8
f 13/3/13 58/1/58 1/1/1
f 19/7/19 3/53/3 28/52/28
f 25/16/25 26/25/26 7/50/7
f 25/16/25 15/15/15 26/25/26
f 15/15/15 2/4/2 26/25/26
f 23/13/23 24/28/24 11/37/11
f 23/13/23 16/6/16 24/28/24
f 16/6/16 6/22/6 24/28/24
f 17/54/17 22/23/22 6/22/6
f 22/23/22 69/54/69 72/23/72
f 20/18/20 70/17/70 71/18/71
f 20/18/20 21/20/21 5/19/5
f 20/18/20 18/17/18 21/20/21
f 18/17/18 4/51/4 21/20/21
f 19/7/19 65/52/65 62/7/62
f 4/51/4 66/10/66 30/10/30
f 13/8/13 3/53/3 19/7/19
f 16/6/16 17/55/17 6/22/6
f 16/6/16 14/5/14 17/55/17
f 14/5/14 1/56/1 17/55/17
f 13/3/13 15/15/15 3/14/3
f 13/3/13 14/2/14 15/15/15
f 14/2/14 2/4/2 15/15/15
f 43/40/43 45/42/45 49/57/49
f 47/39/47 49/58/49 44/59/44
f 47/39/47 46/38/46 49/58/49
f 46/38/46 43/40/43 49/58/49
f 49/57/49 48/41/48 44/60/44
f 49/57/49 45/42/45 48/41/48
f 42/50/42 50/49/50 52/48/52
f 54/30/54 51/29/51 52/46/52
f 51/29/51 42/50/42 52/46/52
f 52/48/52 50/49/50 53/36/53
f 7/50/7 50/49/50 42/50/42
f 7/50/7 51/29/51 34/29/34
f 55/14/55 56/16/56 57/26/57
f 28/52/28 55/53/55 57/52/57
f 25/16/25 55/14/55 3/14/3
f 58/61/58 60/8/60 61/62/61
f 58/63/58 61/17/61 63/18/63
f 59/51/59 62/7/62 64/9/64
f 59/51/59 64/9/64 66/10/66
f 64/9/64 62/7/62 65/52/65
f 61/62/61 62/7/62 59/51/59
f 61/62/61 60/8/60 62/7/62
f 27/9/27 65/52/65 28/52/28
f 4/51/4 61/17/61 59/51/59
f 67/12/67 71/11/71 69/54/69
f 73/24/73 72/23/72 74/27/74
f 72/23/72 68/19/68 74/27/74
f 69/54/69 71/11/71 72/23/72
f 71/11/71 68/19/68 72/23/72
f 5/19/5 74/27/74 68/19/68
f 22/23/22 73/24/73 31/24/31
f 1/56/1 69/55/69 17/55/17
f 75/4/75 76/6/76 77/13/77
f 2/4/2 77/13/77 23/13/23
f 2/4/2 76/6/76 75/4/75
f 15/15/15 79/25/79 78/15/78
f 19/7/19 62/7/62 60/8/60
f 27/9/27 30/10/30 66/10/66
f 20/11/20 71/11/71 67/12/67
f 23/13/23 77/13/77 76/6/76
f 18/17/18 20/18/20 63/18/63
f 28/26/28 57/26/57 56/16/56
f 1/12/1 58/12/58 63/11/63
f 34/29/34 51/29/51 54/30/54
f 12/35/12 39/36/39 47/36/47
f 39/39/39 37/38/37 46/38/46
f 10/40/10 43/40/43 46/38/46
f 41/41/41 48/41/48 45/42/45
f 10/40/10 36/42/36 45/42/45
f 12/43/12 44/43/44 48/34/48
f 38/48/38 52/48/52 53/36/53
f 33/49/33 39/36/39 53/36/53
f 38/46/38 40/30/40 54/30/54
f 32/27/32 31/24/31 73/24/73
f 5/19/5 68/19/68 71/18/71
f 13/3/13 60/3/60 58/1/58
f 22/23/22 17/54/17 69/54/69
f 20/18/20 18/17/18 70/17/70
f 19/7/19 28/52/28 65/52/65
f 4/51/4 59/51/59 66/10/66
f 7/50/7 33/49/33 50/49/50
f 7/50/7 42/50/42 51/29/51
f 28/52/28 3/53/3 55/53/55
f 25/16/25 56/16/56 55/14/55
f 27/9/27 64/9/64 65/52/65
f 4/51/4 18/17/18 61/17/61
f 5/19/5 32/27/32 74/27/74
f 22/23/22 72/23/72 73/24/73
f 1/56/1 67/56/67 69/55/69
f 2/4/2 75/4/75 77/13/77
f 2/4/2 16/6/16 76/6/76
f 15/15/15 26/25/26 79/25/79
