# Blender 4.2.1 LTS
# www.blender.org
mtllib spring.mtl
o Plane
v -7.255372 -7.075002 -1.487092
v 7.255372 -7.075002 -1.487092
v -7.255372 7.075002 -1.487092
v 7.255372 7.075002 -1.487092
v -7.255372 -7.075002 0.141006
v 7.255372 -7.075002 0.141006
v -7.255372 7.075002 0.141006
v 7.255372 7.075002 0.141006
vn -0.0000 -0.0000 -1.0000
vn -0.0000 -0.0000 1.0000
vn 1.0000 -0.0000 -0.0000
vn -1.0000 -0.0000 -0.0000
vn -0.0000 1.0000 -0.0000
vn -0.0000 -1.0000 -0.0000
vt 0.000000 1.000000
vt 1.000000 0.000000
vt 0.000000 0.000000
vt 1.000000 1.000000
s 0
f 3/1/1 2/2/1 1/3/1
f 6/2/2 7/1/2 5/3/2
f 4/4/3 6/2/3 2/2/3
f 1/3/4 7/1/4 3/1/4
f 3/1/5 8/4/5 4/4/5
f 2/2/6 5/3/6 1/3/6
f 3/1/1 4/4/1 2/2/1
f 6/2/2 8/4/2 7/1/2
f 4/4/3 8/4/3 6/2/3
f 1/3/4 5/3/4 7/1/4
f 3/1/5 7/1/5 8/4/5
f 2/2/6 6/2/6 5/3/6
o Plane.001
v -4.638534 -4.666405 0.159815
v 4.638534 -4.666405 0.159815
v -4.638534 4.666405 0.159815
v 4.638534 4.666405 0.159815
v -4.638534 -4.666405 2.056068
v 4.638534 -4.666405 2.056068
v -4.638534 4.666405 2.056068
v 4.638534 4.666405 2.056068
vn -0.0000 -0.0000 -1.0000
vn -0.0000 -0.0000 1.0000
vn 1.0000 -0.0000 -0.0000
vn -1.0000 -0.0000 -0.0000
vn -0.0000 1.0000 -0.0000
vn -0.0000 -1.0000 -0.0000
vt 0.000000 1.000000
vt 1.000000 0.000000
vt 0.000000 0.000000
vt 1.000000 1.000000
s 0
f 11/5/7 10/6/7 9/7/7
f 14/6/8 15/5/8 13/7/8
f 12/8/9 14/6/9 10/6/9
f 9/7/10 15/5/10 11/5/10
f 11/5/11 16/8/11 12/8/11
f 10/6/12 13/7/12 9/7/12
f 11/5/7 12/8/7 10/6/7
f 14/6/8 16/8/8 15/5/8
f 12/8/9 16/8/9 14/6/9
f 9/7/10 13/7/10 15/5/10
f 11/5/11 15/5/11 16/8/11
f 10/6/12 14/6/12 13/7/12
o Plane.002
v -10.053353 -11.464137 1.907978
v 10.053353 -11.464137 1.907978
v -10.053353 11.464137 1.907978
v 10.053353 11.464137 1.907978
v -10.053353 -11.464137 3.804231
v 10.053353 -11.464137 3.804231
v -10.053353 11.464137 3.804231
v 10.053353 11.464137 3.804231
vn -0.0000 -0.0000 -1.0000
vn -0.0000 -0.0000 1.0000
vn 1.0000 -0.0000 -0.0000
vn -1.0000 -0.0000 -0.0000
vn -0.0000 1.0000 -0.0000
vn -0.0000 -1.0000 -0.0000
vt 0.000000 1.000000
vt 1.000000 0.000000
vt 0.000000 0.000000
vt 1.000000 1.000000
s 0
f 19/9/13 18/10/13 17/11/13
f 22/10/14 23/9/14 21/11/14
f 20/12/15 22/10/15 18/10/15
f 17/11/16 23/9/16 19/9/16
f 19/9/17 24/12/17 20/12/17
f 18/10/18 21/11/18 17/11/18
f 19/9/13 20/12/13 18/10/13
f 22/10/14 24/12/14 23/9/14
f 20/12/15 24/12/15 22/10/15
f 17/11/16 21/11/16 23/9/16
f 19/9/17 23/9/17 24/12/17
f 18/10/18 22/10/18 21/11/18
